<?xml version="1.0" encoding="utf-8" standalone="no"?>
<!DOCTYPE svg PUBLIC "-//W3C//DTD SVG 1.1//EN"
  "http://www.w3.org/Graphics/SVG/1.1/DTD/svg11.dtd">
<!-- Created with matplotlib (https://matplotlib.org/) -->
<svg height="345.6pt" version="1.1" viewBox="0 0 446.4 345.6" width="446.4pt" xmlns="http://www.w3.org/2000/svg" xmlns:xlink="http://www.w3.org/1999/xlink">
 <defs>
  <style type="text/css">
*{stroke-linecap:butt;stroke-linejoin:round;}
  </style>
 </defs>
 <g id="figure_1">
  <g id="patch_1">
   <path d="M 0 345.6 
L 446.4 345.6 
L 446.4 0 
L 0 0 
z
" style="fill:none;"/>
  </g>
  <g id="axes_1">
   <g id="patch_2">
    <path d="M 95.724 307.584 
L 361.836 307.584 
L 361.836 41.472 
L 95.724 41.472 
z
" style="fill:none;"/>
   </g>
   <g id="matplotlib.axis_1">
    <g id="xtick_1">
     <g id="line2d_1">
      <path clip-path="url(#p09e01d22c1)" d="M 107.82 307.584 
L 107.82 41.472 
" style="fill:none;stroke:#b0b0b0;stroke-linecap:square;stroke-width:0.8;"/>
     </g>
     <g id="line2d_2">
      <defs>
       <path d="M 0 0 
L 0 3.5 
" id="mba3d37dfde" style="stroke:#000000;stroke-width:0.8;"/>
      </defs>
      <g>
       <use style="stroke:#000000;stroke-width:0.8;" x="107.82" xlink:href="#mba3d37dfde" y="307.584"/>
      </g>
     </g>
     <g id="text_1">
      <text style="font-family:DejaVu Sans;font-size:15px;font-style:normal;font-weight:normal;text-anchor:middle;" transform="rotate(-0, 107.82, 325.981656)" x="107.82" y="325.981656">0</text>
     </g>
    </g>
    <g id="xtick_2">
     <g id="line2d_3">
      <path clip-path="url(#p09e01d22c1)" d="M 188.910512 307.584 
L 188.910512 41.472 
" style="fill:none;stroke:#b0b0b0;stroke-linecap:square;stroke-width:0.8;"/>
     </g>
     <g id="line2d_4">
      <g>
       <use style="stroke:#000000;stroke-width:0.8;" x="188.910512" xlink:href="#mba3d37dfde" y="307.584"/>
      </g>
     </g>
     <g id="text_2">
      <text style="font-family:DejaVu Sans;font-size:15px;font-style:normal;font-weight:normal;text-anchor:middle;" transform="rotate(-0, 188.910512, 325.981656)" x="188.910512" y="325.981656">10</text>
     </g>
    </g>
    <g id="xtick_3">
     <g id="line2d_5">
      <path clip-path="url(#p09e01d22c1)" d="M 270.001024 307.584 
L 270.001024 41.472 
" style="fill:none;stroke:#b0b0b0;stroke-linecap:square;stroke-width:0.8;"/>
     </g>
     <g id="line2d_6">
      <g>
       <use style="stroke:#000000;stroke-width:0.8;" x="270.001024" xlink:href="#mba3d37dfde" y="307.584"/>
      </g>
     </g>
     <g id="text_3">
      <text style="font-family:DejaVu Sans;font-size:15px;font-style:normal;font-weight:normal;text-anchor:middle;" transform="rotate(-0, 270.001024, 325.981656)" x="270.001024" y="325.981656">20</text>
     </g>
    </g>
    <g id="xtick_4">
     <g id="line2d_7">
      <path clip-path="url(#p09e01d22c1)" d="M 351.091536 307.584 
L 351.091536 41.472 
" style="fill:none;stroke:#b0b0b0;stroke-linecap:square;stroke-width:0.8;"/>
     </g>
     <g id="line2d_8">
      <g>
       <use style="stroke:#000000;stroke-width:0.8;" x="351.091536" xlink:href="#mba3d37dfde" y="307.584"/>
      </g>
     </g>
     <g id="text_4">
      <text style="font-family:DejaVu Sans;font-size:15px;font-style:normal;font-weight:normal;text-anchor:middle;" transform="rotate(-0, 351.091536, 325.981656)" x="351.091536" y="325.981656">30</text>
     </g>
    </g>
    <g id="text_5">
     <text style="font-family:DejaVu Sans;font-size:15px;font-style:normal;font-weight:normal;text-anchor:middle;" transform="rotate(-0, 228.78, 344.498844)" x="228.78" y="344.498844">Time (hrs)</text>
    </g>
   </g>
   <g id="matplotlib.axis_2">
    <g id="ytick_1">
     <g id="line2d_9">
      <path clip-path="url(#p09e01d22c1)" d="M 95.724 295.488014 
L 361.836 295.488014 
" style="fill:none;stroke:#b0b0b0;stroke-linecap:square;stroke-width:0.8;"/>
     </g>
     <g id="line2d_10">
      <defs>
       <path d="M 0 0 
L -3.5 0 
" id="me9b18e99ff" style="stroke:#000000;stroke-width:0.8;"/>
      </defs>
      <g>
       <use style="stroke:#000000;stroke-width:0.8;" x="95.724" xlink:href="#me9b18e99ff" y="295.488014"/>
      </g>
     </g>
     <g id="text_6">
      <text style="font-family:DejaVu Sans;font-size:15px;font-style:normal;font-weight:normal;text-anchor:end;" transform="rotate(-0, 88.724, 301.186842)" x="88.724" y="301.186842">0.00</text>
     </g>
    </g>
    <g id="ytick_2">
     <g id="line2d_11">
      <path clip-path="url(#p09e01d22c1)" d="M 95.724 254.409344 
L 361.836 254.409344 
" style="fill:none;stroke:#b0b0b0;stroke-linecap:square;stroke-width:0.8;"/>
     </g>
     <g id="line2d_12">
      <g>
       <use style="stroke:#000000;stroke-width:0.8;" x="95.724" xlink:href="#me9b18e99ff" y="254.409344"/>
      </g>
     </g>
     <g id="text_7">
      <text style="font-family:DejaVu Sans;font-size:15px;font-style:normal;font-weight:normal;text-anchor:end;" transform="rotate(-0, 88.724, 260.108172)" x="88.724" y="260.108172">0.25</text>
     </g>
    </g>
    <g id="ytick_3">
     <g id="line2d_13">
      <path clip-path="url(#p09e01d22c1)" d="M 95.724 213.330673 
L 361.836 213.330673 
" style="fill:none;stroke:#b0b0b0;stroke-linecap:square;stroke-width:0.8;"/>
     </g>
     <g id="line2d_14">
      <g>
       <use style="stroke:#000000;stroke-width:0.8;" x="95.724" xlink:href="#me9b18e99ff" y="213.330673"/>
      </g>
     </g>
     <g id="text_8">
      <text style="font-family:DejaVu Sans;font-size:15px;font-style:normal;font-weight:normal;text-anchor:end;" transform="rotate(-0, 88.724, 219.029501)" x="88.724" y="219.029501">0.50</text>
     </g>
    </g>
    <g id="ytick_4">
     <g id="line2d_15">
      <path clip-path="url(#p09e01d22c1)" d="M 95.724 172.252002 
L 361.836 172.252002 
" style="fill:none;stroke:#b0b0b0;stroke-linecap:square;stroke-width:0.8;"/>
     </g>
     <g id="line2d_16">
      <g>
       <use style="stroke:#000000;stroke-width:0.8;" x="95.724" xlink:href="#me9b18e99ff" y="172.252002"/>
      </g>
     </g>
     <g id="text_9">
      <text style="font-family:DejaVu Sans;font-size:15px;font-style:normal;font-weight:normal;text-anchor:end;" transform="rotate(-0, 88.724, 177.95083)" x="88.724" y="177.95083">0.75</text>
     </g>
    </g>
    <g id="ytick_5">
     <g id="line2d_17">
      <path clip-path="url(#p09e01d22c1)" d="M 95.724 131.173332 
L 361.836 131.173332 
" style="fill:none;stroke:#b0b0b0;stroke-linecap:square;stroke-width:0.8;"/>
     </g>
     <g id="line2d_18">
      <g>
       <use style="stroke:#000000;stroke-width:0.8;" x="95.724" xlink:href="#me9b18e99ff" y="131.173332"/>
      </g>
     </g>
     <g id="text_10">
      <text style="font-family:DejaVu Sans;font-size:15px;font-style:normal;font-weight:normal;text-anchor:end;" transform="rotate(-0, 88.724, 136.87216)" x="88.724" y="136.87216">1.00</text>
     </g>
    </g>
    <g id="ytick_6">
     <g id="line2d_19">
      <path clip-path="url(#p09e01d22c1)" d="M 95.724 90.094661 
L 361.836 90.094661 
" style="fill:none;stroke:#b0b0b0;stroke-linecap:square;stroke-width:0.8;"/>
     </g>
     <g id="line2d_20">
      <g>
       <use style="stroke:#000000;stroke-width:0.8;" x="95.724" xlink:href="#me9b18e99ff" y="90.094661"/>
      </g>
     </g>
     <g id="text_11">
      <text style="font-family:DejaVu Sans;font-size:15px;font-style:normal;font-weight:normal;text-anchor:end;" transform="rotate(-0, 88.724, 95.793489)" x="88.724" y="95.793489">1.25</text>
     </g>
    </g>
    <g id="ytick_7">
     <g id="line2d_21">
      <path clip-path="url(#p09e01d22c1)" d="M 95.724 49.01599 
L 361.836 49.01599 
" style="fill:none;stroke:#b0b0b0;stroke-linecap:square;stroke-width:0.8;"/>
     </g>
     <g id="line2d_22">
      <g>
       <use style="stroke:#000000;stroke-width:0.8;" x="95.724" xlink:href="#me9b18e99ff" y="49.01599"/>
      </g>
     </g>
     <g id="text_12">
      <text style="font-family:DejaVu Sans;font-size:15px;font-style:normal;font-weight:normal;text-anchor:end;" transform="rotate(-0, 88.724, 54.714818)" x="88.724" y="54.714818">1.50</text>
     </g>
    </g>
    <g id="text_13">
     <text style="font-family:DejaVu Sans;font-size:15px;font-style:normal;font-weight:normal;text-anchor:middle;" transform="rotate(-90, 48.206031, 174.528)" x="48.206031" y="174.528">Virus Level</text>
    </g>
   </g>
   <g id="line2d_23">
    <path clip-path="url(#p09e01d22c1)" d="M 107.82 295.488 
L 161.880344 295.38054 
L 168.637884 295.159948 
L 172.692409 294.847548 
L 175.395424 294.488088 
L 178.098446 293.927927 
L 180.801461 293.056497 
L 182.152972 292.454136 
L 183.504475 291.704435 
L 184.855986 290.772401 
L 186.207497 289.615297 
L 187.559001 288.181256 
L 188.910512 286.407802 
L 190.262047 284.220414 
L 191.613502 281.531311 
L 192.965037 278.238719 
L 194.316573 274.227107 
L 195.668027 269.368897 
L 197.019563 263.52843 
L 198.371099 256.568981 
L 199.722553 248.363631 
L 201.074089 238.809899 
L 202.425624 227.849699 
L 203.777079 215.489406 
L 206.48015 187.03311 
L 213.237665 109.255232 
L 214.589201 96.042195 
L 215.940655 84.483479 
L 217.292191 74.767716 
L 218.643727 66.97197 
L 219.995181 61.074881 
L 221.346717 56.980816 
L 222.698252 54.540743 
L 224.049707 53.574737 
L 225.401242 53.891371 
L 226.752778 55.300534 
L 228.104232 57.622958 
L 229.455768 60.694821 
L 230.807303 64.371362 
L 232.158758 68.526058 
L 234.861829 77.854696 
L 238.916355 93.237837 
L 247.025406 124.533047 
L 251.079931 139.243746 
L 255.134457 153.005988 
L 259.188982 165.753258 
L 263.243508 177.485474 
L 267.298034 188.238079 
L 270.001024 194.888437 
L 272.704014 201.145375 
L 275.407085 207.027841 
L 278.110075 212.555009 
L 282.1646 220.221028 
L 286.219126 227.192309 
L 290.273652 233.527905 
L 294.328177 239.283043 
L 298.382703 244.508973 
L 302.437228 249.252952 
L 306.491754 253.558341 
L 310.54628 257.465054 
L 314.600805 261.00947 
L 318.655331 264.22478 
L 322.709856 267.141217 
L 326.764382 269.786372 
L 330.818908 272.185284 
L 334.873433 274.360777 
L 338.927959 276.333523 
L 344.33402 278.680791 
L 349.74 280.740775 
L 349.74 280.740775 
" style="fill:none;stroke:#6600ff;stroke-linecap:square;stroke-opacity:0.15;stroke-width:4;"/>
   </g>
   <g id="line2d_24">
    <path clip-path="url(#p09e01d22c1)" d="M 107.82 295.488 
L 161.880344 295.38054 
L 168.637884 295.159948 
L 172.692409 294.847548 
L 175.395424 294.488088 
L 178.098446 293.927927 
L 180.801461 293.056497 
L 182.152972 292.454136 
L 183.504475 291.704435 
L 184.855986 290.772401 
L 186.207497 289.615297 
L 187.559001 288.181256 
L 188.910512 286.407802 
L 190.262047 284.220414 
L 191.613502 281.531311 
L 192.965037 278.238719 
L 194.316573 274.227107 
L 195.668027 269.368897 
L 197.019563 263.52843 
L 198.371099 256.568981 
L 199.722553 248.363631 
L 201.074089 238.809899 
L 202.425624 227.849699 
L 203.777079 215.489406 
L 206.48015 187.03311 
L 213.237665 109.255232 
L 214.589201 96.042195 
L 215.940655 84.483479 
L 217.292191 74.76788 
L 218.643727 66.97197 
L 219.995181 61.075045 
L 221.346717 56.980816 
L 222.698252 54.540907 
L 224.049707 53.574901 
L 225.401242 53.891536 
L 226.752778 55.300698 
L 228.104232 57.622958 
L 229.455768 60.694985 
L 230.807303 64.371526 
L 232.158758 68.526223 
L 234.861829 77.85486 
L 238.916355 93.238001 
L 247.025406 124.533047 
L 251.079931 139.243697 
L 255.134457 153.005988 
L 259.188982 165.753209 
L 263.243508 177.485425 
L 267.298034 188.238013 
L 270.001024 194.888354 
L 272.704014 201.145343 
L 275.407085 207.027841 
L 278.110075 212.555042 
L 282.1646 220.221045 
L 286.219126 227.192457 
L 290.273652 233.528135 
L 294.328177 239.28324 
L 298.382703 244.509137 
L 302.437228 249.25305 
L 306.491754 253.558456 
L 310.54628 257.465153 
L 314.600805 261.009569 
L 318.655331 264.224845 
L 322.709856 267.141283 
L 326.764382 269.786437 
L 330.818908 272.18535 
L 334.873433 274.360827 
L 338.927959 276.333572 
L 344.33402 278.680824 
L 349.74 280.740808 
L 349.74 280.740808 
" style="fill:none;stroke:#6600ff;stroke-linecap:square;stroke-opacity:0.15;stroke-width:4;"/>
   </g>
   <g id="line2d_25">
    <path clip-path="url(#p09e01d22c1)" d="M 107.82 295.488 
L 161.880344 295.38054 
L 168.637884 295.159948 
L 172.692409 294.847548 
L 175.395424 294.488088 
L 178.098446 293.927927 
L 180.801461 293.056497 
L 182.152972 292.454136 
L 183.504475 291.704435 
L 184.855986 290.772401 
L 186.207497 289.615297 
L 187.559001 288.181256 
L 188.910512 286.407802 
L 190.262047 284.220414 
L 191.613502 281.531311 
L 192.965037 278.238719 
L 194.316573 274.227107 
L 195.668027 269.368897 
L 197.019563 263.52843 
L 198.371099 256.568981 
L 199.722553 248.363631 
L 201.074089 238.809899 
L 202.425624 227.849699 
L 203.777079 215.489406 
L 206.48015 187.03311 
L 213.237665 109.255232 
L 214.589201 96.042195 
L 215.940655 84.483479 
L 217.292191 74.767716 
L 218.643727 66.97197 
L 219.995181 61.074881 
L 221.346717 56.980816 
L 222.698252 54.540743 
L 224.049707 53.574737 
L 225.401242 53.891371 
L 226.752778 55.300534 
L 228.104232 57.622958 
L 229.455768 60.694821 
L 230.807303 64.371362 
L 232.158758 68.526058 
L 234.861829 77.85486 
L 238.916355 93.238001 
L 247.025406 124.533047 
L 251.079931 139.243779 
L 255.134457 153.00607 
L 259.188982 165.753258 
L 263.243508 177.485376 
L 267.298034 188.237964 
L 270.001024 194.888289 
L 272.704014 201.145277 
L 275.407085 207.027792 
L 278.110075 212.555025 
L 282.1646 220.221045 
L 286.219126 227.192391 
L 290.273652 233.528086 
L 294.328177 239.283224 
L 298.382703 244.509105 
L 302.437228 249.253017 
L 306.491754 253.558456 
L 310.54628 257.465169 
L 314.600805 261.009569 
L 318.655331 264.224845 
L 322.709856 267.141283 
L 326.764382 269.786454 
L 330.818908 272.185366 
L 334.873433 274.360843 
L 338.927959 276.333605 
L 344.33402 278.680857 
L 349.74 280.740831 
L 349.74 280.740831 
" style="fill:none;stroke:#6600ff;stroke-linecap:square;stroke-opacity:0.15;stroke-width:4;"/>
   </g>
   <g id="line2d_26">
    <path clip-path="url(#p09e01d22c1)" d="M 107.82 295.488 
L 161.880344 295.38054 
L 168.637884 295.159948 
L 172.692409 294.847548 
L 175.395424 294.488088 
L 178.098446 293.927927 
L 180.801461 293.056497 
L 182.152972 292.454136 
L 183.504475 291.704435 
L 184.855986 290.772401 
L 186.207497 289.615297 
L 187.559001 288.181256 
L 188.910512 286.407802 
L 190.262047 284.220414 
L 191.613502 281.531311 
L 192.965037 278.238719 
L 194.316573 274.227107 
L 195.668027 269.368897 
L 197.019563 263.52843 
L 198.371099 256.568981 
L 199.722553 248.363631 
L 201.074089 238.809899 
L 202.425624 227.849699 
L 203.777079 215.489406 
L 206.48015 187.03311 
L 213.237665 109.255232 
L 214.589201 96.042195 
L 215.940655 84.483479 
L 217.292191 74.767716 
L 218.643727 66.97197 
L 219.995181 61.074881 
L 221.346717 56.980652 
L 222.698252 54.540579 
L 224.049707 53.574573 
L 225.401242 53.891207 
L 226.752778 55.300534 
L 228.104232 57.622793 
L 229.455768 60.694821 
L 230.807303 64.371197 
L 232.158758 68.526058 
L 234.861829 77.854696 
L 238.916355 93.237837 
L 247.025406 124.532882 
L 251.079931 139.243582 
L 255.134457 153.005939 
L 259.188982 165.753192 
L 263.243508 177.485359 
L 267.298034 188.238013 
L 270.001024 194.888354 
L 272.704014 201.145277 
L 275.407085 207.027808 
L 278.110075 212.55496 
L 282.1646 220.220979 
L 286.219126 227.192325 
L 290.273652 233.52802 
L 294.328177 239.283158 
L 298.382703 244.509039 
L 302.437228 249.252952 
L 306.491754 253.558358 
L 310.54628 257.465054 
L 314.600805 261.009454 
L 318.655331 264.224747 
L 322.709856 267.141185 
L 326.764382 269.786339 
L 330.818908 272.185267 
L 334.873433 274.360744 
L 338.927959 276.33349 
L 344.33402 278.680758 
L 349.74 280.740752 
L 349.74 280.740752 
" style="fill:none;stroke:#6600ff;stroke-linecap:square;stroke-opacity:0.15;stroke-width:4;"/>
   </g>
   <g id="line2d_27">
    <path clip-path="url(#p09e01d22c1)" d="M 107.82 295.488 
L 161.880344 295.38054 
L 168.637884 295.159948 
L 172.692409 294.847548 
L 175.395424 294.488088 
L 178.098446 293.927927 
L 180.801461 293.056497 
L 182.152972 292.454136 
L 183.504475 291.704435 
L 184.855986 290.772401 
L 186.207497 289.615297 
L 187.559001 288.181256 
L 188.910512 286.407802 
L 190.262047 284.220414 
L 191.613502 281.531311 
L 192.965037 278.238719 
L 194.316573 274.227107 
L 195.668027 269.368897 
L 197.019563 263.52843 
L 198.371099 256.568981 
L 199.722553 248.363631 
L 201.074089 238.809899 
L 202.425624 227.849699 
L 203.777079 215.489406 
L 206.48015 187.03311 
L 213.237665 109.255232 
L 214.589201 96.042195 
L 215.940655 84.483479 
L 217.292191 74.767716 
L 218.643727 66.97197 
L 219.995181 61.074881 
L 221.346717 56.980816 
L 222.698252 54.540743 
L 224.049707 53.574737 
L 225.401242 53.891371 
L 226.752778 55.300534 
L 228.104232 57.622958 
L 229.455768 60.694821 
L 230.807303 64.371362 
L 232.158758 68.526058 
L 234.861829 77.85486 
L 238.916355 93.238001 
L 247.025406 124.533047 
L 251.079931 139.243729 
L 255.134457 153.006054 
L 259.188982 165.753357 
L 263.243508 177.485441 
L 267.298034 188.23803 
L 270.001024 194.888371 
L 272.704014 201.145277 
L 275.407085 207.027808 
L 278.110075 212.555025 
L 282.1646 220.221012 
L 286.219126 227.192358 
L 290.273652 233.528004 
L 294.328177 239.283125 
L 298.382703 244.509039 
L 302.437228 249.253001 
L 306.491754 253.558391 
L 310.54628 257.465087 
L 314.600805 261.009503 
L 318.655331 264.224796 
L 322.709856 267.14125 
L 326.764382 269.786404 
L 330.818908 272.185333 
L 334.873433 274.360794 
L 338.927959 276.333556 
L 344.33402 278.680824 
L 349.74 280.740812 
L 349.74 280.740812 
" style="fill:none;stroke:#6600ff;stroke-linecap:square;stroke-opacity:0.15;stroke-width:4;"/>
   </g>
   <g id="line2d_28">
    <path clip-path="url(#p09e01d22c1)" d="M 107.82 295.488 
L 161.880344 295.38054 
L 168.637884 295.159948 
L 172.692409 294.847548 
L 175.395424 294.488088 
L 178.098446 293.927927 
L 180.801461 293.056497 
L 182.152972 292.454136 
L 183.504475 291.704435 
L 184.855986 290.772401 
L 186.207497 289.615297 
L 187.559001 288.181256 
L 188.910512 286.407802 
L 190.262047 284.220414 
L 191.613502 281.531311 
L 192.965037 278.238719 
L 194.316573 274.227107 
L 195.668027 269.368897 
L 197.019563 263.52843 
L 198.371099 256.568981 
L 199.722553 248.363631 
L 201.074089 238.809899 
L 202.425624 227.849699 
L 203.777079 215.489406 
L 206.48015 187.03311 
L 213.237665 109.255232 
L 214.589201 96.042195 
L 215.940655 84.483479 
L 217.292191 74.767716 
L 218.643727 66.97197 
L 219.995181 61.074881 
L 221.346717 56.980816 
L 222.698252 54.540743 
L 224.049707 53.574737 
L 225.401242 53.891371 
L 226.752778 55.300698 
L 228.104232 57.622958 
L 229.455768 60.694985 
L 230.807303 64.371526 
L 232.158758 68.526223 
L 234.861829 77.855025 
L 238.916355 93.238165 
L 247.025406 124.533211 
L 251.079931 139.243943 
L 255.134457 153.006284 
L 259.188982 165.753504 
L 263.243508 177.485606 
L 267.298034 188.238178 
L 270.001024 194.888519 
L 272.704014 201.145474 
L 275.407085 207.027956 
L 278.110075 212.555124 
L 282.1646 220.221143 
L 286.219126 227.192473 
L 290.273652 233.528119 
L 294.328177 239.283224 
L 298.382703 244.509072 
L 302.437228 249.253001 
L 306.491754 253.558407 
L 310.54628 257.465137 
L 314.600805 261.009536 
L 318.655331 264.224796 
L 322.709856 267.141234 
L 326.764382 269.786388 
L 330.818908 272.1853 
L 334.873433 274.360777 
L 338.927959 276.333556 
L 344.33402 278.680808 
L 349.74 280.740803 
L 349.74 280.740803 
" style="fill:none;stroke:#6600ff;stroke-linecap:square;stroke-opacity:0.15;stroke-width:4;"/>
   </g>
   <g id="line2d_29">
    <path clip-path="url(#p09e01d22c1)" d="M 107.82 295.488 
L 161.880344 295.38054 
L 168.637884 295.159948 
L 172.692409 294.847548 
L 175.395424 294.488088 
L 178.098446 293.927927 
L 180.801461 293.056497 
L 182.152972 292.454136 
L 183.504475 291.704435 
L 184.855986 290.772401 
L 186.207497 289.615297 
L 187.559001 288.181256 
L 188.910512 286.407802 
L 190.262047 284.220414 
L 191.613502 281.531311 
L 192.965037 278.238719 
L 194.316573 274.227107 
L 195.668027 269.368897 
L 197.019563 263.52843 
L 198.371099 256.568981 
L 199.722553 248.363631 
L 201.074089 238.809899 
L 202.425624 227.849699 
L 203.777079 215.489406 
L 206.48015 187.03311 
L 213.237665 109.255232 
L 214.589201 96.042195 
L 215.940655 84.483479 
L 217.292191 74.767716 
L 218.643727 66.97197 
L 219.995181 61.074881 
L 221.346717 56.980652 
L 222.698252 54.540579 
L 224.049707 53.574573 
L 225.401242 53.891371 
L 226.752778 55.300534 
L 228.104232 57.622958 
L 229.455768 60.694821 
L 230.807303 64.371362 
L 232.158758 68.526058 
L 234.861829 77.85486 
L 238.916355 93.238165 
L 247.025406 124.533375 
L 251.079931 139.243992 
L 255.134457 153.006218 
L 259.188982 165.753472 
L 263.243508 177.48554 
L 267.298034 188.238227 
L 270.001024 194.888535 
L 272.704014 201.145507 
L 275.407085 207.027923 
L 278.110075 212.555157 
L 282.1646 220.221143 
L 286.219126 227.19249 
L 290.273652 233.528135 
L 294.328177 239.283323 
L 298.382703 244.509187 
L 302.437228 249.253067 
L 306.491754 253.558456 
L 310.54628 257.465169 
L 314.600805 261.009552 
L 318.655331 264.224862 
L 322.709856 267.1413 
L 326.764382 269.786437 
L 330.818908 272.18535 
L 334.873433 274.360827 
L 338.927959 276.333589 
L 344.33402 278.68084 
L 349.74 280.740835 
L 349.74 280.740835 
" style="fill:none;stroke:#6600ff;stroke-linecap:square;stroke-opacity:0.15;stroke-width:4;"/>
   </g>
   <g id="line2d_30">
    <path clip-path="url(#p09e01d22c1)" d="M 107.82 295.488 
L 161.880344 295.38054 
L 168.637884 295.159948 
L 172.692409 294.847548 
L 175.395424 294.488088 
L 178.098446 293.927927 
L 180.801461 293.056497 
L 182.152972 292.454136 
L 183.504475 291.704435 
L 184.855986 290.772401 
L 186.207497 289.615297 
L 187.559001 288.181256 
L 188.910512 286.407802 
L 190.262047 284.220414 
L 191.613502 281.531311 
L 192.965037 278.238719 
L 194.316573 274.227107 
L 195.668027 269.368897 
L 197.019563 263.52843 
L 198.371099 256.568981 
L 199.722553 248.363631 
L 201.074089 238.809899 
L 202.425624 227.849699 
L 203.777079 215.489406 
L 206.48015 187.03311 
L 213.237665 109.255232 
L 214.589201 96.042195 
L 215.940655 84.483479 
L 217.292191 74.76788 
L 218.643727 66.972135 
L 219.995181 61.075045 
L 221.346717 56.980816 
L 222.698252 54.540743 
L 224.049707 53.574737 
L 225.401242 53.891371 
L 226.752778 55.300698 
L 228.104232 57.622958 
L 229.455768 60.694985 
L 230.807303 64.371526 
L 232.158758 68.526223 
L 234.861829 77.855025 
L 238.916355 93.238001 
L 247.025406 124.533211 
L 251.079931 139.243762 
L 255.134457 153.00607 
L 259.188982 165.753389 
L 263.243508 177.485474 
L 267.298034 188.23803 
L 270.001024 194.888387 
L 272.704014 201.145293 
L 275.407085 207.027759 
L 278.110075 212.554976 
L 282.1646 220.220979 
L 286.219126 227.192358 
L 290.273652 233.528053 
L 294.328177 239.283224 
L 298.382703 244.509121 
L 302.437228 249.253017 
L 306.491754 253.558456 
L 310.54628 257.465169 
L 314.600805 261.009569 
L 318.655331 264.224862 
L 322.709856 267.1413 
L 326.764382 269.786437 
L 330.818908 272.18535 
L 334.873433 274.36086 
L 338.927959 276.333605 
L 344.33402 278.680857 
L 349.74 280.740847 
L 349.74 280.740847 
" style="fill:none;stroke:#6600ff;stroke-linecap:square;stroke-opacity:0.15;stroke-width:4;"/>
   </g>
   <g id="line2d_31">
    <path clip-path="url(#p09e01d22c1)" d="M 107.82 295.488 
L 161.880344 295.38054 
L 168.637884 295.159948 
L 172.692409 294.847548 
L 175.395424 294.488088 
L 178.098446 293.927927 
L 180.801461 293.056497 
L 182.152972 292.454136 
L 183.504475 291.704435 
L 184.855986 290.772401 
L 186.207497 289.615297 
L 187.559001 288.181256 
L 188.910512 286.407802 
L 190.262047 284.220414 
L 191.613502 281.531311 
L 192.965037 278.238719 
L 194.316573 274.227107 
L 195.668027 269.368897 
L 197.019563 263.52843 
L 198.371099 256.568981 
L 199.722553 248.363631 
L 201.074089 238.809899 
L 202.425624 227.849699 
L 203.777079 215.489406 
L 206.48015 187.03311 
L 213.237665 109.255232 
L 214.589201 96.042195 
L 215.940655 84.483479 
L 217.292191 74.76788 
L 218.643727 66.97197 
L 219.995181 61.074881 
L 221.346717 56.980816 
L 222.698252 54.540743 
L 224.049707 53.574737 
L 225.401242 53.891371 
L 226.752778 55.300534 
L 228.104232 57.622958 
L 229.455768 60.694985 
L 230.807303 64.371362 
L 232.158758 68.526058 
L 234.861829 77.85486 
L 238.916355 93.238001 
L 247.025406 124.533047 
L 251.079931 139.243795 
L 255.134457 153.006086 
L 259.188982 165.753291 
L 263.243508 177.485376 
L 267.298034 188.238013 
L 270.001024 194.888322 
L 272.704014 201.145244 
L 275.407085 207.027726 
L 278.110075 212.55491 
L 282.1646 220.220913 
L 286.219126 227.192227 
L 290.273652 233.527889 
L 294.328177 239.28306 
L 298.382703 244.508973 
L 302.437228 249.252869 
L 306.491754 253.558292 
L 310.54628 257.465005 
L 314.600805 261.009421 
L 318.655331 264.224747 
L 322.709856 267.141201 
L 326.764382 269.786355 
L 330.818908 272.185267 
L 334.873433 274.360744 
L 338.927959 276.333507 
L 344.33402 278.680775 
L 349.74 280.740762 
L 349.74 280.740762 
" style="fill:none;stroke:#6600ff;stroke-linecap:square;stroke-opacity:0.15;stroke-width:4;"/>
   </g>
   <g id="line2d_32">
    <path clip-path="url(#p09e01d22c1)" d="M 107.82 295.488 
L 161.880344 295.38054 
L 168.637884 295.159948 
L 172.692409 294.847548 
L 175.395424 294.488088 
L 178.098446 293.927927 
L 180.801461 293.056497 
L 182.152972 292.454136 
L 183.504475 291.704435 
L 184.855986 290.772401 
L 186.207497 289.615297 
L 187.559001 288.181256 
L 188.910512 286.407802 
L 190.262047 284.220414 
L 191.613502 281.531311 
L 192.965037 278.238719 
L 194.316573 274.227107 
L 195.668027 269.368897 
L 197.019563 263.52843 
L 198.371099 256.568981 
L 199.722553 248.363631 
L 201.074089 238.809899 
L 202.425624 227.849699 
L 203.777079 215.489406 
L 206.48015 187.03311 
L 213.237665 109.255232 
L 214.589201 96.042195 
L 215.940655 84.483479 
L 217.292191 74.767716 
L 218.643727 66.97197 
L 219.995181 61.074881 
L 221.346717 56.980816 
L 222.698252 54.540743 
L 224.049707 53.574737 
L 225.401242 53.891371 
L 226.752778 55.300534 
L 228.104232 57.622958 
L 229.455768 60.694821 
L 230.807303 64.371362 
L 232.158758 68.526058 
L 234.861829 77.855025 
L 238.916355 93.238165 
L 247.025406 124.533211 
L 251.079931 139.243729 
L 255.134457 153.006037 
L 259.188982 165.753373 
L 263.243508 177.485425 
L 267.298034 188.237964 
L 270.001024 194.888289 
L 272.704014 201.145244 
L 275.407085 207.027759 
L 278.110075 212.554943 
L 282.1646 220.220963 
L 286.219126 227.192325 
L 290.273652 233.527987 
L 294.328177 239.283125 
L 298.382703 244.509039 
L 302.437228 249.252952 
L 306.491754 253.558325 
L 310.54628 257.465005 
L 314.600805 261.009404 
L 318.655331 264.224714 
L 322.709856 267.141168 
L 326.764382 269.786306 
L 330.818908 272.185235 
L 334.873433 274.360744 
L 338.927959 276.333507 
L 344.33402 278.680758 
L 349.74 280.740745 
L 349.74 280.740745 
" style="fill:none;stroke:#6600ff;stroke-linecap:square;stroke-opacity:0.15;stroke-width:4;"/>
   </g>
   <g id="line2d_33">
    <path clip-path="url(#p09e01d22c1)" d="M 107.82 295.488 
L 161.880344 295.38054 
L 168.637884 295.159948 
L 172.692409 294.847548 
L 175.395424 294.488088 
L 178.098446 293.927927 
L 180.801461 293.056497 
L 182.152972 292.454136 
L 183.504475 291.704435 
L 184.855986 290.772401 
L 186.207497 289.615297 
L 187.559001 288.181256 
L 188.910512 286.407802 
L 190.262047 284.220414 
L 191.613502 281.531311 
L 192.965037 278.238719 
L 194.316573 274.227107 
L 195.668027 269.368897 
L 197.019563 263.52843 
L 198.371099 256.568981 
L 199.722553 248.363631 
L 201.074089 238.809899 
L 202.425624 227.849699 
L 203.777079 215.489406 
L 206.48015 187.03311 
L 213.237665 109.255232 
L 214.589201 96.042195 
L 215.940655 84.483479 
L 217.292191 74.76788 
L 218.643727 66.972135 
L 219.995181 61.075045 
L 221.346717 56.980816 
L 222.698252 54.540907 
L 224.049707 53.574737 
L 225.401242 53.891371 
L 226.752778 55.300698 
L 228.104232 57.623122 
L 229.455768 60.694985 
L 230.807303 64.371526 
L 232.158758 68.526058 
L 234.861829 77.85486 
L 238.916355 93.238165 
L 247.025406 124.533211 
L 251.079931 139.243927 
L 255.134457 153.006267 
L 259.188982 165.753488 
L 263.243508 177.485556 
L 267.298034 188.238079 
L 270.001024 194.888453 
L 272.704014 201.145408 
L 275.407085 207.02789 
L 278.110075 212.555075 
L 282.1646 220.221127 
L 286.219126 227.19244 
L 290.273652 233.528119 
L 294.328177 239.283339 
L 298.382703 244.509203 
L 302.437228 249.2531 
L 306.491754 253.558506 
L 310.54628 257.465202 
L 314.600805 261.009585 
L 318.655331 264.224862 
L 322.709856 267.1413 
L 326.764382 269.786437 
L 330.818908 272.18535 
L 334.873433 274.360843 
L 338.927959 276.333589 
L 344.33402 278.68084 
L 349.74 280.740827 
L 349.74 280.740827 
" style="fill:none;stroke:#6600ff;stroke-linecap:square;stroke-opacity:0.15;stroke-width:4;"/>
   </g>
   <g id="line2d_34">
    <path clip-path="url(#p09e01d22c1)" d="M 107.82 295.488 
L 161.880344 295.38054 
L 168.637884 295.159948 
L 172.692409 294.847548 
L 175.395424 294.488088 
L 178.098446 293.927927 
L 180.801461 293.056497 
L 182.152972 292.454136 
L 183.504475 291.704435 
L 184.855986 290.772401 
L 186.207497 289.615297 
L 187.559001 288.181256 
L 188.910512 286.407802 
L 190.262047 284.220414 
L 191.613502 281.531311 
L 192.965037 278.238719 
L 194.316573 274.227107 
L 195.668027 269.368897 
L 197.019563 263.52843 
L 198.371099 256.568981 
L 199.722553 248.363631 
L 201.074089 238.809899 
L 202.425624 227.849699 
L 203.777079 215.489406 
L 206.48015 187.03311 
L 213.237665 109.255232 
L 214.589201 96.042195 
L 215.940655 84.483479 
L 217.292191 74.767716 
L 218.643727 66.97197 
L 219.995181 61.074881 
L 221.346717 56.980816 
L 222.698252 54.540743 
L 224.049707 53.574573 
L 225.401242 53.891371 
L 226.752778 55.300534 
L 228.104232 57.622958 
L 229.455768 60.694821 
L 230.807303 64.371362 
L 232.158758 68.526058 
L 234.861829 77.85486 
L 238.916355 93.238001 
L 247.025406 124.533047 
L 251.079931 139.243795 
L 255.134457 153.006152 
L 259.188982 165.753373 
L 263.243508 177.485491 
L 267.298034 188.238145 
L 270.001024 194.888404 
L 272.704014 201.145359 
L 275.407085 207.027874 
L 278.110075 212.555091 
L 282.1646 220.221127 
L 286.219126 227.192424 
L 290.273652 233.528053 
L 294.328177 239.283158 
L 298.382703 244.509072 
L 302.437228 249.252968 
L 306.491754 253.558391 
L 310.54628 257.465087 
L 314.600805 261.009503 
L 318.655331 264.224796 
L 322.709856 267.141234 
L 326.764382 269.786372 
L 330.818908 272.185284 
L 334.873433 274.360794 
L 338.927959 276.333539 
L 344.33402 278.680808 
L 349.74 280.740766 
L 349.74 280.740766 
" style="fill:none;stroke:#6600ff;stroke-linecap:square;stroke-opacity:0.15;stroke-width:4;"/>
   </g>
   <g id="line2d_35">
    <path clip-path="url(#p09e01d22c1)" d="M 107.82 295.488 
L 161.880344 295.38054 
L 168.637884 295.159948 
L 172.692409 294.847548 
L 175.395424 294.488088 
L 178.098446 293.927927 
L 180.801461 293.056497 
L 182.152972 292.454136 
L 183.504475 291.704435 
L 184.855986 290.772401 
L 186.207497 289.615297 
L 187.559001 288.181256 
L 188.910512 286.407802 
L 190.262047 284.220414 
L 191.613502 281.531311 
L 192.965037 278.238719 
L 194.316573 274.227107 
L 195.668027 269.368897 
L 197.019563 263.52843 
L 198.371099 256.568981 
L 199.722553 248.363631 
L 201.074089 238.809899 
L 202.425624 227.849699 
L 203.777079 215.489406 
L 206.48015 187.03311 
L 213.237665 109.255232 
L 214.589201 96.042195 
L 215.940655 84.483643 
L 217.292191 74.76788 
L 218.643727 66.97197 
L 219.995181 61.074881 
L 221.346717 56.980816 
L 222.698252 54.540743 
L 224.049707 53.574573 
L 225.401242 53.891207 
L 226.752778 55.300534 
L 228.104232 57.622793 
L 229.455768 60.694821 
L 230.807303 64.371362 
L 232.158758 68.526058 
L 234.861829 77.854696 
L 238.916355 93.238001 
L 247.025406 124.533047 
L 251.079931 139.243828 
L 255.134457 153.006103 
L 259.188982 165.753373 
L 263.243508 177.485556 
L 267.298034 188.238145 
L 270.001024 194.888535 
L 272.704014 201.145474 
L 275.407085 207.028005 
L 278.110075 212.555124 
L 282.1646 220.221143 
L 286.219126 227.192506 
L 290.273652 233.528135 
L 294.328177 239.283257 
L 298.382703 244.509137 
L 302.437228 249.253034 
L 306.491754 253.55844 
L 310.54628 257.465137 
L 314.600805 261.009536 
L 318.655331 264.224813 
L 322.709856 267.141267 
L 326.764382 269.786421 
L 330.818908 272.185333 
L 334.873433 274.360827 
L 338.927959 276.333589 
L 344.33402 278.68084 
L 349.74 280.740829 
L 349.74 280.740829 
" style="fill:none;stroke:#6600ff;stroke-linecap:square;stroke-opacity:0.15;stroke-width:4;"/>
   </g>
   <g id="line2d_36">
    <path clip-path="url(#p09e01d22c1)" d="M 107.82 295.488 
L 161.880344 295.38054 
L 168.637884 295.159948 
L 172.692409 294.847548 
L 175.395424 294.488088 
L 178.098446 293.927927 
L 180.801461 293.056497 
L 182.152972 292.454136 
L 183.504475 291.704435 
L 184.855986 290.772401 
L 186.207497 289.615297 
L 187.559001 288.181256 
L 188.910512 286.407802 
L 190.262047 284.220414 
L 191.613502 281.531311 
L 192.965037 278.238719 
L 194.316573 274.227107 
L 195.668027 269.368897 
L 197.019563 263.52843 
L 198.371099 256.568981 
L 199.722553 248.363631 
L 201.074089 238.809899 
L 202.425624 227.849699 
L 203.777079 215.489406 
L 206.48015 187.03311 
L 213.237665 109.255232 
L 214.589201 96.042195 
L 215.940655 84.483479 
L 217.292191 74.76788 
L 218.643727 66.97197 
L 219.995181 61.075045 
L 221.346717 56.980816 
L 222.698252 54.540743 
L 224.049707 53.574737 
L 225.401242 53.891371 
L 226.752778 55.300534 
L 228.104232 57.622958 
L 229.455768 60.694821 
L 230.807303 64.371362 
L 232.158758 68.526058 
L 234.861829 77.85486 
L 238.916355 93.238001 
L 247.025406 124.533047 
L 251.079931 139.243779 
L 255.134457 153.006136 
L 259.188982 165.753389 
L 263.243508 177.485507 
L 267.298034 188.238128 
L 270.001024 194.888519 
L 272.704014 201.145523 
L 275.407085 207.027989 
L 278.110075 212.555173 
L 282.1646 220.221143 
L 286.219126 227.192539 
L 290.273652 233.528201 
L 294.328177 239.283339 
L 298.382703 244.509187 
L 302.437228 249.253132 
L 306.491754 253.558555 
L 310.54628 257.465219 
L 314.600805 261.009634 
L 318.655331 264.224944 
L 322.709856 267.141382 
L 326.764382 269.786503 
L 330.818908 272.185415 
L 334.873433 274.360876 
L 338.927959 276.333622 
L 344.33402 278.680873 
L 349.74 280.740859 
L 349.74 280.740859 
" style="fill:none;stroke:#6600ff;stroke-linecap:square;stroke-opacity:0.15;stroke-width:4;"/>
   </g>
   <g id="line2d_37">
    <path clip-path="url(#p09e01d22c1)" d="M 107.82 295.488 
L 161.880344 295.38054 
L 168.637884 295.159948 
L 172.692409 294.847548 
L 175.395424 294.488088 
L 178.098446 293.927927 
L 180.801461 293.056497 
L 182.152972 292.454136 
L 183.504475 291.704435 
L 184.855986 290.772401 
L 186.207497 289.615297 
L 187.559001 288.181256 
L 188.910512 286.407802 
L 190.262047 284.220414 
L 191.613502 281.531311 
L 192.965037 278.238719 
L 194.316573 274.227107 
L 195.668027 269.368897 
L 197.019563 263.52843 
L 198.371099 256.568981 
L 199.722553 248.363631 
L 201.074089 238.809899 
L 202.425624 227.849699 
L 203.777079 215.489406 
L 206.48015 187.03311 
L 213.237665 109.255232 
L 214.589201 96.042195 
L 215.940655 84.483479 
L 217.292191 74.767716 
L 218.643727 66.97197 
L 219.995181 61.075045 
L 221.346717 56.980816 
L 222.698252 54.540743 
L 224.049707 53.574737 
L 225.401242 53.891371 
L 226.752778 55.300698 
L 228.104232 57.623122 
L 229.455768 60.694985 
L 230.807303 64.371526 
L 232.158758 68.526223 
L 234.861829 77.855025 
L 238.916355 93.238165 
L 247.025406 124.533047 
L 251.079931 139.243779 
L 255.134457 153.00607 
L 259.188982 165.753209 
L 263.243508 177.485326 
L 267.298034 188.237915 
L 270.001024 194.888256 
L 272.704014 201.145195 
L 275.407085 207.027693 
L 278.110075 212.554927 
L 282.1646 220.220913 
L 286.219126 227.192325 
L 290.273652 233.527971 
L 294.328177 239.283125 
L 298.382703 244.509039 
L 302.437228 249.252968 
L 306.491754 253.558358 
L 310.54628 257.465087 
L 314.600805 261.009486 
L 318.655331 264.224813 
L 322.709856 267.14125 
L 326.764382 269.786404 
L 330.818908 272.185317 
L 334.873433 274.36081 
L 338.927959 276.333556 
L 344.33402 278.680808 
L 349.74 280.740799 
L 349.74 280.740799 
" style="fill:none;stroke:#6600ff;stroke-linecap:square;stroke-opacity:0.15;stroke-width:4;"/>
   </g>
   <g id="line2d_38">
    <path clip-path="url(#p09e01d22c1)" d="M 107.82 295.488 
L 161.880344 295.38054 
L 168.637884 295.159948 
L 172.692409 294.847548 
L 175.395424 294.488088 
L 178.098446 293.927927 
L 180.801461 293.056497 
L 182.152972 292.454136 
L 183.504475 291.704435 
L 184.855986 290.772401 
L 186.207497 289.615297 
L 187.559001 288.181256 
L 188.910512 286.407802 
L 190.262047 284.220414 
L 191.613502 281.531311 
L 192.965037 278.238719 
L 194.316573 274.227107 
L 195.668027 269.368897 
L 197.019563 263.52843 
L 198.371099 256.568981 
L 199.722553 248.363631 
L 201.074089 238.809899 
L 202.425624 227.849699 
L 203.777079 215.489406 
L 206.48015 187.033094 
L 213.237665 109.255232 
L 214.589201 96.042195 
L 215.940655 84.483479 
L 217.292191 74.76788 
L 218.643727 66.972135 
L 219.995181 61.075045 
L 221.346717 56.980816 
L 222.698252 54.540743 
L 224.049707 53.574737 
L 225.401242 53.891371 
L 226.752778 55.300698 
L 228.104232 57.623122 
L 229.455768 60.694985 
L 230.807303 64.371526 
L 232.158758 68.526223 
L 234.861829 77.855025 
L 238.916355 93.238165 
L 247.025406 124.533047 
L 251.079931 139.243746 
L 255.134457 153.005955 
L 259.188982 165.753192 
L 263.243508 177.48531 
L 267.298034 188.237898 
L 270.001024 194.888289 
L 272.704014 201.145178 
L 275.407085 207.027693 
L 278.110075 212.554878 
L 282.1646 220.220897 
L 286.219126 227.192227 
L 290.273652 233.527921 
L 294.328177 239.283109 
L 298.382703 244.509039 
L 302.437228 249.252952 
L 306.491754 253.558358 
L 310.54628 257.465071 
L 314.600805 261.00947 
L 318.655331 264.22478 
L 322.709856 267.141217 
L 326.764382 269.786372 
L 330.818908 272.1853 
L 334.873433 274.360777 
L 338.927959 276.333539 
L 344.33402 278.680808 
L 349.74 280.740776 
L 349.74 280.740776 
" style="fill:none;stroke:#6600ff;stroke-linecap:square;stroke-opacity:0.15;stroke-width:4;"/>
   </g>
   <g id="line2d_39">
    <path clip-path="url(#p09e01d22c1)" d="M 107.82 295.488 
L 161.880344 295.38054 
L 168.637884 295.159948 
L 172.692409 294.847548 
L 175.395424 294.488088 
L 178.098446 293.927927 
L 180.801461 293.056497 
L 182.152972 292.454136 
L 183.504475 291.704435 
L 184.855986 290.772401 
L 186.207497 289.615297 
L 187.559001 288.181256 
L 188.910512 286.407802 
L 190.262047 284.220414 
L 191.613502 281.531311 
L 192.965037 278.238719 
L 194.316573 274.227107 
L 195.668027 269.368897 
L 197.019563 263.52843 
L 198.371099 256.568981 
L 199.722553 248.363631 
L 201.074089 238.809899 
L 202.425624 227.849699 
L 203.777079 215.489406 
L 206.48015 187.03311 
L 213.237665 109.255232 
L 214.589201 96.042195 
L 215.940655 84.483479 
L 217.292191 74.767716 
L 218.643727 66.97197 
L 219.995181 61.074881 
L 221.346717 56.980652 
L 222.698252 54.540743 
L 224.049707 53.574573 
L 225.401242 53.891207 
L 226.752778 55.300534 
L 228.104232 57.622958 
L 229.455768 60.694821 
L 230.807303 64.371362 
L 232.158758 68.526058 
L 234.861829 77.854696 
L 238.916355 93.238001 
L 247.025406 124.533047 
L 251.079931 139.243779 
L 255.134457 153.006054 
L 259.188982 165.753307 
L 263.243508 177.485392 
L 267.298034 188.238063 
L 270.001024 194.88842 
L 272.704014 201.145408 
L 275.407085 207.02789 
L 278.110075 212.555058 
L 282.1646 220.221094 
L 286.219126 227.19244 
L 290.273652 233.528086 
L 294.328177 239.283257 
L 298.382703 244.509105 
L 302.437228 249.253001 
L 306.491754 253.558407 
L 310.54628 257.465137 
L 314.600805 261.009536 
L 318.655331 264.224813 
L 322.709856 267.14125 
L 326.764382 269.786388 
L 330.818908 272.185317 
L 334.873433 274.36081 
L 338.927959 276.333556 
L 344.33402 278.680808 
L 349.74 280.740799 
L 349.74 280.740799 
" style="fill:none;stroke:#6600ff;stroke-linecap:square;stroke-opacity:0.15;stroke-width:4;"/>
   </g>
   <g id="line2d_40">
    <path clip-path="url(#p09e01d22c1)" d="M 107.82 295.488 
L 161.880344 295.38054 
L 168.637884 295.159948 
L 172.692409 294.847548 
L 175.395424 294.488088 
L 178.098446 293.927927 
L 180.801461 293.056497 
L 182.152972 292.454136 
L 183.504475 291.704435 
L 184.855986 290.772401 
L 186.207497 289.615297 
L 187.559001 288.181256 
L 188.910512 286.407802 
L 190.262047 284.220414 
L 191.613502 281.531311 
L 192.965037 278.238719 
L 194.316573 274.227107 
L 195.668027 269.368897 
L 197.019563 263.52843 
L 198.371099 256.568981 
L 199.722553 248.363631 
L 201.074089 238.809899 
L 202.425624 227.849699 
L 203.777079 215.489406 
L 206.48015 187.03311 
L 213.237665 109.255232 
L 214.589201 96.042195 
L 215.940655 84.483479 
L 217.292191 74.767716 
L 218.643727 66.97197 
L 219.995181 61.074881 
L 221.346717 56.980816 
L 222.698252 54.540743 
L 224.049707 53.574737 
L 225.401242 53.891371 
L 226.752778 55.300534 
L 228.104232 57.622958 
L 229.455768 60.694821 
L 230.807303 64.371362 
L 232.158758 68.526058 
L 234.861829 77.85486 
L 238.916355 93.238001 
L 247.025406 124.533211 
L 251.079931 139.243894 
L 255.134457 153.006152 
L 259.188982 165.753324 
L 263.243508 177.485491 
L 267.298034 188.238079 
L 270.001024 194.888387 
L 272.704014 201.145375 
L 275.407085 207.027874 
L 278.110075 212.555075 
L 282.1646 220.221127 
L 286.219126 227.192457 
L 290.273652 233.528119 
L 294.328177 239.283257 
L 298.382703 244.509137 
L 302.437228 249.25305 
L 306.491754 253.558456 
L 310.54628 257.465153 
L 314.600805 261.009552 
L 318.655331 264.224813 
L 322.709856 267.141267 
L 326.764382 269.786421 
L 330.818908 272.18535 
L 334.873433 274.360827 
L 338.927959 276.333589 
L 344.33402 278.68084 
L 349.74 280.740822 
L 349.74 280.740822 
" style="fill:none;stroke:#6600ff;stroke-linecap:square;stroke-opacity:0.15;stroke-width:4;"/>
   </g>
   <g id="line2d_41">
    <path clip-path="url(#p09e01d22c1)" d="M 107.82 295.488 
L 161.880344 295.38054 
L 168.637884 295.159948 
L 172.692409 294.847548 
L 175.395424 294.488088 
L 178.098446 293.927927 
L 180.801461 293.056497 
L 182.152972 292.454136 
L 183.504475 291.704435 
L 184.855986 290.772401 
L 186.207497 289.615297 
L 187.559001 288.181256 
L 188.910512 286.407802 
L 190.262047 284.220414 
L 191.613502 281.531311 
L 192.965037 278.238719 
L 194.316573 274.227107 
L 195.668027 269.368897 
L 197.019563 263.52843 
L 198.371099 256.568981 
L 199.722553 248.363631 
L 201.074089 238.809899 
L 202.425624 227.849699 
L 203.777079 215.489406 
L 206.48015 187.03311 
L 213.237665 109.255232 
L 214.589201 96.042195 
L 215.940655 84.483479 
L 217.292191 74.76788 
L 218.643727 66.97197 
L 219.995181 61.075045 
L 221.346717 56.980816 
L 222.698252 54.540743 
L 224.049707 53.574737 
L 225.401242 53.891371 
L 226.752778 55.300698 
L 228.104232 57.622958 
L 229.455768 60.694985 
L 230.807303 64.371362 
L 232.158758 68.526223 
L 234.861829 77.85486 
L 238.916355 93.238001 
L 247.025406 124.533047 
L 251.079931 139.243779 
L 255.134457 153.006136 
L 259.188982 165.753307 
L 263.243508 177.485523 
L 267.298034 188.238096 
L 270.001024 194.888469 
L 272.704014 201.145392 
L 275.407085 207.027907 
L 278.110075 212.555075 
L 282.1646 220.221061 
L 286.219126 227.192391 
L 290.273652 233.528037 
L 294.328177 239.283158 
L 298.382703 244.509039 
L 302.437228 249.252952 
L 306.491754 253.558341 
L 310.54628 257.465038 
L 314.600805 261.009454 
L 318.655331 264.224747 
L 322.709856 267.141185 
L 326.764382 269.786339 
L 330.818908 272.185267 
L 334.873433 274.360744 
L 338.927959 276.333507 
L 344.33402 278.680775 
L 349.74 280.740758 
L 349.74 280.740758 
" style="fill:none;stroke:#6600ff;stroke-linecap:square;stroke-opacity:0.15;stroke-width:4;"/>
   </g>
   <g id="line2d_42">
    <path clip-path="url(#p09e01d22c1)" d="M 107.82 295.488 
L 161.880344 295.38054 
L 168.637884 295.159948 
L 172.692409 294.847548 
L 175.395424 294.488088 
L 178.098446 293.927927 
L 180.801461 293.056497 
L 182.152972 292.454136 
L 183.504475 291.704435 
L 184.855986 290.772401 
L 186.207497 289.615297 
L 187.559001 288.181256 
L 188.910512 286.407802 
L 190.262047 284.220414 
L 191.613502 281.531311 
L 192.965037 278.238719 
L 194.316573 274.227107 
L 195.668027 269.368897 
L 197.019563 263.52843 
L 198.371099 256.568981 
L 199.722553 248.363631 
L 201.074089 238.809899 
L 202.425624 227.849699 
L 203.777079 215.489406 
L 206.48015 187.03311 
L 213.237665 109.255232 
L 214.589201 96.042195 
L 215.940655 84.483479 
L 217.292191 74.76788 
L 218.643727 66.972135 
L 219.995181 61.075045 
L 221.346717 56.980816 
L 222.698252 54.540907 
L 224.049707 53.574901 
L 225.401242 53.891536 
L 226.752778 55.300698 
L 228.104232 57.623122 
L 229.455768 60.694985 
L 230.807303 64.371526 
L 232.158758 68.526223 
L 234.861829 77.855025 
L 238.916355 93.238165 
L 247.025406 124.533375 
L 251.079931 139.244173 
L 255.134457 153.006399 
L 259.188982 165.75357 
L 263.243508 177.485639 
L 267.298034 188.238227 
L 270.001024 194.888617 
L 272.704014 201.145589 
L 275.407085 207.028071 
L 278.110075 212.555255 
L 282.1646 220.221291 
L 286.219126 227.192621 
L 290.273652 233.528283 
L 294.328177 239.283454 
L 298.382703 244.509285 
L 302.437228 249.253198 
L 306.491754 253.558588 
L 310.54628 257.465284 
L 314.600805 261.009667 
L 318.655331 264.22496 
L 322.709856 267.141382 
L 326.764382 269.786503 
L 330.818908 272.185415 
L 334.873433 274.360892 
L 338.927959 276.333654 
L 344.33402 278.68089 
L 349.74 280.740872 
L 349.74 280.740872 
" style="fill:none;stroke:#6600ff;stroke-linecap:square;stroke-opacity:0.15;stroke-width:4;"/>
   </g>
   <g id="line2d_43">
    <defs>
     <path d="M 0 2.5 
C 0.663008 2.5 1.29895 2.236584 1.767767 1.767767 
C 2.236584 1.29895 2.5 0.663008 2.5 0 
C 2.5 -0.663008 2.236584 -1.29895 1.767767 -1.767767 
C 1.29895 -2.236584 0.663008 -2.5 0 -2.5 
C -0.663008 -2.5 -1.29895 -2.236584 -1.767767 -1.767767 
C -2.236584 -1.29895 -2.5 -0.663008 -2.5 0 
C -2.5 0.663008 -2.236584 1.29895 -1.767767 1.767767 
C -1.29895 2.236584 -0.663008 2.5 0 2.5 
z
" id="m2a802fc143" style="stroke:#6600ff;"/>
    </defs>
    <g clip-path="url(#p09e01d22c1)">
     <use style="fill:#6600ff;stroke:#6600ff;" x="107.82" xlink:href="#m2a802fc143" y="295.488"/>
     <use style="fill:#6600ff;stroke:#6600ff;" x="110.523017" xlink:href="#m2a802fc143" y="295.487992"/>
     <use style="fill:#6600ff;stroke:#6600ff;" x="113.226034" xlink:href="#m2a802fc143" y="295.48798"/>
     <use style="fill:#6600ff;stroke:#6600ff;" x="115.929051" xlink:href="#m2a802fc143" y="295.48796"/>
     <use style="fill:#6600ff;stroke:#6600ff;" x="118.632066" xlink:href="#m2a802fc143" y="295.48793"/>
     <use style="fill:#6600ff;stroke:#6600ff;" x="121.335088" xlink:href="#m2a802fc143" y="295.487882"/>
     <use style="fill:#6600ff;stroke:#6600ff;" x="124.038102" xlink:href="#m2a802fc143" y="295.487807"/>
     <use style="fill:#6600ff;stroke:#6600ff;" x="126.741117" xlink:href="#m2a802fc143" y="295.487691"/>
     <use style="fill:#6600ff;stroke:#6600ff;" x="129.444139" xlink:href="#m2a802fc143" y="295.487509"/>
     <use style="fill:#6600ff;stroke:#6600ff;" x="132.147154" xlink:href="#m2a802fc143" y="295.487224"/>
     <use style="fill:#6600ff;stroke:#6600ff;" x="134.850168" xlink:href="#m2a802fc143" y="295.486779"/>
     <use style="fill:#6600ff;stroke:#6600ff;" x="137.55319" xlink:href="#m2a802fc143" y="295.486084"/>
     <use style="fill:#6600ff;stroke:#6600ff;" x="140.256205" xlink:href="#m2a802fc143" y="295.484996"/>
     <use style="fill:#6600ff;stroke:#6600ff;" x="142.959219" xlink:href="#m2a802fc143" y="295.483297"/>
     <use style="fill:#6600ff;stroke:#6600ff;" x="145.662242" xlink:href="#m2a802fc143" y="295.480641"/>
     <use style="fill:#6600ff;stroke:#6600ff;" x="148.365256" xlink:href="#m2a802fc143" y="295.476489"/>
     <use style="fill:#6600ff;stroke:#6600ff;" x="151.06827" xlink:href="#m2a802fc143" y="295.469999"/>
     <use style="fill:#6600ff;stroke:#6600ff;" x="153.771293" xlink:href="#m2a802fc143" y="295.459855"/>
     <use style="fill:#6600ff;stroke:#6600ff;" x="156.474307" xlink:href="#m2a802fc143" y="295.444"/>
     <use style="fill:#6600ff;stroke:#6600ff;" x="159.177321" xlink:href="#m2a802fc143" y="295.419221"/>
     <use style="fill:#6600ff;stroke:#6600ff;" x="161.880344" xlink:href="#m2a802fc143" y="295.380496"/>
     <use style="fill:#6600ff;stroke:#6600ff;" x="164.583358" xlink:href="#m2a802fc143" y="295.319984"/>
     <use style="fill:#6600ff;stroke:#6600ff;" x="167.286373" xlink:href="#m2a802fc143" y="295.225445"/>
     <use style="fill:#6600ff;stroke:#6600ff;" x="169.989395" xlink:href="#m2a802fc143" y="295.077788"/>
     <use style="fill:#6600ff;stroke:#6600ff;" x="172.692409" xlink:href="#m2a802fc143" y="294.847272"/>
     <use style="fill:#6600ff;stroke:#6600ff;" x="175.395424" xlink:href="#m2a802fc143" y="294.487653"/>
     <use style="fill:#6600ff;stroke:#6600ff;" x="178.098446" xlink:href="#m2a802fc143" y="293.927248"/>
     <use style="fill:#6600ff;stroke:#6600ff;" x="180.801461" xlink:href="#m2a802fc143" y="293.05545"/>
     <use style="fill:#6600ff;stroke:#6600ff;" x="183.504475" xlink:href="#m2a802fc143" y="291.702843"/>
     <use style="fill:#6600ff;stroke:#6600ff;" x="186.207497" xlink:href="#m2a802fc143" y="289.612898"/>
     <use style="fill:#6600ff;stroke:#6600ff;" x="188.910512" xlink:href="#m2a802fc143" y="286.404222"/>
     <use style="fill:#6600ff;stroke:#6600ff;" x="191.613502" xlink:href="#m2a802fc143" y="281.52603"/>
     <use style="fill:#6600ff;stroke:#6600ff;" x="194.316573" xlink:href="#m2a802fc143" y="274.219417"/>
     <use style="fill:#6600ff;stroke:#6600ff;" x="197.019563" xlink:href="#m2a802fc143" y="263.517454"/>
     <use style="fill:#6600ff;stroke:#6600ff;" x="199.722553" xlink:href="#m2a802fc143" y="248.348481"/>
     <use style="fill:#6600ff;stroke:#6600ff;" x="202.425624" xlink:href="#m2a802fc143" y="227.830228"/>
     <use style="fill:#6600ff;stroke:#6600ff;" x="205.128614" xlink:href="#m2a802fc143" y="201.795749"/>
     <use style="fill:#6600ff;stroke:#6600ff;" x="207.831604" xlink:href="#m2a802fc143" y="171.394165"/>
     <use style="fill:#6600ff;stroke:#6600ff;" x="210.534675" xlink:href="#m2a802fc143" y="139.320859"/>
     <use style="fill:#6600ff;stroke:#6600ff;" x="213.237665" xlink:href="#m2a802fc143" y="109.22697"/>
     <use style="fill:#6600ff;stroke:#6600ff;" x="215.940655" xlink:href="#m2a802fc143" y="84.458832"/>
     <use style="fill:#6600ff;stroke:#6600ff;" x="218.643727" xlink:href="#m2a802fc143" y="66.952417"/>
     <use style="fill:#6600ff;stroke:#6600ff;" x="221.346717" xlink:href="#m2a802fc143" y="56.968328"/>
     <use style="fill:#6600ff;stroke:#6600ff;" x="224.049707" xlink:href="#m2a802fc143" y="53.568"/>
     <use style="fill:#6600ff;stroke:#6600ff;" x="226.752778" xlink:href="#m2a802fc143" y="55.298727"/>
     <use style="fill:#6600ff;stroke:#6600ff;" x="229.455768" xlink:href="#m2a802fc143" y="60.696628"/>
     <use style="fill:#6600ff;stroke:#6600ff;" x="232.158758" xlink:href="#m2a802fc143" y="68.529838"/>
     <use style="fill:#6600ff;stroke:#6600ff;" x="234.861829" xlink:href="#m2a802fc143" y="77.859954"/>
     <use style="fill:#6600ff;stroke:#6600ff;" x="237.564819" xlink:href="#m2a802fc143" y="88.012301"/>
     <use style="fill:#6600ff;stroke:#6600ff;" x="240.267809" xlink:href="#m2a802fc143" y="98.519896"/>
     <use style="fill:#6600ff;stroke:#6600ff;" x="242.97088" xlink:href="#m2a802fc143" y="109.068899"/>
     <use style="fill:#6600ff;stroke:#6600ff;" x="245.67387" xlink:href="#m2a802fc143" y="119.453094"/>
     <use style="fill:#6600ff;stroke:#6600ff;" x="248.37686" xlink:href="#m2a802fc143" y="129.540372"/>
     <use style="fill:#6600ff;stroke:#6600ff;" x="251.079931" xlink:href="#m2a802fc143" y="139.250302"/>
     <use style="fill:#6600ff;stroke:#6600ff;" x="253.782921" xlink:href="#m2a802fc143" y="148.536201"/>
     <use style="fill:#6600ff;stroke:#6600ff;" x="256.485911" xlink:href="#m2a802fc143" y="157.374984"/>
     <use style="fill:#6600ff;stroke:#6600ff;" x="259.188982" xlink:href="#m2a802fc143" y="165.759091"/>
     <use style="fill:#6600ff;stroke:#6600ff;" x="261.891973" xlink:href="#m2a802fc143" y="173.691317"/>
     <use style="fill:#6600ff;stroke:#6600ff;" x="264.594963" xlink:href="#m2a802fc143" y="181.181289"/>
     <use style="fill:#6600ff;stroke:#6600ff;" x="267.298034" xlink:href="#m2a802fc143" y="188.242992"/>
     <use style="fill:#6600ff;stroke:#6600ff;" x="270.001024" xlink:href="#m2a802fc143" y="194.89307"/>
     <use style="fill:#6600ff;stroke:#6600ff;" x="272.704014" xlink:href="#m2a802fc143" y="201.149763"/>
     <use style="fill:#6600ff;stroke:#6600ff;" x="275.407085" xlink:href="#m2a802fc143" y="207.032015"/>
     <use style="fill:#6600ff;stroke:#6600ff;" x="278.110075" xlink:href="#m2a802fc143" y="212.558969"/>
     <use style="fill:#6600ff;stroke:#6600ff;" x="280.813065" xlink:href="#m2a802fc143" y="217.749637"/>
     <use style="fill:#6600ff;stroke:#6600ff;" x="283.516136" xlink:href="#m2a802fc143" y="222.62257"/>
     <use style="fill:#6600ff;stroke:#6600ff;" x="286.219126" xlink:href="#m2a802fc143" y="227.195743"/>
     <use style="fill:#6600ff;stroke:#6600ff;" x="288.922116" xlink:href="#m2a802fc143" y="231.486492"/>
     <use style="fill:#6600ff;stroke:#6600ff;" x="291.625187" xlink:href="#m2a802fc143" y="235.511331"/>
     <use style="fill:#6600ff;stroke:#6600ff;" x="294.328177" xlink:href="#m2a802fc143" y="239.286067"/>
     <use style="fill:#6600ff;stroke:#6600ff;" x="297.031167" xlink:href="#m2a802fc143" y="242.825651"/>
     <use style="fill:#6600ff;stroke:#6600ff;" x="299.734238" xlink:href="#m2a802fc143" y="246.144331"/>
     <use style="fill:#6600ff;stroke:#6600ff;" x="302.437228" xlink:href="#m2a802fc143" y="249.255498"/>
     <use style="fill:#6600ff;stroke:#6600ff;" x="305.140218" xlink:href="#m2a802fc143" y="252.171854"/>
     <use style="fill:#6600ff;stroke:#6600ff;" x="307.84329" xlink:href="#m2a802fc143" y="254.905377"/>
     <use style="fill:#6600ff;stroke:#6600ff;" x="310.54628" xlink:href="#m2a802fc143" y="257.467322"/>
     <use style="fill:#6600ff;stroke:#6600ff;" x="313.24927" xlink:href="#m2a802fc143" y="259.868321"/>
     <use style="fill:#6600ff;stroke:#6600ff;" x="315.952341" xlink:href="#m2a802fc143" y="262.118331"/>
     <use style="fill:#6600ff;stroke:#6600ff;" x="318.655331" xlink:href="#m2a802fc143" y="264.226768"/>
     <use style="fill:#6600ff;stroke:#6600ff;" x="321.358321" xlink:href="#m2a802fc143" y="266.202455"/>
     <use style="fill:#6600ff;stroke:#6600ff;" x="324.061392" xlink:href="#m2a802fc143" y="268.053657"/>
     <use style="fill:#6600ff;stroke:#6600ff;" x="326.764382" xlink:href="#m2a802fc143" y="269.788163"/>
     <use style="fill:#6600ff;stroke:#6600ff;" x="329.467372" xlink:href="#m2a802fc143" y="271.413301"/>
     <use style="fill:#6600ff;stroke:#6600ff;" x="332.170443" xlink:href="#m2a802fc143" y="272.93589"/>
     <use style="fill:#6600ff;stroke:#6600ff;" x="334.873433" xlink:href="#m2a802fc143" y="274.362404"/>
     <use style="fill:#6600ff;stroke:#6600ff;" x="337.576423" xlink:href="#m2a802fc143" y="275.698841"/>
     <use style="fill:#6600ff;stroke:#6600ff;" x="340.279494" xlink:href="#m2a802fc143" y="276.950886"/>
     <use style="fill:#6600ff;stroke:#6600ff;" x="342.982484" xlink:href="#m2a802fc143" y="278.12383"/>
     <use style="fill:#6600ff;stroke:#6600ff;" x="345.685474" xlink:href="#m2a802fc143" y="279.22267"/>
     <use style="fill:#6600ff;stroke:#6600ff;" x="348.388546" xlink:href="#m2a802fc143" y="280.252062"/>
    </g>
   </g>
   <g id="line2d_44">
    <path clip-path="url(#p09e01d22c1)" d="M 107.82 295.488 
L 161.880344 295.38054 
L 168.637884 295.159948 
L 172.692409 294.847548 
L 175.395424 294.488088 
L 178.098446 293.927927 
L 180.801461 293.056497 
L 182.152972 292.454136 
L 183.504475 291.704435 
L 184.855986 290.772401 
L 186.207497 289.615297 
L 187.559001 288.181256 
L 188.910512 286.407802 
L 190.262047 284.220414 
L 191.613502 281.531311 
L 192.965037 278.238719 
L 194.316573 274.227107 
L 195.668027 269.368897 
L 197.019563 263.52843 
L 198.371099 256.568981 
L 199.722553 248.363631 
L 201.074089 238.809899 
L 202.425624 227.849699 
L 203.777079 215.489406 
L 206.48015 187.033109 
L 213.237665 109.255232 
L 214.589201 96.042195 
L 215.940655 84.483487 
L 217.292191 74.76779 
L 218.643727 66.972003 
L 219.995181 61.074946 
L 221.346717 56.980791 
L 222.698252 54.540751 
L 224.049707 53.574712 
L 225.401242 53.891363 
L 226.752778 55.3006 
L 228.104232 57.622974 
L 229.455768 60.694895 
L 230.807303 64.371411 
L 232.158758 68.526116 
L 234.861829 77.854877 
L 238.916355 93.238042 
L 247.025406 124.533112 
L 251.079931 139.243812 
L 255.134457 153.006108 
L 259.188982 165.753342 
L 263.243508 177.485464 
L 267.298034 188.238064 
L 270.001024 194.88841 
L 272.704014 201.145361 
L 275.407085 207.027855 
L 278.110075 212.555045 
L 282.1646 220.221059 
L 286.219126 227.192404 
L 290.273652 233.528063 
L 294.328177 239.28321 
L 298.382703 244.509096 
L 302.437228 249.253012 
L 306.491754 253.558417 
L 310.54628 257.465121 
L 314.600805 261.009523 
L 318.655331 264.224817 
L 322.709856 267.141258 
L 326.764382 269.786404 
L 330.818908 272.185322 
L 334.873433 274.360807 
L 338.927959 276.333562 
L 344.33402 278.680819 
L 349.74 280.740804 
L 349.74 280.740804 
" style="fill:none;stroke:#6600ff;stroke-linecap:square;stroke-width:4;"/>
   </g>
   <g id="patch_3">
    <path d="M 95.724 307.584 
L 95.724 41.472 
" style="fill:none;stroke:#000000;stroke-linecap:square;stroke-linejoin:miter;stroke-width:0.8;"/>
   </g>
   <g id="patch_4">
    <path d="M 361.836 307.584 
L 361.836 41.472 
" style="fill:none;stroke:#000000;stroke-linecap:square;stroke-linejoin:miter;stroke-width:0.8;"/>
   </g>
   <g id="patch_5">
    <path d="M 95.724 307.584 
L 361.836 307.584 
" style="fill:none;stroke:#000000;stroke-linecap:square;stroke-linejoin:miter;stroke-width:0.8;"/>
   </g>
   <g id="patch_6">
    <path d="M 95.724 41.472 
L 361.836 41.472 
" style="fill:none;stroke:#000000;stroke-linecap:square;stroke-linejoin:miter;stroke-width:0.8;"/>
   </g>
   <g id="text_14">
    <text style="font-family:DejaVu Sans;font-size:18px;font-style:normal;font-weight:normal;text-anchor:middle;" transform="rotate(-0, 228.78, 35.472)" x="228.78" y="35.472">Virus Level</text>
   </g>
   <g id="legend_1">
    <g id="patch_7">
     <path d="M 269.841469 97.506375 
L 351.336 97.506375 
Q 354.336 97.506375 354.336 94.506375 
L 354.336 51.972 
Q 354.336 48.972 351.336 48.972 
L 269.841469 48.972 
Q 266.841469 48.972 266.841469 51.972 
L 266.841469 94.506375 
Q 266.841469 97.506375 269.841469 97.506375 
z
" style="fill:#ffffff;opacity:0.8;stroke:#cccccc;stroke-linejoin:miter;"/>
    </g>
    <g id="line2d_45"/>
    <g id="line2d_46">
     <g>
      <use style="fill:#6600ff;stroke:#6600ff;" x="287.841469" xlink:href="#m2a802fc143" y="61.119656"/>
     </g>
    </g>
    <g id="text_15">
     <text style="font-family:DejaVu Sans;font-size:15px;font-style:normal;font-weight:normal;text-anchor:start;" transform="rotate(-0, 314.841469, 66.369656)" x="314.841469" y="66.369656">ODE</text>
    </g>
    <g id="line2d_47">
     <path d="M 272.841469 83.136844 
L 302.841469 83.136844 
" style="fill:none;stroke:#6600ff;stroke-linecap:square;stroke-width:4;"/>
    </g>
    <g id="line2d_48"/>
    <g id="text_16">
     <text style="font-family:DejaVu Sans;font-size:15px;font-style:normal;font-weight:normal;text-anchor:start;" transform="rotate(-0, 314.841469, 88.386844)" x="314.841469" y="88.386844">ABM</text>
    </g>
   </g>
  </g>
 </g>
 <defs>
  <clipPath id="p09e01d22c1">
   <rect height="266.112" width="266.112" x="95.724" y="41.472"/>
  </clipPath>
 </defs>
</svg>
