<?xml version="1.0" encoding="utf-8" standalone="no"?>
<!DOCTYPE svg PUBLIC "-//W3C//DTD SVG 1.1//EN"
  "http://www.w3.org/Graphics/SVG/1.1/DTD/svg11.dtd">
<!-- Created with matplotlib (https://matplotlib.org/) -->
<svg height="345.6pt" version="1.1" viewBox="0 0 446.4 345.6" width="446.4pt" xmlns="http://www.w3.org/2000/svg" xmlns:xlink="http://www.w3.org/1999/xlink">
 <defs>
  <style type="text/css">
*{stroke-linecap:butt;stroke-linejoin:round;}
  </style>
 </defs>
 <g id="figure_1">
  <g id="patch_1">
   <path d="M 0 345.6 
L 446.4 345.6 
L 446.4 0 
L 0 0 
z
" style="fill:none;"/>
  </g>
  <g id="axes_1">
   <g id="patch_2">
    <path d="M 95.724 307.584 
L 361.836 307.584 
L 361.836 41.472 
L 95.724 41.472 
z
" style="fill:none;"/>
   </g>
   <g id="matplotlib.axis_1">
    <g id="xtick_1">
     <g id="line2d_1">
      <path clip-path="url(#p8c3ae540ca)" d="M 107.82 307.584 
L 107.82 41.472 
" style="fill:none;stroke:#b0b0b0;stroke-linecap:square;stroke-width:0.8;"/>
     </g>
     <g id="line2d_2">
      <defs>
       <path d="M 0 0 
L 0 3.5 
" id="m4d624a27e6" style="stroke:#000000;stroke-width:0.8;"/>
      </defs>
      <g>
       <use style="stroke:#000000;stroke-width:0.8;" x="107.82" xlink:href="#m4d624a27e6" y="307.584"/>
      </g>
     </g>
     <g id="text_1">
      <text style="font-family:DejaVu Sans;font-size:15px;font-style:normal;font-weight:normal;text-anchor:middle;" transform="rotate(-0, 107.82, 325.981656)" x="107.82" y="325.981656">0</text>
     </g>
    </g>
    <g id="xtick_2">
     <g id="line2d_3">
      <path clip-path="url(#p8c3ae540ca)" d="M 188.910512 307.584 
L 188.910512 41.472 
" style="fill:none;stroke:#b0b0b0;stroke-linecap:square;stroke-width:0.8;"/>
     </g>
     <g id="line2d_4">
      <g>
       <use style="stroke:#000000;stroke-width:0.8;" x="188.910512" xlink:href="#m4d624a27e6" y="307.584"/>
      </g>
     </g>
     <g id="text_2">
      <text style="font-family:DejaVu Sans;font-size:15px;font-style:normal;font-weight:normal;text-anchor:middle;" transform="rotate(-0, 188.910512, 325.981656)" x="188.910512" y="325.981656">10</text>
     </g>
    </g>
    <g id="xtick_3">
     <g id="line2d_5">
      <path clip-path="url(#p8c3ae540ca)" d="M 270.001024 307.584 
L 270.001024 41.472 
" style="fill:none;stroke:#b0b0b0;stroke-linecap:square;stroke-width:0.8;"/>
     </g>
     <g id="line2d_6">
      <g>
       <use style="stroke:#000000;stroke-width:0.8;" x="270.001024" xlink:href="#m4d624a27e6" y="307.584"/>
      </g>
     </g>
     <g id="text_3">
      <text style="font-family:DejaVu Sans;font-size:15px;font-style:normal;font-weight:normal;text-anchor:middle;" transform="rotate(-0, 270.001024, 325.981656)" x="270.001024" y="325.981656">20</text>
     </g>
    </g>
    <g id="xtick_4">
     <g id="line2d_7">
      <path clip-path="url(#p8c3ae540ca)" d="M 351.091536 307.584 
L 351.091536 41.472 
" style="fill:none;stroke:#b0b0b0;stroke-linecap:square;stroke-width:0.8;"/>
     </g>
     <g id="line2d_8">
      <g>
       <use style="stroke:#000000;stroke-width:0.8;" x="351.091536" xlink:href="#m4d624a27e6" y="307.584"/>
      </g>
     </g>
     <g id="text_4">
      <text style="font-family:DejaVu Sans;font-size:15px;font-style:normal;font-weight:normal;text-anchor:middle;" transform="rotate(-0, 351.091536, 325.981656)" x="351.091536" y="325.981656">30</text>
     </g>
    </g>
    <g id="text_5">
     <text style="font-family:DejaVu Sans;font-size:15px;font-style:normal;font-weight:normal;text-anchor:middle;" transform="rotate(-0, 228.78, 344.498844)" x="228.78" y="344.498844">Time (hrs)</text>
    </g>
   </g>
   <g id="matplotlib.axis_2">
    <g id="ytick_1">
     <g id="line2d_9">
      <path clip-path="url(#p8c3ae540ca)" d="M 95.724 295.488 
L 361.836 295.488 
" style="fill:none;stroke:#b0b0b0;stroke-linecap:square;stroke-width:0.8;"/>
     </g>
     <g id="line2d_10">
      <defs>
       <path d="M 0 0 
L -3.5 0 
" id="m88cc6a54a7" style="stroke:#000000;stroke-width:0.8;"/>
      </defs>
      <g>
       <use style="stroke:#000000;stroke-width:0.8;" x="95.724" xlink:href="#m88cc6a54a7" y="295.488"/>
      </g>
     </g>
     <g id="text_6">
      <text style="font-family:DejaVu Sans;font-size:15px;font-style:normal;font-weight:normal;text-anchor:end;" transform="rotate(-0, 88.724, 301.186828)" x="88.724" y="301.186828">0.00</text>
     </g>
    </g>
    <g id="ytick_2">
     <g id="line2d_11">
      <path clip-path="url(#p8c3ae540ca)" d="M 95.724 240.745234 
L 361.836 240.745234 
" style="fill:none;stroke:#b0b0b0;stroke-linecap:square;stroke-width:0.8;"/>
     </g>
     <g id="line2d_12">
      <g>
       <use style="stroke:#000000;stroke-width:0.8;" x="95.724" xlink:href="#m88cc6a54a7" y="240.745234"/>
      </g>
     </g>
     <g id="text_7">
      <text style="font-family:DejaVu Sans;font-size:15px;font-style:normal;font-weight:normal;text-anchor:end;" transform="rotate(-0, 88.724, 246.444062)" x="88.724" y="246.444062">0.01</text>
     </g>
    </g>
    <g id="ytick_3">
     <g id="line2d_13">
      <path clip-path="url(#p8c3ae540ca)" d="M 95.724 186.002467 
L 361.836 186.002467 
" style="fill:none;stroke:#b0b0b0;stroke-linecap:square;stroke-width:0.8;"/>
     </g>
     <g id="line2d_14">
      <g>
       <use style="stroke:#000000;stroke-width:0.8;" x="95.724" xlink:href="#m88cc6a54a7" y="186.002467"/>
      </g>
     </g>
     <g id="text_8">
      <text style="font-family:DejaVu Sans;font-size:15px;font-style:normal;font-weight:normal;text-anchor:end;" transform="rotate(-0, 88.724, 191.701295)" x="88.724" y="191.701295">0.02</text>
     </g>
    </g>
    <g id="ytick_4">
     <g id="line2d_15">
      <path clip-path="url(#p8c3ae540ca)" d="M 95.724 131.259701 
L 361.836 131.259701 
" style="fill:none;stroke:#b0b0b0;stroke-linecap:square;stroke-width:0.8;"/>
     </g>
     <g id="line2d_16">
      <g>
       <use style="stroke:#000000;stroke-width:0.8;" x="95.724" xlink:href="#m88cc6a54a7" y="131.259701"/>
      </g>
     </g>
     <g id="text_9">
      <text style="font-family:DejaVu Sans;font-size:15px;font-style:normal;font-weight:normal;text-anchor:end;" transform="rotate(-0, 88.724, 136.958529)" x="88.724" y="136.958529">0.03</text>
     </g>
    </g>
    <g id="ytick_5">
     <g id="line2d_17">
      <path clip-path="url(#p8c3ae540ca)" d="M 95.724 76.516934 
L 361.836 76.516934 
" style="fill:none;stroke:#b0b0b0;stroke-linecap:square;stroke-width:0.8;"/>
     </g>
     <g id="line2d_18">
      <g>
       <use style="stroke:#000000;stroke-width:0.8;" x="95.724" xlink:href="#m88cc6a54a7" y="76.516934"/>
      </g>
     </g>
     <g id="text_10">
      <text style="font-family:DejaVu Sans;font-size:15px;font-style:normal;font-weight:normal;text-anchor:end;" transform="rotate(-0, 88.724, 82.215762)" x="88.724" y="82.215762">0.04</text>
     </g>
    </g>
    <g id="text_11">
     <!-- [IFN] $\mu$M/cell -->
     <g transform="translate(48.175563 221.628)rotate(-90)">
      <text>
       <tspan style="font-family:DejaVu Sans;font-size:15px;font-style:book;font-weight:book;" x="0 5.852051 10.275879 18.903809 30.124512 35.976562 50.288086 63.22998 68.283691 76.530762 85.759277 89.926758" y="-0.609375">[IFN] M/cell</tspan>
       <tspan style="font-family:DejaVu Sans;font-size:15px;font-style:oblique;font-weight:oblique;" x="40.744629" y="-0.609375">μ</tspan>
      </text>
     </g>
    </g>
   </g>
   <g id="line2d_19">
    <path clip-path="url(#p8c3ae540ca)" d="M 107.82 295.488 
L 190.262047 295.426576 
L 192.965037 295.267916 
L 194.316573 295.076313 
L 195.668027 294.725804 
L 197.019563 294.094496 
L 198.371099 292.978791 
L 199.722553 291.051853 
L 201.074089 287.814947 
L 202.425624 282.55529 
L 203.777079 274.340908 
L 205.128614 262.09789 
L 206.48015 244.821145 
L 207.831604 221.936988 
L 209.18314 193.750594 
L 213.237665 98.596936 
L 214.589201 74.463369 
L 215.940655 59.085359 
L 217.292191 53.568328 
L 218.643727 57.470995 
L 219.995181 69.195801 
L 221.346717 86.552214 
L 224.049707 129.365053 
L 226.752778 172.048919 
L 228.104232 190.957618 
L 229.455768 207.739342 
L 230.807303 222.329274 
L 232.158758 234.814512 
L 233.510293 245.369043 
L 234.861829 254.207712 
L 236.213283 261.556326 
L 237.564819 267.632089 
L 238.916355 272.63491 
L 240.267809 276.742079 
L 241.619345 280.106958 
L 242.97088 282.860037 
L 244.322335 285.110874 
L 245.67387 286.950762 
L 247.025406 288.454918 
L 248.37686 289.68542 
L 249.728396 290.69283 
L 251.079931 291.518478 
L 253.782921 292.752773 
L 256.485911 293.588734 
L 259.188982 294.15873 
L 263.243508 294.697966 
L 268.649488 295.082268 
L 275.407085 295.304082 
L 287.570662 295.438866 
L 320.006866 295.485623 
L 349.74 295.487774 
L 349.74 295.487774 
" style="fill:none;stroke:#cc0033;stroke-linecap:square;stroke-opacity:0.15;stroke-width:4;"/>
   </g>
   <g id="line2d_20">
    <path clip-path="url(#p8c3ae540ca)" d="M 107.82 295.488 
L 190.262047 295.426576 
L 192.965037 295.267916 
L 194.316573 295.076313 
L 195.668027 294.725804 
L 197.019563 294.094496 
L 198.371099 292.978791 
L 199.722553 291.051853 
L 201.074089 287.814947 
L 202.425624 282.55529 
L 203.777079 274.340908 
L 205.128614 262.09789 
L 206.48015 244.821145 
L 207.831604 221.936988 
L 209.18314 193.750594 
L 213.237665 98.597101 
L 214.589201 74.463533 
L 215.940655 59.085578 
L 217.292191 53.568602 
L 218.643727 57.471269 
L 219.995181 69.196129 
L 221.346717 86.552488 
L 224.049707 129.365272 
L 226.752778 172.049029 
L 228.104232 190.957782 
L 229.455768 207.739506 
L 230.807303 222.329438 
L 232.158758 234.814566 
L 233.510293 245.369048 
L 234.861829 254.207733 
L 236.213283 261.556326 
L 237.564819 267.632061 
L 238.916355 272.634816 
L 240.267809 276.741997 
L 241.619345 280.106974 
L 242.97088 282.860004 
L 244.322335 285.110879 
L 245.67387 286.950767 
L 247.025406 288.45495 
L 248.37686 289.685426 
L 249.728396 290.692864 
L 251.079931 291.518525 
L 253.782921 292.752803 
L 256.485911 293.588753 
L 259.188982 294.158756 
L 263.243508 294.697987 
L 268.649488 295.082289 
L 275.407085 295.30409 
L 287.570662 295.438863 
L 320.006866 295.485623 
L 349.74 295.487773 
L 349.74 295.487773 
" style="fill:none;stroke:#cc0033;stroke-linecap:square;stroke-opacity:0.15;stroke-width:4;"/>
   </g>
   <g id="line2d_21">
    <path clip-path="url(#p8c3ae540ca)" d="M 107.82 295.488 
L 190.262047 295.426576 
L 192.965037 295.267916 
L 194.316573 295.076313 
L 195.668027 294.725804 
L 197.019563 294.094496 
L 198.371099 292.978791 
L 199.722553 291.051853 
L 201.074089 287.814947 
L 202.425624 282.55529 
L 203.777079 274.340913 
L 205.128614 262.097901 
L 206.48015 244.821161 
L 207.831604 221.937042 
L 209.18314 193.750649 
L 213.237665 98.597101 
L 214.589201 74.463533 
L 215.940655 59.085523 
L 217.292191 53.568493 
L 218.643727 57.471214 
L 219.995181 69.196074 
L 221.346717 86.552488 
L 224.049707 129.365491 
L 226.752778 172.049302 
L 228.104232 190.957892 
L 229.455768 207.73967 
L 230.807303 222.329603 
L 232.158758 234.814731 
L 233.510293 245.369158 
L 234.861829 254.207788 
L 236.213283 261.55637 
L 237.564819 267.632045 
L 238.916355 272.634822 
L 240.267809 276.741964 
L 241.619345 280.106936 
L 242.97088 282.859993 
L 244.322335 285.110852 
L 245.67387 286.950751 
L 247.025406 288.454923 
L 248.37686 289.685426 
L 249.728396 290.692813 
L 251.079931 291.518464 
L 253.782921 292.752742 
L 256.485911 293.588709 
L 259.188982 294.158731 
L 263.243508 294.697989 
L 268.649488 295.082287 
L 275.407085 295.304088 
L 287.570662 295.438864 
L 320.006866 295.485623 
L 349.74 295.487773 
L 349.74 295.487773 
" style="fill:none;stroke:#cc0033;stroke-linecap:square;stroke-opacity:0.15;stroke-width:4;"/>
   </g>
   <g id="line2d_22">
    <path clip-path="url(#p8c3ae540ca)" d="M 107.82 295.488 
L 190.262047 295.426576 
L 192.965037 295.267916 
L 194.316573 295.076313 
L 195.668027 294.725804 
L 197.019563 294.094496 
L 198.371099 292.978792 
L 199.722553 291.051853 
L 201.074089 287.814947 
L 202.425624 282.55529 
L 203.777079 274.340919 
L 205.128614 262.097901 
L 206.48015 244.821161 
L 207.831604 221.936988 
L 209.18314 193.750594 
L 213.237665 98.596991 
L 214.589201 74.463423 
L 215.940655 59.085414 
L 217.292191 53.568438 
L 218.643727 57.471214 
L 219.995181 69.196074 
L 221.346717 86.552488 
L 224.049707 129.365437 
L 226.752778 172.049193 
L 228.104232 190.957837 
L 229.455768 207.739561 
L 230.807303 222.329603 
L 232.158758 234.814676 
L 233.510293 245.369098 
L 234.861829 254.207783 
L 236.213283 261.556468 
L 237.564819 267.632187 
L 238.916355 272.634948 
L 240.267809 276.742128 
L 241.619345 280.10704 
L 242.97088 282.860059 
L 244.322335 285.110901 
L 245.67387 286.950794 
L 247.025406 288.454967 
L 248.37686 289.685469 
L 249.728396 290.692879 
L 251.079931 291.518526 
L 253.782921 292.752786 
L 256.485911 293.588746 
L 259.188982 294.158741 
L 263.243508 294.697988 
L 268.649488 295.082277 
L 275.407085 295.304084 
L 287.570662 295.438865 
L 320.006866 295.485623 
L 349.74 295.487774 
L 349.74 295.487774 
" style="fill:none;stroke:#cc0033;stroke-linecap:square;stroke-opacity:0.15;stroke-width:4;"/>
   </g>
   <g id="line2d_23">
    <path clip-path="url(#p8c3ae540ca)" d="M 107.82 295.488 
L 190.262047 295.426576 
L 192.965037 295.267916 
L 194.316573 295.076313 
L 195.668027 294.725804 
L 197.019563 294.094496 
L 198.371099 292.978792 
L 199.722553 291.051854 
L 201.074089 287.814953 
L 202.425624 282.555295 
L 203.777079 274.340924 
L 205.128614 262.097923 
L 206.48015 244.821199 
L 207.831604 221.937097 
L 209.18314 193.750758 
L 213.237665 98.597374 
L 214.589201 74.463861 
L 215.940655 59.085852 
L 217.292191 53.568876 
L 218.643727 57.471597 
L 219.995181 69.196293 
L 221.346717 86.552597 
L 224.049707 129.365382 
L 226.752778 172.049193 
L 228.104232 190.957837 
L 229.455768 207.739506 
L 230.807303 222.329493 
L 232.158758 234.814731 
L 233.510293 245.369185 
L 234.861829 254.207712 
L 236.213283 261.556342 
L 237.564819 267.632094 
L 238.916355 272.634844 
L 240.267809 276.742051 
L 241.619345 280.107056 
L 242.97088 282.860086 
L 244.322335 285.110928 
L 245.67387 286.950794 
L 247.025406 288.454972 
L 248.37686 289.685458 
L 249.728396 290.692909 
L 251.079931 291.518549 
L 253.782921 292.752794 
L 256.485911 293.588741 
L 259.188982 294.158741 
L 263.243508 294.697997 
L 268.649488 295.082298 
L 275.407085 295.304099 
L 287.570662 295.438872 
L 320.006866 295.485624 
L 349.74 295.487773 
L 349.74 295.487773 
" style="fill:none;stroke:#cc0033;stroke-linecap:square;stroke-opacity:0.15;stroke-width:4;"/>
   </g>
   <g id="line2d_24">
    <path clip-path="url(#p8c3ae540ca)" d="M 107.82 295.488 
L 190.262047 295.426576 
L 192.965037 295.267916 
L 194.316573 295.076313 
L 195.668027 294.725804 
L 197.019563 294.094496 
L 198.371099 292.978792 
L 199.722553 291.051854 
L 201.074089 287.814953 
L 202.425624 282.555295 
L 203.777079 274.340919 
L 205.128614 262.097907 
L 206.48015 244.821172 
L 207.831604 221.937042 
L 209.18314 193.750649 
L 213.237665 98.597101 
L 214.589201 74.463533 
L 215.940655 59.085578 
L 217.292191 53.568547 
L 218.643727 57.471269 
L 219.995181 69.19602 
L 221.346717 86.552378 
L 224.049707 129.365218 
L 226.752778 172.048919 
L 228.104232 190.957673 
L 229.455768 207.739232 
L 230.807303 222.329055 
L 232.158758 234.814238 
L 233.510293 245.36878 
L 234.861829 254.207405 
L 236.213283 261.556107 
L 237.564819 267.631859 
L 238.916355 272.634597 
L 240.267809 276.741821 
L 241.619345 280.106717 
L 242.97088 282.859774 
L 244.322335 285.110709 
L 245.67387 286.950658 
L 247.025406 288.454852 
L 248.37686 289.685354 
L 249.728396 290.692801 
L 251.079931 291.518453 
L 253.782921 292.752697 
L 256.485911 293.588686 
L 259.188982 294.158695 
L 263.243508 294.697957 
L 268.649488 295.082266 
L 275.407085 295.304078 
L 287.570662 295.438862 
L 320.006866 295.485624 
L 349.74 295.487773 
L 349.74 295.487773 
" style="fill:none;stroke:#cc0033;stroke-linecap:square;stroke-opacity:0.15;stroke-width:4;"/>
   </g>
   <g id="line2d_25">
    <path clip-path="url(#p8c3ae540ca)" d="M 107.82 295.488 
L 190.262047 295.426576 
L 192.965037 295.267916 
L 194.316573 295.076313 
L 195.668027 294.725804 
L 197.019563 294.094496 
L 198.371099 292.978791 
L 199.722553 291.051853 
L 201.074089 287.814947 
L 202.425624 282.55529 
L 203.777079 274.340908 
L 205.128614 262.097896 
L 206.48015 244.82115 
L 207.831604 221.936988 
L 209.18314 193.750594 
L 213.237665 98.596991 
L 214.589201 74.463478 
L 215.940655 59.085523 
L 217.292191 53.568547 
L 218.643727 57.471323 
L 219.995181 69.196184 
L 221.346717 86.552707 
L 224.049707 129.365601 
L 226.752778 172.049302 
L 228.104232 190.958001 
L 229.455768 207.73967 
L 230.807303 222.329548 
L 232.158758 234.814676 
L 233.510293 245.369158 
L 234.861829 254.207733 
L 236.213283 261.55638 
L 237.564819 267.632006 
L 238.916355 272.634696 
L 240.267809 276.741876 
L 241.619345 280.106777 
L 242.97088 282.859867 
L 244.322335 285.110759 
L 245.67387 286.95063 
L 247.025406 288.454814 
L 248.37686 289.685332 
L 249.728396 290.692754 
L 251.079931 291.518414 
L 253.782921 292.752718 
L 256.485911 293.588691 
L 259.188982 294.158688 
L 263.243508 294.69796 
L 268.649488 295.082268 
L 275.407085 295.304075 
L 287.570662 295.438861 
L 320.006866 295.485623 
L 349.74 295.487773 
L 349.74 295.487773 
" style="fill:none;stroke:#cc0033;stroke-linecap:square;stroke-opacity:0.15;stroke-width:4;"/>
   </g>
   <g id="line2d_26">
    <path clip-path="url(#p8c3ae540ca)" d="M 107.82 295.488 
L 190.262047 295.426576 
L 192.965037 295.267916 
L 194.316573 295.076313 
L 195.668027 294.725804 
L 197.019563 294.094496 
L 198.371099 292.978791 
L 199.722553 291.051853 
L 201.074089 287.814947 
L 202.425624 282.55529 
L 203.777079 274.340913 
L 205.128614 262.097901 
L 206.48015 244.821161 
L 207.831604 221.937042 
L 209.18314 193.750649 
L 213.237665 98.597155 
L 214.589201 74.463642 
L 215.940655 59.085688 
L 217.292191 53.568712 
L 218.643727 57.471378 
L 219.995181 69.196074 
L 221.346717 86.552542 
L 224.049707 129.365382 
L 226.752778 172.049138 
L 228.104232 190.957728 
L 229.455768 207.739396 
L 230.807303 222.329274 
L 232.158758 234.814457 
L 233.510293 245.36889 
L 234.861829 254.207618 
L 236.213283 261.556331 
L 237.564819 267.632067 
L 238.916355 272.6348 
L 240.267809 276.741953 
L 241.619345 280.106941 
L 242.97088 282.859993 
L 244.322335 285.110895 
L 245.67387 286.950745 
L 247.025406 288.454901 
L 248.37686 289.685436 
L 249.728396 290.692841 
L 251.079931 291.518505 
L 253.782921 292.752772 
L 256.485911 293.588721 
L 259.188982 294.15871 
L 263.243508 294.697975 
L 268.649488 295.082278 
L 275.407085 295.304088 
L 287.570662 295.438862 
L 320.006866 295.485622 
L 349.74 295.487773 
L 349.74 295.487773 
" style="fill:none;stroke:#cc0033;stroke-linecap:square;stroke-opacity:0.15;stroke-width:4;"/>
   </g>
   <g id="line2d_27">
    <path clip-path="url(#p8c3ae540ca)" d="M 107.82 295.488 
L 190.262047 295.426576 
L 192.965037 295.267916 
L 194.316573 295.076313 
L 195.668027 294.725804 
L 197.019563 294.094496 
L 198.371099 292.978791 
L 199.722553 291.051854 
L 201.074089 287.814947 
L 202.425624 282.55529 
L 203.777079 274.340919 
L 205.128614 262.097901 
L 206.48015 244.821155 
L 207.831604 221.936988 
L 209.18314 193.750594 
L 213.237665 98.596991 
L 214.589201 74.463423 
L 215.940655 59.085469 
L 217.292191 53.568438 
L 218.643727 57.471159 
L 219.995181 69.19602 
L 221.346717 86.552488 
L 224.049707 129.365491 
L 226.752778 172.049138 
L 228.104232 190.957837 
L 229.455768 207.739451 
L 230.807303 222.329329 
L 232.158758 234.814621 
L 233.510293 245.369043 
L 234.861829 254.20764 
L 236.213283 261.556309 
L 237.564819 267.632034 
L 238.916355 272.634838 
L 240.267809 276.742046 
L 241.619345 280.106969 
L 242.97088 282.860004 
L 244.322335 285.110863 
L 245.67387 286.950734 
L 247.025406 288.454929 
L 248.37686 289.68542 
L 249.728396 290.692839 
L 251.079931 291.5185 
L 253.782921 292.752764 
L 256.485911 293.588722 
L 259.188982 294.158724 
L 263.243508 294.697988 
L 268.649488 295.082281 
L 275.407085 295.304098 
L 287.570662 295.438875 
L 320.006866 295.485625 
L 349.74 295.487774 
L 349.74 295.487774 
" style="fill:none;stroke:#cc0033;stroke-linecap:square;stroke-opacity:0.15;stroke-width:4;"/>
   </g>
   <g id="line2d_28">
    <path clip-path="url(#p8c3ae540ca)" d="M 107.82 295.488 
L 190.262047 295.426576 
L 192.965037 295.267916 
L 194.316573 295.076313 
L 195.668027 294.725804 
L 197.019563 294.094496 
L 198.371099 292.978791 
L 199.722553 291.051853 
L 201.074089 287.814947 
L 202.425624 282.555295 
L 203.777079 274.340919 
L 205.128614 262.097912 
L 206.48015 244.821188 
L 207.831604 221.937097 
L 209.18314 193.750703 
L 213.237665 98.597319 
L 214.589201 74.463807 
L 215.940655 59.085852 
L 217.292191 53.568766 
L 218.643727 57.471542 
L 219.995181 69.196348 
L 221.346717 86.552652 
L 224.049707 129.365546 
L 226.752778 172.049302 
L 228.104232 190.957947 
L 229.455768 207.739451 
L 230.807303 222.329438 
L 232.158758 234.814621 
L 233.510293 245.368966 
L 234.861829 254.207536 
L 236.213283 261.556255 
L 237.564819 267.632001 
L 238.916355 272.634723 
L 240.267809 276.741893 
L 241.619345 280.106843 
L 242.97088 282.859911 
L 244.322335 285.110802 
L 245.67387 286.950729 
L 247.025406 288.454929 
L 248.37686 289.685453 
L 249.728396 290.692874 
L 251.079931 291.518532 
L 253.782921 292.752781 
L 256.485911 293.588742 
L 259.188982 294.158719 
L 263.243508 294.697985 
L 268.649488 295.082293 
L 275.407085 295.304091 
L 287.570662 295.438868 
L 320.006866 295.485624 
L 349.74 295.487774 
L 349.74 295.487774 
" style="fill:none;stroke:#cc0033;stroke-linecap:square;stroke-opacity:0.15;stroke-width:4;"/>
   </g>
   <g id="line2d_29">
    <path clip-path="url(#p8c3ae540ca)" d="M 107.82 295.488 
L 190.262047 295.426576 
L 192.965037 295.267916 
L 194.316573 295.076313 
L 195.668027 294.725804 
L 197.019563 294.094496 
L 198.371099 292.978791 
L 199.722553 291.051853 
L 201.074089 287.814947 
L 202.425624 282.55529 
L 203.777079 274.340913 
L 205.128614 262.097907 
L 206.48015 244.821172 
L 207.831604 221.937042 
L 209.18314 193.750649 
L 213.237665 98.596991 
L 214.589201 74.463423 
L 215.940655 59.085414 
L 217.292191 53.568328 
L 218.643727 57.471105 
L 219.995181 69.195855 
L 221.346717 86.552214 
L 224.049707 129.365053 
L 226.752778 172.0487 
L 228.104232 190.957454 
L 229.455768 207.739177 
L 230.807303 222.329165 
L 232.158758 234.814566 
L 233.510293 245.369043 
L 234.861829 254.207668 
L 236.213283 261.556287 
L 237.564819 267.632012 
L 238.916355 272.634767 
L 240.267809 276.741931 
L 241.619345 280.106854 
L 242.97088 282.859917 
L 244.322335 285.110808 
L 245.67387 286.95074 
L 247.025406 288.454912 
L 248.37686 289.685393 
L 249.728396 290.69283 
L 251.079931 291.51847 
L 253.782921 292.752726 
L 256.485911 293.588688 
L 259.188982 294.158696 
L 263.243508 294.697962 
L 268.649488 295.082272 
L 275.407085 295.304084 
L 287.570662 295.438863 
L 320.006866 295.485623 
L 349.74 295.487773 
L 349.74 295.487773 
" style="fill:none;stroke:#cc0033;stroke-linecap:square;stroke-opacity:0.15;stroke-width:4;"/>
   </g>
   <g id="line2d_30">
    <path clip-path="url(#p8c3ae540ca)" d="M 107.82 295.488 
L 190.262047 295.426576 
L 192.965037 295.267916 
L 194.316573 295.076313 
L 195.668027 294.725804 
L 197.019563 294.094496 
L 198.371099 292.978791 
L 199.722553 291.051853 
L 201.074089 287.814947 
L 202.425624 282.55529 
L 203.777079 274.340913 
L 205.128614 262.097907 
L 206.48015 244.821166 
L 207.831604 221.937042 
L 209.18314 193.750649 
L 213.237665 98.59721 
L 214.589201 74.463752 
L 215.940655 59.085797 
L 217.292191 53.568876 
L 218.643727 57.471597 
L 219.995181 69.196403 
L 221.346717 86.552925 
L 224.049707 129.365875 
L 226.752778 172.049357 
L 228.104232 190.957947 
L 229.455768 207.739615 
L 230.807303 222.329603 
L 232.158758 234.814785 
L 233.510293 245.369191 
L 234.861829 254.207832 
L 236.213283 261.556512 
L 237.564819 267.632242 
L 238.916355 272.634953 
L 240.267809 276.742122 
L 241.619345 280.107029 
L 242.97088 282.860103 
L 244.322335 285.110912 
L 245.67387 286.950789 
L 247.025406 288.454983 
L 248.37686 289.68548 
L 249.728396 290.692874 
L 251.079931 291.51852 
L 253.782921 292.752784 
L 256.485911 293.588741 
L 259.188982 294.158741 
L 263.243508 294.697991 
L 268.649488 295.082284 
L 275.407085 295.304091 
L 287.570662 295.438868 
L 320.006866 295.485624 
L 349.74 295.487774 
L 349.74 295.487774 
" style="fill:none;stroke:#cc0033;stroke-linecap:square;stroke-opacity:0.15;stroke-width:4;"/>
   </g>
   <g id="line2d_31">
    <path clip-path="url(#p8c3ae540ca)" d="M 107.82 295.488 
L 190.262047 295.426576 
L 192.965037 295.267916 
L 194.316573 295.076313 
L 195.668027 294.725804 
L 197.019563 294.094496 
L 198.371099 292.978791 
L 199.722553 291.051853 
L 201.074089 287.814947 
L 202.425624 282.555284 
L 203.777079 274.340908 
L 205.128614 262.097885 
L 206.48015 244.821123 
L 207.831604 221.936988 
L 209.18314 193.750539 
L 213.237665 98.596827 
L 214.589201 74.463204 
L 215.940655 59.08514 
L 217.292191 53.568 
L 218.643727 57.470612 
L 219.995181 69.195363 
L 221.346717 86.551831 
L 224.049707 129.364725 
L 226.752778 172.048481 
L 228.104232 190.957344 
L 229.455768 207.739013 
L 230.807303 222.32911 
L 232.158758 234.814347 
L 233.510293 245.368829 
L 234.861829 254.207564 
L 236.213283 261.556123 
L 237.564819 267.631897 
L 238.916355 272.634696 
L 240.267809 276.741914 
L 241.619345 280.106848 
L 242.97088 282.859878 
L 244.322335 285.110802 
L 245.67387 286.950701 
L 247.025406 288.454879 
L 248.37686 289.685382 
L 249.728396 290.692814 
L 251.079931 291.518445 
L 253.782921 292.752718 
L 256.485911 293.588678 
L 259.188982 294.158702 
L 263.243508 294.697951 
L 268.649488 295.08226 
L 275.407085 295.304071 
L 287.570662 295.43886 
L 320.006866 295.485623 
L 349.74 295.487773 
L 349.74 295.487773 
" style="fill:none;stroke:#cc0033;stroke-linecap:square;stroke-opacity:0.15;stroke-width:4;"/>
   </g>
   <g id="line2d_32">
    <path clip-path="url(#p8c3ae540ca)" d="M 107.82 295.488 
L 190.262047 295.426576 
L 192.965037 295.267916 
L 194.316573 295.076313 
L 195.668027 294.725804 
L 197.019563 294.094496 
L 198.371099 292.978792 
L 199.722553 291.051854 
L 201.074089 287.814953 
L 202.425624 282.555295 
L 203.777079 274.34093 
L 205.128614 262.097923 
L 206.48015 244.821199 
L 207.831604 221.937097 
L 209.18314 193.750703 
L 213.237665 98.59721 
L 214.589201 74.463642 
L 215.940655 59.085633 
L 217.292191 53.568712 
L 218.643727 57.471323 
L 219.995181 69.196129 
L 221.346717 86.552488 
L 224.049707 129.365491 
L 226.752778 172.049193 
L 228.104232 190.957837 
L 229.455768 207.739451 
L 230.807303 222.329384 
L 232.158758 234.814621 
L 233.510293 245.368933 
L 234.861829 254.207646 
L 236.213283 261.556353 
L 237.564819 267.632045 
L 238.916355 272.634784 
L 240.267809 276.742013 
L 241.619345 280.106974 
L 242.97088 282.860032 
L 244.322335 285.110906 
L 245.67387 286.950794 
L 247.025406 288.454956 
L 248.37686 289.685469 
L 249.728396 290.692874 
L 251.079931 291.518499 
L 253.782921 292.752756 
L 256.485911 293.588714 
L 259.188982 294.158713 
L 263.243508 294.697971 
L 268.649488 295.082261 
L 275.407085 295.304074 
L 287.570662 295.438859 
L 320.006866 295.485621 
L 349.74 295.487773 
L 349.74 295.487773 
" style="fill:none;stroke:#cc0033;stroke-linecap:square;stroke-opacity:0.15;stroke-width:4;"/>
   </g>
   <g id="line2d_33">
    <path clip-path="url(#p8c3ae540ca)" d="M 107.82 295.488 
L 190.262047 295.426576 
L 192.965037 295.267916 
L 194.316573 295.076313 
L 195.668027 294.725804 
L 197.019563 294.094496 
L 198.371099 292.978792 
L 199.722553 291.051854 
L 201.074089 287.814953 
L 202.425624 282.555295 
L 203.777079 274.340919 
L 205.128614 262.097912 
L 206.48015 244.821172 
L 207.831604 221.937042 
L 209.18314 193.750649 
L 213.237665 98.597101 
L 214.589201 74.463588 
L 215.940655 59.085633 
L 217.292191 53.568657 
L 218.643727 57.471433 
L 219.995181 69.196239 
L 221.346717 86.552597 
L 224.049707 129.365546 
L 226.752778 172.049248 
L 228.104232 190.957837 
L 229.455768 207.739506 
L 230.807303 222.329493 
L 232.158758 234.814621 
L 233.510293 245.369098 
L 234.861829 254.20775 
L 236.213283 261.556457 
L 237.564819 267.632154 
L 238.916355 272.634899 
L 240.267809 276.74209 
L 241.619345 280.107056 
L 242.97088 282.860119 
L 244.322335 285.111 
L 245.67387 286.950871 
L 247.025406 288.455022 
L 248.37686 289.685524 
L 249.728396 290.692918 
L 251.079931 291.518541 
L 253.782921 292.752785 
L 256.485911 293.588756 
L 259.188982 294.158765 
L 263.243508 294.698003 
L 268.649488 295.0823 
L 275.407085 295.304095 
L 287.570662 295.438868 
L 320.006866 295.485623 
L 349.74 295.487773 
L 349.74 295.487773 
" style="fill:none;stroke:#cc0033;stroke-linecap:square;stroke-opacity:0.15;stroke-width:4;"/>
   </g>
   <g id="line2d_34">
    <path clip-path="url(#p8c3ae540ca)" d="M 107.82 295.488 
L 190.262047 295.426576 
L 192.965037 295.267916 
L 194.316573 295.076313 
L 195.668027 294.725804 
L 197.019563 294.094496 
L 198.371099 292.978792 
L 199.722553 291.051855 
L 201.074089 287.814953 
L 202.425624 282.555295 
L 203.777079 274.340924 
L 205.128614 262.097923 
L 206.48015 244.82121 
L 207.831604 221.937097 
L 209.18314 193.750758 
L 213.237665 98.597265 
L 214.589201 74.463697 
L 215.940655 59.085633 
L 217.292191 53.568547 
L 218.643727 57.471159 
L 219.995181 69.195965 
L 221.346717 86.552269 
L 224.049707 129.365218 
L 226.752778 172.04881 
L 228.104232 190.957399 
L 229.455768 207.739177 
L 230.807303 222.329219 
L 232.158758 234.814402 
L 233.510293 245.36878 
L 234.861829 254.207487 
L 236.213283 261.556151 
L 237.564819 267.631935 
L 238.916355 272.634702 
L 240.267809 276.741909 
L 241.619345 280.106876 
L 242.97088 282.859966 
L 244.322335 285.11083 
L 245.67387 286.950751 
L 247.025406 288.454901 
L 248.37686 289.685404 
L 249.728396 290.692831 
L 251.079931 291.518503 
L 253.782921 292.7528 
L 256.485911 293.58876 
L 259.188982 294.158766 
L 263.243508 294.698013 
L 268.649488 295.08229 
L 275.407085 295.304095 
L 287.570662 295.438869 
L 320.006866 295.485624 
L 349.74 295.487774 
L 349.74 295.487774 
" style="fill:none;stroke:#cc0033;stroke-linecap:square;stroke-opacity:0.15;stroke-width:4;"/>
   </g>
   <g id="line2d_35">
    <path clip-path="url(#p8c3ae540ca)" d="M 107.82 295.488 
L 190.262047 295.426576 
L 192.965037 295.267916 
L 194.316573 295.076313 
L 195.668027 294.725804 
L 197.019563 294.094496 
L 198.371099 292.978791 
L 199.722553 291.051853 
L 201.074089 287.814947 
L 202.425624 282.55529 
L 203.777079 274.340919 
L 205.128614 262.097907 
L 206.48015 244.821172 
L 207.831604 221.937042 
L 209.18314 193.750703 
L 213.237665 98.597319 
L 214.589201 74.463807 
L 215.940655 59.086016 
L 217.292191 53.569095 
L 218.643727 57.471761 
L 219.995181 69.196677 
L 221.346717 86.55298 
L 224.049707 129.36582 
L 226.752778 172.049685 
L 228.104232 190.958165 
L 229.455768 207.73978 
L 230.807303 222.329712 
L 232.158758 234.814895 
L 233.510293 245.369306 
L 234.861829 254.207865 
L 236.213283 261.556441 
L 237.564819 267.632143 
L 238.916355 272.634871 
L 240.267809 276.74209 
L 241.619345 280.107051 
L 242.97088 282.860103 
L 244.322335 285.11095 
L 245.67387 286.950827 
L 247.025406 288.454978 
L 248.37686 289.685491 
L 249.728396 290.692897 
L 251.079931 291.518512 
L 253.782921 292.752788 
L 256.485911 293.588729 
L 259.188982 294.158727 
L 263.243508 294.697981 
L 268.649488 295.082271 
L 275.407085 295.304074 
L 287.570662 295.43886 
L 320.006866 295.485623 
L 349.74 295.487773 
L 349.74 295.487773 
" style="fill:none;stroke:#cc0033;stroke-linecap:square;stroke-opacity:0.15;stroke-width:4;"/>
   </g>
   <g id="line2d_36">
    <path clip-path="url(#p8c3ae540ca)" d="M 107.82 295.488 
L 190.262047 295.426576 
L 192.965037 295.267916 
L 194.316573 295.076313 
L 195.668027 294.725804 
L 197.019563 294.094496 
L 198.371099 292.978791 
L 199.722553 291.051853 
L 201.074089 287.814947 
L 202.425624 282.55529 
L 203.777079 274.340913 
L 205.128614 262.097896 
L 206.48015 244.821145 
L 207.831604 221.936988 
L 209.18314 193.750539 
L 213.237665 98.596772 
L 214.589201 74.463259 
L 215.940655 59.085304 
L 217.292191 53.568328 
L 218.643727 57.471105 
L 219.995181 69.19591 
L 221.346717 86.552378 
L 224.049707 129.365327 
L 226.752778 172.049138 
L 228.104232 190.957892 
L 229.455768 207.739615 
L 230.807303 222.329548 
L 232.158758 234.814676 
L 233.510293 245.369005 
L 234.861829 254.207695 
L 236.213283 261.556216 
L 237.564819 267.631952 
L 238.916355 272.634751 
L 240.267809 276.741969 
L 241.619345 280.106837 
L 242.97088 282.859939 
L 244.322335 285.110791 
L 245.67387 286.950679 
L 247.025406 288.454901 
L 248.37686 289.685349 
L 249.728396 290.692778 
L 251.079931 291.518441 
L 253.782921 292.752737 
L 256.485911 293.588706 
L 259.188982 294.158724 
L 263.243508 294.697975 
L 268.649488 295.082279 
L 275.407085 295.304084 
L 287.570662 295.43886 
L 320.006866 295.485623 
L 349.74 295.487773 
L 349.74 295.487773 
" style="fill:none;stroke:#cc0033;stroke-linecap:square;stroke-opacity:0.15;stroke-width:4;"/>
   </g>
   <g id="line2d_37">
    <path clip-path="url(#p8c3ae540ca)" d="M 107.82 295.488 
L 190.262047 295.426576 
L 192.965037 295.267916 
L 194.316573 295.076313 
L 195.668027 294.725804 
L 197.019563 294.094496 
L 198.371099 292.978791 
L 199.722553 291.051853 
L 201.074089 287.814947 
L 202.425624 282.55529 
L 203.777079 274.340919 
L 205.128614 262.097901 
L 206.48015 244.821161 
L 207.831604 221.936988 
L 209.18314 193.750594 
L 213.237665 98.596936 
L 214.589201 74.463369 
L 215.940655 59.085359 
L 217.292191 53.568383 
L 218.643727 57.47105 
L 219.995181 69.195855 
L 221.346717 86.552214 
L 224.049707 129.365108 
L 226.752778 172.048864 
L 228.104232 190.957563 
L 229.455768 207.739177 
L 230.807303 222.32911 
L 232.158758 234.814238 
L 233.510293 245.368753 
L 234.861829 254.207509 
L 236.213283 261.556085 
L 237.564819 267.631897 
L 238.916355 272.634718 
L 240.267809 276.74192 
L 241.619345 280.106832 
L 242.97088 282.859939 
L 244.322335 285.110819 
L 245.67387 286.950712 
L 247.025406 288.454929 
L 248.37686 289.685426 
L 249.728396 290.692885 
L 251.079931 291.518517 
L 253.782921 292.752767 
L 256.485911 293.588729 
L 259.188982 294.158735 
L 263.243508 294.697975 
L 268.649488 295.082275 
L 275.407085 295.304081 
L 287.570662 295.438865 
L 320.006866 295.485625 
L 349.74 295.487774 
L 349.74 295.487774 
" style="fill:none;stroke:#cc0033;stroke-linecap:square;stroke-opacity:0.15;stroke-width:4;"/>
   </g>
   <g id="line2d_38">
    <path clip-path="url(#p8c3ae540ca)" d="M 107.82 295.488 
L 190.262047 295.426576 
L 192.965037 295.267916 
L 194.316573 295.076313 
L 195.668027 294.725804 
L 197.019563 294.094496 
L 198.371099 292.978792 
L 199.722553 291.051853 
L 201.074089 287.814947 
L 202.425624 282.55529 
L 203.777079 274.340913 
L 205.128614 262.097907 
L 206.48015 244.821172 
L 207.831604 221.937042 
L 209.18314 193.750703 
L 213.237665 98.597155 
L 214.589201 74.463642 
L 215.940655 59.085633 
L 217.292191 53.568547 
L 218.643727 57.471159 
L 219.995181 69.195965 
L 221.346717 86.552323 
L 224.049707 129.365163 
L 226.752778 172.048919 
L 228.104232 190.957509 
L 229.455768 207.739123 
L 230.807303 222.329055 
L 232.158758 234.814347 
L 233.510293 245.368835 
L 234.861829 254.207465 
L 236.213283 261.556123 
L 237.564819 267.631875 
L 238.916355 272.634592 
L 240.267809 276.741827 
L 241.619345 280.106728 
L 242.97088 282.859846 
L 244.322335 285.110726 
L 245.67387 286.950614 
L 247.025406 288.454775 
L 248.37686 289.685278 
L 249.728396 290.692687 
L 251.079931 291.518359 
L 253.782921 292.752679 
L 256.485911 293.588659 
L 259.188982 294.158679 
L 263.243508 294.697952 
L 268.649488 295.082251 
L 275.407085 295.304067 
L 287.570662 295.438855 
L 320.006866 295.485622 
L 349.74 295.487773 
L 349.74 295.487773 
" style="fill:none;stroke:#cc0033;stroke-linecap:square;stroke-opacity:0.15;stroke-width:4;"/>
   </g>
   <g id="line2d_39">
    <defs>
     <path d="M 0 2.5 
C 0.663008 2.5 1.29895 2.236584 1.767767 1.767767 
C 2.236584 1.29895 2.5 0.663008 2.5 0 
C 2.5 -0.663008 2.236584 -1.29895 1.767767 -1.767767 
C 1.29895 -2.236584 0.663008 -2.5 0 -2.5 
C -0.663008 -2.5 -1.29895 -2.236584 -1.767767 -1.767767 
C -2.236584 -1.29895 -2.5 -0.663008 -2.5 0 
C -2.5 0.663008 -2.236584 1.29895 -1.767767 1.767767 
C -1.29895 2.236584 -0.663008 2.5 0 2.5 
z
" id="mfbb58a1ade" style="stroke:#cc0033;"/>
    </defs>
    <g clip-path="url(#p8c3ae540ca)">
     <use style="fill:#cc0033;stroke:#cc0033;" x="107.82" xlink:href="#mfbb58a1ade" y="295.488"/>
     <use style="fill:#cc0033;stroke:#cc0033;" x="110.523017" xlink:href="#mfbb58a1ade" y="295.488"/>
     <use style="fill:#cc0033;stroke:#cc0033;" x="113.226034" xlink:href="#mfbb58a1ade" y="295.488"/>
     <use style="fill:#cc0033;stroke:#cc0033;" x="115.929051" xlink:href="#mfbb58a1ade" y="295.488"/>
     <use style="fill:#cc0033;stroke:#cc0033;" x="118.632066" xlink:href="#mfbb58a1ade" y="295.488"/>
     <use style="fill:#cc0033;stroke:#cc0033;" x="121.335088" xlink:href="#mfbb58a1ade" y="295.488"/>
     <use style="fill:#cc0033;stroke:#cc0033;" x="124.038102" xlink:href="#mfbb58a1ade" y="295.488"/>
     <use style="fill:#cc0033;stroke:#cc0033;" x="126.741117" xlink:href="#mfbb58a1ade" y="295.488"/>
     <use style="fill:#cc0033;stroke:#cc0033;" x="129.444139" xlink:href="#mfbb58a1ade" y="295.488"/>
     <use style="fill:#cc0033;stroke:#cc0033;" x="132.147154" xlink:href="#mfbb58a1ade" y="295.488"/>
     <use style="fill:#cc0033;stroke:#cc0033;" x="134.850168" xlink:href="#mfbb58a1ade" y="295.488"/>
     <use style="fill:#cc0033;stroke:#cc0033;" x="137.55319" xlink:href="#mfbb58a1ade" y="295.488"/>
     <use style="fill:#cc0033;stroke:#cc0033;" x="140.256205" xlink:href="#mfbb58a1ade" y="295.488"/>
     <use style="fill:#cc0033;stroke:#cc0033;" x="142.959219" xlink:href="#mfbb58a1ade" y="295.488"/>
     <use style="fill:#cc0033;stroke:#cc0033;" x="145.662242" xlink:href="#mfbb58a1ade" y="295.488"/>
     <use style="fill:#cc0033;stroke:#cc0033;" x="148.365256" xlink:href="#mfbb58a1ade" y="295.488"/>
     <use style="fill:#cc0033;stroke:#cc0033;" x="151.06827" xlink:href="#mfbb58a1ade" y="295.488"/>
     <use style="fill:#cc0033;stroke:#cc0033;" x="153.771293" xlink:href="#mfbb58a1ade" y="295.488"/>
     <use style="fill:#cc0033;stroke:#cc0033;" x="156.474307" xlink:href="#mfbb58a1ade" y="295.488"/>
     <use style="fill:#cc0033;stroke:#cc0033;" x="159.177321" xlink:href="#mfbb58a1ade" y="295.488"/>
     <use style="fill:#cc0033;stroke:#cc0033;" x="161.880344" xlink:href="#mfbb58a1ade" y="295.488"/>
     <use style="fill:#cc0033;stroke:#cc0033;" x="164.583358" xlink:href="#mfbb58a1ade" y="295.488"/>
     <use style="fill:#cc0033;stroke:#cc0033;" x="167.286373" xlink:href="#mfbb58a1ade" y="295.487999"/>
     <use style="fill:#cc0033;stroke:#cc0033;" x="169.989395" xlink:href="#mfbb58a1ade" y="295.487995"/>
     <use style="fill:#cc0033;stroke:#cc0033;" x="172.692409" xlink:href="#mfbb58a1ade" y="295.487982"/>
     <use style="fill:#cc0033;stroke:#cc0033;" x="175.395424" xlink:href="#mfbb58a1ade" y="295.487933"/>
     <use style="fill:#cc0033;stroke:#cc0033;" x="178.098446" xlink:href="#mfbb58a1ade" y="295.487746"/>
     <use style="fill:#cc0033;stroke:#cc0033;" x="180.801461" xlink:href="#mfbb58a1ade" y="295.487041"/>
     <use style="fill:#cc0033;stroke:#cc0033;" x="183.504475" xlink:href="#mfbb58a1ade" y="295.484395"/>
     <use style="fill:#cc0033;stroke:#cc0033;" x="186.207497" xlink:href="#mfbb58a1ade" y="295.474573"/>
     <use style="fill:#cc0033;stroke:#cc0033;" x="188.910512" xlink:href="#mfbb58a1ade" y="295.438665"/>
     <use style="fill:#cc0033;stroke:#cc0033;" x="191.613502" xlink:href="#mfbb58a1ade" y="295.310503"/>
     <use style="fill:#cc0033;stroke:#cc0033;" x="194.316573" xlink:href="#mfbb58a1ade" y="294.869448"/>
     <use style="fill:#cc0033;stroke:#cc0033;" x="197.019563" xlink:href="#mfbb58a1ade" y="293.432693"/>
     <use style="fill:#cc0033;stroke:#cc0033;" x="199.722553" xlink:href="#mfbb58a1ade" y="289.117612"/>
     <use style="fill:#cc0033;stroke:#cc0033;" x="202.425624" xlink:href="#mfbb58a1ade" y="277.59559"/>
     <use style="fill:#cc0033;stroke:#cc0033;" x="205.128614" xlink:href="#mfbb58a1ade" y="251.517712"/>
     <use style="fill:#cc0033;stroke:#cc0033;" x="207.831604" xlink:href="#mfbb58a1ade" y="204.355965"/>
     <use style="fill:#cc0033;stroke:#cc0033;" x="210.534675" xlink:href="#mfbb58a1ade" y="140.797861"/>
     <use style="fill:#cc0033;stroke:#cc0033;" x="213.237665" xlink:href="#mfbb58a1ade" y="82.69148"/>
     <use style="fill:#cc0033;stroke:#cc0033;" x="215.940655" xlink:href="#mfbb58a1ade" y="54.931642"/>
     <use style="fill:#cc0033;stroke:#cc0033;" x="218.643727" xlink:href="#mfbb58a1ade" y="64.586843"/>
     <use style="fill:#cc0033;stroke:#cc0033;" x="221.346717" xlink:href="#mfbb58a1ade" y="99.750531"/>
     <use style="fill:#cc0033;stroke:#cc0033;" x="224.049707" xlink:href="#mfbb58a1ade" y="143.560674"/>
     <use style="fill:#cc0033;stroke:#cc0033;" x="226.752778" xlink:href="#mfbb58a1ade" y="184.377154"/>
     <use style="fill:#cc0033;stroke:#cc0033;" x="229.455768" xlink:href="#mfbb58a1ade" y="217.294856"/>
     <use style="fill:#cc0033;stroke:#cc0033;" x="232.158758" xlink:href="#mfbb58a1ade" y="241.7462"/>
     <use style="fill:#cc0033;stroke:#cc0033;" x="234.861829" xlink:href="#mfbb58a1ade" y="259.042324"/>
     <use style="fill:#cc0033;stroke:#cc0033;" x="237.564819" xlink:href="#mfbb58a1ade" y="270.927132"/>
     <use style="fill:#cc0033;stroke:#cc0033;" x="240.267809" xlink:href="#mfbb58a1ade" y="278.960113"/>
     <use style="fill:#cc0033;stroke:#cc0033;" x="242.97088" xlink:href="#mfbb58a1ade" y="284.344546"/>
     <use style="fill:#cc0033;stroke:#cc0033;" x="245.67387" xlink:href="#mfbb58a1ade" y="287.94333"/>
     <use style="fill:#cc0033;stroke:#cc0033;" x="248.37686" xlink:href="#mfbb58a1ade" y="290.350518"/>
     <use style="fill:#cc0033;stroke:#cc0033;" x="251.079931" xlink:href="#mfbb58a1ade" y="291.965977"/>
     <use style="fill:#cc0033;stroke:#cc0033;" x="253.782921" xlink:href="#mfbb58a1ade" y="293.055547"/>
     <use style="fill:#cc0033;stroke:#cc0033;" x="256.485911" xlink:href="#mfbb58a1ade" y="293.794961"/>
     <use style="fill:#cc0033;stroke:#cc0033;" x="259.188982" xlink:href="#mfbb58a1ade" y="294.300229"/>
     <use style="fill:#cc0033;stroke:#cc0033;" x="261.891973" xlink:href="#mfbb58a1ade" y="294.648052"/>
     <use style="fill:#cc0033;stroke:#cc0033;" x="264.594963" xlink:href="#mfbb58a1ade" y="294.889325"/>
     <use style="fill:#cc0033;stroke:#cc0033;" x="267.298034" xlink:href="#mfbb58a1ade" y="295.057988"/>
     <use style="fill:#cc0033;stroke:#cc0033;" x="270.001024" xlink:href="#mfbb58a1ade" y="295.176807"/>
     <use style="fill:#cc0033;stroke:#cc0033;" x="272.704014" xlink:href="#mfbb58a1ade" y="295.261154"/>
     <use style="fill:#cc0033;stroke:#cc0033;" x="275.407085" xlink:href="#mfbb58a1ade" y="295.321479"/>
     <use style="fill:#cc0033;stroke:#cc0033;" x="278.110075" xlink:href="#mfbb58a1ade" y="295.36494"/>
     <use style="fill:#cc0033;stroke:#cc0033;" x="280.813065" xlink:href="#mfbb58a1ade" y="295.396473"/>
     <use style="fill:#cc0033;stroke:#cc0033;" x="283.516136" xlink:href="#mfbb58a1ade" y="295.419507"/>
     <use style="fill:#cc0033;stroke:#cc0033;" x="286.219126" xlink:href="#mfbb58a1ade" y="295.436445"/>
     <use style="fill:#cc0033;stroke:#cc0033;" x="288.922116" xlink:href="#mfbb58a1ade" y="295.448978"/>
     <use style="fill:#cc0033;stroke:#cc0033;" x="291.625187" xlink:href="#mfbb58a1ade" y="295.458308"/>
     <use style="fill:#cc0033;stroke:#cc0033;" x="294.328177" xlink:href="#mfbb58a1ade" y="295.465293"/>
     <use style="fill:#cc0033;stroke:#cc0033;" x="297.031167" xlink:href="#mfbb58a1ade" y="295.470552"/>
     <use style="fill:#cc0033;stroke:#cc0033;" x="299.734238" xlink:href="#mfbb58a1ade" y="295.474532"/>
     <use style="fill:#cc0033;stroke:#cc0033;" x="302.437228" xlink:href="#mfbb58a1ade" y="295.47756"/>
     <use style="fill:#cc0033;stroke:#cc0033;" x="305.140218" xlink:href="#mfbb58a1ade" y="295.479873"/>
     <use style="fill:#cc0033;stroke:#cc0033;" x="307.84329" xlink:href="#mfbb58a1ade" y="295.481649"/>
     <use style="fill:#cc0033;stroke:#cc0033;" x="310.54628" xlink:href="#mfbb58a1ade" y="295.483019"/>
     <use style="fill:#cc0033;stroke:#cc0033;" x="313.24927" xlink:href="#mfbb58a1ade" y="295.484079"/>
     <use style="fill:#cc0033;stroke:#cc0033;" x="315.952341" xlink:href="#mfbb58a1ade" y="295.484903"/>
     <use style="fill:#cc0033;stroke:#cc0033;" x="318.655331" xlink:href="#mfbb58a1ade" y="295.485546"/>
     <use style="fill:#cc0033;stroke:#cc0033;" x="321.358321" xlink:href="#mfbb58a1ade" y="295.486049"/>
     <use style="fill:#cc0033;stroke:#cc0033;" x="324.061392" xlink:href="#mfbb58a1ade" y="295.486445"/>
     <use style="fill:#cc0033;stroke:#cc0033;" x="326.764382" xlink:href="#mfbb58a1ade" y="295.486756"/>
     <use style="fill:#cc0033;stroke:#cc0033;" x="329.467372" xlink:href="#mfbb58a1ade" y="295.487003"/>
     <use style="fill:#cc0033;stroke:#cc0033;" x="332.170443" xlink:href="#mfbb58a1ade" y="295.487198"/>
     <use style="fill:#cc0033;stroke:#cc0033;" x="334.873433" xlink:href="#mfbb58a1ade" y="295.487353"/>
     <use style="fill:#cc0033;stroke:#cc0033;" x="337.576423" xlink:href="#mfbb58a1ade" y="295.487477"/>
     <use style="fill:#cc0033;stroke:#cc0033;" x="340.279494" xlink:href="#mfbb58a1ade" y="295.487576"/>
     <use style="fill:#cc0033;stroke:#cc0033;" x="342.982484" xlink:href="#mfbb58a1ade" y="295.487656"/>
     <use style="fill:#cc0033;stroke:#cc0033;" x="345.685474" xlink:href="#mfbb58a1ade" y="295.48772"/>
     <use style="fill:#cc0033;stroke:#cc0033;" x="348.388546" xlink:href="#mfbb58a1ade" y="295.487771"/>
    </g>
   </g>
   <g id="line2d_40">
    <path clip-path="url(#p8c3ae540ca)" d="M 107.82 295.488 
L 190.262047 295.426576 
L 192.965037 295.267916 
L 194.316573 295.076313 
L 195.668027 294.725804 
L 197.019563 294.094496 
L 198.371099 292.978792 
L 199.722553 291.051853 
L 201.074089 287.814949 
L 202.425624 282.555291 
L 203.777079 274.340916 
L 205.128614 262.097905 
L 206.48015 244.821166 
L 207.831604 221.937031 
L 209.18314 193.750643 
L 213.237665 98.597092 
L 214.589201 74.463549 
L 215.940655 59.08557 
L 217.292191 53.568561 
L 218.643727 57.471263 
L 219.995181 69.196069 
L 221.346717 86.552463 
L 224.049707 129.36536 
L 226.752778 172.049092 
L 228.104232 190.957755 
L 229.455768 207.739421 
L 230.807303 222.329373 
L 232.158758 234.814566 
L 233.510293 245.369007 
L 234.861829 254.207657 
L 236.213283 261.556298 
L 237.564819 267.63203 
L 238.916355 272.634786 
L 240.267809 276.74198 
L 241.619345 280.106915 
L 242.97088 282.859979 
L 244.322335 285.11085 
L 245.67387 286.950742 
L 247.025406 288.45492 
L 248.37686 289.685419 
L 249.728396 290.69284 
L 251.079931 291.518488 
L 253.782921 292.752759 
L 256.485911 293.58872 
L 259.188982 294.158724 
L 263.243508 294.697978 
L 268.649488 295.082277 
L 275.407085 295.304084 
L 287.570662 295.438864 
L 320.006866 295.485623 
L 349.74 295.487773 
L 349.74 295.487773 
" style="fill:none;stroke:#cc0033;stroke-linecap:square;stroke-width:4;"/>
   </g>
   <g id="patch_3">
    <path d="M 95.724 307.584 
L 95.724 41.472 
" style="fill:none;stroke:#000000;stroke-linecap:square;stroke-linejoin:miter;stroke-width:0.8;"/>
   </g>
   <g id="patch_4">
    <path d="M 361.836 307.584 
L 361.836 41.472 
" style="fill:none;stroke:#000000;stroke-linecap:square;stroke-linejoin:miter;stroke-width:0.8;"/>
   </g>
   <g id="patch_5">
    <path d="M 95.724 307.584 
L 361.836 307.584 
" style="fill:none;stroke:#000000;stroke-linecap:square;stroke-linejoin:miter;stroke-width:0.8;"/>
   </g>
   <g id="patch_6">
    <path d="M 95.724 41.472 
L 361.836 41.472 
" style="fill:none;stroke:#000000;stroke-linecap:square;stroke-linejoin:miter;stroke-width:0.8;"/>
   </g>
   <g id="text_12">
    <text style="font-family:DejaVu Sans;font-size:18px;font-style:normal;font-weight:normal;text-anchor:middle;" transform="rotate(-0, 228.78, 35.472)" x="228.78" y="35.472">IFN</text>
   </g>
   <g id="legend_1">
    <g id="patch_7">
     <path d="M 269.841469 97.506375 
L 351.336 97.506375 
Q 354.336 97.506375 354.336 94.506375 
L 354.336 51.972 
Q 354.336 48.972 351.336 48.972 
L 269.841469 48.972 
Q 266.841469 48.972 266.841469 51.972 
L 266.841469 94.506375 
Q 266.841469 97.506375 269.841469 97.506375 
z
" style="fill:#ffffff;opacity:0.8;stroke:#cccccc;stroke-linejoin:miter;"/>
    </g>
    <g id="line2d_41"/>
    <g id="line2d_42">
     <g>
      <use style="fill:#cc0033;stroke:#cc0033;" x="287.841469" xlink:href="#mfbb58a1ade" y="61.119656"/>
     </g>
    </g>
    <g id="text_13">
     <text style="font-family:DejaVu Sans;font-size:15px;font-style:normal;font-weight:normal;text-anchor:start;" transform="rotate(-0, 314.841469, 66.369656)" x="314.841469" y="66.369656">ODE</text>
    </g>
    <g id="line2d_43">
     <path d="M 272.841469 83.136844 
L 302.841469 83.136844 
" style="fill:none;stroke:#cc0033;stroke-linecap:square;stroke-width:4;"/>
    </g>
    <g id="line2d_44"/>
    <g id="text_14">
     <text style="font-family:DejaVu Sans;font-size:15px;font-style:normal;font-weight:normal;text-anchor:start;" transform="rotate(-0, 314.841469, 88.386844)" x="314.841469" y="88.386844">ABM</text>
    </g>
   </g>
  </g>
 </g>
 <defs>
  <clipPath id="p8c3ae540ca">
   <rect height="266.112" width="266.112" x="95.724" y="41.472"/>
  </clipPath>
 </defs>
</svg>
