<?xml version="1.0" encoding="utf-8" standalone="no"?>
<!DOCTYPE svg PUBLIC "-//W3C//DTD SVG 1.1//EN"
  "http://www.w3.org/Graphics/SVG/1.1/DTD/svg11.dtd">
<!-- Created with matplotlib (https://matplotlib.org/) -->
<svg height="345.6pt" version="1.1" viewBox="0 0 446.4 345.6" width="446.4pt" xmlns="http://www.w3.org/2000/svg" xmlns:xlink="http://www.w3.org/1999/xlink">
 <defs>
  <style type="text/css">
*{stroke-linecap:butt;stroke-linejoin:round;}
  </style>
 </defs>
 <g id="figure_1">
  <g id="patch_1">
   <path d="M 0 345.6 
L 446.4 345.6 
L 446.4 0 
L 0 0 
z
" style="fill:none;"/>
  </g>
  <g id="axes_1">
   <g id="patch_2">
    <path d="M 95.724 307.584 
L 361.836 307.584 
L 361.836 41.472 
L 95.724 41.472 
z
" style="fill:none;"/>
   </g>
   <g id="matplotlib.axis_1">
    <g id="xtick_1">
     <g id="line2d_1">
      <path clip-path="url(#p19acdadfea)" d="M 107.82 307.584 
L 107.82 41.472 
" style="fill:none;stroke:#b0b0b0;stroke-linecap:square;stroke-width:0.8;"/>
     </g>
     <g id="line2d_2">
      <defs>
       <path d="M 0 0 
L 0 3.5 
" id="m2e9aa3109a" style="stroke:#000000;stroke-width:0.8;"/>
      </defs>
      <g>
       <use style="stroke:#000000;stroke-width:0.8;" x="107.82" xlink:href="#m2e9aa3109a" y="307.584"/>
      </g>
     </g>
     <g id="text_1">
      <text style="font-family:DejaVu Sans;font-size:15px;font-style:normal;font-weight:normal;text-anchor:middle;" transform="rotate(-0, 107.82, 325.981656)" x="107.82" y="325.981656">0</text>
     </g>
    </g>
    <g id="xtick_2">
     <g id="line2d_3">
      <path clip-path="url(#p19acdadfea)" d="M 188.910512 307.584 
L 188.910512 41.472 
" style="fill:none;stroke:#b0b0b0;stroke-linecap:square;stroke-width:0.8;"/>
     </g>
     <g id="line2d_4">
      <g>
       <use style="stroke:#000000;stroke-width:0.8;" x="188.910512" xlink:href="#m2e9aa3109a" y="307.584"/>
      </g>
     </g>
     <g id="text_2">
      <text style="font-family:DejaVu Sans;font-size:15px;font-style:normal;font-weight:normal;text-anchor:middle;" transform="rotate(-0, 188.910512, 325.981656)" x="188.910512" y="325.981656">10</text>
     </g>
    </g>
    <g id="xtick_3">
     <g id="line2d_5">
      <path clip-path="url(#p19acdadfea)" d="M 270.001024 307.584 
L 270.001024 41.472 
" style="fill:none;stroke:#b0b0b0;stroke-linecap:square;stroke-width:0.8;"/>
     </g>
     <g id="line2d_6">
      <g>
       <use style="stroke:#000000;stroke-width:0.8;" x="270.001024" xlink:href="#m2e9aa3109a" y="307.584"/>
      </g>
     </g>
     <g id="text_3">
      <text style="font-family:DejaVu Sans;font-size:15px;font-style:normal;font-weight:normal;text-anchor:middle;" transform="rotate(-0, 270.001024, 325.981656)" x="270.001024" y="325.981656">20</text>
     </g>
    </g>
    <g id="xtick_4">
     <g id="line2d_7">
      <path clip-path="url(#p19acdadfea)" d="M 351.091536 307.584 
L 351.091536 41.472 
" style="fill:none;stroke:#b0b0b0;stroke-linecap:square;stroke-width:0.8;"/>
     </g>
     <g id="line2d_8">
      <g>
       <use style="stroke:#000000;stroke-width:0.8;" x="351.091536" xlink:href="#m2e9aa3109a" y="307.584"/>
      </g>
     </g>
     <g id="text_4">
      <text style="font-family:DejaVu Sans;font-size:15px;font-style:normal;font-weight:normal;text-anchor:middle;" transform="rotate(-0, 351.091536, 325.981656)" x="351.091536" y="325.981656">30</text>
     </g>
    </g>
    <g id="text_5">
     <text style="font-family:DejaVu Sans;font-size:15px;font-style:normal;font-weight:normal;text-anchor:middle;" transform="rotate(-0, 228.78, 344.498844)" x="228.78" y="344.498844">Time (hrs)</text>
    </g>
   </g>
   <g id="matplotlib.axis_2">
    <g id="ytick_1">
     <g id="line2d_9">
      <path clip-path="url(#p19acdadfea)" d="M 95.724 295.622219 
L 361.836 295.622219 
" style="fill:none;stroke:#b0b0b0;stroke-linecap:square;stroke-width:0.8;"/>
     </g>
     <g id="line2d_10">
      <defs>
       <path d="M 0 0 
L -3.5 0 
" id="m8b145fc21a" style="stroke:#000000;stroke-width:0.8;"/>
      </defs>
      <g>
       <use style="stroke:#000000;stroke-width:0.8;" x="95.724" xlink:href="#m8b145fc21a" y="295.622219"/>
      </g>
     </g>
     <g id="text_6">
      <text style="font-family:DejaVu Sans;font-size:15px;font-style:normal;font-weight:normal;text-anchor:end;" transform="rotate(-0, 88.724, 301.321047)" x="88.724" y="301.321047">0.0</text>
     </g>
    </g>
    <g id="ytick_2">
     <g id="line2d_11">
      <path clip-path="url(#p19acdadfea)" d="M 95.724 247.211375 
L 361.836 247.211375 
" style="fill:none;stroke:#b0b0b0;stroke-linecap:square;stroke-width:0.8;"/>
     </g>
     <g id="line2d_12">
      <g>
       <use style="stroke:#000000;stroke-width:0.8;" x="95.724" xlink:href="#m8b145fc21a" y="247.211375"/>
      </g>
     </g>
     <g id="text_7">
      <text style="font-family:DejaVu Sans;font-size:15px;font-style:normal;font-weight:normal;text-anchor:end;" transform="rotate(-0, 88.724, 252.910204)" x="88.724" y="252.910204">0.2</text>
     </g>
    </g>
    <g id="ytick_3">
     <g id="line2d_13">
      <path clip-path="url(#p19acdadfea)" d="M 95.724 198.800532 
L 361.836 198.800532 
" style="fill:none;stroke:#b0b0b0;stroke-linecap:square;stroke-width:0.8;"/>
     </g>
     <g id="line2d_14">
      <g>
       <use style="stroke:#000000;stroke-width:0.8;" x="95.724" xlink:href="#m8b145fc21a" y="198.800532"/>
      </g>
     </g>
     <g id="text_8">
      <text style="font-family:DejaVu Sans;font-size:15px;font-style:normal;font-weight:normal;text-anchor:end;" transform="rotate(-0, 88.724, 204.49936)" x="88.724" y="204.49936">0.4</text>
     </g>
    </g>
    <g id="ytick_4">
     <g id="line2d_15">
      <path clip-path="url(#p19acdadfea)" d="M 95.724 150.389688 
L 361.836 150.389688 
" style="fill:none;stroke:#b0b0b0;stroke-linecap:square;stroke-width:0.8;"/>
     </g>
     <g id="line2d_16">
      <g>
       <use style="stroke:#000000;stroke-width:0.8;" x="95.724" xlink:href="#m8b145fc21a" y="150.389688"/>
      </g>
     </g>
     <g id="text_9">
      <text style="font-family:DejaVu Sans;font-size:15px;font-style:normal;font-weight:normal;text-anchor:end;" transform="rotate(-0, 88.724, 156.088516)" x="88.724" y="156.088516">0.6</text>
     </g>
    </g>
    <g id="ytick_5">
     <g id="line2d_17">
      <path clip-path="url(#p19acdadfea)" d="M 95.724 101.978844 
L 361.836 101.978844 
" style="fill:none;stroke:#b0b0b0;stroke-linecap:square;stroke-width:0.8;"/>
     </g>
     <g id="line2d_18">
      <g>
       <use style="stroke:#000000;stroke-width:0.8;" x="95.724" xlink:href="#m8b145fc21a" y="101.978844"/>
      </g>
     </g>
     <g id="text_10">
      <text style="font-family:DejaVu Sans;font-size:15px;font-style:normal;font-weight:normal;text-anchor:end;" transform="rotate(-0, 88.724, 107.677672)" x="88.724" y="107.677672">0.8</text>
     </g>
    </g>
    <g id="ytick_6">
     <g id="line2d_19">
      <path clip-path="url(#p19acdadfea)" d="M 95.724 53.568 
L 361.836 53.568 
" style="fill:none;stroke:#b0b0b0;stroke-linecap:square;stroke-width:0.8;"/>
     </g>
     <g id="line2d_20">
      <g>
       <use style="stroke:#000000;stroke-width:0.8;" x="95.724" xlink:href="#m8b145fc21a" y="53.568"/>
      </g>
     </g>
     <g id="text_11">
      <text style="font-family:DejaVu Sans;font-size:15px;font-style:normal;font-weight:normal;text-anchor:end;" transform="rotate(-0, 88.724, 59.266828)" x="88.724" y="59.266828">1.0</text>
     </g>
    </g>
    <g id="text_12">
     <text style="font-family:DejaVu Sans;font-size:15px;font-style:normal;font-weight:normal;text-anchor:middle;" transform="rotate(-90, 57.749781, 174.528)" x="57.749781" y="174.528">Fraction of Live Cells</text>
    </g>
   </g>
   <g id="line2d_21">
    <path clip-path="url(#p19acdadfea)" d="M 107.82 53.568 
L 191.613502 53.664822 
L 194.316573 53.88267 
L 197.019563 54.221546 
L 198.371099 54.560422 
L 201.074089 56.279007 
L 202.425624 57.658716 
L 203.777079 59.691972 
L 205.128614 62.862882 
L 206.48015 66.542106 
L 207.831604 71.552628 
L 209.18314 78.281736 
L 210.534675 86.874661 
L 211.88613 96.992527 
L 214.589201 121.24636 
L 215.940655 134.704574 
L 218.643727 164.162573 
L 221.346717 190.957975 
L 224.049707 214.800315 
L 226.752778 233.680545 
L 229.455768 248.494263 
L 232.158758 259.556141 
L 234.861829 268.149065 
L 236.213283 271.707262 
L 237.564819 274.878173 
L 238.916355 277.540769 
L 240.267809 279.307765 
L 242.97088 283.30166 
L 244.322335 285.04445 
L 245.67387 286.157899 
L 247.025406 287.464992 
L 249.728396 289.135166 
L 252.431386 290.418054 
L 253.782921 290.950573 
L 256.485911 291.773557 
L 263.243508 293.032239 
L 265.946498 293.274293 
L 268.649488 293.637375 
L 276.758539 294.024661 
L 278.110075 294.24251 
L 291.625187 294.871851 
L 299.734238 295.0897 
L 305.140218 295.162316 
L 309.194744 295.210727 
L 325.412846 295.307549 
L 332.170443 295.331754 
L 349.74 295.35596 
L 349.74 295.35596 
" style="fill:none;stroke:#ff0000;stroke-linecap:square;stroke-opacity:0.15;stroke-width:4;"/>
   </g>
   <g id="line2d_22">
    <path clip-path="url(#p19acdadfea)" d="M 107.82 53.568 
L 191.613502 53.664822 
L 194.316573 53.858465 
L 197.019563 54.318368 
L 198.371099 54.681449 
L 199.722553 55.26238 
L 201.074089 56.327418 
L 202.425624 57.997592 
L 203.777079 59.958231 
L 205.128614 63.080731 
L 206.48015 67.002009 
L 207.831604 71.818888 
L 209.18314 78.20912 
L 210.534675 85.7128 
L 211.88613 95.249737 
L 214.589201 118.922639 
L 218.643727 159.006818 
L 222.698252 200.906403 
L 224.049707 212.355568 
L 226.752778 232.131398 
L 228.104232 240.675912 
L 229.455768 248.276414 
L 232.158758 259.193059 
L 233.510293 264.10676 
L 236.213283 271.465208 
L 237.564819 274.297243 
L 241.619345 280.929528 
L 242.97088 282.720729 
L 245.67387 285.189682 
L 247.025406 286.036872 
L 248.37686 287.101911 
L 251.079931 288.699469 
L 253.782921 290.006561 
L 256.485911 290.998984 
L 261.891973 292.088228 
L 271.352559 293.564758 
L 286.219126 294.436154 
L 290.273652 294.702413 
L 299.734238 294.944467 
L 310.54628 295.041289 
L 313.24927 295.138111 
L 337.576423 295.234933 
L 341.630949 295.283343 
L 349.74 295.283343 
L 349.74 295.283343 
" style="fill:none;stroke:#ff0000;stroke-linecap:square;stroke-opacity:0.15;stroke-width:4;"/>
   </g>
   <g id="line2d_23">
    <path clip-path="url(#p19acdadfea)" d="M 107.82 53.568 
L 191.613502 53.664822 
L 195.668027 54.052108 
L 197.019563 54.294163 
L 199.722553 55.504434 
L 201.074089 56.472651 
L 202.425624 57.973387 
L 203.777079 59.885615 
L 205.128614 62.548212 
L 206.48015 66.78416 
L 207.831604 72.23038 
L 209.18314 78.305941 
L 210.534675 86.487374 
L 211.88613 96.677856 
L 213.237665 107.76394 
L 214.589201 119.769829 
L 221.346717 188.3922 
L 222.698252 201.511539 
L 225.401242 224.676128 
L 226.752778 234.092037 
L 228.104232 242.225059 
L 230.807303 254.763467 
L 232.158758 259.967633 
L 233.510293 264.711896 
L 236.213283 271.441003 
L 238.916355 276.814606 
L 240.267809 279.28356 
L 241.619345 281.34102 
L 242.97088 282.938578 
L 244.322335 284.318287 
L 245.67387 285.89164 
L 247.025406 286.908267 
L 248.37686 287.707046 
L 251.079931 289.06255 
L 252.431386 290.030767 
L 256.485911 291.192627 
L 260.540437 292.160844 
L 268.649488 293.274293 
L 271.352559 293.492142 
L 274.055549 293.734196 
L 275.407085 293.758402 
L 279.46161 294.218305 
L 286.219126 294.557181 
L 294.328177 294.896057 
L 326.764382 295.380165 
L 349.74 295.428576 
L 349.74 295.428576 
" style="fill:none;stroke:#ff0000;stroke-linecap:square;stroke-opacity:0.15;stroke-width:4;"/>
   </g>
   <g id="line2d_24">
    <path clip-path="url(#p19acdadfea)" d="M 107.82 53.568 
L 188.910512 53.640616 
L 194.316573 53.88267 
L 195.668027 54.100519 
L 199.722553 55.480228 
L 201.074089 56.085364 
L 202.425624 57.682922 
L 203.777079 59.909821 
L 205.128614 62.499801 
L 206.48015 66.300052 
L 207.831604 71.455807 
L 209.18314 78.451174 
L 210.534675 86.608401 
L 211.88613 96.992527 
L 214.589201 120.326554 
L 217.292191 147.872324 
L 219.995181 177.669198 
L 221.346717 190.957975 
L 222.698252 202.407139 
L 224.049707 214.848726 
L 226.752778 234.358296 
L 228.104232 242.636551 
L 229.455768 249.535096 
L 232.158758 261.202109 
L 234.861829 269.964472 
L 237.564819 276.185265 
L 240.267809 280.881117 
L 241.619345 282.575497 
L 245.67387 286.642008 
L 247.025406 287.586019 
L 249.728396 289.159372 
L 257.837447 292.330282 
L 259.188982 292.475514 
L 261.891973 293.056445 
L 270.001024 293.855224 
L 279.46161 294.436154 
L 283.516136 294.605592 
L 292.976642 294.871851 
L 305.140218 294.968673 
L 321.358321 295.162316 
L 349.74 295.234933 
L 349.74 295.234933 
" style="fill:none;stroke:#ff0000;stroke-linecap:square;stroke-opacity:0.15;stroke-width:4;"/>
   </g>
   <g id="line2d_25">
    <path clip-path="url(#p19acdadfea)" d="M 107.82 53.568 
L 186.207497 53.664822 
L 191.613502 53.785849 
L 194.316573 54.052108 
L 197.019563 54.536217 
L 198.371099 55.092942 
L 201.074089 56.956759 
L 202.425624 58.505906 
L 203.777079 60.587572 
L 205.128614 63.371196 
L 206.48015 67.147242 
L 207.831604 71.91571 
L 209.18314 78.547995 
L 210.534675 86.971482 
L 211.88613 96.798884 
L 215.940655 134.099439 
L 217.292191 147.606064 
L 219.995181 176.700981 
L 224.049707 213.251168 
L 225.401242 223.39324 
L 226.752778 232.688122 
L 229.455768 247.671278 
L 230.807303 254.134126 
L 232.158758 259.8224 
L 234.861829 268.584763 
L 237.564819 274.73294 
L 238.916355 277.540769 
L 241.619345 281.171582 
L 242.97088 282.744935 
L 244.322335 284.100438 
L 247.025406 286.303132 
L 248.37686 287.295554 
L 249.728396 288.021717 
L 251.079931 288.505825 
L 253.782921 290.103383 
L 255.134457 290.466464 
L 259.188982 291.821968 
L 263.243508 292.572336 
L 270.001024 293.443731 
L 282.1646 294.436154 
L 286.219126 294.557181 
L 328.115918 295.210727 
L 349.74 295.259138 
L 349.74 295.259138 
" style="fill:none;stroke:#ff0000;stroke-linecap:square;stroke-opacity:0.15;stroke-width:4;"/>
   </g>
   <g id="line2d_26">
    <path clip-path="url(#p19acdadfea)" d="M 107.82 53.568 
L 188.910512 53.616411 
L 192.965037 53.83426 
L 194.316573 54.076314 
L 195.668027 54.197341 
L 198.371099 54.778271 
L 199.722553 55.601255 
L 201.074089 56.593678 
L 202.425624 57.85236 
L 203.777079 59.958231 
L 205.128614 63.03232 
L 206.48015 66.542106 
L 207.831604 71.625245 
L 209.18314 78.693228 
L 210.534675 87.504002 
L 211.88613 95.564407 
L 214.589201 119.576186 
L 218.643727 162.492399 
L 221.346717 187.980708 
L 222.698252 201.196868 
L 224.049707 213.299579 
L 225.401242 223.756322 
L 226.752778 233.172231 
L 228.104232 241.087404 
L 230.807303 254.206742 
L 232.158758 259.846606 
L 233.510293 263.985733 
L 236.213283 271.174743 
L 238.916355 277.564975 
L 240.267809 279.888695 
L 244.322335 284.681369 
L 247.025406 286.738829 
L 248.37686 287.707046 
L 249.728396 288.48162 
L 251.079931 289.449837 
L 256.485911 291.362065 
L 260.540437 292.378693 
L 261.891973 292.669158 
L 267.298034 293.274293 
L 271.352559 293.66158 
L 278.110075 294.169894 
L 291.625187 294.82344 
L 318.655331 295.210727 
L 349.74 295.283343 
L 349.74 295.283343 
" style="fill:none;stroke:#ff0000;stroke-linecap:square;stroke-opacity:0.15;stroke-width:4;"/>
   </g>
   <g id="line2d_27">
    <path clip-path="url(#p19acdadfea)" d="M 107.82 53.568 
L 191.613502 53.640616 
L 195.668027 54.003698 
L 197.019563 54.294163 
L 198.371099 54.778271 
L 201.074089 56.303213 
L 202.425624 57.828154 
L 203.777079 59.812999 
L 205.128614 62.814471 
L 206.48015 66.73575 
L 207.831604 71.528423 
L 209.18314 78.669023 
L 210.534675 87.479796 
L 213.237665 108.853184 
L 214.589201 120.834868 
L 219.995181 174.32885 
L 224.049707 211.484173 
L 225.401242 221.38419 
L 228.104232 238.957327 
L 229.455768 246.993527 
L 230.807303 252.923855 
L 233.510293 263.186954 
L 236.213283 271.319976 
L 238.916355 277.153482 
L 241.619345 281.462047 
L 242.97088 283.011194 
L 244.322335 284.027822 
L 245.67387 285.238093 
L 247.025406 286.617802 
L 249.728396 288.360593 
L 251.079931 289.038345 
L 253.782921 290.006561 
L 256.485911 290.926367 
L 267.298034 293.371115 
L 268.649488 293.637375 
L 271.352559 293.855224 
L 272.704014 294.121483 
L 279.46161 294.460359 
L 284.867591 294.750824 
L 307.84329 295.065495 
L 321.358321 295.162316 
L 328.115918 295.186522 
L 349.74 295.259138 
L 349.74 295.259138 
" style="fill:none;stroke:#ff0000;stroke-linecap:square;stroke-opacity:0.15;stroke-width:4;"/>
   </g>
   <g id="line2d_28">
    <path clip-path="url(#p19acdadfea)" d="M 107.82 53.568 
L 191.613502 53.664822 
L 194.316573 53.810054 
L 197.019563 54.342574 
L 198.371099 54.802477 
L 199.722553 55.552845 
L 201.074089 56.666294 
L 202.425624 58.215441 
L 203.777079 60.321313 
L 205.128614 63.03232 
L 206.48015 67.219858 
L 207.831604 72.036737 
L 209.18314 78.499585 
L 210.534675 86.221114 
L 211.88613 95.588612 
L 213.237665 106.529463 
L 214.589201 118.70479 
L 219.995181 175.974819 
L 221.346717 189.941347 
L 224.049707 213.735277 
L 225.401242 224.167814 
L 226.752778 233.511107 
L 228.104232 241.281047 
L 230.807303 254.255153 
L 232.158758 259.604551 
L 234.861829 268.366914 
L 236.213283 272.167165 
L 238.916355 277.226099 
L 242.97088 283.132222 
L 245.67387 285.746407 
L 247.025406 286.569392 
L 248.37686 287.682841 
L 249.728396 288.626852 
L 252.431386 290.006561 
L 255.134457 290.926367 
L 261.891973 292.81439 
L 264.594963 293.177472 
L 271.352559 294.000456 
L 284.867591 294.629797 
L 288.922116 294.726619 
L 295.679713 294.871851 
L 302.437228 294.968673 
L 305.140218 295.065495 
L 325.412846 295.162316 
L 341.630949 295.35596 
L 349.74 295.380165 
L 349.74 295.380165 
" style="fill:none;stroke:#ff0000;stroke-linecap:square;stroke-opacity:0.15;stroke-width:4;"/>
   </g>
   <g id="line2d_29">
    <path clip-path="url(#p19acdadfea)" d="M 107.82 53.568 
L 188.910512 53.592205 
L 195.668027 54.14893 
L 197.019563 54.560422 
L 198.371099 54.802477 
L 199.722553 55.238174 
L 201.074089 56.254802 
L 202.425624 57.489278 
L 203.777079 59.667766 
L 205.128614 62.983909 
L 206.48015 66.614722 
L 207.831604 71.697861 
L 209.18314 77.821833 
L 210.534675 86.390552 
L 214.589201 118.753201 
L 217.292191 147.751297 
L 219.995181 175.611737 
L 222.698252 200.277062 
L 225.401242 221.553628 
L 228.104232 239.99816 
L 229.455768 247.598662 
L 230.807303 253.892072 
L 232.158758 259.531935 
L 233.510293 264.348814 
L 236.213283 272.167165 
L 238.916355 277.661796 
L 242.97088 283.422687 
L 244.322335 284.802396 
L 247.025406 287.077705 
L 248.37686 288.021717 
L 249.728396 288.626852 
L 251.079931 289.449837 
L 253.782921 290.684313 
L 256.485911 291.434681 
L 259.188982 292.112433 
L 260.540437 292.523925 
L 261.891973 292.76598 
L 263.243508 292.887007 
L 264.594963 293.177472 
L 268.649488 293.540553 
L 272.704014 293.903634 
L 275.407085 294.097278 
L 280.813065 294.339332 
L 284.867591 294.629797 
L 288.922116 294.702413 
L 294.328177 294.77503 
L 297.031167 294.847646 
L 301.085693 294.944467 
L 313.24927 295.065495 
L 338.927959 295.162316 
L 347.03701 295.210727 
L 349.74 295.210727 
L 349.74 295.210727 
" style="fill:none;stroke:#ff0000;stroke-linecap:square;stroke-opacity:0.15;stroke-width:4;"/>
   </g>
   <g id="line2d_30">
    <path clip-path="url(#p19acdadfea)" d="M 107.82 53.568 
L 190.262047 53.640616 
L 192.965037 53.810054 
L 195.668027 54.173136 
L 198.371099 55.068736 
L 199.722553 55.819104 
L 201.074089 56.980964 
L 202.425624 58.336468 
L 203.777079 60.44234 
L 205.128614 63.274374 
L 206.48015 67.074625 
L 209.18314 78.620612 
L 210.534675 86.777839 
L 211.88613 96.677856 
L 213.237665 107.957583 
L 215.940655 133.905795 
L 218.643727 161.838852 
L 219.995181 176.676776 
L 222.698252 202.963864 
L 224.049707 214.945548 
L 226.752778 234.309886 
L 229.455768 249.317247 
L 230.807303 255.707479 
L 232.158758 260.984261 
L 233.510293 265.607496 
L 236.213283 273.086971 
L 238.916355 278.242726 
L 240.267809 279.86449 
L 241.619345 281.825129 
L 244.322335 284.875012 
L 245.67387 286.327337 
L 248.37686 288.045922 
L 251.079931 289.522453 
L 253.782921 290.442259 
L 256.485911 291.507298 
L 259.188982 292.330282 
L 260.540437 292.620747 
L 264.594963 293.129061 
L 265.946498 293.34691 
L 275.407085 294.097278 
L 276.758539 294.24251 
L 280.813065 294.339332 
L 283.516136 294.581386 
L 295.679713 294.920262 
L 299.734238 295.017084 
L 313.24927 295.162316 
L 349.74 295.259138 
L 349.74 295.259138 
" style="fill:none;stroke:#ff0000;stroke-linecap:square;stroke-opacity:0.15;stroke-width:4;"/>
   </g>
   <g id="line2d_31">
    <path clip-path="url(#p19acdadfea)" d="M 107.82 53.568 
L 190.262047 53.640616 
L 194.316573 53.88267 
L 197.019563 54.41519 
L 198.371099 54.99612 
L 199.722553 55.698077 
L 202.425624 57.755538 
L 203.777079 59.740383 
L 205.128614 62.233541 
L 206.48015 66.154819 
L 207.831604 70.899082 
L 209.18314 77.603984 
L 210.534675 85.422335 
L 213.237665 105.658068 
L 215.940655 132.090389 
L 221.346717 189.796115 
L 224.049707 213.92892 
L 225.401242 224.409868 
L 226.752778 233.753161 
L 228.104232 241.789361 
L 229.455768 248.591084 
L 233.510293 264.566663 
L 234.861829 268.536352 
L 236.213283 271.634646 
L 238.916355 277.105072 
L 244.322335 284.221466 
L 245.67387 285.480148 
L 247.025406 286.424159 
L 248.37686 287.513403 
L 249.728396 288.360593 
L 255.134457 290.853751 
L 260.540437 292.402898 
L 263.243508 292.983828 
L 268.649488 293.758402 
L 274.055549 294.339332 
L 279.46161 294.532975 
L 286.219126 294.847646 
L 292.976642 294.944467 
L 295.679713 295.0897 
L 306.491754 295.186522 
L 309.194744 295.259138 
L 349.74 295.35596 
L 349.74 295.35596 
" style="fill:none;stroke:#ff0000;stroke-linecap:square;stroke-opacity:0.15;stroke-width:4;"/>
   </g>
   <g id="line2d_32">
    <path clip-path="url(#p19acdadfea)" d="M 107.82 53.568 
L 190.262047 53.640616 
L 194.316573 53.858465 
L 195.668027 54.100519 
L 198.371099 54.923504 
L 201.074089 56.42424 
L 202.425624 57.828154 
L 203.777079 60.127669 
L 205.128614 63.637456 
L 206.48015 67.994431 
L 207.831604 72.738694 
L 209.18314 79.032104 
L 210.534675 86.632606 
L 211.88613 96.508419 
L 213.237665 107.860761 
L 214.589201 120.253937 
L 217.292191 148.090173 
L 222.698252 202.915453 
L 224.049707 214.098358 
L 226.752778 233.220642 
L 228.104232 242.031415 
L 229.455768 249.46248 
L 232.158758 260.66959 
L 234.861829 268.923639 
L 236.213283 272.457631 
L 237.564819 275.289665 
L 240.267809 279.961311 
L 242.97088 283.011194 
L 244.322335 284.584547 
L 245.67387 285.843229 
L 248.37686 287.416581 
L 249.728396 288.336387 
L 253.782921 290.611697 
L 259.188982 291.821968 
L 261.891973 292.548131 
L 263.243508 292.717569 
L 264.594963 293.104855 
L 272.704014 293.92784 
L 276.758539 294.169894 
L 278.110075 294.339332 
L 279.46161 294.339332 
L 282.1646 294.532975 
L 294.328177 294.871851 
L 302.437228 294.968673 
L 321.358321 295.210727 
L 332.170443 295.307549 
L 340.279494 295.35596 
L 349.74 295.404371 
L 349.74 295.404371 
" style="fill:none;stroke:#ff0000;stroke-linecap:square;stroke-opacity:0.15;stroke-width:4;"/>
   </g>
   <g id="line2d_33">
    <path clip-path="url(#p19acdadfea)" d="M 107.82 53.568 
L 190.262047 53.616411 
L 195.668027 53.979492 
L 197.019563 54.14893 
L 199.722553 55.044531 
L 201.074089 56.109569 
L 202.425624 57.489278 
L 203.777079 59.59515 
L 205.128614 62.378774 
L 207.831604 70.342357 
L 209.18314 76.563151 
L 210.534675 85.228692 
L 211.88613 95.661229 
L 214.589201 120.350759 
L 217.292191 149.009979 
L 218.643727 164.646681 
L 221.346717 192.797587 
L 224.049707 215.502273 
L 225.401242 225.160236 
L 226.752778 233.777366 
L 229.455768 248.857344 
L 230.807303 254.739262 
L 232.158758 259.773989 
L 234.861829 267.979627 
L 236.213283 272.046138 
L 237.564819 274.902378 
L 240.267809 279.501408 
L 241.619345 281.583075 
L 242.97088 283.253249 
L 245.67387 285.770613 
L 248.37686 287.440787 
L 252.431386 289.425631 
L 253.782921 289.861329 
L 256.485911 290.998984 
L 263.243508 292.644952 
L 264.594963 292.741774 
L 268.649488 293.322704 
L 280.813065 294.097278 
L 286.219126 294.290921 
L 298.382703 294.629797 
L 302.437228 294.726619 
L 313.24927 294.82344 
L 324.061392 294.920262 
L 333.521898 294.992878 
L 349.74 295.041289 
L 349.74 295.041289 
" style="fill:none;stroke:#ff0000;stroke-linecap:square;stroke-opacity:0.15;stroke-width:4;"/>
   </g>
   <g id="line2d_34">
    <path clip-path="url(#p19acdadfea)" d="M 107.82 53.568 
L 188.910512 53.616411 
L 192.965037 53.858465 
L 194.316573 54.173136 
L 195.668027 54.366779 
L 197.019563 54.681449 
L 198.371099 55.141352 
L 199.722553 55.891721 
L 201.074089 56.835732 
L 202.425624 58.215441 
L 205.128614 62.814471 
L 206.48015 66.275847 
L 207.831604 71.358985 
L 209.18314 78.305941 
L 210.534675 86.414758 
L 211.88613 95.782256 
L 213.237665 106.674696 
L 215.940655 133.421687 
L 221.346717 189.021541 
L 222.698252 201.777798 
L 224.049707 212.76706 
L 226.752778 232.325041 
L 229.455768 247.695484 
L 232.158758 259.193059 
L 233.510293 263.937322 
L 234.861829 267.8586 
L 236.213283 271.005305 
L 237.564819 273.861545 
L 240.267809 278.702629 
L 241.619345 280.469625 
L 242.97088 282.551291 
L 245.67387 285.35912 
L 247.025406 286.545186 
L 248.37686 287.247143 
L 249.728396 288.530031 
L 252.431386 289.90974 
L 255.134457 290.877957 
L 256.485911 291.289449 
L 260.540437 292.015611 
L 261.891973 292.209255 
L 263.243508 292.523925 
L 265.946498 292.862801 
L 267.298034 292.983828 
L 268.649488 293.250088 
L 271.352559 293.39532 
L 287.570662 294.50877 
L 298.382703 294.77503 
L 301.085693 294.920262 
L 310.54628 295.017084 
L 321.358321 295.113905 
L 345.685474 295.210727 
L 349.74 295.234933 
L 349.74 295.234933 
" style="fill:none;stroke:#ff0000;stroke-linecap:square;stroke-opacity:0.15;stroke-width:4;"/>
   </g>
   <g id="line2d_35">
    <path clip-path="url(#p19acdadfea)" d="M 107.82 53.568 
L 187.559001 53.664822 
L 192.965037 53.88267 
L 197.019563 54.487806 
L 198.371099 54.899298 
L 199.722553 55.504434 
L 202.425624 57.755538 
L 203.777079 59.788793 
L 205.128614 62.499801 
L 206.48015 66.78416 
L 207.831604 71.867299 
L 209.18314 78.644817 
L 210.534675 86.656812 
L 211.88613 96.242159 
L 213.237665 106.795723 
L 215.940655 131.703102 
L 221.346717 186.479972 
L 222.698252 199.647721 
L 224.049707 211.314735 
L 225.401242 221.65045 
L 226.752778 231.066359 
L 229.455768 246.799883 
L 232.158758 259.749784 
L 233.510293 264.469841 
L 236.213283 271.8767 
L 237.564819 274.902378 
L 241.619345 281.34102 
L 242.97088 283.108016 
L 244.322335 284.487725 
L 248.37686 287.416581 
L 255.134457 290.272821 
L 257.837447 291.095805 
L 261.891973 291.942995 
L 264.594963 292.402898 
L 267.298034 292.741774 
L 271.352559 293.225883 
L 275.407085 293.831018 
L 278.110075 294.048867 
L 283.516136 294.339332 
L 287.570662 294.460359 
L 291.625187 294.654002 
L 294.328177 294.82344 
L 299.734238 295.017084 
L 307.84329 295.210727 
L 349.74 295.307549 
L 349.74 295.307549 
" style="fill:none;stroke:#ff0000;stroke-linecap:square;stroke-opacity:0.15;stroke-width:4;"/>
   </g>
   <g id="line2d_36">
    <path clip-path="url(#p19acdadfea)" d="M 107.82 53.568 
L 187.559001 53.616411 
L 195.668027 54.269957 
L 197.019563 54.512011 
L 199.722553 55.988542 
L 201.074089 57.198813 
L 202.425624 58.74796 
L 203.777079 60.563367 
L 205.128614 62.790266 
L 206.48015 66.493695 
L 207.831604 71.64945 
L 209.18314 78.596406 
L 210.534675 86.463168 
L 211.88613 95.806461 
L 214.589201 118.801612 
L 217.292191 146.105328 
L 218.643727 161.451566 
L 221.346717 188.706871 
L 224.049707 213.323785 
L 225.401242 223.611089 
L 226.752778 232.688122 
L 228.104232 240.845349 
L 230.807303 253.528991 
L 232.158758 259.604551 
L 234.861829 268.463736 
L 236.213283 271.852495 
L 237.564819 274.829762 
L 238.916355 277.443947 
L 241.619345 281.462047 
L 245.67387 285.649585 
L 247.025406 286.593597 
L 248.37686 287.392376 
L 251.079931 289.207782 
L 252.431386 290.030767 
L 255.134457 291.0716 
L 260.540437 292.475514 
L 271.352559 293.758402 
L 275.407085 293.952045 
L 291.625187 294.605592 
L 294.328177 294.750824 
L 313.24927 294.992878 
L 322.709856 295.0897 
L 332.170443 295.162316 
L 349.74 295.259138 
L 349.74 295.259138 
" style="fill:none;stroke:#ff0000;stroke-linecap:square;stroke-opacity:0.15;stroke-width:4;"/>
   </g>
   <g id="line2d_37">
    <path clip-path="url(#p19acdadfea)" d="M 107.82 53.568 
L 190.262047 53.640616 
L 192.965037 53.737438 
L 195.668027 54.197341 
L 198.371099 54.850887 
L 199.722553 55.625461 
L 201.074089 56.642089 
L 202.425624 58.16703 
L 203.777079 60.466545 
L 205.128614 63.34699 
L 206.48015 67.582939 
L 207.831604 72.520845 
L 209.18314 78.717433 
L 210.534675 86.995688 
L 211.88613 96.823089 
L 214.589201 120.374965 
L 217.292191 147.000929 
L 219.995181 176.846214 
L 221.346717 190.473866 
L 224.049707 212.960703 
L 225.401242 223.635294 
L 228.104232 241.305252 
L 229.455768 248.203798 
L 232.158758 259.798195 
L 233.510293 264.542458 
L 234.861829 268.294298 
L 237.564819 273.909956 
L 238.916355 276.548347 
L 241.619345 281.050555 
L 242.97088 282.76914 
L 247.025406 286.569392 
L 248.37686 287.537608 
L 249.728396 288.166949 
L 252.431386 289.716096 
L 253.782921 290.442259 
L 255.134457 290.635902 
L 256.485911 291.192627 
L 261.891973 292.354487 
L 263.243508 292.451309 
L 267.298034 293.104855 
L 282.1646 294.387743 
L 291.625187 294.654002 
L 298.382703 294.750824 
L 318.655331 295.017084 
L 329.467372 295.113905 
L 340.279494 295.210727 
L 349.74 295.210727 
L 349.74 295.210727 
" style="fill:none;stroke:#ff0000;stroke-linecap:square;stroke-opacity:0.15;stroke-width:4;"/>
   </g>
   <g id="line2d_38">
    <path clip-path="url(#p19acdadfea)" d="M 107.82 53.568 
L 191.613502 53.664822 
L 194.316573 53.810054 
L 197.019563 54.439395 
L 198.371099 54.754066 
L 201.074089 56.133775 
L 202.425624 57.465073 
L 203.777079 59.062631 
L 205.128614 61.967281 
L 206.48015 66.566312 
L 207.831604 72.399818 
L 209.18314 79.128926 
L 210.534675 86.802044 
L 211.88613 96.750473 
L 214.589201 118.995255 
L 215.940655 132.695524 
L 218.643727 161.984085 
L 221.346717 190.473866 
L 224.049707 214.993959 
L 225.401242 225.329674 
L 228.104232 242.370291 
L 229.455768 249.656123 
L 230.807303 255.780095 
L 232.158758 261.153698 
L 233.510293 265.922167 
L 234.861829 269.770829 
L 237.564819 275.289665 
L 238.916355 278.121699 
L 240.267809 280.203366 
L 241.619345 281.897745 
L 242.97088 283.979411 
L 245.67387 286.569392 
L 247.025406 287.658635 
L 249.728396 289.256193 
L 251.079931 289.570864 
L 252.431386 290.127589 
L 253.782921 290.80534 
L 255.134457 291.313654 
L 259.188982 292.281871 
L 264.594963 293.250088 
L 267.298034 293.39532 
L 270.001024 293.709991 
L 276.758539 294.290921 
L 286.219126 294.557181 
L 291.625187 294.77503 
L 297.031167 294.871851 
L 302.437228 294.992878 
L 313.24927 295.0897 
L 324.061392 295.186522 
L 337.576423 295.283343 
L 347.03701 295.35596 
L 349.74 295.35596 
L 349.74 295.35596 
" style="fill:none;stroke:#ff0000;stroke-linecap:square;stroke-opacity:0.15;stroke-width:4;"/>
   </g>
   <g id="line2d_39">
    <path clip-path="url(#p19acdadfea)" d="M 107.82 53.568 
L 191.613502 53.640616 
L 192.965037 53.761643 
L 194.316573 54.052108 
L 195.668027 54.197341 
L 198.371099 54.875093 
L 199.722553 55.31079 
L 201.074089 56.351624 
L 202.425624 57.658716 
L 203.777079 59.812999 
L 205.128614 62.524006 
L 206.48015 66.009587 
L 207.831604 71.504218 
L 209.18314 77.94286 
L 210.534675 86.172703 
L 211.88613 95.588612 
L 213.237665 106.868339 
L 214.589201 119.164693 
L 219.995181 176.144257 
L 222.698252 201.124252 
L 225.401242 224.24043 
L 228.104232 242.00721 
L 232.158758 259.362497 
L 234.861829 267.955422 
L 236.213283 271.344181 
L 238.916355 276.596758 
L 240.267809 278.920478 
L 244.322335 284.46352 
L 247.025406 286.520981 
L 248.37686 287.247143 
L 249.728396 288.457414 
L 251.079931 289.207782 
L 256.485911 291.313654 
L 259.188982 292.112433 
L 263.243508 292.790185 
L 271.352559 293.734196 
L 279.46161 294.266716 
L 282.1646 294.339332 
L 284.867591 294.484564 
L 291.625187 294.581386 
L 302.437228 294.871851 
L 311.897815 294.968673 
L 324.061392 295.0897 
L 344.33402 295.186522 
L 349.74 295.210727 
L 349.74 295.210727 
" style="fill:none;stroke:#ff0000;stroke-linecap:square;stroke-opacity:0.15;stroke-width:4;"/>
   </g>
   <g id="line2d_40">
    <path clip-path="url(#p19acdadfea)" d="M 107.82 53.568 
L 188.910512 53.640616 
L 194.316573 53.906876 
L 195.668027 54.052108 
L 198.371099 54.923504 
L 199.722553 55.625461 
L 202.425624 58.142825 
L 203.777079 60.103464 
L 205.128614 63.03232 
L 206.48015 66.542106 
L 207.831604 71.552628 
L 209.18314 78.184914 
L 211.88613 96.556829 
L 213.237665 107.49768 
L 214.589201 119.769829 
L 218.643727 160.58017 
L 219.995181 175.926408 
L 222.698252 202.673399 
L 225.401242 223.005954 
L 226.752778 232.954382 
L 228.104232 241.789361 
L 229.455768 248.736317 
L 230.807303 254.715056 
L 233.510293 264.978155 
L 236.213283 272.070344 
L 237.564819 275.289665 
L 240.267809 279.59823 
L 242.97088 282.720729 
L 244.322335 284.148849 
L 245.67387 285.189682 
L 247.025406 286.399954 
L 249.728396 288.457414 
L 255.134457 290.829546 
L 256.485911 291.023189 
L 257.837447 291.531503 
L 259.188982 291.870379 
L 263.243508 292.620747 
L 265.946498 293.177472 
L 267.298034 293.298499 
L 268.649488 293.588964 
L 280.813065 294.436154 
L 284.867591 294.50877 
L 288.922116 294.702413 
L 294.328177 294.799235 
L 329.467372 295.331754 
L 349.74 295.404371 
L 349.74 295.404371 
" style="fill:none;stroke:#ff0000;stroke-linecap:square;stroke-opacity:0.15;stroke-width:4;"/>
   </g>
   <g id="line2d_41">
    <defs>
     <path d="M 0 2.5 
C 0.663008 2.5 1.29895 2.236584 1.767767 1.767767 
C 2.236584 1.29895 2.5 0.663008 2.5 0 
C 2.5 -0.663008 2.236584 -1.29895 1.767767 -1.767767 
C 1.29895 -2.236584 0.663008 -2.5 0 -2.5 
C -0.663008 -2.5 -1.29895 -2.236584 -1.767767 -1.767767 
C -2.236584 -1.29895 -2.5 -0.663008 -2.5 0 
C -2.5 0.663008 -2.236584 1.29895 -1.767767 1.767767 
C -1.29895 2.236584 -0.663008 2.5 0 2.5 
z
" id="mdcd0fbfc1e" style="stroke:#ff0000;"/>
    </defs>
    <g clip-path="url(#p19acdadfea)">
     <use style="fill:#ff0000;stroke:#ff0000;" x="107.82" xlink:href="#mdcd0fbfc1e" y="53.568"/>
     <use style="fill:#ff0000;stroke:#ff0000;" x="110.523017" xlink:href="#mdcd0fbfc1e" y="53.568"/>
     <use style="fill:#ff0000;stroke:#ff0000;" x="113.226034" xlink:href="#mdcd0fbfc1e" y="53.568024"/>
     <use style="fill:#ff0000;stroke:#ff0000;" x="115.929051" xlink:href="#mdcd0fbfc1e" y="53.568024"/>
     <use style="fill:#ff0000;stroke:#ff0000;" x="118.632066" xlink:href="#mdcd0fbfc1e" y="53.568048"/>
     <use style="fill:#ff0000;stroke:#ff0000;" x="121.335088" xlink:href="#mdcd0fbfc1e" y="53.568073"/>
     <use style="fill:#ff0000;stroke:#ff0000;" x="124.038102" xlink:href="#mdcd0fbfc1e" y="53.568145"/>
     <use style="fill:#ff0000;stroke:#ff0000;" x="126.741117" xlink:href="#mdcd0fbfc1e" y="53.568218"/>
     <use style="fill:#ff0000;stroke:#ff0000;" x="129.444139" xlink:href="#mdcd0fbfc1e" y="53.568339"/>
     <use style="fill:#ff0000;stroke:#ff0000;" x="132.147154" xlink:href="#mdcd0fbfc1e" y="53.568533"/>
     <use style="fill:#ff0000;stroke:#ff0000;" x="134.850168" xlink:href="#mdcd0fbfc1e" y="53.568847"/>
     <use style="fill:#ff0000;stroke:#ff0000;" x="137.55319" xlink:href="#mdcd0fbfc1e" y="53.569331"/>
     <use style="fill:#ff0000;stroke:#ff0000;" x="140.256205" xlink:href="#mdcd0fbfc1e" y="53.570106"/>
     <use style="fill:#ff0000;stroke:#ff0000;" x="142.959219" xlink:href="#mdcd0fbfc1e" y="53.571292"/>
     <use style="fill:#ff0000;stroke:#ff0000;" x="145.662242" xlink:href="#mdcd0fbfc1e" y="53.573132"/>
     <use style="fill:#ff0000;stroke:#ff0000;" x="148.365256" xlink:href="#mdcd0fbfc1e" y="53.576036"/>
     <use style="fill:#ff0000;stroke:#ff0000;" x="151.06827" xlink:href="#mdcd0fbfc1e" y="53.580563"/>
     <use style="fill:#ff0000;stroke:#ff0000;" x="153.771293" xlink:href="#mdcd0fbfc1e" y="53.587655"/>
     <use style="fill:#ff0000;stroke:#ff0000;" x="156.474307" xlink:href="#mdcd0fbfc1e" y="53.598717"/>
     <use style="fill:#ff0000;stroke:#ff0000;" x="159.177321" xlink:href="#mdcd0fbfc1e" y="53.616024"/>
     <use style="fill:#ff0000;stroke:#ff0000;" x="161.880344" xlink:href="#mdcd0fbfc1e" y="53.643061"/>
     <use style="fill:#ff0000;stroke:#ff0000;" x="164.583358" xlink:href="#mdcd0fbfc1e" y="53.685299"/>
     <use style="fill:#ff0000;stroke:#ff0000;" x="167.286373" xlink:href="#mdcd0fbfc1e" y="53.751308"/>
     <use style="fill:#ff0000;stroke:#ff0000;" x="169.989395" xlink:href="#mdcd0fbfc1e" y="53.854399"/>
     <use style="fill:#ff0000;stroke:#ff0000;" x="172.692409" xlink:href="#mdcd0fbfc1e" y="54.01534"/>
     <use style="fill:#ff0000;stroke:#ff0000;" x="175.395424" xlink:href="#mdcd0fbfc1e" y="54.266472"/>
     <use style="fill:#ff0000;stroke:#ff0000;" x="178.098446" xlink:href="#mdcd0fbfc1e" y="54.657898"/>
     <use style="fill:#ff0000;stroke:#ff0000;" x="180.801461" xlink:href="#mdcd0fbfc1e" y="55.267003"/>
     <use style="fill:#ff0000;stroke:#ff0000;" x="183.504475" xlink:href="#mdcd0fbfc1e" y="56.212491"/>
     <use style="fill:#ff0000;stroke:#ff0000;" x="186.207497" xlink:href="#mdcd0fbfc1e" y="57.674474"/>
     <use style="fill:#ff0000;stroke:#ff0000;" x="188.910512" xlink:href="#mdcd0fbfc1e" y="59.921681"/>
     <use style="fill:#ff0000;stroke:#ff0000;" x="191.613502" xlink:href="#mdcd0fbfc1e" y="63.3444"/>
     <use style="fill:#ff0000;stroke:#ff0000;" x="194.316573" xlink:href="#mdcd0fbfc1e" y="68.485681"/>
     <use style="fill:#ff0000;stroke:#ff0000;" x="197.019563" xlink:href="#mdcd0fbfc1e" y="76.04973"/>
     <use style="fill:#ff0000;stroke:#ff0000;" x="199.722553" xlink:href="#mdcd0fbfc1e" y="86.845929"/>
     <use style="fill:#ff0000;stroke:#ff0000;" x="202.425624" xlink:href="#mdcd0fbfc1e" y="101.60884"/>
     <use style="fill:#ff0000;stroke:#ff0000;" x="205.128614" xlink:href="#mdcd0fbfc1e" y="120.660903"/>
     <use style="fill:#ff0000;stroke:#ff0000;" x="207.831604" xlink:href="#mdcd0fbfc1e" y="143.506126"/>
     <use style="fill:#ff0000;stroke:#ff0000;" x="210.534675" xlink:href="#mdcd0fbfc1e" y="168.63041"/>
     <use style="fill:#ff0000;stroke:#ff0000;" x="213.237665" xlink:href="#mdcd0fbfc1e" y="193.807244"/>
     <use style="fill:#ff0000;stroke:#ff0000;" x="215.940655" xlink:href="#mdcd0fbfc1e" y="216.850176"/>
     <use style="fill:#ff0000;stroke:#ff0000;" x="218.643727" xlink:href="#mdcd0fbfc1e" y="236.321792"/>
     <use style="fill:#ff0000;stroke:#ff0000;" x="221.346717" xlink:href="#mdcd0fbfc1e" y="251.761511"/>
     <use style="fill:#ff0000;stroke:#ff0000;" x="224.049707" xlink:href="#mdcd0fbfc1e" y="263.455247"/>
     <use style="fill:#ff0000;stroke:#ff0000;" x="226.752778" xlink:href="#mdcd0fbfc1e" y="272.052851"/>
     <use style="fill:#ff0000;stroke:#ff0000;" x="229.455768" xlink:href="#mdcd0fbfc1e" y="278.270405"/>
     <use style="fill:#ff0000;stroke:#ff0000;" x="232.158758" xlink:href="#mdcd0fbfc1e" y="282.737032"/>
     <use style="fill:#ff0000;stroke:#ff0000;" x="234.861829" xlink:href="#mdcd0fbfc1e" y="285.946726"/>
     <use style="fill:#ff0000;stroke:#ff0000;" x="237.564819" xlink:href="#mdcd0fbfc1e" y="288.264693"/>
     <use style="fill:#ff0000;stroke:#ff0000;" x="240.267809" xlink:href="#mdcd0fbfc1e" y="289.952152"/>
     <use style="fill:#ff0000;stroke:#ff0000;" x="242.97088" xlink:href="#mdcd0fbfc1e" y="291.192784"/>
     <use style="fill:#ff0000;stroke:#ff0000;" x="245.67387" xlink:href="#mdcd0fbfc1e" y="292.114929"/>
     <use style="fill:#ff0000;stroke:#ff0000;" x="248.37686" xlink:href="#mdcd0fbfc1e" y="292.808203"/>
     <use style="fill:#ff0000;stroke:#ff0000;" x="251.079931" xlink:href="#mdcd0fbfc1e" y="293.335452"/>
     <use style="fill:#ff0000;stroke:#ff0000;" x="253.782921" xlink:href="#mdcd0fbfc1e" y="293.74103"/>
     <use style="fill:#ff0000;stroke:#ff0000;" x="256.485911" xlink:href="#mdcd0fbfc1e" y="294.056501"/>
     <use style="fill:#ff0000;stroke:#ff0000;" x="259.188982" xlink:href="#mdcd0fbfc1e" y="294.304531"/>
     <use style="fill:#ff0000;stroke:#ff0000;" x="261.891973" xlink:href="#mdcd0fbfc1e" y="294.501555"/>
     <use style="fill:#ff0000;stroke:#ff0000;" x="264.594963" xlink:href="#mdcd0fbfc1e" y="294.659606"/>
     <use style="fill:#ff0000;stroke:#ff0000;" x="267.298034" xlink:href="#mdcd0fbfc1e" y="294.787582"/>
     <use style="fill:#ff0000;stroke:#ff0000;" x="270.001024" xlink:href="#mdcd0fbfc1e" y="294.892126"/>
     <use style="fill:#ff0000;stroke:#ff0000;" x="272.704014" xlink:href="#mdcd0fbfc1e" y="294.978245"/>
     <use style="fill:#ff0000;stroke:#ff0000;" x="275.407085" xlink:href="#mdcd0fbfc1e" y="295.049749"/>
     <use style="fill:#ff0000;stroke:#ff0000;" x="278.110075" xlink:href="#mdcd0fbfc1e" y="295.10956"/>
     <use style="fill:#ff0000;stroke:#ff0000;" x="280.813065" xlink:href="#mdcd0fbfc1e" y="295.159944"/>
     <use style="fill:#ff0000;stroke:#ff0000;" x="283.516136" xlink:href="#mdcd0fbfc1e" y="295.202666"/>
     <use style="fill:#ff0000;stroke:#ff0000;" x="286.219126" xlink:href="#mdcd0fbfc1e" y="295.239116"/>
     <use style="fill:#ff0000;stroke:#ff0000;" x="288.922116" xlink:href="#mdcd0fbfc1e" y="295.270398"/>
     <use style="fill:#ff0000;stroke:#ff0000;" x="291.625187" xlink:href="#mdcd0fbfc1e" y="295.29739"/>
     <use style="fill:#ff0000;stroke:#ff0000;" x="294.328177" xlink:href="#mdcd0fbfc1e" y="295.320802"/>
     <use style="fill:#ff0000;stroke:#ff0000;" x="297.031167" xlink:href="#mdcd0fbfc1e" y="295.341206"/>
     <use style="fill:#ff0000;stroke:#ff0000;" x="299.734238" xlink:href="#mdcd0fbfc1e" y="295.35907"/>
     <use style="fill:#ff0000;stroke:#ff0000;" x="302.437228" xlink:href="#mdcd0fbfc1e" y="295.374775"/>
     <use style="fill:#ff0000;stroke:#ff0000;" x="305.140218" xlink:href="#mdcd0fbfc1e" y="295.388639"/>
     <use style="fill:#ff0000;stroke:#ff0000;" x="307.84329" xlink:href="#mdcd0fbfc1e" y="295.400922"/>
     <use style="fill:#ff0000;stroke:#ff0000;" x="310.54628" xlink:href="#mdcd0fbfc1e" y="295.411843"/>
     <use style="fill:#ff0000;stroke:#ff0000;" x="313.24927" xlink:href="#mdcd0fbfc1e" y="295.421585"/>
     <use style="fill:#ff0000;stroke:#ff0000;" x="315.952341" xlink:href="#mdcd0fbfc1e" y="295.430302"/>
     <use style="fill:#ff0000;stroke:#ff0000;" x="318.655331" xlink:href="#mdcd0fbfc1e" y="295.438124"/>
     <use style="fill:#ff0000;stroke:#ff0000;" x="321.358321" xlink:href="#mdcd0fbfc1e" y="295.445163"/>
     <use style="fill:#ff0000;stroke:#ff0000;" x="324.061392" xlink:href="#mdcd0fbfc1e" y="295.451513"/>
     <use style="fill:#ff0000;stroke:#ff0000;" x="326.764382" xlink:href="#mdcd0fbfc1e" y="295.457254"/>
     <use style="fill:#ff0000;stroke:#ff0000;" x="329.467372" xlink:href="#mdcd0fbfc1e" y="295.462457"/>
     <use style="fill:#ff0000;stroke:#ff0000;" x="332.170443" xlink:href="#mdcd0fbfc1e" y="295.467182"/>
     <use style="fill:#ff0000;stroke:#ff0000;" x="334.873433" xlink:href="#mdcd0fbfc1e" y="295.471481"/>
     <use style="fill:#ff0000;stroke:#ff0000;" x="337.576423" xlink:href="#mdcd0fbfc1e" y="295.4754"/>
     <use style="fill:#ff0000;stroke:#ff0000;" x="340.279494" xlink:href="#mdcd0fbfc1e" y="295.478979"/>
     <use style="fill:#ff0000;stroke:#ff0000;" x="342.982484" xlink:href="#mdcd0fbfc1e" y="295.482252"/>
     <use style="fill:#ff0000;stroke:#ff0000;" x="345.685474" xlink:href="#mdcd0fbfc1e" y="295.48525"/>
     <use style="fill:#ff0000;stroke:#ff0000;" x="348.388546" xlink:href="#mdcd0fbfc1e" y="295.488"/>
    </g>
   </g>
   <g id="line2d_42">
    <path clip-path="url(#p19acdadfea)" d="M 107.82 53.568 
L 190.262047 53.668453 
L 192.965037 53.79069 
L 195.668027 54.141668 
L 197.019563 54.441816 
L 198.371099 54.877513 
L 199.722553 55.558896 
L 201.074089 56.541636 
L 202.425624 57.938289 
L 203.777079 59.99696 
L 205.128614 62.836256 
L 206.48015 66.730908 
L 207.831604 71.765636 
L 209.18314 78.341039 
L 210.534675 86.543046 
L 211.88613 96.345032 
L 214.589201 119.758937 
L 217.292191 147.36522 
L 219.995181 175.942141 
L 222.698252 201.789901 
L 224.049707 213.406083 
L 225.401242 223.672813 
L 226.752778 232.955592 
L 228.104232 241.145497 
L 229.455768 248.275204 
L 230.807303 254.318087 
L 232.158758 259.844185 
L 233.510293 264.433533 
L 234.861829 268.431059 
L 236.213283 271.8767 
L 237.564819 274.754725 
L 238.916355 277.326551 
L 241.619345 281.349492 
L 242.97088 283.068077 
L 244.322335 284.487725 
L 245.67387 285.718571 
L 248.37686 287.645323 
L 251.079931 289.172685 
L 253.782921 290.392638 
L 256.485911 291.270084 
L 260.540437 292.256455 
L 263.243508 292.734512 
L 267.298034 293.293658 
L 272.704014 293.824967 
L 279.46161 294.271557 
L 290.273652 294.707254 
L 320.006866 295.157475 
L 349.74 295.286974 
L 349.74 295.286974 
" style="fill:none;stroke:#ff0000;stroke-linecap:square;stroke-width:4;"/>
   </g>
   <g id="patch_3">
    <path d="M 95.724 307.584 
L 95.724 41.472 
" style="fill:none;stroke:#000000;stroke-linecap:square;stroke-linejoin:miter;stroke-width:0.8;"/>
   </g>
   <g id="patch_4">
    <path d="M 361.836 307.584 
L 361.836 41.472 
" style="fill:none;stroke:#000000;stroke-linecap:square;stroke-linejoin:miter;stroke-width:0.8;"/>
   </g>
   <g id="patch_5">
    <path d="M 95.724 307.584 
L 361.836 307.584 
" style="fill:none;stroke:#000000;stroke-linecap:square;stroke-linejoin:miter;stroke-width:0.8;"/>
   </g>
   <g id="patch_6">
    <path d="M 95.724 41.472 
L 361.836 41.472 
" style="fill:none;stroke:#000000;stroke-linecap:square;stroke-linejoin:miter;stroke-width:0.8;"/>
   </g>
   <g id="text_13">
    <text style="font-family:DejaVu Sans;font-size:18px;font-style:normal;font-weight:normal;text-anchor:middle;" transform="rotate(-0, 228.78, 35.472)" x="228.78" y="35.472">Fraction of Live Cells</text>
   </g>
   <g id="legend_1">
    <g id="patch_7">
     <path d="M 269.841469 97.506375 
L 351.336 97.506375 
Q 354.336 97.506375 354.336 94.506375 
L 354.336 51.972 
Q 354.336 48.972 351.336 48.972 
L 269.841469 48.972 
Q 266.841469 48.972 266.841469 51.972 
L 266.841469 94.506375 
Q 266.841469 97.506375 269.841469 97.506375 
z
" style="fill:#ffffff;opacity:0.8;stroke:#cccccc;stroke-linejoin:miter;"/>
    </g>
    <g id="line2d_43"/>
    <g id="line2d_44">
     <g>
      <use style="fill:#ff0000;stroke:#ff0000;" x="287.841469" xlink:href="#mdcd0fbfc1e" y="61.119656"/>
     </g>
    </g>
    <g id="text_14">
     <text style="font-family:DejaVu Sans;font-size:15px;font-style:normal;font-weight:normal;text-anchor:start;" transform="rotate(-0, 314.841469, 66.369656)" x="314.841469" y="66.369656">ODE</text>
    </g>
    <g id="line2d_45">
     <path d="M 272.841469 83.136844 
L 302.841469 83.136844 
" style="fill:none;stroke:#ff0000;stroke-linecap:square;stroke-width:4;"/>
    </g>
    <g id="line2d_46"/>
    <g id="text_15">
     <text style="font-family:DejaVu Sans;font-size:15px;font-style:normal;font-weight:normal;text-anchor:start;" transform="rotate(-0, 314.841469, 88.386844)" x="314.841469" y="88.386844">ABM</text>
    </g>
   </g>
  </g>
 </g>
 <defs>
  <clipPath id="p19acdadfea">
   <rect height="266.112" width="266.112" x="95.724" y="41.472"/>
  </clipPath>
 </defs>
</svg>
