<?xml version="1.0" encoding="utf-8" standalone="no"?>
<!DOCTYPE svg PUBLIC "-//W3C//DTD SVG 1.1//EN"
  "http://www.w3.org/Graphics/SVG/1.1/DTD/svg11.dtd">
<!-- Created with matplotlib (https://matplotlib.org/) -->
<svg height="345.6pt" version="1.1" viewBox="0 0 446.4 345.6" width="446.4pt" xmlns="http://www.w3.org/2000/svg" xmlns:xlink="http://www.w3.org/1999/xlink">
 <defs>
  <style type="text/css">
*{stroke-linecap:butt;stroke-linejoin:round;}
  </style>
 </defs>
 <g id="figure_1">
  <g id="patch_1">
   <path d="M 0 345.6 
L 446.4 345.6 
L 446.4 0 
L 0 0 
z
" style="fill:none;"/>
  </g>
  <g id="axes_1">
   <g id="patch_2">
    <path d="M 95.724 307.584 
L 361.836 307.584 
L 361.836 41.472 
L 95.724 41.472 
z
" style="fill:none;"/>
   </g>
   <g id="matplotlib.axis_1">
    <g id="xtick_1">
     <g id="line2d_1">
      <path clip-path="url(#pc317fa4d26)" d="M 107.82 307.584 
L 107.82 41.472 
" style="fill:none;stroke:#b0b0b0;stroke-linecap:square;stroke-width:0.8;"/>
     </g>
     <g id="line2d_2">
      <defs>
       <path d="M 0 0 
L 0 3.5 
" id="m0d36e92c9c" style="stroke:#000000;stroke-width:0.8;"/>
      </defs>
      <g>
       <use style="stroke:#000000;stroke-width:0.8;" x="107.82" xlink:href="#m0d36e92c9c" y="307.584"/>
      </g>
     </g>
     <g id="text_1">
      <text style="font-family:DejaVu Sans;font-size:15px;font-style:normal;font-weight:normal;text-anchor:middle;" transform="rotate(-0, 107.82, 325.981656)" x="107.82" y="325.981656">0</text>
     </g>
    </g>
    <g id="xtick_2">
     <g id="line2d_3">
      <path clip-path="url(#pc317fa4d26)" d="M 188.910512 307.584 
L 188.910512 41.472 
" style="fill:none;stroke:#b0b0b0;stroke-linecap:square;stroke-width:0.8;"/>
     </g>
     <g id="line2d_4">
      <g>
       <use style="stroke:#000000;stroke-width:0.8;" x="188.910512" xlink:href="#m0d36e92c9c" y="307.584"/>
      </g>
     </g>
     <g id="text_2">
      <text style="font-family:DejaVu Sans;font-size:15px;font-style:normal;font-weight:normal;text-anchor:middle;" transform="rotate(-0, 188.910512, 325.981656)" x="188.910512" y="325.981656">10</text>
     </g>
    </g>
    <g id="xtick_3">
     <g id="line2d_5">
      <path clip-path="url(#pc317fa4d26)" d="M 270.001024 307.584 
L 270.001024 41.472 
" style="fill:none;stroke:#b0b0b0;stroke-linecap:square;stroke-width:0.8;"/>
     </g>
     <g id="line2d_6">
      <g>
       <use style="stroke:#000000;stroke-width:0.8;" x="270.001024" xlink:href="#m0d36e92c9c" y="307.584"/>
      </g>
     </g>
     <g id="text_3">
      <text style="font-family:DejaVu Sans;font-size:15px;font-style:normal;font-weight:normal;text-anchor:middle;" transform="rotate(-0, 270.001024, 325.981656)" x="270.001024" y="325.981656">20</text>
     </g>
    </g>
    <g id="xtick_4">
     <g id="line2d_7">
      <path clip-path="url(#pc317fa4d26)" d="M 351.091536 307.584 
L 351.091536 41.472 
" style="fill:none;stroke:#b0b0b0;stroke-linecap:square;stroke-width:0.8;"/>
     </g>
     <g id="line2d_8">
      <g>
       <use style="stroke:#000000;stroke-width:0.8;" x="351.091536" xlink:href="#m0d36e92c9c" y="307.584"/>
      </g>
     </g>
     <g id="text_4">
      <text style="font-family:DejaVu Sans;font-size:15px;font-style:normal;font-weight:normal;text-anchor:middle;" transform="rotate(-0, 351.091536, 325.981656)" x="351.091536" y="325.981656">30</text>
     </g>
    </g>
    <g id="text_5">
     <text style="font-family:DejaVu Sans;font-size:15px;font-style:normal;font-weight:normal;text-anchor:middle;" transform="rotate(-0, 228.78, 344.498844)" x="228.78" y="344.498844">Time (hrs)</text>
    </g>
   </g>
   <g id="matplotlib.axis_2">
    <g id="ytick_1">
     <g id="line2d_9">
      <path clip-path="url(#pc317fa4d26)" d="M 95.724 295.488 
L 361.836 295.488 
" style="fill:none;stroke:#b0b0b0;stroke-linecap:square;stroke-width:0.8;"/>
     </g>
     <g id="line2d_10">
      <defs>
       <path d="M 0 0 
L -3.5 0 
" id="m58b3283292" style="stroke:#000000;stroke-width:0.8;"/>
      </defs>
      <g>
       <use style="stroke:#000000;stroke-width:0.8;" x="95.724" xlink:href="#m58b3283292" y="295.488"/>
      </g>
     </g>
     <g id="text_6">
      <text style="font-family:DejaVu Sans;font-size:15px;font-style:normal;font-weight:normal;text-anchor:end;" transform="rotate(-0, 88.724, 301.186828)" x="88.724" y="301.186828">0.0</text>
     </g>
    </g>
    <g id="ytick_2">
     <g id="line2d_11">
      <path clip-path="url(#pc317fa4d26)" d="M 95.724 241.959825 
L 361.836 241.959825 
" style="fill:none;stroke:#b0b0b0;stroke-linecap:square;stroke-width:0.8;"/>
     </g>
     <g id="line2d_12">
      <g>
       <use style="stroke:#000000;stroke-width:0.8;" x="95.724" xlink:href="#m58b3283292" y="241.959825"/>
      </g>
     </g>
     <g id="text_7">
      <text style="font-family:DejaVu Sans;font-size:15px;font-style:normal;font-weight:normal;text-anchor:end;" transform="rotate(-0, 88.724, 247.658653)" x="88.724" y="247.658653">0.1</text>
     </g>
    </g>
    <g id="ytick_3">
     <g id="line2d_13">
      <path clip-path="url(#pc317fa4d26)" d="M 95.724 188.431649 
L 361.836 188.431649 
" style="fill:none;stroke:#b0b0b0;stroke-linecap:square;stroke-width:0.8;"/>
     </g>
     <g id="line2d_14">
      <g>
       <use style="stroke:#000000;stroke-width:0.8;" x="95.724" xlink:href="#m58b3283292" y="188.431649"/>
      </g>
     </g>
     <g id="text_8">
      <text style="font-family:DejaVu Sans;font-size:15px;font-style:normal;font-weight:normal;text-anchor:end;" transform="rotate(-0, 88.724, 194.130477)" x="88.724" y="194.130477">0.2</text>
     </g>
    </g>
    <g id="ytick_4">
     <g id="line2d_15">
      <path clip-path="url(#pc317fa4d26)" d="M 95.724 134.903474 
L 361.836 134.903474 
" style="fill:none;stroke:#b0b0b0;stroke-linecap:square;stroke-width:0.8;"/>
     </g>
     <g id="line2d_16">
      <g>
       <use style="stroke:#000000;stroke-width:0.8;" x="95.724" xlink:href="#m58b3283292" y="134.903474"/>
      </g>
     </g>
     <g id="text_9">
      <text style="font-family:DejaVu Sans;font-size:15px;font-style:normal;font-weight:normal;text-anchor:end;" transform="rotate(-0, 88.724, 140.602302)" x="88.724" y="140.602302">0.3</text>
     </g>
    </g>
    <g id="ytick_5">
     <g id="line2d_17">
      <path clip-path="url(#pc317fa4d26)" d="M 95.724 81.375298 
L 361.836 81.375298 
" style="fill:none;stroke:#b0b0b0;stroke-linecap:square;stroke-width:0.8;"/>
     </g>
     <g id="line2d_18">
      <g>
       <use style="stroke:#000000;stroke-width:0.8;" x="95.724" xlink:href="#m58b3283292" y="81.375298"/>
      </g>
     </g>
     <g id="text_10">
      <text style="font-family:DejaVu Sans;font-size:15px;font-style:normal;font-weight:normal;text-anchor:end;" transform="rotate(-0, 88.724, 87.074126)" x="88.724" y="87.074126">0.4</text>
     </g>
    </g>
    <g id="text_11">
     <!-- [STATP] $\mu$M/cell -->
     <g transform="translate(57.719313 233.028)rotate(-90)">
      <text>
       <tspan style="font-family:DejaVu Sans;font-size:15px;font-style:book;font-weight:book;" x="0 5.852051 15.373535 24.536133 34.797363 43.959961 53.005371 58.857422 73.168945 86.11084 91.164551 99.411621 108.640137 112.807617" y="-0.609375">[STATP] M/cell</tspan>
       <tspan style="font-family:DejaVu Sans;font-size:15px;font-style:oblique;font-weight:oblique;" x="63.625488" y="-0.609375">μ</tspan>
      </text>
     </g>
    </g>
   </g>
   <g id="line2d_19">
    <path clip-path="url(#pc317fa4d26)" d="M 107.82 295.488 
L 192.965037 295.415582 
L 195.668027 295.23273 
L 197.019563 295.015673 
L 198.371099 294.624923 
L 199.722553 293.934487 
L 201.074089 292.741592 
L 202.425624 290.735406 
L 203.777079 287.46615 
L 205.128614 282.331717 
L 206.48015 274.605139 
L 207.831604 263.529624 
L 209.18314 248.489646 
L 210.534675 229.242012 
L 211.88613 206.154346 
L 217.292191 103.636864 
L 218.643727 84.171396 
L 219.995181 69.620993 
L 221.346717 60.046943 
L 222.698252 55.106293 
L 224.049707 54.043223 
L 225.401242 56.324701 
L 226.752778 60.93444 
L 228.104232 67.287111 
L 230.807303 82.822325 
L 238.916355 133.841314 
L 241.619345 148.75603 
L 244.322335 162.451267 
L 245.67387 168.963024 
L 249.728396 186.375097 
L 253.782921 201.563235 
L 256.485911 210.467004 
L 259.188982 218.487345 
L 261.891973 225.741002 
L 265.946498 235.27346 
L 268.649488 240.97239 
L 271.352559 246.119499 
L 274.055549 250.880199 
L 276.758539 255.187466 
L 279.46161 258.948913 
L 282.1646 262.488651 
L 284.867591 265.795696 
L 290.273652 271.259783 
L 294.328177 274.657339 
L 299.734238 278.286271 
L 303.788764 280.700729 
L 306.491754 282.123364 
L 310.54628 283.984945 
L 314.600805 285.574544 
L 318.655331 286.928261 
L 322.709856 288.120564 
L 330.818908 290.036535 
L 336.224969 291.024718 
L 342.982484 292.01724 
L 349.74 292.784965 
L 349.74 292.784965 
" style="fill:none;stroke:#0033ff;stroke-linecap:square;stroke-opacity:0.15;stroke-width:4;"/>
   </g>
   <g id="line2d_20">
    <path clip-path="url(#pc317fa4d26)" d="M 107.82 295.488 
L 192.965037 295.415581 
L 195.668027 295.23273 
L 197.019563 295.01567 
L 198.371099 294.624922 
L 199.722553 293.934527 
L 201.074089 292.741734 
L 202.425624 290.735428 
L 203.777079 287.465995 
L 205.128614 282.332402 
L 206.48015 274.607269 
L 207.831604 263.534816 
L 209.18314 248.501888 
L 210.534675 229.267224 
L 211.88613 206.19203 
L 217.292191 103.571345 
L 218.643727 84.075581 
L 219.995181 69.432574 
L 221.346717 59.698743 
L 222.698252 54.581181 
L 224.049707 53.568 
L 225.401242 55.775984 
L 226.752778 60.394716 
L 228.104232 66.822004 
L 229.455768 74.311613 
L 232.158758 91.008443 
L 237.564819 125.18993 
L 240.267809 140.840819 
L 242.97088 155.327898 
L 245.67387 168.59491 
L 248.37686 180.639981 
L 251.079931 191.712445 
L 253.782921 201.598617 
L 256.485911 210.443077 
L 259.188982 218.656494 
L 261.891973 225.785055 
L 265.946498 235.46782 
L 268.649488 241.18024 
L 271.352559 246.333612 
L 274.055549 250.91792 
L 276.758539 255.124908 
L 279.46161 258.957054 
L 282.1646 262.456737 
L 286.219126 266.932763 
L 290.273652 270.808621 
L 291.625187 272.099597 
L 294.328177 274.306318 
L 297.031167 276.31341 
L 301.085693 278.951482 
L 303.788764 280.488586 
L 307.84329 282.59492 
L 311.897815 284.425546 
L 321.358321 287.66884 
L 325.412846 288.737808 
L 330.818908 289.966446 
L 336.224969 290.967331 
L 342.982484 291.97877 
L 349.74 292.755005 
L 349.74 292.755005 
" style="fill:none;stroke:#0033ff;stroke-linecap:square;stroke-opacity:0.15;stroke-width:4;"/>
   </g>
   <g id="line2d_21">
    <path clip-path="url(#pc317fa4d26)" d="M 107.82 295.488 
L 192.965037 295.415579 
L 195.668027 295.232729 
L 197.019563 295.015664 
L 198.371099 294.624915 
L 199.722553 293.934511 
L 201.074089 292.741872 
L 202.425624 290.735972 
L 203.777079 287.46721 
L 205.128614 282.334125 
L 206.48015 274.609105 
L 207.831604 263.531824 
L 209.18314 248.491333 
L 210.534675 229.259837 
L 211.88613 206.184429 
L 217.292191 103.683861 
L 218.643727 84.27128 
L 219.995181 69.679446 
L 221.346717 60.070549 
L 222.698252 55.097407 
L 224.049707 54.067364 
L 225.401242 56.2382 
L 226.752778 60.86373 
L 228.104232 67.061329 
L 230.807303 82.934146 
L 238.916355 133.392909 
L 241.619345 148.362973 
L 244.322335 162.25407 
L 247.025406 174.898121 
L 249.728396 186.169763 
L 252.431386 196.57655 
L 256.485911 210.222434 
L 259.188982 218.486167 
L 261.891973 225.802077 
L 264.594963 232.476559 
L 267.298034 238.517535 
L 270.001024 243.970139 
L 272.704014 248.795415 
L 276.758539 255.310892 
L 282.1646 262.448141 
L 284.867591 265.612571 
L 287.570662 268.399451 
L 290.273652 270.891461 
L 292.976642 273.257722 
L 297.031167 276.307056 
L 299.734238 278.164061 
L 302.437228 279.796879 
L 306.491754 281.947764 
L 310.54628 283.81487 
L 315.952341 285.896297 
L 321.358321 287.662052 
L 325.412846 288.703015 
L 330.818908 289.932921 
L 336.224969 290.952333 
L 341.630949 291.763534 
L 348.388546 292.587379 
L 349.74 292.728843 
L 349.74 292.728843 
" style="fill:none;stroke:#0033ff;stroke-linecap:square;stroke-opacity:0.15;stroke-width:4;"/>
   </g>
   <g id="line2d_22">
    <path clip-path="url(#pc317fa4d26)" d="M 107.82 295.488 
L 192.965037 295.415581 
L 195.668027 295.232739 
L 197.019563 295.015686 
L 198.371099 294.624955 
L 199.722553 293.934651 
L 201.074089 292.742094 
L 202.425624 290.736188 
L 203.777079 287.46653 
L 205.128614 282.331866 
L 206.48015 274.606107 
L 207.831604 263.530384 
L 209.18314 248.489368 
L 210.534675 229.243243 
L 211.88613 206.158254 
L 217.292191 103.719083 
L 218.643727 84.379032 
L 219.995181 69.869096 
L 221.346717 60.306876 
L 222.698252 55.361997 
L 224.049707 54.437512 
L 225.401242 56.672527 
L 226.752778 61.179439 
L 228.104232 67.493944 
L 229.455768 74.971723 
L 233.510293 100.275562 
L 237.564819 125.718521 
L 240.267809 141.740949 
L 242.97088 155.921954 
L 245.67387 169.068795 
L 248.37686 181.145447 
L 251.079931 192.016913 
L 253.782921 201.734043 
L 256.485911 210.643487 
L 259.188982 218.672445 
L 261.891973 225.976258 
L 264.594963 232.46141 
L 267.298034 238.3706 
L 270.001024 243.817547 
L 272.704014 248.796475 
L 279.46161 259.162057 
L 283.516136 264.239407 
L 286.219126 267.185909 
L 290.273652 271.014362 
L 292.976642 273.340659 
L 295.679713 275.448234 
L 299.734238 278.257891 
L 302.437228 279.920363 
L 306.491754 282.091225 
L 310.54628 283.974325 
L 314.600805 285.592712 
L 318.655331 286.963633 
L 322.709856 288.167224 
L 328.115918 289.487861 
L 333.521898 290.5755 
L 338.927959 291.487836 
L 345.685474 292.372667 
L 349.74 292.806605 
L 349.74 292.806605 
" style="fill:none;stroke:#0033ff;stroke-linecap:square;stroke-opacity:0.15;stroke-width:4;"/>
   </g>
   <g id="line2d_23">
    <path clip-path="url(#pc317fa4d26)" d="M 107.82 295.488 
L 192.965037 295.415584 
L 195.668027 295.232752 
L 197.019563 295.015725 
L 198.371099 294.625056 
L 199.722553 293.934795 
L 201.074089 292.742366 
L 202.425624 290.737146 
L 203.777079 287.469736 
L 205.128614 282.338734 
L 206.48015 274.617728 
L 207.831604 263.547743 
L 209.18314 248.516512 
L 210.534675 229.281409 
L 211.88613 206.201772 
L 217.292191 103.740494 
L 218.643727 84.339903 
L 219.995181 69.732653 
L 221.346717 60.087625 
L 222.698252 55.107256 
L 224.049707 54.049754 
L 225.401242 56.277329 
L 226.752778 60.964416 
L 228.104232 67.178449 
L 229.455768 74.67705 
L 232.158758 91.259436 
L 236.213283 116.949374 
L 238.916355 133.286762 
L 241.619345 148.606633 
L 244.322335 162.225272 
L 247.025406 174.80284 
L 251.079931 191.631242 
L 253.782921 201.309993 
L 255.134457 206.007572 
L 259.188982 218.26258 
L 263.243508 229.081106 
L 267.298034 238.345709 
L 270.001024 243.828231 
L 272.704014 248.82219 
L 274.055549 251.119063 
L 278.110075 257.135378 
L 280.813065 260.839903 
L 282.1646 262.551081 
L 287.570662 268.497172 
L 290.273652 271.086528 
L 294.328177 274.509655 
L 297.031167 276.505994 
L 299.734238 278.291206 
L 305.140218 281.335675 
L 309.194744 283.337527 
L 311.897815 284.50291 
L 315.952341 286.040497 
L 322.709856 288.098789 
L 326.764382 289.111103 
L 332.170443 290.267034 
L 337.576423 291.219946 
L 342.982484 291.972417 
L 349.74 292.750057 
L 349.74 292.750057 
" style="fill:none;stroke:#0033ff;stroke-linecap:square;stroke-opacity:0.15;stroke-width:4;"/>
   </g>
   <g id="line2d_24">
    <path clip-path="url(#pc317fa4d26)" d="M 107.82 295.488 
L 192.965037 295.415581 
L 195.668027 295.232741 
L 197.019563 295.015713 
L 198.371099 294.625019 
L 199.722553 293.93472 
L 201.074089 292.742067 
L 202.425624 290.736246 
L 203.777079 287.467766 
L 205.128614 282.334248 
L 206.48015 274.609116 
L 207.831604 263.535207 
L 209.18314 248.497718 
L 210.534675 229.255876 
L 211.88613 206.184697 
L 217.292191 103.662932 
L 218.643727 84.214165 
L 219.995181 69.592248 
L 221.346717 59.982121 
L 222.698252 55.015562 
L 224.049707 53.904906 
L 225.401242 55.928164 
L 226.752778 60.484215 
L 228.104232 66.842399 
L 229.455768 74.192085 
L 232.158758 90.643167 
L 237.564819 124.600585 
L 240.267809 140.374535 
L 244.322335 161.498412 
L 247.025406 174.231855 
L 249.728396 185.721304 
L 252.431386 195.994003 
L 256.485911 209.799829 
L 260.540437 221.706422 
L 264.594963 231.932017 
L 267.298034 237.953937 
L 270.001024 243.427471 
L 272.704014 248.342722 
L 275.407085 252.798424 
L 278.110075 256.909859 
L 280.813065 260.583674 
L 284.867591 265.426197 
L 287.570662 268.235639 
L 292.976642 273.241503 
L 297.031167 276.395276 
L 299.734238 278.192254 
L 303.788764 280.598967 
L 307.84329 282.664207 
L 311.897815 284.421312 
L 315.952341 285.962811 
L 318.655331 286.904789 
L 322.709856 288.100362 
L 328.115918 289.460139 
L 333.521898 290.552802 
L 338.927959 291.431375 
L 345.685474 292.328694 
L 349.74 292.758853 
L 349.74 292.758853 
" style="fill:none;stroke:#0033ff;stroke-linecap:square;stroke-opacity:0.15;stroke-width:4;"/>
   </g>
   <g id="line2d_25">
    <path clip-path="url(#pc317fa4d26)" d="M 107.82 295.488 
L 192.965037 295.415579 
L 195.668027 295.232725 
L 197.019563 295.015664 
L 198.371099 294.624908 
L 199.722553 293.934497 
L 201.074089 292.741775 
L 202.425624 290.735784 
L 203.777079 287.466621 
L 205.128614 282.332841 
L 206.48015 274.606782 
L 207.831604 263.532102 
L 209.18314 248.493527 
L 210.534675 229.251005 
L 211.88613 206.173884 
L 217.292191 103.85847 
L 218.643727 84.457237 
L 219.995181 69.949335 
L 221.346717 60.39964 
L 222.698252 55.400698 
L 224.049707 54.240796 
L 225.401242 56.308589 
L 226.752778 60.848528 
L 228.104232 67.194079 
L 230.807303 82.669503 
L 238.916355 132.800191 
L 241.619345 147.622625 
L 244.322335 161.478072 
L 248.37686 179.930358 
L 251.079931 190.844913 
L 253.782921 200.949374 
L 256.485911 209.847897 
L 259.188982 217.929528 
L 261.891973 225.438193 
L 264.594963 231.991861 
L 265.946498 235.113196 
L 271.352559 245.831903 
L 275.407085 252.846529 
L 278.110075 256.811811 
L 280.813065 260.510169 
L 283.516136 263.801006 
L 286.219126 266.851159 
L 288.922116 269.540506 
L 291.625187 272.00201 
L 297.031167 276.173889 
L 301.085693 278.914082 
L 305.140218 281.244934 
L 309.194744 283.212624 
L 313.24927 284.93575 
L 317.303795 286.405591 
L 324.061392 288.386738 
L 329.467372 289.673978 
L 334.873433 290.727877 
L 340.279494 291.590739 
L 348.388546 292.584263 
L 349.74 292.72588 
L 349.74 292.72588 
" style="fill:none;stroke:#0033ff;stroke-linecap:square;stroke-opacity:0.15;stroke-width:4;"/>
   </g>
   <g id="line2d_26">
    <path clip-path="url(#pc317fa4d26)" d="M 107.82 295.488 
L 192.965037 295.415579 
L 195.668027 295.232725 
L 197.019563 295.015658 
L 198.371099 294.62492 
L 199.722553 293.934536 
L 201.074089 292.741851 
L 202.425624 290.735958 
L 203.777079 287.467611 
L 205.128614 282.335421 
L 206.48015 274.61297 
L 207.831604 263.539864 
L 209.18314 248.507766 
L 210.534675 229.271934 
L 211.88613 206.194385 
L 217.292191 103.471569 
L 218.643727 83.970719 
L 219.995181 69.31358 
L 221.346717 59.721599 
L 222.698252 54.739839 
L 224.049707 53.779865 
L 225.401242 55.975001 
L 226.752778 60.609257 
L 228.104232 66.88581 
L 229.455768 74.282066 
L 232.158758 90.865844 
L 237.564819 125.183774 
L 240.267809 140.696025 
L 242.97088 155.211314 
L 245.67387 168.386525 
L 248.37686 180.549893 
L 251.079931 191.507325 
L 253.782921 201.3321 
L 256.485911 210.141607 
L 259.188982 218.141499 
L 263.243508 228.978439 
L 267.298034 238.309203 
L 270.001024 243.729932 
L 272.704014 248.731813 
L 275.407085 253.235192 
L 278.110075 257.227206 
L 280.813065 260.967214 
L 284.867591 265.652032 
L 287.570662 268.440443 
L 290.273652 270.956535 
L 295.679713 275.328813 
L 298.382703 277.221162 
L 301.085693 278.979868 
L 303.788764 280.507417 
L 307.84329 282.568761 
L 311.897815 284.356596 
L 315.952341 285.907104 
L 320.006866 287.241647 
L 325.412846 288.736454 
L 330.818908 289.959567 
L 340.279494 291.569131 
L 347.03701 292.423792 
L 349.74 292.715388 
L 349.74 292.715388 
" style="fill:none;stroke:#0033ff;stroke-linecap:square;stroke-opacity:0.15;stroke-width:4;"/>
   </g>
   <g id="line2d_27">
    <path clip-path="url(#pc317fa4d26)" d="M 107.82 295.488 
L 192.965037 295.41558 
L 195.668027 295.232738 
L 197.019563 295.015698 
L 198.371099 294.624984 
L 199.722553 293.934707 
L 201.074089 292.742083 
L 202.425624 290.735855 
L 203.777079 287.466396 
L 205.128614 282.331213 
L 206.48015 274.604047 
L 207.831604 263.529271 
L 209.18314 248.489304 
L 210.534675 229.245224 
L 211.88613 206.150332 
L 217.292191 103.596771 
L 218.643727 84.197036 
L 219.995181 69.63491 
L 221.346717 60.126754 
L 222.698252 55.130702 
L 224.049707 54.128708 
L 225.401242 56.243392 
L 226.752778 60.78788 
L 228.104232 67.064434 
L 229.455768 74.461385 
L 232.158758 91.214259 
L 237.564819 125.159526 
L 240.267809 140.99482 
L 242.97088 155.329451 
L 245.67387 168.546574 
L 248.37686 180.518097 
L 251.079931 191.417665 
L 253.782921 201.306835 
L 256.485911 210.250376 
L 257.837447 214.511647 
L 260.540437 222.125494 
L 263.243508 229.22879 
L 265.946498 235.589276 
L 270.001024 243.902876 
L 274.055549 251.141154 
L 276.758539 255.437786 
L 279.46161 259.277067 
L 283.516136 264.420991 
L 286.219126 267.414934 
L 288.922116 270.072346 
L 291.625187 272.490931 
L 294.328177 274.654732 
L 298.382703 277.525411 
L 302.437228 280.076494 
L 306.491754 282.215218 
L 310.54628 284.082805 
L 314.600805 285.666565 
L 318.655331 286.98332 
L 322.709856 288.167947 
L 328.115918 289.494846 
L 333.521898 290.581218 
L 338.927959 291.48135 
L 345.685474 292.367781 
L 349.74 292.8024 
L 349.74 292.8024 
" style="fill:none;stroke:#0033ff;stroke-linecap:square;stroke-opacity:0.15;stroke-width:4;"/>
   </g>
   <g id="line2d_28">
    <path clip-path="url(#pc317fa4d26)" d="M 107.82 295.488 
L 192.965037 295.415579 
L 195.668027 295.232734 
L 197.019563 295.015694 
L 198.371099 294.624985 
L 199.722553 293.934732 
L 201.074089 292.742288 
L 202.425624 290.736775 
L 203.777079 287.469062 
L 205.128614 282.337482 
L 206.48015 274.615662 
L 207.831604 263.546153 
L 209.18314 248.515741 
L 210.534675 229.290508 
L 211.88613 206.219222 
L 217.292191 103.675779 
L 218.643727 84.259557 
L 219.995181 69.678054 
L 221.346717 60.093727 
L 222.698252 55.122298 
L 224.049707 54.146907 
L 225.401242 56.324166 
L 226.752778 60.922825 
L 228.104232 67.241879 
L 229.455768 74.541089 
L 232.158758 91.270784 
L 237.564819 125.086513 
L 241.619345 147.997804 
L 244.322335 161.887669 
L 247.025406 174.579414 
L 249.728396 186.145835 
L 251.079931 191.616361 
L 253.782921 201.36882 
L 256.485911 210.381038 
L 259.188982 218.182448 
L 261.891973 225.499536 
L 263.243508 229.108298 
L 265.946498 235.550736 
L 268.649488 241.409287 
L 271.352559 246.505063 
L 274.055549 251.109283 
L 276.758539 255.339883 
L 279.46161 259.202133 
L 282.1646 262.64028 
L 286.219126 267.177093 
L 288.922116 269.890511 
L 292.976642 273.402045 
L 295.679713 275.551436 
L 298.382703 277.389937 
L 302.437228 279.912163 
L 305.140218 281.440976 
L 309.194744 283.483868 
L 313.24927 285.155943 
L 317.303795 286.595113 
L 321.358321 287.833819 
L 326.764382 289.243157 
L 332.170443 290.375154 
L 337.576423 291.278363 
L 344.33402 292.209529 
L 349.74 292.814352 
L 349.74 292.814352 
" style="fill:none;stroke:#0033ff;stroke-linecap:square;stroke-opacity:0.15;stroke-width:4;"/>
   </g>
   <g id="line2d_29">
    <path clip-path="url(#pc317fa4d26)" d="M 107.82 295.488 
L 192.965037 295.415579 
L 195.668027 295.232734 
L 197.019563 295.015681 
L 198.371099 294.624953 
L 199.722553 293.934604 
L 201.074089 292.742053 
L 202.425624 290.736375 
L 203.777079 287.467932 
L 205.128614 282.334104 
L 206.48015 274.607665 
L 207.831604 263.528237 
L 209.18314 248.481714 
L 210.534675 229.226489 
L 211.88613 206.128439 
L 217.292191 103.36858 
L 218.643727 83.909964 
L 219.995181 69.2365 
L 221.346717 59.595968 
L 222.698252 54.571225 
L 224.049707 53.695879 
L 225.401242 55.88668 
L 226.752778 60.381227 
L 228.104232 66.718053 
L 229.455768 74.215744 
L 232.158758 91.146171 
L 237.564819 124.89788 
L 240.267809 140.500166 
L 242.97088 154.907113 
L 245.67387 168.330588 
L 248.37686 180.184831 
L 251.079931 191.023323 
L 253.782921 200.834823 
L 256.485911 209.817708 
L 259.188982 217.898482 
L 261.891973 225.324017 
L 264.594963 232.152821 
L 267.298034 238.176132 
L 270.001024 243.580834 
L 272.704014 248.488206 
L 275.407085 252.969393 
L 278.110075 257.000846 
L 282.1646 262.281015 
L 284.867591 265.451483 
L 287.570662 268.324474 
L 290.273652 270.851754 
L 292.976642 273.115166 
L 299.734238 277.968731 
L 302.437228 279.652401 
L 306.491754 281.854909 
L 309.194744 283.16811 
L 313.24927 284.884165 
L 317.303795 286.361189 
L 321.358321 287.633805 
L 326.764382 289.057526 
L 332.170443 290.225021 
L 337.576423 291.179035 
L 344.33402 292.123842 
L 349.74 292.733657 
L 349.74 292.733657 
" style="fill:none;stroke:#0033ff;stroke-linecap:square;stroke-opacity:0.15;stroke-width:4;"/>
   </g>
   <g id="line2d_30">
    <path clip-path="url(#pc317fa4d26)" d="M 107.82 295.488 
L 192.965037 295.415579 
L 195.668027 295.232727 
L 197.019563 295.015666 
L 198.371099 294.62493 
L 199.722553 293.93461 
L 201.074089 292.742043 
L 202.425624 290.736388 
L 203.777079 287.4676 
L 205.128614 282.33382 
L 206.48015 274.60903 
L 207.831604 263.539783 
L 209.18314 248.516625 
L 210.534675 229.293881 
L 211.88613 206.227038 
L 217.292191 103.695637 
L 218.643727 84.242107 
L 219.995181 69.641387 
L 221.346717 60.042179 
L 222.698252 55.121869 
L 224.049707 54.224362 
L 225.401242 56.337441 
L 226.752778 60.760153 
L 228.104232 67.072356 
L 230.807303 82.744121 
L 238.916355 133.338578 
L 241.619345 148.345362 
L 242.97088 155.586172 
L 247.025406 174.876816 
L 249.728396 186.098838 
L 252.431386 196.355693 
L 255.134457 205.73308 
L 257.837447 214.338483 
L 260.540437 221.953508 
L 263.243508 228.979777 
L 267.298034 238.095465 
L 270.001024 243.731538 
L 272.704014 248.623263 
L 275.407085 253.027203 
L 279.46161 258.874899 
L 284.867591 265.53882 
L 287.570662 268.409911 
L 291.625187 272.288707 
L 295.679713 275.480158 
L 299.734238 278.225147 
L 302.437228 279.896356 
L 307.84329 282.728253 
L 311.897815 284.504602 
L 320.006866 287.330381 
L 325.412846 288.844431 
L 330.818908 290.048702 
L 340.279494 291.637242 
L 348.388546 292.659031 
L 349.74 292.797001 
L 349.74 292.797001 
" style="fill:none;stroke:#0033ff;stroke-linecap:square;stroke-opacity:0.15;stroke-width:4;"/>
   </g>
   <g id="line2d_31">
    <path clip-path="url(#pc317fa4d26)" d="M 107.82 295.488 
L 192.965037 295.415579 
L 195.668027 295.232724 
L 197.019563 295.015662 
L 198.371099 294.624899 
L 199.722553 293.934428 
L 201.074089 292.741531 
L 202.425624 290.734917 
L 203.777079 287.465036 
L 205.128614 282.329704 
L 206.48015 274.601756 
L 207.831604 263.523083 
L 209.18314 248.478213 
L 210.534675 229.213642 
L 211.88613 206.08947 
L 217.292191 103.432439 
L 218.643727 84.021196 
L 219.995181 69.564842 
L 221.346717 60.097099 
L 222.698252 55.174809 
L 224.049707 54.226718 
L 225.401242 56.384813 
L 226.752778 60.987969 
L 228.104232 67.433564 
L 229.455768 74.827518 
L 232.158758 91.479491 
L 236.213283 117.079555 
L 238.916355 133.354957 
L 241.619345 148.376837 
L 245.67387 168.6562 
L 248.37686 180.512156 
L 251.079931 191.308628 
L 253.782921 201.17098 
L 255.134457 205.8009 
L 259.188982 218.16168 
L 263.243508 228.760258 
L 265.946498 235.072354 
L 268.649488 240.758385 
L 271.352559 245.904011 
L 274.055549 250.501342 
L 278.110075 256.884294 
L 280.813065 260.530135 
L 283.516136 263.767401 
L 287.570662 268.207965 
L 290.273652 270.805141 
L 292.976642 273.141245 
L 297.031167 276.298663 
L 302.437228 279.769103 
L 305.140218 281.257733 
L 309.194744 283.260313 
L 313.24927 284.963526 
L 317.303795 286.429496 
L 321.358321 287.683116 
L 326.764382 289.093294 
L 332.170443 290.246934 
L 340.279494 291.594049 
L 347.03701 292.446184 
L 349.74 292.733783 
L 349.74 292.733783 
" style="fill:none;stroke:#0033ff;stroke-linecap:square;stroke-opacity:0.15;stroke-width:4;"/>
   </g>
   <g id="line2d_32">
    <path clip-path="url(#pc317fa4d26)" d="M 107.82 295.488 
L 192.965037 295.415581 
L 195.668027 295.232743 
L 197.019563 295.015728 
L 198.371099 294.62508 
L 199.722553 293.934883 
L 201.074089 292.742538 
L 202.425624 290.737243 
L 203.777079 287.469453 
L 205.128614 282.33731 
L 206.48015 274.614988 
L 207.831604 263.541272 
L 209.18314 248.498586 
L 210.534675 229.249827 
L 211.88613 206.15986 
L 217.292191 103.590026 
L 218.643727 84.101542 
L 219.995181 69.478394 
L 221.346717 59.922651 
L 222.698252 54.952292 
L 224.049707 54.010036 
L 225.401242 56.183815 
L 226.752778 60.763364 
L 228.104232 67.176415 
L 229.455768 74.609819 
L 232.158758 91.244823 
L 238.916355 133.072221 
L 241.619345 148.225352 
L 244.322335 162.103174 
L 247.025406 174.681171 
L 249.728396 186.141874 
L 252.431386 196.415323 
L 255.134457 205.75615 
L 257.837447 214.253427 
L 260.540437 221.908759 
L 263.243508 228.900502 
L 265.946498 235.206871 
L 268.649488 240.727338 
L 270.001024 243.411541 
L 274.055549 250.509816 
L 276.758539 254.789468 
L 280.813065 260.559565 
L 283.516136 263.802291 
L 286.219126 266.749285 
L 288.922116 269.460487 
L 292.976642 273.011803 
L 297.031167 276.157209 
L 299.734238 277.958202 
L 303.788764 280.388376 
L 307.84329 282.463401 
L 311.897815 284.282626 
L 315.952341 285.820999 
L 322.709856 287.918923 
L 328.115918 289.301588 
L 333.521898 290.421483 
L 340.279494 291.551838 
L 347.03701 292.409963 
L 349.74 292.702875 
L 349.74 292.702875 
" style="fill:none;stroke:#0033ff;stroke-linecap:square;stroke-opacity:0.15;stroke-width:4;"/>
   </g>
   <g id="line2d_33">
    <path clip-path="url(#pc317fa4d26)" d="M 107.82 295.488 
L 192.965037 295.415583 
L 195.668027 295.232748 
L 197.019563 295.015719 
L 198.371099 294.625044 
L 199.722553 293.934753 
L 201.074089 292.742174 
L 202.425624 290.736279 
L 203.777079 287.467734 
L 205.128614 282.334195 
L 206.48015 274.608356 
L 207.831604 263.532306 
L 209.18314 248.494817 
L 210.534675 229.259409 
L 211.88613 206.191441 
L 217.292191 103.626426 
L 218.643727 84.173537 
L 219.995181 69.488511 
L 221.346717 59.812704 
L 222.698252 54.883027 
L 224.049707 53.877339 
L 225.401242 56.000749 
L 226.752778 60.549305 
L 228.104232 66.774311 
L 229.455768 74.20172 
L 233.510293 99.604907 
L 237.564819 125.038285 
L 240.267809 140.83916 
L 242.97088 155.479116 
L 245.67387 168.697363 
L 248.37686 180.811806 
L 251.079931 191.489714 
L 255.134457 205.944998 
L 257.837447 214.559501 
L 259.188982 218.6619 
L 261.891973 225.971066 
L 264.594963 232.646243 
L 265.946498 235.779033 
L 270.001024 244.070248 
L 274.055549 251.274974 
L 276.758539 255.350444 
L 279.46161 259.266726 
L 282.1646 262.73199 
L 284.867591 265.811075 
L 288.922116 269.911178 
L 291.625187 272.319635 
L 295.679713 275.521402 
L 299.734238 278.301553 
L 305.140218 281.400321 
L 309.194744 283.348286 
L 313.24927 285.039247 
L 315.952341 285.99617 
L 321.358321 287.698136 
L 326.764382 289.107415 
L 332.170443 290.265934 
L 337.576423 291.212531 
L 344.33402 292.15826 
L 349.74 292.761836 
L 349.74 292.761836 
" style="fill:none;stroke:#0033ff;stroke-linecap:square;stroke-opacity:0.15;stroke-width:4;"/>
   </g>
   <g id="line2d_34">
    <path clip-path="url(#pc317fa4d26)" d="M 107.82 295.488 
L 192.965037 295.415584 
L 195.668027 295.232762 
L 197.019563 295.015736 
L 198.371099 294.625056 
L 199.722553 293.934775 
L 201.074089 292.742438 
L 202.425624 290.737233 
L 203.777079 287.470154 
L 205.128614 282.340233 
L 206.48015 274.620025 
L 207.831604 263.547411 
L 209.18314 248.508472 
L 210.534675 229.266795 
L 211.88613 206.189996 
L 217.292191 103.465573 
L 218.643727 83.921259 
L 219.995181 69.309512 
L 221.346717 59.685628 
L 222.698252 54.743853 
L 224.049707 53.735436 
L 225.401242 55.833473 
L 226.752778 60.390219 
L 228.104232 66.602218 
L 229.455768 74.130849 
L 233.510293 99.528094 
L 237.564819 125.076611 
L 240.267809 140.849919 
L 242.97088 155.337908 
L 245.67387 168.646726 
L 248.37686 180.560331 
L 252.431386 196.858911 
L 255.134457 206.242132 
L 257.837447 214.700119 
L 260.540437 222.541194 
L 263.243508 229.437015 
L 265.946498 235.744989 
L 268.649488 241.340718 
L 271.352559 246.558452 
L 272.704014 249.026743 
L 276.758539 255.50082 
L 279.46161 259.329707 
L 283.516136 264.37486 
L 286.219126 267.387415 
L 290.273652 271.228389 
L 292.976642 273.527499 
L 297.031167 276.456368 
L 301.085693 279.120952 
L 305.140218 281.396151 
L 309.194744 283.380194 
L 313.24927 285.059614 
L 317.303795 286.521292 
L 324.061392 288.507177 
L 328.115918 289.452671 
L 333.521898 290.545231 
L 340.279494 291.645162 
L 347.03701 292.487178 
L 349.74 292.783257 
L 349.74 292.783257 
" style="fill:none;stroke:#0033ff;stroke-linecap:square;stroke-opacity:0.15;stroke-width:4;"/>
   </g>
   <g id="line2d_35">
    <path clip-path="url(#pc317fa4d26)" d="M 107.82 295.488 
L 192.965037 295.415579 
L 195.668027 295.232728 
L 197.019563 295.015681 
L 198.371099 294.624974 
L 199.722553 293.934679 
L 201.074089 292.742055 
L 202.425624 290.736265 
L 203.777079 287.46782 
L 205.128614 282.335298 
L 206.48015 274.613125 
L 207.831604 263.545506 
L 209.18314 248.520168 
L 210.534675 229.301535 
L 211.88613 206.23421 
L 217.292191 103.7952 
L 218.643727 84.352482 
L 219.995181 69.819529 
L 221.346717 60.208331 
L 222.698252 55.226142 
L 224.049707 54.231107 
L 225.401242 56.474366 
L 226.752778 61.097808 
L 228.104232 67.286254 
L 229.455768 74.821416 
L 232.158758 91.612294 
L 236.213283 117.392588 
L 240.267809 141.354904 
L 242.97088 155.708912 
L 245.67387 168.820478 
L 248.37686 180.821334 
L 251.079931 191.468142 
L 253.782921 201.452164 
L 256.485911 210.271038 
L 259.188982 218.362999 
L 261.891973 225.740252 
L 264.594963 232.351999 
L 267.298034 238.256103 
L 270.001024 243.661919 
L 272.704014 248.457149 
L 276.758539 255.023804 
L 279.46161 258.857963 
L 282.1646 262.326294 
L 284.867591 265.451007 
L 287.570662 268.312495 
L 290.273652 270.898355 
L 292.976642 273.212817 
L 298.382703 277.252508 
L 301.085693 279.037598 
L 305.140218 281.328995 
L 309.194744 283.284058 
L 314.600805 285.46054 
L 318.655331 286.8809 
L 324.061392 288.450533 
L 329.467372 289.731071 
L 336.224969 290.993471 
L 342.982484 291.987655 
L 349.74 292.761925 
L 349.74 292.761925 
" style="fill:none;stroke:#0033ff;stroke-linecap:square;stroke-opacity:0.15;stroke-width:4;"/>
   </g>
   <g id="line2d_36">
    <path clip-path="url(#pc317fa4d26)" d="M 107.82 295.488 
L 192.965037 295.41558 
L 195.668027 295.23273 
L 197.019563 295.015666 
L 198.371099 294.624922 
L 199.722553 293.934578 
L 201.074089 292.741882 
L 202.425624 290.735779 
L 203.777079 287.466155 
L 205.128614 282.330769 
L 206.48015 274.600107 
L 207.831604 263.516595 
L 209.18314 248.472539 
L 210.534675 229.238907 
L 211.88613 206.167514 
L 217.292191 103.635418 
L 218.643727 84.162403 
L 219.995181 69.588448 
L 221.346717 60.045123 
L 222.698252 55.034297 
L 224.049707 54.024381 
L 225.401242 56.186224 
L 226.752778 60.776853 
L 228.104232 67.121655 
L 230.807303 82.973382 
L 237.564819 124.974104 
L 240.267809 140.807846 
L 244.322335 161.714077 
L 247.025406 174.575239 
L 251.079931 191.129897 
L 255.134457 205.682656 
L 257.837447 214.347476 
L 260.540437 221.990711 
L 263.243508 228.92384 
L 265.946498 235.240861 
L 268.649488 241.063014 
L 271.352559 246.171106 
L 274.055549 250.811169 
L 276.758539 254.997955 
L 279.46161 258.846406 
L 282.1646 262.273837 
L 284.867591 265.431855 
L 287.570662 268.257719 
L 291.625187 272.027206 
L 294.328177 274.226213 
L 297.031167 276.242148 
L 299.734238 278.043275 
L 303.788764 280.506513 
L 307.84329 282.572915 
L 311.897815 284.404724 
L 315.952341 285.94322 
L 320.006866 287.296872 
L 324.061392 288.418689 
L 328.115918 289.403388 
L 334.873433 290.73076 
L 347.03701 292.447845 
L 349.74 292.737152 
L 349.74 292.737152 
" style="fill:none;stroke:#0033ff;stroke-linecap:square;stroke-opacity:0.15;stroke-width:4;"/>
   </g>
   <g id="line2d_37">
    <path clip-path="url(#pc317fa4d26)" d="M 107.82 295.488 
L 192.965037 295.415579 
L 195.668027 295.232727 
L 197.019563 295.015691 
L 198.371099 294.624991 
L 199.722553 293.934687 
L 201.074089 292.742086 
L 202.425624 290.735902 
L 203.777079 287.466701 
L 205.128614 282.332204 
L 206.48015 274.60569 
L 207.831604 263.526985 
L 209.18314 248.480343 
L 210.534675 229.232698 
L 211.88613 206.134487 
L 217.292191 103.540299 
L 218.643727 84.062894 
L 219.995181 69.482837 
L 221.346717 59.85922 
L 222.698252 54.949348 
L 224.049707 53.903033 
L 225.401242 56.101917 
L 226.752778 60.605082 
L 228.104232 66.912574 
L 229.455768 74.372635 
L 232.158758 91.062346 
L 236.213283 116.756298 
L 240.267809 140.814858 
L 244.322335 161.935898 
L 247.025406 174.683151 
L 251.079931 191.484575 
L 252.431386 196.5902 
L 255.134457 205.72307 
L 257.837447 214.371831 
L 260.540437 222.091932 
L 263.243508 228.855324 
L 265.946498 235.171649 
L 268.649488 240.937008 
L 271.352559 246.074568 
L 272.704014 248.531067 
L 276.758539 255.013345 
L 279.46161 258.881708 
L 282.1646 262.406715 
L 284.867591 265.589618 
L 287.570662 268.434758 
L 291.625187 272.196579 
L 294.328177 274.449227 
L 298.382703 277.395932 
L 301.085693 279.142069 
L 305.140218 281.442528 
L 309.194744 283.418815 
L 313.24927 285.103673 
L 317.303795 286.546113 
L 321.358321 287.797243 
L 326.764382 289.191342 
L 332.170443 290.332727 
L 337.576423 291.278515 
L 345.685474 292.367842 
L 349.74 292.802453 
L 349.74 292.802453 
" style="fill:none;stroke:#0033ff;stroke-linecap:square;stroke-opacity:0.15;stroke-width:4;"/>
   </g>
   <g id="line2d_38">
    <path clip-path="url(#pc317fa4d26)" d="M 107.82 295.488 
L 192.965037 295.415581 
L 195.668027 295.232737 
L 197.019563 295.015685 
L 198.371099 294.624944 
L 199.722553 293.934593 
L 201.074089 292.742003 
L 202.425624 290.736223 
L 203.777079 287.468398 
L 205.128614 282.336165 
L 206.48015 274.612515 
L 207.831604 263.540993 
L 209.18314 248.503007 
L 210.534675 229.260158 
L 211.88613 206.169709 
L 217.292191 103.507004 
L 218.643727 83.972646 
L 219.995181 69.336544 
L 221.346717 59.675351 
L 222.698252 54.67796 
L 224.049707 53.606969 
L 225.401242 55.778446 
L 226.752778 60.399801 
L 228.104232 66.644023 
L 229.455768 73.985198 
L 232.158758 90.708043 
L 237.564819 124.798371 
L 240.267809 140.397873 
L 244.322335 161.353833 
L 247.025406 173.774404 
L 249.728396 185.054557 
L 252.431386 195.535266 
L 255.134457 205.013554 
L 257.837447 213.673824 
L 260.540437 221.560237 
L 263.243508 228.555245 
L 267.298034 237.823542 
L 272.704014 248.034855 
L 274.055549 250.42166 
L 278.110075 256.588117 
L 280.813065 260.210963 
L 283.516136 263.579962 
L 284.867591 265.168935 
L 288.922116 269.280407 
L 292.976642 272.873213 
L 299.734238 277.834006 
L 302.437228 279.500081 
L 306.491754 281.727062 
L 310.54628 283.642247 
L 314.600805 285.292708 
L 320.006866 287.125042 
L 325.412846 288.647185 
L 330.818908 289.887213 
L 336.224969 290.895433 
L 345.685474 292.238659 
L 349.74 292.692565 
L 349.74 292.692565 
" style="fill:none;stroke:#0033ff;stroke-linecap:square;stroke-opacity:0.15;stroke-width:4;"/>
   </g>
   <g id="line2d_39">
    <defs>
     <path d="M 0 2.5 
C 0.663008 2.5 1.29895 2.236584 1.767767 1.767767 
C 2.236584 1.29895 2.5 0.663008 2.5 0 
C 2.5 -0.663008 2.236584 -1.29895 1.767767 -1.767767 
C 1.29895 -2.236584 0.663008 -2.5 0 -2.5 
C -0.663008 -2.5 -1.29895 -2.236584 -1.767767 -1.767767 
C -2.236584 -1.29895 -2.5 -0.663008 -2.5 0 
C -2.5 0.663008 -2.236584 1.29895 -1.767767 1.767767 
C -1.29895 2.236584 -0.663008 2.5 0 2.5 
z
" id="mc49225302e" style="stroke:#0033ff;"/>
    </defs>
    <g clip-path="url(#pc317fa4d26)">
     <use style="fill:#0033ff;stroke:#0033ff;" x="107.82" xlink:href="#mc49225302e" y="295.488"/>
     <use style="fill:#0033ff;stroke:#0033ff;" x="110.523017" xlink:href="#mc49225302e" y="295.488"/>
     <use style="fill:#0033ff;stroke:#0033ff;" x="113.226034" xlink:href="#mc49225302e" y="295.488"/>
     <use style="fill:#0033ff;stroke:#0033ff;" x="115.929051" xlink:href="#mc49225302e" y="295.488"/>
     <use style="fill:#0033ff;stroke:#0033ff;" x="118.632066" xlink:href="#mc49225302e" y="295.488"/>
     <use style="fill:#0033ff;stroke:#0033ff;" x="121.335088" xlink:href="#mc49225302e" y="295.488"/>
     <use style="fill:#0033ff;stroke:#0033ff;" x="124.038102" xlink:href="#mc49225302e" y="295.488"/>
     <use style="fill:#0033ff;stroke:#0033ff;" x="126.741117" xlink:href="#mc49225302e" y="295.488"/>
     <use style="fill:#0033ff;stroke:#0033ff;" x="129.444139" xlink:href="#mc49225302e" y="295.488"/>
     <use style="fill:#0033ff;stroke:#0033ff;" x="132.147154" xlink:href="#mc49225302e" y="295.488"/>
     <use style="fill:#0033ff;stroke:#0033ff;" x="134.850168" xlink:href="#mc49225302e" y="295.488"/>
     <use style="fill:#0033ff;stroke:#0033ff;" x="137.55319" xlink:href="#mc49225302e" y="295.488"/>
     <use style="fill:#0033ff;stroke:#0033ff;" x="140.256205" xlink:href="#mc49225302e" y="295.488"/>
     <use style="fill:#0033ff;stroke:#0033ff;" x="142.959219" xlink:href="#mc49225302e" y="295.488"/>
     <use style="fill:#0033ff;stroke:#0033ff;" x="145.662242" xlink:href="#mc49225302e" y="295.488"/>
     <use style="fill:#0033ff;stroke:#0033ff;" x="148.365256" xlink:href="#mc49225302e" y="295.488"/>
     <use style="fill:#0033ff;stroke:#0033ff;" x="151.06827" xlink:href="#mc49225302e" y="295.488"/>
     <use style="fill:#0033ff;stroke:#0033ff;" x="153.771293" xlink:href="#mc49225302e" y="295.488"/>
     <use style="fill:#0033ff;stroke:#0033ff;" x="156.474307" xlink:href="#mc49225302e" y="295.488"/>
     <use style="fill:#0033ff;stroke:#0033ff;" x="159.177321" xlink:href="#mc49225302e" y="295.488"/>
     <use style="fill:#0033ff;stroke:#0033ff;" x="161.880344" xlink:href="#mc49225302e" y="295.488"/>
     <use style="fill:#0033ff;stroke:#0033ff;" x="164.583358" xlink:href="#mc49225302e" y="295.488"/>
     <use style="fill:#0033ff;stroke:#0033ff;" x="167.286373" xlink:href="#mc49225302e" y="295.488"/>
     <use style="fill:#0033ff;stroke:#0033ff;" x="169.989395" xlink:href="#mc49225302e" y="295.487999"/>
     <use style="fill:#0033ff;stroke:#0033ff;" x="172.692409" xlink:href="#mc49225302e" y="295.487995"/>
     <use style="fill:#0033ff;stroke:#0033ff;" x="175.395424" xlink:href="#mc49225302e" y="295.487982"/>
     <use style="fill:#0033ff;stroke:#0033ff;" x="178.098446" xlink:href="#mc49225302e" y="295.487933"/>
     <use style="fill:#0033ff;stroke:#0033ff;" x="180.801461" xlink:href="#mc49225302e" y="295.487746"/>
     <use style="fill:#0033ff;stroke:#0033ff;" x="183.504475" xlink:href="#mc49225302e" y="295.487044"/>
     <use style="fill:#0033ff;stroke:#0033ff;" x="186.207497" xlink:href="#mc49225302e" y="295.484423"/>
     <use style="fill:#0033ff;stroke:#0033ff;" x="188.910512" xlink:href="#mc49225302e" y="295.474773"/>
     <use style="fill:#0033ff;stroke:#0033ff;" x="191.613502" xlink:href="#mc49225302e" y="295.439942"/>
     <use style="fill:#0033ff;stroke:#0033ff;" x="194.316573" xlink:href="#mc49225302e" y="295.317979"/>
     <use style="fill:#0033ff;stroke:#0033ff;" x="197.019563" xlink:href="#mc49225302e" y="294.909919"/>
     <use style="fill:#0033ff;stroke:#0033ff;" x="199.722553" xlink:href="#mc49225302e" y="293.633055"/>
     <use style="fill:#0033ff;stroke:#0033ff;" x="202.425624" xlink:href="#mc49225302e" y="290.002138"/>
     <use style="fill:#0033ff;stroke:#0033ff;" x="205.128614" xlink:href="#mc49225302e" y="280.951016"/>
     <use style="fill:#0033ff;stroke:#0033ff;" x="207.831604" xlink:href="#mc49225302e" y="261.960081"/>
     <use style="fill:#0033ff;stroke:#0033ff;" x="210.534675" xlink:href="#mc49225302e" y="229.720875"/>
     <use style="fill:#0033ff;stroke:#0033ff;" x="213.237665" xlink:href="#mc49225302e" y="186.77538"/>
     <use style="fill:#0033ff;stroke:#0033ff;" x="215.940655" xlink:href="#mc49225302e" y="142.673088"/>
     <use style="fill:#0033ff;stroke:#0033ff;" x="218.643727" xlink:href="#mc49225302e" y="108.272564"/>
     <use style="fill:#0033ff;stroke:#0033ff;" x="221.346717" xlink:href="#mc49225302e" y="89.105249"/>
     <use style="fill:#0033ff;stroke:#0033ff;" x="224.049707" xlink:href="#mc49225302e" y="84.305591"/>
     <use style="fill:#0033ff;stroke:#0033ff;" x="226.752778" xlink:href="#mc49225302e" y="89.743733"/>
     <use style="fill:#0033ff;stroke:#0033ff;" x="229.455768" xlink:href="#mc49225302e" y="101.091171"/>
     <use style="fill:#0033ff;stroke:#0033ff;" x="232.158758" xlink:href="#mc49225302e" y="115.154896"/>
     <use style="fill:#0033ff;stroke:#0033ff;" x="234.861829" xlink:href="#mc49225302e" y="129.98038"/>
     <use style="fill:#0033ff;stroke:#0033ff;" x="237.564819" xlink:href="#mc49225302e" y="144.512745"/>
     <use style="fill:#0033ff;stroke:#0033ff;" x="240.267809" xlink:href="#mc49225302e" y="158.24497"/>
     <use style="fill:#0033ff;stroke:#0033ff;" x="242.97088" xlink:href="#mc49225302e" y="170.971989"/>
     <use style="fill:#0033ff;stroke:#0033ff;" x="245.67387" xlink:href="#mc49225302e" y="182.644236"/>
     <use style="fill:#0033ff;stroke:#0033ff;" x="248.37686" xlink:href="#mc49225302e" y="193.287351"/>
     <use style="fill:#0033ff;stroke:#0033ff;" x="251.079931" xlink:href="#mc49225302e" y="202.960748"/>
     <use style="fill:#0033ff;stroke:#0033ff;" x="253.782921" xlink:href="#mc49225302e" y="211.736693"/>
     <use style="fill:#0033ff;stroke:#0033ff;" x="256.485911" xlink:href="#mc49225302e" y="219.69007"/>
     <use style="fill:#0033ff;stroke:#0033ff;" x="259.188982" xlink:href="#mc49225302e" y="226.893624"/>
     <use style="fill:#0033ff;stroke:#0033ff;" x="261.891973" xlink:href="#mc49225302e" y="233.41555"/>
     <use style="fill:#0033ff;stroke:#0033ff;" x="264.594963" xlink:href="#mc49225302e" y="239.319119"/>
     <use style="fill:#0033ff;stroke:#0033ff;" x="267.298034" xlink:href="#mc49225302e" y="244.662216"/>
     <use style="fill:#0033ff;stroke:#0033ff;" x="270.001024" xlink:href="#mc49225302e" y="249.497625"/>
     <use style="fill:#0033ff;stroke:#0033ff;" x="272.704014" xlink:href="#mc49225302e" y="253.873366"/>
     <use style="fill:#0033ff;stroke:#0033ff;" x="275.407085" xlink:href="#mc49225302e" y="257.832989"/>
     <use style="fill:#0033ff;stroke:#0033ff;" x="278.110075" xlink:href="#mc49225302e" y="261.415994"/>
     <use style="fill:#0033ff;stroke:#0033ff;" x="280.813065" xlink:href="#mc49225302e" y="264.658142"/>
     <use style="fill:#0033ff;stroke:#0033ff;" x="283.516136" xlink:href="#mc49225302e" y="267.591834"/>
     <use style="fill:#0033ff;stroke:#0033ff;" x="286.219126" xlink:href="#mc49225302e" y="270.246398"/>
     <use style="fill:#0033ff;stroke:#0033ff;" x="288.922116" xlink:href="#mc49225302e" y="272.648379"/>
     <use style="fill:#0033ff;stroke:#0033ff;" x="291.625187" xlink:href="#mc49225302e" y="274.821805"/>
     <use style="fill:#0033ff;stroke:#0033ff;" x="294.328177" xlink:href="#mc49225302e" y="276.788414"/>
     <use style="fill:#0033ff;stroke:#0033ff;" x="297.031167" xlink:href="#mc49225302e" y="278.567888"/>
     <use style="fill:#0033ff;stroke:#0033ff;" x="299.734238" xlink:href="#mc49225302e" y="280.178032"/>
     <use style="fill:#0033ff;stroke:#0033ff;" x="302.437228" xlink:href="#mc49225302e" y="281.634951"/>
     <use style="fill:#0033ff;stroke:#0033ff;" x="305.140218" xlink:href="#mc49225302e" y="282.953232"/>
     <use style="fill:#0033ff;stroke:#0033ff;" x="307.84329" xlink:href="#mc49225302e" y="284.146065"/>
     <use style="fill:#0033ff;stroke:#0033ff;" x="310.54628" xlink:href="#mc49225302e" y="285.225386"/>
     <use style="fill:#0033ff;stroke:#0033ff;" x="313.24927" xlink:href="#mc49225302e" y="286.201996"/>
     <use style="fill:#0033ff;stroke:#0033ff;" x="315.952341" xlink:href="#mc49225302e" y="287.085672"/>
     <use style="fill:#0033ff;stroke:#0033ff;" x="318.655331" xlink:href="#mc49225302e" y="287.885259"/>
     <use style="fill:#0033ff;stroke:#0033ff;" x="321.358321" xlink:href="#mc49225302e" y="288.608752"/>
     <use style="fill:#0033ff;stroke:#0033ff;" x="324.061392" xlink:href="#mc49225302e" y="289.263396"/>
     <use style="fill:#0033ff;stroke:#0033ff;" x="326.764382" xlink:href="#mc49225302e" y="289.855744"/>
     <use style="fill:#0033ff;stroke:#0033ff;" x="329.467372" xlink:href="#mc49225302e" y="290.391722"/>
     <use style="fill:#0033ff;stroke:#0033ff;" x="332.170443" xlink:href="#mc49225302e" y="290.876694"/>
     <use style="fill:#0033ff;stroke:#0033ff;" x="334.873433" xlink:href="#mc49225302e" y="291.315516"/>
     <use style="fill:#0033ff;stroke:#0033ff;" x="337.576423" xlink:href="#mc49225302e" y="291.712578"/>
     <use style="fill:#0033ff;stroke:#0033ff;" x="340.279494" xlink:href="#mc49225302e" y="292.071854"/>
     <use style="fill:#0033ff;stroke:#0033ff;" x="342.982484" xlink:href="#mc49225302e" y="292.39694"/>
     <use style="fill:#0033ff;stroke:#0033ff;" x="345.685474" xlink:href="#mc49225302e" y="292.69109"/>
     <use style="fill:#0033ff;stroke:#0033ff;" x="348.388546" xlink:href="#mc49225302e" y="292.957247"/>
    </g>
   </g>
   <g id="line2d_40">
    <path clip-path="url(#pc317fa4d26)" d="M 107.82 295.488 
L 192.965037 295.41558 
L 195.668027 295.232735 
L 197.019563 295.015688 
L 198.371099 294.624969 
L 199.722553 293.934638 
L 201.074089 292.742026 
L 202.425624 290.736168 
L 203.777079 287.467503 
L 205.128614 282.334193 
L 206.48015 274.609359 
L 207.831604 263.534958 
L 209.18314 248.497364 
L 210.534675 229.257581 
L 211.88613 206.175276 
L 217.292191 103.613689 
L 218.643727 84.162797 
L 219.995181 69.572469 
L 221.346717 59.973942 
L 222.698252 54.999903 
L 224.049707 53.995115 
L 225.401242 56.161799 
L 226.752778 60.735061 
L 228.104232 67.040643 
L 229.455768 74.503311 
L 232.158758 91.172306 
L 237.564819 125.166088 
L 240.267809 140.891987 
L 242.97088 155.267778 
L 245.67387 168.490107 
L 248.37686 180.496421 
L 251.079931 191.371976 
L 253.782921 201.230798 
L 256.485911 210.163015 
L 259.188982 218.28086 
L 261.891973 225.603065 
L 264.594963 232.228239 
L 267.298034 238.246141 
L 270.001024 243.693047 
L 272.704014 248.595347 
L 275.407085 253.03504 
L 278.110075 257.070765 
L 280.813065 260.729035 
L 283.516136 264.035091 
L 286.219126 267.023135 
L 288.922116 269.70935 
L 292.976642 273.284013 
L 297.031167 276.350459 
L 301.085693 279.014743 
L 305.140218 281.305605 
L 309.194744 283.287193 
L 313.24927 284.983164 
L 317.303795 286.43817 
L 322.709856 288.077884 
L 328.115918 289.421302 
L 333.521898 290.518128 
L 340.279494 291.613435 
L 347.03701 292.470147 
L 349.74 292.757443 
L 349.74 292.757443 
" style="fill:none;stroke:#0033ff;stroke-linecap:square;stroke-width:4;"/>
   </g>
   <g id="patch_3">
    <path d="M 95.724 307.584 
L 95.724 41.472 
" style="fill:none;stroke:#000000;stroke-linecap:square;stroke-linejoin:miter;stroke-width:0.8;"/>
   </g>
   <g id="patch_4">
    <path d="M 361.836 307.584 
L 361.836 41.472 
" style="fill:none;stroke:#000000;stroke-linecap:square;stroke-linejoin:miter;stroke-width:0.8;"/>
   </g>
   <g id="patch_5">
    <path d="M 95.724 307.584 
L 361.836 307.584 
" style="fill:none;stroke:#000000;stroke-linecap:square;stroke-linejoin:miter;stroke-width:0.8;"/>
   </g>
   <g id="patch_6">
    <path d="M 95.724 41.472 
L 361.836 41.472 
" style="fill:none;stroke:#000000;stroke-linecap:square;stroke-linejoin:miter;stroke-width:0.8;"/>
   </g>
   <g id="text_12">
    <text style="font-family:DejaVu Sans;font-size:18px;font-style:normal;font-weight:normal;text-anchor:middle;" transform="rotate(-0, 228.78, 35.472)" x="228.78" y="35.472">STATP</text>
   </g>
   <g id="legend_1">
    <g id="patch_7">
     <path d="M 269.841469 97.506375 
L 351.336 97.506375 
Q 354.336 97.506375 354.336 94.506375 
L 354.336 51.972 
Q 354.336 48.972 351.336 48.972 
L 269.841469 48.972 
Q 266.841469 48.972 266.841469 51.972 
L 266.841469 94.506375 
Q 266.841469 97.506375 269.841469 97.506375 
z
" style="fill:#ffffff;opacity:0.8;stroke:#cccccc;stroke-linejoin:miter;"/>
    </g>
    <g id="line2d_41"/>
    <g id="line2d_42">
     <g>
      <use style="fill:#0033ff;stroke:#0033ff;" x="287.841469" xlink:href="#mc49225302e" y="61.119656"/>
     </g>
    </g>
    <g id="text_13">
     <text style="font-family:DejaVu Sans;font-size:15px;font-style:normal;font-weight:normal;text-anchor:start;" transform="rotate(-0, 314.841469, 66.369656)" x="314.841469" y="66.369656">ODE</text>
    </g>
    <g id="line2d_43">
     <path d="M 272.841469 83.136844 
L 302.841469 83.136844 
" style="fill:none;stroke:#0033ff;stroke-linecap:square;stroke-width:4;"/>
    </g>
    <g id="line2d_44"/>
    <g id="text_14">
     <text style="font-family:DejaVu Sans;font-size:15px;font-style:normal;font-weight:normal;text-anchor:start;" transform="rotate(-0, 314.841469, 88.386844)" x="314.841469" y="88.386844">ABM</text>
    </g>
   </g>
  </g>
 </g>
 <defs>
  <clipPath id="pc317fa4d26">
   <rect height="266.112" width="266.112" x="95.724" y="41.472"/>
  </clipPath>
 </defs>
</svg>
