<?xml version="1.0" encoding="utf-8" standalone="no"?>
<!DOCTYPE svg PUBLIC "-//W3C//DTD SVG 1.1//EN"
  "http://www.w3.org/Graphics/SVG/1.1/DTD/svg11.dtd">
<!-- Created with matplotlib (https://matplotlib.org/) -->
<svg height="345.6pt" version="1.1" viewBox="0 0 446.4 345.6" width="446.4pt" xmlns="http://www.w3.org/2000/svg" xmlns:xlink="http://www.w3.org/1999/xlink">
 <defs>
  <style type="text/css">
*{stroke-linecap:butt;stroke-linejoin:round;}
  </style>
 </defs>
 <g id="figure_1">
  <g id="patch_1">
   <path d="M 0 345.6 
L 446.4 345.6 
L 446.4 0 
L 0 0 
z
" style="fill:none;"/>
  </g>
  <g id="axes_1">
   <g id="patch_2">
    <path d="M 95.724 307.584 
L 361.836 307.584 
L 361.836 41.472 
L 95.724 41.472 
z
" style="fill:none;"/>
   </g>
   <g id="matplotlib.axis_1">
    <g id="xtick_1">
     <g id="line2d_1">
      <path clip-path="url(#pf6ff0ee168)" d="M 107.82 307.584 
L 107.82 41.472 
" style="fill:none;stroke:#b0b0b0;stroke-linecap:square;stroke-width:0.8;"/>
     </g>
     <g id="line2d_2">
      <defs>
       <path d="M 0 0 
L 0 3.5 
" id="m995892e1df" style="stroke:#000000;stroke-width:0.8;"/>
      </defs>
      <g>
       <use style="stroke:#000000;stroke-width:0.8;" x="107.82" xlink:href="#m995892e1df" y="307.584"/>
      </g>
     </g>
     <g id="text_1">
      <text style="font-family:DejaVu Sans;font-size:15px;font-style:normal;font-weight:normal;text-anchor:middle;" transform="rotate(-0, 107.82, 325.981656)" x="107.82" y="325.981656">0</text>
     </g>
    </g>
    <g id="xtick_2">
     <g id="line2d_3">
      <path clip-path="url(#pf6ff0ee168)" d="M 188.910512 307.584 
L 188.910512 41.472 
" style="fill:none;stroke:#b0b0b0;stroke-linecap:square;stroke-width:0.8;"/>
     </g>
     <g id="line2d_4">
      <g>
       <use style="stroke:#000000;stroke-width:0.8;" x="188.910512" xlink:href="#m995892e1df" y="307.584"/>
      </g>
     </g>
     <g id="text_2">
      <text style="font-family:DejaVu Sans;font-size:15px;font-style:normal;font-weight:normal;text-anchor:middle;" transform="rotate(-0, 188.910512, 325.981656)" x="188.910512" y="325.981656">10</text>
     </g>
    </g>
    <g id="xtick_3">
     <g id="line2d_5">
      <path clip-path="url(#pf6ff0ee168)" d="M 270.001024 307.584 
L 270.001024 41.472 
" style="fill:none;stroke:#b0b0b0;stroke-linecap:square;stroke-width:0.8;"/>
     </g>
     <g id="line2d_6">
      <g>
       <use style="stroke:#000000;stroke-width:0.8;" x="270.001024" xlink:href="#m995892e1df" y="307.584"/>
      </g>
     </g>
     <g id="text_3">
      <text style="font-family:DejaVu Sans;font-size:15px;font-style:normal;font-weight:normal;text-anchor:middle;" transform="rotate(-0, 270.001024, 325.981656)" x="270.001024" y="325.981656">20</text>
     </g>
    </g>
    <g id="xtick_4">
     <g id="line2d_7">
      <path clip-path="url(#pf6ff0ee168)" d="M 351.091536 307.584 
L 351.091536 41.472 
" style="fill:none;stroke:#b0b0b0;stroke-linecap:square;stroke-width:0.8;"/>
     </g>
     <g id="line2d_8">
      <g>
       <use style="stroke:#000000;stroke-width:0.8;" x="351.091536" xlink:href="#m995892e1df" y="307.584"/>
      </g>
     </g>
     <g id="text_4">
      <text style="font-family:DejaVu Sans;font-size:15px;font-style:normal;font-weight:normal;text-anchor:middle;" transform="rotate(-0, 351.091536, 325.981656)" x="351.091536" y="325.981656">30</text>
     </g>
    </g>
    <g id="text_5">
     <text style="font-family:DejaVu Sans;font-size:15px;font-style:normal;font-weight:normal;text-anchor:middle;" transform="rotate(-0, 228.78, 344.498844)" x="228.78" y="344.498844">Time (hrs)</text>
    </g>
   </g>
   <g id="matplotlib.axis_2">
    <g id="ytick_1">
     <g id="line2d_9">
      <path clip-path="url(#pf6ff0ee168)" d="M 95.724 295.488 
L 361.836 295.488 
" style="fill:none;stroke:#b0b0b0;stroke-linecap:square;stroke-width:0.8;"/>
     </g>
     <g id="line2d_10">
      <defs>
       <path d="M 0 0 
L -3.5 0 
" id="md673293284" style="stroke:#000000;stroke-width:0.8;"/>
      </defs>
      <g>
       <use style="stroke:#000000;stroke-width:0.8;" x="95.724" xlink:href="#md673293284" y="295.488"/>
      </g>
     </g>
     <g id="text_6">
      <text style="font-family:DejaVu Sans;font-size:15px;font-style:normal;font-weight:normal;text-anchor:end;" transform="rotate(-0, 88.724, 301.186828)" x="88.724" y="301.186828">0.000</text>
     </g>
    </g>
    <g id="ytick_2">
     <g id="line2d_11">
      <path clip-path="url(#pf6ff0ee168)" d="M 95.724 251.616532 
L 361.836 251.616532 
" style="fill:none;stroke:#b0b0b0;stroke-linecap:square;stroke-width:0.8;"/>
     </g>
     <g id="line2d_12">
      <g>
       <use style="stroke:#000000;stroke-width:0.8;" x="95.724" xlink:href="#md673293284" y="251.616532"/>
      </g>
     </g>
     <g id="text_7">
      <text style="font-family:DejaVu Sans;font-size:15px;font-style:normal;font-weight:normal;text-anchor:end;" transform="rotate(-0, 88.724, 257.31536)" x="88.724" y="257.31536">0.002</text>
     </g>
    </g>
    <g id="ytick_3">
     <g id="line2d_13">
      <path clip-path="url(#pf6ff0ee168)" d="M 95.724 207.745063 
L 361.836 207.745063 
" style="fill:none;stroke:#b0b0b0;stroke-linecap:square;stroke-width:0.8;"/>
     </g>
     <g id="line2d_14">
      <g>
       <use style="stroke:#000000;stroke-width:0.8;" x="95.724" xlink:href="#md673293284" y="207.745063"/>
      </g>
     </g>
     <g id="text_8">
      <text style="font-family:DejaVu Sans;font-size:15px;font-style:normal;font-weight:normal;text-anchor:end;" transform="rotate(-0, 88.724, 213.443891)" x="88.724" y="213.443891">0.004</text>
     </g>
    </g>
    <g id="ytick_4">
     <g id="line2d_15">
      <path clip-path="url(#pf6ff0ee168)" d="M 95.724 163.873595 
L 361.836 163.873595 
" style="fill:none;stroke:#b0b0b0;stroke-linecap:square;stroke-width:0.8;"/>
     </g>
     <g id="line2d_16">
      <g>
       <use style="stroke:#000000;stroke-width:0.8;" x="95.724" xlink:href="#md673293284" y="163.873595"/>
      </g>
     </g>
     <g id="text_9">
      <text style="font-family:DejaVu Sans;font-size:15px;font-style:normal;font-weight:normal;text-anchor:end;" transform="rotate(-0, 88.724, 169.572423)" x="88.724" y="169.572423">0.006</text>
     </g>
    </g>
    <g id="ytick_5">
     <g id="line2d_17">
      <path clip-path="url(#pf6ff0ee168)" d="M 95.724 120.002126 
L 361.836 120.002126 
" style="fill:none;stroke:#b0b0b0;stroke-linecap:square;stroke-width:0.8;"/>
     </g>
     <g id="line2d_18">
      <g>
       <use style="stroke:#000000;stroke-width:0.8;" x="95.724" xlink:href="#md673293284" y="120.002126"/>
      </g>
     </g>
     <g id="text_10">
      <text style="font-family:DejaVu Sans;font-size:15px;font-style:normal;font-weight:normal;text-anchor:end;" transform="rotate(-0, 88.724, 125.700954)" x="88.724" y="125.700954">0.008</text>
     </g>
    </g>
    <g id="ytick_6">
     <g id="line2d_19">
      <path clip-path="url(#pf6ff0ee168)" d="M 95.724 76.130658 
L 361.836 76.130658 
" style="fill:none;stroke:#b0b0b0;stroke-linecap:square;stroke-width:0.8;"/>
     </g>
     <g id="line2d_20">
      <g>
       <use style="stroke:#000000;stroke-width:0.8;" x="95.724" xlink:href="#md673293284" y="76.130658"/>
      </g>
     </g>
     <g id="text_11">
      <text style="font-family:DejaVu Sans;font-size:15px;font-style:normal;font-weight:normal;text-anchor:end;" transform="rotate(-0, 88.724, 81.829486)" x="88.724" y="81.829486">0.010</text>
     </g>
    </g>
    <g id="text_12">
     <!-- [IRF7] $\mu$M/cell -->
     <g transform="translate(38.631813 225.978)rotate(-90)">
      <text>
       <tspan style="font-family:DejaVu Sans;font-size:15px;font-style:book;font-weight:book;" x="0 5.852051 10.275879 20.698242 29.326172 38.869629 44.72168 59.033203 71.975098 77.028809 85.275879 94.504395 98.671875" y="-0.609375">[IRF7] M/cell</tspan>
       <tspan style="font-family:DejaVu Sans;font-size:15px;font-style:oblique;font-weight:oblique;" x="49.489746" y="-0.609375">μ</tspan>
      </text>
     </g>
    </g>
   </g>
   <g id="line2d_21">
    <path clip-path="url(#pf6ff0ee168)" d="M 107.82 295.488 
L 192.965037 295.413301 
L 195.668027 295.225529 
L 197.019563 295.003349 
L 198.371099 294.604569 
L 199.722553 293.902399 
L 201.074089 292.694043 
L 202.425624 290.670529 
L 203.777079 287.388542 
L 205.128614 282.258736 
L 206.48015 274.573572 
L 207.831604 263.59704 
L 209.18314 248.727859 
L 210.534675 229.709314 
L 211.88613 206.841991 
L 214.589201 153.976586 
L 215.940655 127.400325 
L 217.292191 103.272071 
L 218.643727 83.106813 
L 219.995181 67.990745 
L 221.346717 58.279138 
L 222.698252 53.879487 
L 224.049707 54.185491 
L 225.401242 58.655774 
L 226.752778 66.324946 
L 228.104232 76.388973 
L 230.807303 100.782387 
L 236.213283 153.406981 
L 238.916355 177.192775 
L 241.619345 197.86659 
L 242.97088 207.114455 
L 245.67387 223.422839 
L 248.37686 236.97489 
L 249.728396 242.875317 
L 252.431386 253.047443 
L 253.782921 257.439197 
L 255.134457 261.374489 
L 256.485911 264.91665 
L 257.837447 268.099459 
L 259.188982 270.956742 
L 260.540437 273.543426 
L 261.891973 275.827313 
L 264.594963 279.719528 
L 267.298034 282.881165 
L 270.001024 285.407082 
L 272.704014 287.432637 
L 275.407085 289.05775 
L 278.110075 290.354253 
L 280.813065 291.380045 
L 283.516136 292.209658 
L 286.219126 292.867226 
L 290.273652 293.615103 
L 294.328177 294.142178 
L 299.734238 294.609533 
L 306.491754 294.973453 
L 315.952341 295.237729 
L 330.818908 295.401343 
L 349.74 295.461927 
L 349.74 295.461927 
" style="fill:none;stroke:#ff6600;stroke-linecap:square;stroke-opacity:0.15;stroke-width:4;"/>
   </g>
   <g id="line2d_22">
    <path clip-path="url(#pf6ff0ee168)" d="M 107.82 295.488 
L 192.965037 295.413301 
L 195.668027 295.225528 
L 197.019563 295.003347 
L 198.371099 294.604565 
L 199.722553 293.902408 
L 201.074089 292.694107 
L 202.425624 290.670636 
L 203.777079 287.388535 
L 205.128614 282.258905 
L 206.48015 274.574543 
L 207.831604 263.600089 
L 209.18314 248.734593 
L 210.534675 229.72502 
L 211.88613 206.870507 
L 214.589201 154.004181 
L 215.940655 127.431123 
L 217.292191 103.301947 
L 218.643727 83.128727 
L 219.995181 67.978461 
L 221.346717 58.197317 
L 222.698252 53.682066 
L 224.049707 54.040934 
L 225.401242 58.475901 
L 226.752778 66.099666 
L 228.104232 76.219651 
L 229.455768 87.936536 
L 232.158758 113.885829 
L 236.213283 153.177314 
L 238.916355 176.882933 
L 241.619345 197.702335 
L 244.322335 215.465016 
L 245.67387 223.300943 
L 247.025406 230.470659 
L 249.728396 242.879287 
L 251.079931 248.263128 
L 252.431386 253.109543 
L 253.782921 257.4764 
L 255.134457 261.410486 
L 256.485911 264.930711 
L 257.837447 268.115823 
L 259.188982 271.013863 
L 260.540437 273.569814 
L 261.891973 275.848604 
L 264.594963 279.758857 
L 265.946498 281.437476 
L 268.649488 284.257689 
L 271.352559 286.511579 
L 274.055549 288.30374 
L 276.758539 289.743602 
L 279.46161 290.895673 
L 282.1646 291.81825 
L 286.219126 292.849616 
L 290.273652 293.587591 
L 294.328177 294.12403 
L 299.734238 294.602565 
L 306.491754 294.967475 
L 315.952341 295.234326 
L 330.818908 295.40039 
L 349.74 295.461665 
L 349.74 295.461665 
" style="fill:none;stroke:#ff6600;stroke-linecap:square;stroke-opacity:0.15;stroke-width:4;"/>
   </g>
   <g id="line2d_23">
    <path clip-path="url(#pf6ff0ee168)" d="M 107.82 295.488 
L 192.965037 295.413299 
L 195.668027 295.225524 
L 197.019563 295.003341 
L 198.371099 294.604556 
L 199.722553 293.902393 
L 201.074089 292.69414 
L 202.425624 290.670878 
L 203.777079 287.389318 
L 205.128614 282.260445 
L 206.48015 274.576853 
L 207.831604 263.601186 
L 209.18314 248.731149 
L 210.534675 229.71947 
L 211.88613 206.863488 
L 214.589201 154.01618 
L 215.940655 127.459376 
L 217.292191 103.330178 
L 218.643727 83.202497 
L 219.995181 68.081998 
L 221.346717 58.369294 
L 222.698252 53.958456 
L 224.049707 54.336409 
L 225.401242 58.751633 
L 226.752778 66.398211 
L 228.104232 76.352252 
L 230.807303 100.920297 
L 236.213283 153.30974 
L 238.916355 176.945471 
L 241.619345 197.687639 
L 244.322335 215.501275 
L 245.67387 223.321211 
L 247.025406 230.468531 
L 248.37686 236.967738 
L 251.079931 248.142591 
L 252.431386 253.004383 
L 255.134457 261.303418 
L 257.837447 268.074715 
L 259.188982 270.955316 
L 260.540437 273.536735 
L 261.891973 275.845989 
L 263.243508 277.923323 
L 264.594963 279.782826 
L 265.946498 281.450964 
L 268.649488 284.276839 
L 271.352559 286.52695 
L 274.055549 288.311148 
L 276.758539 289.761398 
L 279.46161 290.887978 
L 282.1646 291.812918 
L 284.867591 292.548947 
L 288.922116 293.375091 
L 292.976642 293.967384 
L 298.382703 294.504092 
L 305.140218 294.909763 
L 314.600805 295.207495 
L 329.467372 295.391301 
L 349.74 295.461407 
L 349.74 295.461407 
" style="fill:none;stroke:#ff6600;stroke-linecap:square;stroke-opacity:0.15;stroke-width:4;"/>
   </g>
   <g id="line2d_24">
    <path clip-path="url(#pf6ff0ee168)" d="M 107.82 295.488 
L 192.965037 295.4133 
L 195.668027 295.225532 
L 197.019563 295.00336 
L 198.371099 294.604593 
L 199.722553 293.902482 
L 201.074089 292.694335 
L 202.425624 290.671191 
L 203.777079 287.389437 
L 205.128614 282.259752 
L 206.48015 274.574866 
L 207.831604 263.59897 
L 209.18314 248.729504 
L 210.534675 229.71074 
L 211.88613 206.843307 
L 214.589201 153.986962 
L 215.940655 127.431759 
L 217.292191 103.327151 
L 218.643727 83.243034 
L 219.995181 68.157237 
L 221.346717 58.466469 
L 222.698252 54.047735 
L 224.049707 54.454642 
L 225.401242 58.918345 
L 226.752778 66.496483 
L 228.104232 76.533398 
L 229.455768 88.252673 
L 233.510293 127.534287 
L 236.213283 153.459605 
L 238.916355 177.200145 
L 240.267809 188.049735 
L 242.97088 207.178068 
L 245.67387 223.474476 
L 247.025406 230.607933 
L 248.37686 237.122758 
L 249.728396 243.010178 
L 251.079931 248.342097 
L 252.431386 253.132751 
L 253.782921 257.488157 
L 255.134457 261.424042 
L 256.485911 264.964514 
L 257.837447 268.128941 
L 259.188982 271.000394 
L 260.540437 273.560768 
L 261.891973 275.879851 
L 263.243508 277.931248 
L 264.594963 279.776103 
L 265.946498 281.43295 
L 268.649488 284.243418 
L 271.352559 286.511494 
L 274.055549 288.295371 
L 276.758539 289.754284 
L 279.46161 290.91425 
L 282.1646 291.826671 
L 284.867591 292.560431 
L 288.922116 293.382137 
L 292.976642 293.972578 
L 298.382703 294.507939 
L 305.140218 294.914955 
L 314.600805 295.211507 
L 329.467372 295.393301 
L 349.74 295.462122 
L 349.74 295.462122 
" style="fill:none;stroke:#ff6600;stroke-linecap:square;stroke-opacity:0.15;stroke-width:4;"/>
   </g>
   <g id="line2d_25">
    <path clip-path="url(#pf6ff0ee168)" d="M 107.82 295.488 
L 192.965037 295.413303 
L 195.668027 295.225544 
L 197.019563 295.003388 
L 198.371099 294.604667 
L 199.722553 293.902633 
L 201.074089 292.694598 
L 202.425624 290.671799 
L 203.777079 287.391268 
L 205.128614 282.264165 
L 206.48015 274.58362 
L 207.831604 263.61347 
L 209.18314 248.753172 
L 210.534675 229.747789 
L 211.88613 206.89411 
L 214.589201 154.055993 
L 215.940655 127.499694 
L 217.292191 103.388352 
L 218.643727 83.272889 
L 219.995181 68.117314 
L 221.346717 58.36381 
L 222.698252 53.943101 
L 224.049707 54.246911 
L 225.401242 58.678807 
L 226.752778 66.38505 
L 228.104232 76.379036 
L 229.455768 88.0975 
L 232.158758 114.052519 
L 236.213283 153.216864 
L 238.916355 176.928054 
L 241.619345 197.866459 
L 244.322335 215.553088 
L 247.025406 230.483404 
L 249.728396 242.918223 
L 251.079931 248.259991 
L 252.431386 253.075214 
L 255.134457 261.370585 
L 256.485911 264.852597 
L 259.188982 270.916336 
L 261.891973 275.823211 
L 263.243508 277.905048 
L 265.946498 281.417896 
L 267.298034 282.924622 
L 270.001024 285.460516 
L 272.704014 287.489589 
L 275.407085 289.085018 
L 278.110075 290.362466 
L 280.813065 291.396273 
L 283.516136 292.209492 
L 286.219126 292.870293 
L 290.273652 293.608665 
L 294.328177 294.136816 
L 299.734238 294.611661 
L 307.84329 295.023499 
L 318.655331 295.282281 
L 336.224969 295.427393 
L 349.74 295.461621 
L 349.74 295.461621 
" style="fill:none;stroke:#ff6600;stroke-linecap:square;stroke-opacity:0.15;stroke-width:4;"/>
   </g>
   <g id="line2d_26">
    <path clip-path="url(#pf6ff0ee168)" d="M 107.82 295.488 
L 192.965037 295.4133 
L 195.668027 295.225533 
L 197.019563 295.003371 
L 198.371099 294.604634 
L 199.722553 293.902566 
L 201.074089 292.694423 
L 202.425624 290.67127 
L 203.777079 287.389902 
L 205.128614 282.261075 
L 206.48015 274.577377 
L 207.831604 263.602655 
L 209.18314 248.737247 
L 210.534675 229.723638 
L 211.88613 206.864804 
L 214.589201 154.021203 
L 215.940655 127.476047 
L 217.292191 103.34516 
L 218.643727 83.191397 
L 219.995181 68.028913 
L 221.346717 58.293396 
L 222.698252 53.883875 
L 224.049707 54.196678 
L 225.401242 58.525037 
L 226.752778 66.135202 
L 228.104232 76.215132 
L 229.455768 87.813279 
L 232.158758 113.634928 
L 236.213283 152.875675 
L 238.916355 176.528429 
L 240.267809 187.374509 
L 242.97088 206.547789 
L 244.322335 215.173687 
L 245.67387 223.07983 
L 247.025406 230.231384 
L 248.37686 236.737435 
L 249.728396 242.675482 
L 251.079931 248.019247 
L 252.431386 252.844011 
L 255.134457 261.145985 
L 256.485911 264.731841 
L 257.837447 267.913619 
L 259.188982 270.801963 
L 260.540437 273.407863 
L 263.243508 277.800809 
L 264.594963 279.673577 
L 265.946498 281.347072 
L 268.649488 284.182075 
L 271.352559 286.449907 
L 274.055549 288.266087 
L 276.758539 289.720354 
L 279.46161 290.880109 
L 282.1646 291.795613 
L 284.867591 292.53524 
L 288.922116 293.363135 
L 292.976642 293.966676 
L 298.382703 294.506327 
L 305.140218 294.912394 
L 314.600805 295.208727 
L 328.115918 295.383703 
L 349.74 295.461694 
L 349.74 295.461694 
" style="fill:none;stroke:#ff6600;stroke-linecap:square;stroke-opacity:0.15;stroke-width:4;"/>
   </g>
   <g id="line2d_27">
    <path clip-path="url(#pf6ff0ee168)" d="M 107.82 295.488 
L 192.965037 295.413299 
L 195.668027 295.225521 
L 197.019563 295.003337 
L 198.371099 294.60455 
L 199.722553 293.90238 
L 201.074089 292.694089 
L 202.425624 290.670748 
L 203.777079 287.388969 
L 205.128614 282.259627 
L 206.48015 274.574995 
L 207.831604 263.599343 
L 209.18314 248.730535 
L 210.534675 229.715478 
L 211.88613 206.852608 
L 217.292191 103.419303 
L 218.643727 83.306121 
L 219.995181 68.232696 
L 221.346717 58.58887 
L 222.698252 54.191194 
L 224.049707 54.487985 
L 225.401242 58.857144 
L 226.752778 66.464238 
L 228.104232 76.527541 
L 230.807303 100.855542 
L 236.213283 153.215635 
L 238.916355 176.687112 
L 241.619345 197.347854 
L 244.322335 215.191499 
L 247.025406 230.117011 
L 248.37686 236.668579 
L 249.728396 242.577846 
L 251.079931 247.945433 
L 252.431386 252.825563 
L 253.782921 257.245065 
L 255.134457 261.18922 
L 256.485911 264.745836 
L 257.837447 267.927702 
L 259.188982 270.810211 
L 261.891973 275.760973 
L 263.243508 277.829361 
L 265.946498 281.360137 
L 268.649488 284.188726 
L 271.352559 286.431187 
L 274.055549 288.249936 
L 276.758539 289.712308 
L 279.46161 290.867244 
L 282.1646 291.793671 
L 286.219126 292.84112 
L 290.273652 293.586726 
L 294.328177 294.114444 
L 299.734238 294.600446 
L 306.491754 294.967505 
L 315.952341 295.235052 
L 330.818908 295.400241 
L 349.74 295.461383 
L 349.74 295.461383 
" style="fill:none;stroke:#ff6600;stroke-linecap:square;stroke-opacity:0.15;stroke-width:4;"/>
   </g>
   <g id="line2d_28">
    <path clip-path="url(#pf6ff0ee168)" d="M 107.82 295.488 
L 192.965037 295.413299 
L 195.668027 295.225523 
L 197.019563 295.003337 
L 198.371099 294.604552 
L 199.722553 293.902398 
L 201.074089 292.694144 
L 202.425624 290.670867 
L 203.777079 287.389428 
L 205.128614 282.261018 
L 206.48015 274.578674 
L 207.831604 263.60577 
L 209.18314 248.7417 
L 210.534675 229.732675 
L 211.88613 206.878843 
L 214.589201 154.019975 
L 215.940655 127.438581 
L 217.292191 103.276831 
L 218.643727 83.089681 
L 219.995181 67.887647 
L 221.346717 58.180207 
L 222.698252 53.761034 
L 224.049707 54.130652 
L 225.401242 58.539515 
L 226.752778 66.208028 
L 228.104232 76.209736 
L 230.807303 100.512599 
L 236.213283 153.156058 
L 238.916355 176.820043 
L 241.619345 197.617751 
L 244.322335 215.469469 
L 245.67387 223.220658 
L 248.37686 236.921081 
L 251.079931 248.185739 
L 252.431386 253.020418 
L 253.782921 257.379005 
L 255.134457 261.320681 
L 256.485911 264.833908 
L 257.837447 268.005969 
L 259.188982 270.869833 
L 261.891973 275.777095 
L 263.243508 277.867755 
L 265.946498 281.387023 
L 267.298034 282.897452 
L 270.001024 285.425491 
L 272.704014 287.457216 
L 275.407085 289.07846 
L 278.110075 290.361994 
L 280.813065 291.400568 
L 283.516136 292.21187 
L 287.570662 293.13156 
L 291.625187 293.786953 
L 297.031167 294.389127 
L 303.788764 294.844166 
L 311.897815 295.14337 
L 324.061392 295.347479 
L 347.03701 295.456646 
L 349.74 295.461288 
L 349.74 295.461288 
" style="fill:none;stroke:#ff6600;stroke-linecap:square;stroke-opacity:0.15;stroke-width:4;"/>
   </g>
   <g id="line2d_29">
    <path clip-path="url(#pf6ff0ee168)" d="M 107.82 295.488 
L 192.965037 295.413299 
L 195.668027 295.22553 
L 197.019563 295.003361 
L 198.371099 294.604608 
L 199.722553 293.902527 
L 201.074089 292.694388 
L 202.425624 290.671126 
L 203.777079 287.389211 
L 205.128614 282.259182 
L 206.48015 274.573664 
L 207.831604 263.596886 
L 209.18314 248.727003 
L 210.534675 229.710016 
L 211.88613 206.84346 
L 214.589201 153.982553 
L 215.940655 127.428622 
L 217.292191 103.287864 
L 218.643727 83.161126 
L 219.995181 68.037688 
L 221.346717 58.385526 
L 222.698252 53.96745 
L 224.049707 54.343428 
L 225.401242 58.72202 
L 226.752778 66.334817 
L 228.104232 76.361729 
L 229.455768 88.024937 
L 232.158758 114.020295 
L 236.213283 153.206203 
L 238.916355 176.912743 
L 241.619345 197.711351 
L 244.322335 215.496142 
L 247.025406 230.442494 
L 248.37686 236.911429 
L 249.728396 242.798652 
L 251.079931 248.168519 
L 253.782921 257.372315 
L 255.134457 261.300719 
L 256.485911 264.859397 
L 257.837447 268.089215 
L 259.188982 270.935179 
L 260.540437 273.510259 
L 261.891973 275.832093 
L 263.243508 277.924595 
L 265.946498 281.452725 
L 268.649488 284.243918 
L 270.001024 285.457712 
L 272.704014 287.483227 
L 275.407085 289.099564 
L 278.110075 290.386555 
L 280.813065 291.409739 
L 283.516136 292.237569 
L 287.570662 293.161176 
L 291.625187 293.817078 
L 297.031167 294.405676 
L 303.788764 294.856575 
L 311.897815 295.151796 
L 324.061392 295.350096 
L 347.03701 295.457605 
L 349.74 295.462107 
L 349.74 295.462107 
" style="fill:none;stroke:#ff6600;stroke-linecap:square;stroke-opacity:0.15;stroke-width:4;"/>
   </g>
   <g id="line2d_30">
    <path clip-path="url(#pf6ff0ee168)" d="M 107.82 295.488 
L 192.965037 295.413298 
L 195.668027 295.225526 
L 197.019563 295.003355 
L 198.371099 294.604602 
L 199.722553 293.902531 
L 201.074089 292.69446 
L 202.425624 290.671514 
L 203.777079 287.390628 
L 205.128614 282.263097 
L 206.48015 274.581819 
L 207.831604 263.611276 
L 209.18314 248.750562 
L 210.534675 229.746626 
L 211.88613 206.896962 
L 214.589201 154.065623 
L 215.940655 127.505485 
L 217.292191 103.356874 
L 218.643727 83.226012 
L 219.995181 68.100643 
L 221.346717 58.376752 
L 222.698252 53.96043 
L 224.049707 54.327854 
L 225.401242 58.735182 
L 226.752778 66.369256 
L 228.104232 76.419705 
L 229.455768 87.997648 
L 232.158758 113.997372 
L 236.213283 153.094945 
L 238.916355 176.704968 
L 241.619345 197.504892 
L 244.322335 215.345948 
L 245.67387 223.202341 
L 247.025406 230.379143 
L 248.37686 236.931457 
L 249.728396 242.842523 
L 251.079931 248.23992 
L 252.431386 253.048847 
L 253.782921 257.397672 
L 255.134457 261.359376 
L 256.485911 264.904804 
L 257.837447 268.056794 
L 260.540437 273.479264 
L 263.243508 277.898882 
L 265.946498 281.44577 
L 268.649488 284.289509 
L 271.352559 286.532004 
L 274.055549 288.325004 
L 276.758539 289.765239 
L 279.46161 290.918708 
L 282.1646 291.832833 
L 286.219126 292.867072 
L 290.273652 293.606484 
L 294.328177 294.134747 
L 299.734238 294.609292 
L 306.491754 294.975118 
L 315.952341 295.2398 
L 330.818908 295.402541 
L 349.74 295.462205 
L 349.74 295.462205 
" style="fill:none;stroke:#ff6600;stroke-linecap:square;stroke-opacity:0.15;stroke-width:4;"/>
   </g>
   <g id="line2d_31">
    <path clip-path="url(#pf6ff0ee168)" d="M 107.82 295.488 
L 192.965037 295.413298 
L 195.668027 295.225525 
L 197.019563 295.00335 
L 198.371099 294.604583 
L 199.722553 293.902459 
L 201.074089 292.694282 
L 202.425624 290.671187 
L 203.777079 287.389893 
L 205.128614 282.261226 
L 206.48015 274.577215 
L 207.831604 263.600901 
L 209.18314 248.728648 
L 210.534675 229.706813 
L 211.88613 206.834357 
L 214.589201 153.943792 
L 215.940655 127.350772 
L 217.292191 103.171934 
L 218.643727 83.019948 
L 219.995181 67.823595 
L 221.346717 58.070748 
L 222.698252 53.568 
L 224.049707 54.005618 
L 225.401242 58.399565 
L 226.752778 65.986697 
L 228.104232 76.059586 
L 229.455768 87.799766 
L 232.158758 113.954707 
L 236.213283 153.126686 
L 238.916355 176.710671 
L 241.619345 197.467206 
L 244.322335 215.281238 
L 245.67387 223.203833 
L 247.025406 230.330512 
L 249.728396 242.717511 
L 251.079931 248.044626 
L 252.431386 252.860441 
L 253.782921 257.23118 
L 255.134457 261.16621 
L 256.485911 264.742326 
L 257.837447 267.945031 
L 259.188982 270.816573 
L 260.540437 273.40534 
L 261.891973 275.743314 
L 264.594963 279.718216 
L 267.298034 282.881617 
L 270.001024 285.408695 
L 272.704014 287.429048 
L 275.407085 289.049974 
L 278.110075 290.342831 
L 280.813065 291.374067 
L 283.516136 292.189853 
L 287.570662 293.126743 
L 291.625187 293.789495 
L 297.031167 294.382194 
L 303.788764 294.841804 
L 311.897815 295.143381 
L 324.061392 295.347482 
L 347.03701 295.456852 
L 349.74 295.461463 
L 349.74 295.461463 
" style="fill:none;stroke:#ff6600;stroke-linecap:square;stroke-opacity:0.15;stroke-width:4;"/>
   </g>
   <g id="line2d_32">
    <path clip-path="url(#pf6ff0ee168)" d="M 107.82 295.488 
L 192.965037 295.413299 
L 195.668027 295.225524 
L 197.019563 295.003342 
L 198.371099 294.604562 
L 199.722553 293.902436 
L 201.074089 292.694263 
L 202.425624 290.671161 
L 203.777079 287.389801 
L 205.128614 282.260875 
L 206.48015 274.576932 
L 207.831604 263.603664 
L 209.18314 248.742643 
L 210.534675 229.740287 
L 211.88613 206.894461 
L 214.589201 154.07227 
L 215.940655 127.50667 
L 217.292191 103.395744 
L 218.643727 83.250909 
L 219.995181 68.109198 
L 221.346717 58.427423 
L 222.698252 54.036986 
L 224.049707 54.46583 
L 225.401242 58.818757 
L 226.752778 66.340301 
L 228.104232 76.359908 
L 229.455768 88.112021 
L 233.510293 127.358889 
L 236.213283 153.327793 
L 238.916355 177.007681 
L 241.619345 197.747041 
L 242.97088 207.091027 
L 245.67387 223.31871 
L 247.025406 230.508696 
L 248.37686 236.998273 
L 251.079931 248.180913 
L 252.431386 252.975692 
L 253.782921 257.360272 
L 255.134457 261.288457 
L 256.485911 264.849834 
L 257.837447 268.056355 
L 259.188982 270.91309 
L 260.540437 273.485252 
L 261.891973 275.803317 
L 263.243508 277.883534 
L 265.946498 281.396798 
L 268.649488 284.216641 
L 270.001024 285.434743 
L 272.704014 287.451162 
L 275.407085 289.059759 
L 278.110075 290.343954 
L 280.813065 291.366113 
L 283.516136 292.194382 
L 286.219126 292.857199 
L 290.273652 293.601175 
L 294.328177 294.133078 
L 299.734238 294.608058 
L 306.491754 294.971497 
L 315.952341 295.236858 
L 332.170443 295.40886 
L 349.74 295.462055 
L 349.74 295.462055 
" style="fill:none;stroke:#ff6600;stroke-linecap:square;stroke-opacity:0.15;stroke-width:4;"/>
   </g>
   <g id="line2d_33">
    <path clip-path="url(#pf6ff0ee168)" d="M 107.82 295.488 
L 192.965037 295.413299 
L 195.668027 295.225522 
L 197.019563 295.003337 
L 198.371099 294.604547 
L 199.722553 293.902351 
L 201.074089 292.69396 
L 202.425624 290.670283 
L 203.777079 287.38782 
L 205.128614 282.257245 
L 206.48015 274.570573 
L 207.831604 263.592082 
L 209.18314 248.718799 
L 210.534675 229.693542 
L 211.88613 206.810776 
L 214.589201 153.897486 
L 215.940655 127.297249 
L 217.292191 103.119837 
L 218.643727 82.957606 
L 219.995181 67.859789 
L 221.346717 58.205653 
L 222.698252 53.781654 
L 224.049707 54.155878 
L 225.401242 58.535347 
L 226.752778 66.18675 
L 228.104232 76.332093 
L 229.455768 88.021361 
L 233.510293 127.385365 
L 236.213283 153.182556 
L 238.916355 176.885214 
L 241.619345 197.670375 
L 244.322335 215.474316 
L 245.67387 223.294011 
L 247.025406 230.398973 
L 248.37686 236.884339 
L 249.728396 242.793343 
L 251.079931 248.099882 
L 252.431386 252.935812 
L 253.782921 257.307999 
L 255.134457 261.265403 
L 257.837447 267.998511 
L 259.188982 270.872224 
L 260.540437 273.421902 
L 263.243508 277.815702 
L 264.594963 279.686045 
L 267.298034 282.842383 
L 270.001024 285.370039 
L 272.704014 287.399806 
L 275.407085 289.008814 
L 278.110075 290.326552 
L 280.813065 291.358541 
L 283.516136 292.17595 
L 287.570662 293.116304 
L 291.625187 293.784634 
L 297.031167 294.389006 
L 303.788764 294.845552 
L 311.897815 295.145287 
L 324.061392 295.348034 
L 347.03701 295.456873 
L 349.74 295.461466 
L 349.74 295.461466 
" style="fill:none;stroke:#ff6600;stroke-linecap:square;stroke-opacity:0.15;stroke-width:4;"/>
   </g>
   <g id="line2d_34">
    <path clip-path="url(#pf6ff0ee168)" d="M 107.82 295.488 
L 192.965037 295.4133 
L 195.668027 295.225535 
L 197.019563 295.003378 
L 198.371099 294.604667 
L 199.722553 293.902667 
L 201.074089 292.694712 
L 202.425624 290.671996 
L 203.777079 287.391367 
L 205.128614 282.263746 
L 206.48015 274.582148 
L 207.831604 263.610179 
L 209.18314 248.744508 
L 210.534675 229.729933 
L 211.88613 206.862084 
L 214.589201 153.994924 
L 215.940655 127.427767 
L 217.292191 103.308221 
L 218.643727 83.118856 
L 219.995181 67.958938 
L 221.346717 58.257421 
L 222.698252 53.846584 
L 224.049707 54.253492 
L 225.401242 58.661916 
L 226.752778 66.284803 
L 228.104232 76.374254 
L 229.455768 88.058191 
L 232.158758 114.014175 
L 236.213283 153.250053 
L 238.916355 176.816665 
L 241.619345 197.679171 
L 244.322335 215.495967 
L 245.67387 223.316714 
L 248.37686 236.969844 
L 249.728396 242.841382 
L 251.079931 248.180189 
L 252.431386 252.977468 
L 253.782921 257.335506 
L 255.134457 261.269658 
L 256.485911 264.823006 
L 257.837447 268.017902 
L 259.188982 270.87887 
L 260.540437 273.45803 
L 261.891973 275.78193 
L 263.243508 277.853431 
L 265.946498 281.383095 
L 267.298034 282.86019 
L 270.001024 285.373115 
L 272.704014 287.383766 
L 275.407085 289.014984 
L 278.110075 290.312465 
L 280.813065 291.359541 
L 283.516136 292.178014 
L 287.570662 293.111373 
L 291.625187 293.775852 
L 297.031167 294.382448 
L 302.437228 294.767321 
L 310.54628 295.104287 
L 322.709856 295.331224 
L 342.982484 295.447838 
L 349.74 295.461172 
L 349.74 295.461172 
" style="fill:none;stroke:#ff6600;stroke-linecap:square;stroke-opacity:0.15;stroke-width:4;"/>
   </g>
   <g id="line2d_35">
    <path clip-path="url(#pf6ff0ee168)" d="M 107.82 295.488 
L 192.965037 295.413302 
L 195.668027 295.225541 
L 197.019563 295.003382 
L 198.371099 294.604655 
L 199.722553 293.902604 
L 201.074089 292.694502 
L 202.425624 290.671389 
L 203.777079 287.389961 
L 205.128614 282.261268 
L 206.48015 274.577445 
L 207.831604 263.60237 
L 209.18314 248.733891 
L 210.534675 229.721313 
L 211.88613 206.867305 
L 214.589201 154.026512 
L 215.940655 127.476618 
L 217.292191 103.339698 
L 218.643727 83.212982 
L 219.995181 68.033081 
L 221.346717 58.267731 
L 222.698252 53.878829 
L 224.049707 54.252614 
L 225.401242 58.650729 
L 226.752778 66.250364 
L 228.104232 76.226802 
L 229.455768 87.91732 
L 233.510293 127.263973 
L 236.213283 153.21081 
L 238.916355 176.866371 
L 241.619345 197.736533 
L 244.322335 215.628547 
L 245.67387 223.411915 
L 248.37686 237.062413 
L 249.728396 242.913858 
L 251.079931 248.212786 
L 253.782921 257.378084 
L 255.134457 261.353409 
L 256.485911 264.915882 
L 257.837447 268.11602 
L 259.188982 271.022264 
L 260.540437 273.578154 
L 261.891973 275.892036 
L 263.243508 277.963432 
L 265.946498 281.497957 
L 268.649488 284.309449 
L 271.352559 286.54347 
L 274.055549 288.348169 
L 276.758539 289.766022 
L 279.46161 290.924992 
L 282.1646 291.841447 
L 284.867591 292.566434 
L 288.922116 293.391139 
L 292.976642 293.978646 
L 298.382703 294.509077 
L 305.140218 294.915483 
L 314.600805 295.210754 
L 329.467372 295.392395 
L 349.74 295.461724 
L 349.74 295.461724 
" style="fill:none;stroke:#ff6600;stroke-linecap:square;stroke-opacity:0.15;stroke-width:4;"/>
   </g>
   <g id="line2d_36">
    <path clip-path="url(#pf6ff0ee168)" d="M 107.82 295.488 
L 192.965037 295.413302 
L 195.668027 295.225549 
L 197.019563 295.0034 
L 198.371099 294.60468 
L 199.722553 293.902637 
L 201.074089 292.69462 
L 202.425624 290.671867 
L 203.777079 287.391433 
L 205.128614 282.264907 
L 206.48015 274.585351 
L 207.831604 263.615685 
L 209.18314 248.75269 
L 210.534675 229.741493 
L 211.88613 206.883383 
L 214.589201 154.002602 
L 215.940655 127.409253 
L 217.292191 103.238509 
L 218.643727 83.032736 
L 219.995181 67.888086 
L 221.346717 58.13831 
L 222.698252 53.716505 
L 224.049707 54.058483 
L 225.401242 58.398249 
L 226.752778 66.008852 
L 228.104232 75.961752 
L 229.455768 87.729967 
L 233.510293 127.061309 
L 236.213283 153.004087 
L 238.916355 176.732519 
L 241.619345 197.600554 
L 244.322335 215.426387 
L 245.67387 223.29241 
L 247.025406 230.391625 
L 248.37686 236.890196 
L 249.728396 242.802907 
L 251.079931 248.197233 
L 252.431386 253.117901 
L 253.782921 257.484165 
L 255.134457 261.418712 
L 256.485911 264.965128 
L 259.188982 271.032069 
L 260.540437 273.618341 
L 261.891973 275.90824 
L 263.243508 277.978814 
L 264.594963 279.836946 
L 267.298034 282.969555 
L 270.001024 285.47126 
L 272.704014 287.499797 
L 275.407085 289.103098 
L 278.110075 290.386696 
L 280.813065 291.409414 
L 283.516136 292.228565 
L 287.570662 293.152755 
L 291.625187 293.810749 
L 297.031167 294.396778 
L 303.788764 294.851056 
L 311.897815 295.148287 
L 324.061392 295.3497 
L 347.03701 295.45727 
L 349.74 295.461917 
L 349.74 295.461917 
" style="fill:none;stroke:#ff6600;stroke-linecap:square;stroke-opacity:0.15;stroke-width:4;"/>
   </g>
   <g id="line2d_37">
    <path clip-path="url(#pf6ff0ee168)" d="M 107.82 295.488 
L 192.965037 295.413299 
L 195.668027 295.225524 
L 197.019563 295.003347 
L 198.371099 294.604587 
L 199.722553 293.902496 
L 201.074089 292.694337 
L 202.425624 290.671196 
L 203.777079 287.389862 
L 205.128614 282.261434 
L 206.48015 274.578983 
L 207.831604 263.608468 
L 209.18314 248.748522 
L 210.534675 229.75029 
L 211.88613 206.906635 
L 214.589201 154.08372 
L 215.940655 127.562759 
L 217.292191 103.460981 
L 218.643727 83.324482 
L 219.995181 68.240593 
L 221.346717 58.521966 
L 222.698252 54.090509 
L 224.049707 54.454642 
L 225.401242 58.911764 
L 226.752778 66.572819 
L 228.104232 76.519622 
L 229.455768 88.252344 
L 232.158758 114.254459 
L 236.213283 153.429531 
L 238.916355 177.023672 
L 241.619345 197.886354 
L 244.322335 215.617337 
L 245.67387 223.413297 
L 248.37686 237.036726 
L 249.728396 242.913617 
L 252.431386 253.012741 
L 253.782921 257.427527 
L 255.134457 261.337177 
L 256.485911 264.872098 
L 257.837447 268.074123 
L 259.188982 270.930331 
L 260.540437 273.5105 
L 261.891973 275.82905 
L 263.243508 277.906869 
L 265.946498 281.41745 
L 268.649488 284.222702 
L 271.352559 286.472236 
L 274.055549 288.265219 
L 276.758539 289.722186 
L 279.46161 290.876446 
L 282.1646 291.799256 
L 284.867591 292.53323 
L 288.922116 293.369555 
L 292.976642 293.964352 
L 298.382703 294.50265 
L 305.140218 294.912363 
L 314.600805 295.208182 
L 328.115918 295.383242 
L 349.74 295.46172 
L 349.74 295.46172 
" style="fill:none;stroke:#ff6600;stroke-linecap:square;stroke-opacity:0.15;stroke-width:4;"/>
   </g>
   <g id="line2d_38">
    <path clip-path="url(#pf6ff0ee168)" d="M 107.82 295.488 
L 192.965037 295.4133 
L 195.668027 295.225526 
L 197.019563 295.003344 
L 198.371099 294.604562 
L 199.722553 293.902422 
L 201.074089 292.694188 
L 202.425624 290.670851 
L 203.777079 287.388912 
L 205.128614 282.258824 
L 206.48015 274.572095 
L 207.831604 263.591402 
L 209.18314 248.715355 
L 210.534675 229.694112 
L 211.88613 206.826987 
L 214.589201 153.981938 
L 215.940655 127.437594 
L 217.292191 103.308659 
L 218.643727 83.15856 
L 219.995181 68.02321 
L 221.346717 58.344945 
L 222.698252 53.903617 
L 224.049707 54.258098 
L 225.401242 58.666742 
L 226.752778 66.30981 
L 228.104232 76.383094 
L 230.807303 100.941947 
L 236.213283 153.08764 
L 238.916355 176.79043 
L 240.267809 187.617031 
L 242.97088 206.806937 
L 245.67387 223.135328 
L 247.025406 230.362209 
L 249.728396 242.649949 
L 251.079931 248.041117 
L 253.782921 257.294421 
L 255.134457 261.241449 
L 256.485911 264.806269 
L 257.837447 268.037469 
L 259.188982 270.916336 
L 260.540437 273.480975 
L 261.891973 275.784749 
L 263.243508 277.862337 
L 265.946498 281.387124 
L 268.649488 284.234341 
L 271.352559 286.485559 
L 274.055549 288.286672 
L 276.758539 289.723805 
L 279.46161 290.87907 
L 282.1646 291.796639 
L 284.867591 292.533706 
L 288.922116 293.363174 
L 292.976642 293.961918 
L 298.382703 294.499805 
L 305.140218 294.909106 
L 314.600805 295.208239 
L 328.115918 295.382765 
L 349.74 295.461487 
L 349.74 295.461487 
" style="fill:none;stroke:#ff6600;stroke-linecap:square;stroke-opacity:0.15;stroke-width:4;"/>
   </g>
   <g id="line2d_39">
    <path clip-path="url(#pf6ff0ee168)" d="M 107.82 295.488 
L 192.965037 295.413299 
L 195.668027 295.225523 
L 197.019563 295.003349 
L 198.371099 294.604598 
L 199.722553 293.902513 
L 201.074089 292.694372 
L 202.425624 290.671123 
L 203.777079 287.389375 
L 205.128614 282.259848 
L 206.48015 274.574886 
L 207.831604 263.597632 
L 209.18314 248.72595 
L 210.534675 229.706133 
L 211.88613 206.833129 
L 214.589201 153.961363 
L 215.940655 127.38293 
L 217.292191 103.257176 
L 218.643727 83.074524 
L 219.995181 67.935467 
L 221.346717 58.193369 
L 222.698252 53.80688 
L 224.049707 54.140523 
L 225.401242 58.550483 
L 226.752778 66.15275 
L 228.104232 76.201488 
L 229.455768 87.890295 
L 232.158758 113.81377 
L 236.213283 153.028392 
L 238.916355 176.780997 
L 241.619345 197.526279 
L 244.322335 215.389864 
L 247.025406 230.426349 
L 249.728396 242.866718 
L 251.079931 248.205854 
L 252.431386 253.053366 
L 253.782921 257.3624 
L 256.485911 264.848934 
L 257.837447 268.064099 
L 259.188982 270.938075 
L 260.540437 273.510478 
L 261.891973 275.809067 
L 264.594963 279.71033 
L 267.298034 282.878248 
L 270.001024 285.399304 
L 272.704014 287.432626 
L 275.407085 289.042281 
L 278.110075 290.339933 
L 280.813065 291.372747 
L 283.516136 292.203878 
L 287.570662 293.133581 
L 291.625187 293.797207 
L 295.679713 294.27197 
L 301.085693 294.700999 
L 309.194744 295.071878 
L 320.006866 295.303462 
L 338.927959 295.437664 
L 349.74 295.462103 
L 349.74 295.462103 
" style="fill:none;stroke:#ff6600;stroke-linecap:square;stroke-opacity:0.15;stroke-width:4;"/>
   </g>
   <g id="line2d_40">
    <path clip-path="url(#pf6ff0ee168)" d="M 107.82 295.488 
L 192.965037 295.413301 
L 195.668027 295.225533 
L 197.019563 295.00336 
L 198.371099 294.60459 
L 199.722553 293.902456 
L 201.074089 292.694263 
L 202.425624 290.671104 
L 203.777079 287.389974 
L 205.128614 282.261937 
L 206.48015 274.579549 
L 207.831604 263.607481 
L 209.18314 248.742928 
L 210.534675 229.730898 
L 211.88613 206.867699 
L 214.589201 154.008854 
L 215.940655 127.429939 
L 217.292191 103.255224 
L 218.643727 83.050241 
L 219.995181 67.895544 
L 221.346717 58.151691 
L 222.698252 53.703124 
L 224.049707 54.012199 
L 225.401242 58.419088 
L 226.752778 66.066543 
L 228.104232 76.050153 
L 229.455768 87.68728 
L 232.158758 113.697357 
L 236.213283 152.926457 
L 238.916355 176.563483 
L 240.267809 187.379203 
L 242.97088 206.592845 
L 244.322335 215.12023 
L 245.67387 222.914566 
L 248.37686 236.532885 
L 251.079931 247.763827 
L 252.431386 252.67322 
L 253.782921 257.088795 
L 255.134457 261.042207 
L 256.485911 264.616854 
L 257.837447 267.856455 
L 259.188982 270.748616 
L 260.540437 273.371055 
L 261.891973 275.701726 
L 263.243508 277.778694 
L 265.946498 281.318775 
L 267.298034 282.813544 
L 270.001024 285.342414 
L 272.704014 287.358942 
L 275.407085 288.988797 
L 278.110075 290.291723 
L 280.813065 291.324979 
L 283.516136 292.157991 
L 286.219126 292.818866 
L 290.273652 293.56574 
L 294.328177 294.099356 
L 299.734238 294.589991 
L 306.491754 294.96029 
L 315.952341 295.230884 
L 330.818908 295.399198 
L 349.74 295.461098 
L 349.74 295.461098 
" style="fill:none;stroke:#ff6600;stroke-linecap:square;stroke-opacity:0.15;stroke-width:4;"/>
   </g>
   <g id="line2d_41">
    <defs>
     <path d="M 0 2.5 
C 0.663008 2.5 1.29895 2.236584 1.767767 1.767767 
C 2.236584 1.29895 2.5 0.663008 2.5 0 
C 2.5 -0.663008 2.236584 -1.29895 1.767767 -1.767767 
C 1.29895 -2.236584 0.663008 -2.5 0 -2.5 
C -0.663008 -2.5 -1.29895 -2.236584 -1.767767 -1.767767 
C -2.236584 -1.29895 -2.5 -0.663008 -2.5 0 
C -2.5 0.663008 -2.236584 1.29895 -1.767767 1.767767 
C -1.29895 2.236584 -0.663008 2.5 0 2.5 
z
" id="m8c6bbdc3ce" style="stroke:#ff6600;"/>
    </defs>
    <g clip-path="url(#pf6ff0ee168)">
     <use style="fill:#ff6600;stroke:#ff6600;" x="107.82" xlink:href="#m8c6bbdc3ce" y="295.488"/>
     <use style="fill:#ff6600;stroke:#ff6600;" x="110.523017" xlink:href="#m8c6bbdc3ce" y="295.488"/>
     <use style="fill:#ff6600;stroke:#ff6600;" x="113.226034" xlink:href="#m8c6bbdc3ce" y="295.488"/>
     <use style="fill:#ff6600;stroke:#ff6600;" x="115.929051" xlink:href="#m8c6bbdc3ce" y="295.488"/>
     <use style="fill:#ff6600;stroke:#ff6600;" x="118.632066" xlink:href="#m8c6bbdc3ce" y="295.488"/>
     <use style="fill:#ff6600;stroke:#ff6600;" x="121.335088" xlink:href="#m8c6bbdc3ce" y="295.488"/>
     <use style="fill:#ff6600;stroke:#ff6600;" x="124.038102" xlink:href="#m8c6bbdc3ce" y="295.488"/>
     <use style="fill:#ff6600;stroke:#ff6600;" x="126.741117" xlink:href="#m8c6bbdc3ce" y="295.488"/>
     <use style="fill:#ff6600;stroke:#ff6600;" x="129.444139" xlink:href="#m8c6bbdc3ce" y="295.488"/>
     <use style="fill:#ff6600;stroke:#ff6600;" x="132.147154" xlink:href="#m8c6bbdc3ce" y="295.488"/>
     <use style="fill:#ff6600;stroke:#ff6600;" x="134.850168" xlink:href="#m8c6bbdc3ce" y="295.488"/>
     <use style="fill:#ff6600;stroke:#ff6600;" x="137.55319" xlink:href="#m8c6bbdc3ce" y="295.488"/>
     <use style="fill:#ff6600;stroke:#ff6600;" x="140.256205" xlink:href="#m8c6bbdc3ce" y="295.488"/>
     <use style="fill:#ff6600;stroke:#ff6600;" x="142.959219" xlink:href="#m8c6bbdc3ce" y="295.488"/>
     <use style="fill:#ff6600;stroke:#ff6600;" x="145.662242" xlink:href="#m8c6bbdc3ce" y="295.488"/>
     <use style="fill:#ff6600;stroke:#ff6600;" x="148.365256" xlink:href="#m8c6bbdc3ce" y="295.488"/>
     <use style="fill:#ff6600;stroke:#ff6600;" x="151.06827" xlink:href="#m8c6bbdc3ce" y="295.488"/>
     <use style="fill:#ff6600;stroke:#ff6600;" x="153.771293" xlink:href="#m8c6bbdc3ce" y="295.488"/>
     <use style="fill:#ff6600;stroke:#ff6600;" x="156.474307" xlink:href="#m8c6bbdc3ce" y="295.488"/>
     <use style="fill:#ff6600;stroke:#ff6600;" x="159.177321" xlink:href="#m8c6bbdc3ce" y="295.488"/>
     <use style="fill:#ff6600;stroke:#ff6600;" x="161.880344" xlink:href="#m8c6bbdc3ce" y="295.488"/>
     <use style="fill:#ff6600;stroke:#ff6600;" x="164.583358" xlink:href="#m8c6bbdc3ce" y="295.488"/>
     <use style="fill:#ff6600;stroke:#ff6600;" x="167.286373" xlink:href="#m8c6bbdc3ce" y="295.488"/>
     <use style="fill:#ff6600;stroke:#ff6600;" x="169.989395" xlink:href="#m8c6bbdc3ce" y="295.487999"/>
     <use style="fill:#ff6600;stroke:#ff6600;" x="172.692409" xlink:href="#m8c6bbdc3ce" y="295.487995"/>
     <use style="fill:#ff6600;stroke:#ff6600;" x="175.395424" xlink:href="#m8c6bbdc3ce" y="295.487982"/>
     <use style="fill:#ff6600;stroke:#ff6600;" x="178.098446" xlink:href="#m8c6bbdc3ce" y="295.487933"/>
     <use style="fill:#ff6600;stroke:#ff6600;" x="180.801461" xlink:href="#m8c6bbdc3ce" y="295.487747"/>
     <use style="fill:#ff6600;stroke:#ff6600;" x="183.504475" xlink:href="#m8c6bbdc3ce" y="295.487045"/>
     <use style="fill:#ff6600;stroke:#ff6600;" x="186.207497" xlink:href="#m8c6bbdc3ce" y="295.484431"/>
     <use style="fill:#ff6600;stroke:#ff6600;" x="188.910512" xlink:href="#m8c6bbdc3ce" y="295.474807"/>
     <use style="fill:#ff6600;stroke:#ff6600;" x="191.613502" xlink:href="#m8c6bbdc3ce" y="295.440093"/>
     <use style="fill:#ff6600;stroke:#ff6600;" x="194.316573" xlink:href="#m8c6bbdc3ce" y="295.318641"/>
     <use style="fill:#ff6600;stroke:#ff6600;" x="197.019563" xlink:href="#m8c6bbdc3ce" y="294.912786"/>
     <use style="fill:#ff6600;stroke:#ff6600;" x="199.722553" xlink:href="#m8c6bbdc3ce" y="293.644884"/>
     <use style="fill:#ff6600;stroke:#ff6600;" x="202.425624" xlink:href="#m8c6bbdc3ce" y="290.046269"/>
     <use style="fill:#ff6600;stroke:#ff6600;" x="205.128614" xlink:href="#m8c6bbdc3ce" y="281.089724"/>
     <use style="fill:#ff6600;stroke:#ff6600;" x="207.831604" xlink:href="#m8c6bbdc3ce" y="262.297721"/>
     <use style="fill:#ff6600;stroke:#ff6600;" x="210.534675" xlink:href="#m8c6bbdc3ce" y="230.29831"/>
     <use style="fill:#ff6600;stroke:#ff6600;" x="213.237665" xlink:href="#m8c6bbdc3ce" y="187.39616"/>
     <use style="fill:#ff6600;stroke:#ff6600;" x="215.940655" xlink:href="#m8c6bbdc3ce" y="143.085867"/>
     <use style="fill:#ff6600;stroke:#ff6600;" x="218.643727" xlink:href="#m8c6bbdc3ce" y="108.894353"/>
     <use style="fill:#ff6600;stroke:#ff6600;" x="221.346717" xlink:href="#m8c6bbdc3ce" y="91.521602"/>
     <use style="fill:#ff6600;stroke:#ff6600;" x="224.049707" xlink:href="#m8c6bbdc3ce" y="90.87667"/>
     <use style="fill:#ff6600;stroke:#ff6600;" x="226.752778" xlink:href="#m8c6bbdc3ce" y="102.691805"/>
     <use style="fill:#ff6600;stroke:#ff6600;" x="229.455768" xlink:href="#m8c6bbdc3ce" y="121.791753"/>
     <use style="fill:#ff6600;stroke:#ff6600;" x="232.158758" xlink:href="#m8c6bbdc3ce" y="143.921509"/>
     <use style="fill:#ff6600;stroke:#ff6600;" x="234.861829" xlink:href="#m8c6bbdc3ce" y="166.225566"/>
     <use style="fill:#ff6600;stroke:#ff6600;" x="237.564819" xlink:href="#m8c6bbdc3ce" y="187.060236"/>
     <use style="fill:#ff6600;stroke:#ff6600;" x="240.267809" xlink:href="#m8c6bbdc3ce" y="205.636666"/>
     <use style="fill:#ff6600;stroke:#ff6600;" x="242.97088" xlink:href="#m8c6bbdc3ce" y="221.701323"/>
     <use style="fill:#ff6600;stroke:#ff6600;" x="245.67387" xlink:href="#m8c6bbdc3ce" y="235.30547"/>
     <use style="fill:#ff6600;stroke:#ff6600;" x="248.37686" xlink:href="#m8c6bbdc3ce" y="246.655502"/>
     <use style="fill:#ff6600;stroke:#ff6600;" x="251.079931" xlink:href="#m8c6bbdc3ce" y="256.02239"/>
     <use style="fill:#ff6600;stroke:#ff6600;" x="253.782921" xlink:href="#m8c6bbdc3ce" y="263.690113"/>
     <use style="fill:#ff6600;stroke:#ff6600;" x="256.485911" xlink:href="#m8c6bbdc3ce" y="269.928373"/>
     <use style="fill:#ff6600;stroke:#ff6600;" x="259.188982" xlink:href="#m8c6bbdc3ce" y="274.979648"/>
     <use style="fill:#ff6600;stroke:#ff6600;" x="261.891973" xlink:href="#m8c6bbdc3ce" y="279.054788"/>
     <use style="fill:#ff6600;stroke:#ff6600;" x="264.594963" xlink:href="#m8c6bbdc3ce" y="282.333004"/>
     <use style="fill:#ff6600;stroke:#ff6600;" x="267.298034" xlink:href="#m8c6bbdc3ce" y="284.964235"/>
     <use style="fill:#ff6600;stroke:#ff6600;" x="270.001024" xlink:href="#m8c6bbdc3ce" y="287.072489"/>
     <use style="fill:#ff6600;stroke:#ff6600;" x="272.704014" xlink:href="#m8c6bbdc3ce" y="288.759446"/>
     <use style="fill:#ff6600;stroke:#ff6600;" x="275.407085" xlink:href="#m8c6bbdc3ce" y="290.107934"/>
     <use style="fill:#ff6600;stroke:#ff6600;" x="278.110075" xlink:href="#m8c6bbdc3ce" y="291.185075"/>
     <use style="fill:#ff6600;stroke:#ff6600;" x="280.813065" xlink:href="#m8c6bbdc3ce" y="292.045055"/>
     <use style="fill:#ff6600;stroke:#ff6600;" x="283.516136" xlink:href="#m8c6bbdc3ce" y="292.731464"/>
     <use style="fill:#ff6600;stroke:#ff6600;" x="286.219126" xlink:href="#m8c6bbdc3ce" y="293.279284"/>
     <use style="fill:#ff6600;stroke:#ff6600;" x="288.922116" xlink:href="#m8c6bbdc3ce" y="293.716541"/>
     <use style="fill:#ff6600;stroke:#ff6600;" x="291.625187" xlink:href="#m8c6bbdc3ce" y="294.065632"/>
     <use style="fill:#ff6600;stroke:#ff6600;" x="294.328177" xlink:href="#m8c6bbdc3ce" y="294.34445"/>
     <use style="fill:#ff6600;stroke:#ff6600;" x="297.031167" xlink:href="#m8c6bbdc3ce" y="294.567264"/>
     <use style="fill:#ff6600;stroke:#ff6600;" x="299.734238" xlink:href="#m8c6bbdc3ce" y="294.745448"/>
     <use style="fill:#ff6600;stroke:#ff6600;" x="302.437228" xlink:href="#m8c6bbdc3ce" y="294.888063"/>
     <use style="fill:#ff6600;stroke:#ff6600;" x="305.140218" xlink:href="#m8c6bbdc3ce" y="295.002323"/>
     <use style="fill:#ff6600;stroke:#ff6600;" x="307.84329" xlink:href="#m8c6bbdc3ce" y="295.093969"/>
     <use style="fill:#ff6600;stroke:#ff6600;" x="310.54628" xlink:href="#m8c6bbdc3ce" y="295.167573"/>
     <use style="fill:#ff6600;stroke:#ff6600;" x="313.24927" xlink:href="#m8c6bbdc3ce" y="295.226772"/>
     <use style="fill:#ff6600;stroke:#ff6600;" x="315.952341" xlink:href="#m8c6bbdc3ce" y="295.274461"/>
     <use style="fill:#ff6600;stroke:#ff6600;" x="318.655331" xlink:href="#m8c6bbdc3ce" y="295.312947"/>
     <use style="fill:#ff6600;stroke:#ff6600;" x="321.358321" xlink:href="#m8c6bbdc3ce" y="295.344064"/>
     <use style="fill:#ff6600;stroke:#ff6600;" x="324.061392" xlink:href="#m8c6bbdc3ce" y="295.369276"/>
     <use style="fill:#ff6600;stroke:#ff6600;" x="326.764382" xlink:href="#m8c6bbdc3ce" y="295.389751"/>
     <use style="fill:#ff6600;stroke:#ff6600;" x="329.467372" xlink:href="#m8c6bbdc3ce" y="295.406417"/>
     <use style="fill:#ff6600;stroke:#ff6600;" x="332.170443" xlink:href="#m8c6bbdc3ce" y="295.420019"/>
     <use style="fill:#ff6600;stroke:#ff6600;" x="334.873433" xlink:href="#m8c6bbdc3ce" y="295.43115"/>
     <use style="fill:#ff6600;stroke:#ff6600;" x="337.576423" xlink:href="#m8c6bbdc3ce" y="295.440286"/>
     <use style="fill:#ff6600;stroke:#ff6600;" x="340.279494" xlink:href="#m8c6bbdc3ce" y="295.447806"/>
     <use style="fill:#ff6600;stroke:#ff6600;" x="342.982484" xlink:href="#m8c6bbdc3ce" y="295.454016"/>
     <use style="fill:#ff6600;stroke:#ff6600;" x="345.685474" xlink:href="#m8c6bbdc3ce" y="295.459162"/>
     <use style="fill:#ff6600;stroke:#ff6600;" x="348.388546" xlink:href="#m8c6bbdc3ce" y="295.463439"/>
    </g>
   </g>
   <g id="line2d_42">
    <path clip-path="url(#pf6ff0ee168)" d="M 107.82 295.488 
L 192.965037 295.4133 
L 195.668027 295.225529 
L 197.019563 295.003357 
L 198.371099 294.604596 
L 199.722553 293.902488 
L 201.074089 292.694311 
L 202.425624 290.671136 
L 203.777079 287.389682 
L 205.128614 282.260866 
L 206.48015 274.577258 
L 207.831604 263.602828 
L 209.18314 248.735863 
L 210.534675 229.722779 
L 211.88613 206.861845 
L 214.589201 154.006361 
L 215.940655 127.442459 
L 217.292191 103.308086 
L 218.643727 83.156457 
L 219.995181 68.019042 
L 221.346717 58.304002 
L 222.698252 53.880376 
L 224.049707 54.240418 
L 225.401242 58.6436 
L 226.752778 66.268779 
L 228.104232 76.303795 
L 229.455768 88.008956 
L 232.158758 113.966475 
L 236.213283 153.184651 
L 238.916355 176.849019 
L 241.619345 197.63539 
L 244.322335 215.435025 
L 245.67387 223.255131 
L 247.025406 230.39504 
L 248.37686 236.895481 
L 249.728396 242.793993 
L 251.079931 248.143071 
L 252.431386 252.975696 
L 253.782921 257.34766 
L 255.134457 261.292875 
L 256.485911 264.839426 
L 257.837447 268.037174 
L 259.188982 270.910721 
L 260.540437 273.48799 
L 261.891973 275.802273 
L 263.243508 277.878206 
L 265.946498 281.405524 
L 268.649488 284.227681 
L 271.352559 286.487033 
L 274.055549 288.292422 
L 276.758539 289.737831 
L 279.46161 290.892646 
L 282.1646 291.812523 
L 284.867591 292.546382 
L 288.922116 293.376861 
L 292.976642 293.969592 
L 298.382703 294.504351 
L 305.140218 294.911802 
L 314.600805 295.209229 
L 329.467372 295.392396 
L 349.74 295.461681 
L 349.74 295.461681 
" style="fill:none;stroke:#ff6600;stroke-linecap:square;stroke-width:4;"/>
   </g>
   <g id="patch_3">
    <path d="M 95.724 307.584 
L 95.724 41.472 
" style="fill:none;stroke:#000000;stroke-linecap:square;stroke-linejoin:miter;stroke-width:0.8;"/>
   </g>
   <g id="patch_4">
    <path d="M 361.836 307.584 
L 361.836 41.472 
" style="fill:none;stroke:#000000;stroke-linecap:square;stroke-linejoin:miter;stroke-width:0.8;"/>
   </g>
   <g id="patch_5">
    <path d="M 95.724 307.584 
L 361.836 307.584 
" style="fill:none;stroke:#000000;stroke-linecap:square;stroke-linejoin:miter;stroke-width:0.8;"/>
   </g>
   <g id="patch_6">
    <path d="M 95.724 41.472 
L 361.836 41.472 
" style="fill:none;stroke:#000000;stroke-linecap:square;stroke-linejoin:miter;stroke-width:0.8;"/>
   </g>
   <g id="text_13">
    <text style="font-family:DejaVu Sans;font-size:18px;font-style:normal;font-weight:normal;text-anchor:middle;" transform="rotate(-0, 228.78, 35.472)" x="228.78" y="35.472">IRF7</text>
   </g>
   <g id="legend_1">
    <g id="patch_7">
     <path d="M 269.841469 97.506375 
L 351.336 97.506375 
Q 354.336 97.506375 354.336 94.506375 
L 354.336 51.972 
Q 354.336 48.972 351.336 48.972 
L 269.841469 48.972 
Q 266.841469 48.972 266.841469 51.972 
L 266.841469 94.506375 
Q 266.841469 97.506375 269.841469 97.506375 
z
" style="fill:#ffffff;opacity:0.8;stroke:#cccccc;stroke-linejoin:miter;"/>
    </g>
    <g id="line2d_43"/>
    <g id="line2d_44">
     <g>
      <use style="fill:#ff6600;stroke:#ff6600;" x="287.841469" xlink:href="#m8c6bbdc3ce" y="61.119656"/>
     </g>
    </g>
    <g id="text_14">
     <text style="font-family:DejaVu Sans;font-size:15px;font-style:normal;font-weight:normal;text-anchor:start;" transform="rotate(-0, 314.841469, 66.369656)" x="314.841469" y="66.369656">ODE</text>
    </g>
    <g id="line2d_45">
     <path d="M 272.841469 83.136844 
L 302.841469 83.136844 
" style="fill:none;stroke:#ff6600;stroke-linecap:square;stroke-width:4;"/>
    </g>
    <g id="line2d_46"/>
    <g id="text_15">
     <text style="font-family:DejaVu Sans;font-size:15px;font-style:normal;font-weight:normal;text-anchor:start;" transform="rotate(-0, 314.841469, 88.386844)" x="314.841469" y="88.386844">ABM</text>
    </g>
   </g>
  </g>
 </g>
 <defs>
  <clipPath id="pf6ff0ee168">
   <rect height="266.112" width="266.112" x="95.724" y="41.472"/>
  </clipPath>
 </defs>
</svg>
