<?xml version="1.0" encoding="utf-8" standalone="no"?>
<!DOCTYPE svg PUBLIC "-//W3C//DTD SVG 1.1//EN"
  "http://www.w3.org/Graphics/SVG/1.1/DTD/svg11.dtd">
<!-- Created with matplotlib (https://matplotlib.org/) -->
<svg height="345.6pt" version="1.1" viewBox="0 0 446.4 345.6" width="446.4pt" xmlns="http://www.w3.org/2000/svg" xmlns:xlink="http://www.w3.org/1999/xlink">
 <defs>
  <style type="text/css">
*{stroke-linecap:butt;stroke-linejoin:round;}
  </style>
 </defs>
 <g id="figure_1">
  <g id="patch_1">
   <path d="M 0 345.6 
L 446.4 345.6 
L 446.4 0 
L 0 0 
z
" style="fill:none;"/>
  </g>
  <g id="axes_1">
   <g id="patch_2">
    <path d="M 95.724 307.584 
L 361.836 307.584 
L 361.836 41.472 
L 95.724 41.472 
z
" style="fill:none;"/>
   </g>
   <g id="matplotlib.axis_1">
    <g id="xtick_1">
     <g id="line2d_1">
      <path clip-path="url(#pe1518bfba0)" d="M 107.82 307.584 
L 107.82 41.472 
" style="fill:none;stroke:#b0b0b0;stroke-linecap:square;stroke-width:0.8;"/>
     </g>
     <g id="line2d_2">
      <defs>
       <path d="M 0 0 
L 0 3.5 
" id="m87c1efa4b2" style="stroke:#000000;stroke-width:0.8;"/>
      </defs>
      <g>
       <use style="stroke:#000000;stroke-width:0.8;" x="107.82" xlink:href="#m87c1efa4b2" y="307.584"/>
      </g>
     </g>
     <g id="text_1">
      <text style="font-family:DejaVu Sans;font-size:15px;font-style:normal;font-weight:normal;text-anchor:middle;" transform="rotate(-0, 107.82, 325.981656)" x="107.82" y="325.981656">0</text>
     </g>
    </g>
    <g id="xtick_2">
     <g id="line2d_3">
      <path clip-path="url(#pe1518bfba0)" d="M 188.910512 307.584 
L 188.910512 41.472 
" style="fill:none;stroke:#b0b0b0;stroke-linecap:square;stroke-width:0.8;"/>
     </g>
     <g id="line2d_4">
      <g>
       <use style="stroke:#000000;stroke-width:0.8;" x="188.910512" xlink:href="#m87c1efa4b2" y="307.584"/>
      </g>
     </g>
     <g id="text_2">
      <text style="font-family:DejaVu Sans;font-size:15px;font-style:normal;font-weight:normal;text-anchor:middle;" transform="rotate(-0, 188.910512, 325.981656)" x="188.910512" y="325.981656">10</text>
     </g>
    </g>
    <g id="xtick_3">
     <g id="line2d_5">
      <path clip-path="url(#pe1518bfba0)" d="M 270.001024 307.584 
L 270.001024 41.472 
" style="fill:none;stroke:#b0b0b0;stroke-linecap:square;stroke-width:0.8;"/>
     </g>
     <g id="line2d_6">
      <g>
       <use style="stroke:#000000;stroke-width:0.8;" x="270.001024" xlink:href="#m87c1efa4b2" y="307.584"/>
      </g>
     </g>
     <g id="text_3">
      <text style="font-family:DejaVu Sans;font-size:15px;font-style:normal;font-weight:normal;text-anchor:middle;" transform="rotate(-0, 270.001024, 325.981656)" x="270.001024" y="325.981656">20</text>
     </g>
    </g>
    <g id="xtick_4">
     <g id="line2d_7">
      <path clip-path="url(#pe1518bfba0)" d="M 351.091536 307.584 
L 351.091536 41.472 
" style="fill:none;stroke:#b0b0b0;stroke-linecap:square;stroke-width:0.8;"/>
     </g>
     <g id="line2d_8">
      <g>
       <use style="stroke:#000000;stroke-width:0.8;" x="351.091536" xlink:href="#m87c1efa4b2" y="307.584"/>
      </g>
     </g>
     <g id="text_4">
      <text style="font-family:DejaVu Sans;font-size:15px;font-style:normal;font-weight:normal;text-anchor:middle;" transform="rotate(-0, 351.091536, 325.981656)" x="351.091536" y="325.981656">30</text>
     </g>
    </g>
    <g id="text_5">
     <text style="font-family:DejaVu Sans;font-size:15px;font-style:normal;font-weight:normal;text-anchor:middle;" transform="rotate(-0, 228.78, 344.498844)" x="228.78" y="344.498844">Time (hrs)</text>
    </g>
   </g>
   <g id="matplotlib.axis_2">
    <g id="ytick_1">
     <g id="line2d_9">
      <path clip-path="url(#pe1518bfba0)" d="M 95.724 295.488 
L 361.836 295.488 
" style="fill:none;stroke:#b0b0b0;stroke-linecap:square;stroke-width:0.8;"/>
     </g>
     <g id="line2d_10">
      <defs>
       <path d="M 0 0 
L -3.5 0 
" id="m245ed311ea" style="stroke:#000000;stroke-width:0.8;"/>
      </defs>
      <g>
       <use style="stroke:#000000;stroke-width:0.8;" x="95.724" xlink:href="#m245ed311ea" y="295.488"/>
      </g>
     </g>
     <g id="text_6">
      <text style="font-family:DejaVu Sans;font-size:15px;font-style:normal;font-weight:normal;text-anchor:end;" transform="rotate(-0, 88.724, 301.186828)" x="88.724" y="301.186828">0.00</text>
     </g>
    </g>
    <g id="ytick_2">
     <g id="line2d_11">
      <path clip-path="url(#pe1518bfba0)" d="M 95.724 232.206744 
L 361.836 232.206744 
" style="fill:none;stroke:#b0b0b0;stroke-linecap:square;stroke-width:0.8;"/>
     </g>
     <g id="line2d_12">
      <g>
       <use style="stroke:#000000;stroke-width:0.8;" x="95.724" xlink:href="#m245ed311ea" y="232.206744"/>
      </g>
     </g>
     <g id="text_7">
      <text style="font-family:DejaVu Sans;font-size:15px;font-style:normal;font-weight:normal;text-anchor:end;" transform="rotate(-0, 88.724, 237.905573)" x="88.724" y="237.905573">0.02</text>
     </g>
    </g>
    <g id="ytick_3">
     <g id="line2d_13">
      <path clip-path="url(#pe1518bfba0)" d="M 95.724 168.925489 
L 361.836 168.925489 
" style="fill:none;stroke:#b0b0b0;stroke-linecap:square;stroke-width:0.8;"/>
     </g>
     <g id="line2d_14">
      <g>
       <use style="stroke:#000000;stroke-width:0.8;" x="95.724" xlink:href="#m245ed311ea" y="168.925489"/>
      </g>
     </g>
     <g id="text_8">
      <text style="font-family:DejaVu Sans;font-size:15px;font-style:normal;font-weight:normal;text-anchor:end;" transform="rotate(-0, 88.724, 174.624317)" x="88.724" y="174.624317">0.04</text>
     </g>
    </g>
    <g id="ytick_4">
     <g id="line2d_15">
      <path clip-path="url(#pe1518bfba0)" d="M 95.724 105.644233 
L 361.836 105.644233 
" style="fill:none;stroke:#b0b0b0;stroke-linecap:square;stroke-width:0.8;"/>
     </g>
     <g id="line2d_16">
      <g>
       <use style="stroke:#000000;stroke-width:0.8;" x="95.724" xlink:href="#m245ed311ea" y="105.644233"/>
      </g>
     </g>
     <g id="text_9">
      <text style="font-family:DejaVu Sans;font-size:15px;font-style:normal;font-weight:normal;text-anchor:end;" transform="rotate(-0, 88.724, 111.343062)" x="88.724" y="111.343062">0.06</text>
     </g>
    </g>
    <g id="ytick_5">
     <g id="line2d_17">
      <path clip-path="url(#pe1518bfba0)" d="M 95.724 42.362978 
L 361.836 42.362978 
" style="fill:none;stroke:#b0b0b0;stroke-linecap:square;stroke-width:0.8;"/>
     </g>
     <g id="line2d_18">
      <g>
       <use style="stroke:#000000;stroke-width:0.8;" x="95.724" xlink:href="#m245ed311ea" y="42.362978"/>
      </g>
     </g>
     <g id="text_10">
      <text style="font-family:DejaVu Sans;font-size:15px;font-style:normal;font-weight:normal;text-anchor:end;" transform="rotate(-0, 88.724, 48.061806)" x="88.724" y="48.061806">0.08</text>
     </g>
    </g>
    <g id="text_11">
     <!-- [IFNe] $\mu$M/cell -->
     <g transform="translate(48.175563 226.203)rotate(-90)">
      <text>
       <tspan style="font-family:DejaVu Sans;font-size:15px;font-style:book;font-weight:book;" x="0 5.852051 10.275879 18.903809 30.124512 39.353027 45.205078 59.516602 72.458496 77.512207 85.759277 94.987793 99.155273" y="-0.609375">[IFNe] M/cell</tspan>
       <tspan style="font-family:DejaVu Sans;font-size:15px;font-style:oblique;font-weight:oblique;" x="49.973145" y="-0.609375">μ</tspan>
      </text>
     </g>
    </g>
   </g>
   <g id="line2d_19">
    <path clip-path="url(#pe1518bfba0)" d="M 107.82 295.488 
L 194.316573 295.400154 
L 197.019563 295.176772 
L 198.371099 294.910232 
L 199.722553 294.428586 
L 201.074089 293.577277 
L 202.425624 292.10376 
L 203.777079 289.629137 
L 205.128614 285.623212 
L 206.48015 279.440658 
L 207.831604 270.334967 
L 209.18314 257.785408 
L 210.534675 241.856661 
L 213.237665 204.766537 
L 214.589201 188.578717 
L 215.940655 176.858902 
L 217.292191 172.225448 
L 218.643727 175.92699 
L 219.995181 186.002695 
L 221.346717 199.964882 
L 224.049707 231.962321 
L 225.401242 246.815349 
L 226.752778 258.843882 
L 228.104232 268.684171 
L 229.455768 276.041044 
L 230.807303 281.749478 
L 232.158758 285.703161 
L 233.510293 288.682917 
L 234.861829 290.741052 
L 236.213283 292.215717 
L 237.564819 293.24285 
L 238.916355 293.947389 
L 240.267809 294.423194 
L 242.97088 294.960691 
L 245.67387 295.239239 
L 251.079931 295.422917 
L 263.243508 295.482931 
L 349.74 295.488 
L 349.74 295.488 
" style="fill:none;stroke:#993300;stroke-linecap:square;stroke-opacity:0.15;stroke-width:4;"/>
   </g>
   <g id="line2d_20">
    <path clip-path="url(#pe1518bfba0)" d="M 107.82 295.488 
L 194.316573 295.400154 
L 197.019563 295.176789 
L 198.371099 294.91048 
L 199.722553 294.429318 
L 201.074089 293.576664 
L 202.425624 292.103823 
L 203.777079 289.637211 
L 205.128614 285.638649 
L 206.48015 279.463851 
L 207.831604 270.400371 
L 209.18314 257.875773 
L 210.534675 241.910324 
L 214.589201 187.064238 
L 215.940655 174.830326 
L 217.292191 169.57814 
L 218.643727 171.327993 
L 219.995181 180.725038 
L 221.346717 195.150602 
L 224.049707 229.571966 
L 225.401242 244.740167 
L 226.752778 257.383572 
L 228.104232 267.757258 
L 229.455768 275.734427 
L 230.807303 281.661546 
L 232.158758 285.693574 
L 233.510293 288.644271 
L 234.861829 290.774189 
L 236.213283 292.188208 
L 237.564819 293.21211 
L 238.916355 293.89527 
L 240.267809 294.361872 
L 242.97088 294.937365 
L 245.67387 295.210252 
L 249.728396 295.381791 
L 259.188982 295.474638 
L 315.952341 295.487997 
L 349.74 295.488 
L 349.74 295.488 
" style="fill:none;stroke:#993300;stroke-linecap:square;stroke-opacity:0.15;stroke-width:4;"/>
   </g>
   <g id="line2d_21">
    <path clip-path="url(#pe1518bfba0)" d="M 107.82 295.488 
L 194.316573 295.40016 
L 197.019563 295.176766 
L 198.371099 294.910406 
L 199.722553 294.430126 
L 201.074089 293.579286 
L 202.425624 292.107955 
L 203.777079 289.639951 
L 205.128614 285.638829 
L 206.48015 279.428325 
L 207.831604 270.355653 
L 209.18314 257.918235 
L 210.534675 241.936143 
L 214.589201 187.9061 
L 215.940655 175.857792 
L 217.292191 171.290816 
L 218.643727 173.688954 
L 219.995181 183.572821 
L 221.346717 197.639042 
L 225.401242 245.73017 
L 226.752778 258.788605 
L 228.104232 268.938947 
L 229.455768 276.517627 
L 230.807303 281.946112 
L 232.158758 286.007 
L 233.510293 288.859697 
L 234.861829 290.943662 
L 236.213283 292.288867 
L 237.564819 293.253075 
L 238.916355 293.919547 
L 240.267809 294.392391 
L 242.97088 294.958079 
L 245.67387 295.218731 
L 249.728396 295.389019 
L 259.188982 295.475175 
L 315.952341 295.487998 
L 349.74 295.488 
L 349.74 295.488 
" style="fill:none;stroke:#993300;stroke-linecap:square;stroke-opacity:0.15;stroke-width:4;"/>
   </g>
   <g id="line2d_22">
    <path clip-path="url(#pe1518bfba0)" d="M 107.82 295.488 
L 194.316573 295.400193 
L 197.019563 295.176885 
L 198.371099 294.911074 
L 199.722553 294.430865 
L 201.074089 293.579545 
L 202.425624 292.102462 
L 203.777079 289.628447 
L 205.128614 285.63065 
L 206.48015 279.418681 
L 207.831604 270.297957 
L 209.18314 257.764525 
L 210.534675 241.910545 
L 213.237665 204.787451 
L 214.589201 188.314043 
L 215.940655 176.317657 
L 217.292191 171.67642 
L 218.643727 174.677249 
L 219.995181 185.350329 
L 221.346717 200.311948 
L 224.049707 232.035727 
L 225.401242 247.181368 
L 226.752778 259.359687 
L 228.104232 269.180511 
L 229.455768 276.74375 
L 230.807303 282.221721 
L 232.158758 286.162188 
L 233.510293 289.085519 
L 234.861829 291.017983 
L 236.213283 292.458653 
L 237.564819 293.395369 
L 238.916355 294.052678 
L 241.619345 294.807414 
L 244.322335 295.144671 
L 248.37686 295.36507 
L 256.485911 295.468666 
L 287.570662 295.487908 
L 349.74 295.488 
L 349.74 295.488 
" style="fill:none;stroke:#993300;stroke-linecap:square;stroke-opacity:0.15;stroke-width:4;"/>
   </g>
   <g id="line2d_23">
    <path clip-path="url(#pe1518bfba0)" d="M 107.82 295.488 
L 194.316573 295.40024 
L 197.019563 295.177288 
L 198.371099 294.911385 
L 199.722553 294.431798 
L 201.074089 293.584488 
L 202.425624 292.118539 
L 203.777079 289.660167 
L 205.128614 285.680902 
L 206.48015 279.511043 
L 207.831604 270.441171 
L 209.18314 257.902921 
L 210.534675 241.993349 
L 213.237665 204.74385 
L 214.589201 188.512873 
L 215.940655 176.881715 
L 217.292191 171.904328 
L 218.643727 174.341985 
L 219.995181 184.417405 
L 221.346717 198.900965 
L 225.401242 245.840533 
L 226.752778 258.262707 
L 228.104232 268.298364 
L 229.455768 275.70359 
L 230.807303 281.488206 
L 232.158758 285.715723 
L 233.510293 288.71602 
L 234.861829 290.733338 
L 236.213283 292.246775 
L 237.564819 293.218231 
L 238.916355 293.914272 
L 240.267809 294.408524 
L 242.97088 294.943477 
L 245.67387 295.209189 
L 251.079931 295.410717 
L 263.243508 295.482237 
L 349.74 295.488 
L 349.74 295.488 
" style="fill:none;stroke:#993300;stroke-linecap:square;stroke-opacity:0.15;stroke-width:4;"/>
   </g>
   <g id="line2d_24">
    <path clip-path="url(#pe1518bfba0)" d="M 107.82 295.488 
L 194.316573 295.400205 
L 197.019563 295.177128 
L 198.371099 294.911138 
L 199.722553 294.430243 
L 201.074089 293.580032 
L 202.425624 292.110208 
L 203.777079 289.638518 
L 205.128614 285.64025 
L 206.48015 279.462177 
L 207.831604 270.347949 
L 209.18314 257.804044 
L 210.534675 241.981199 
L 214.589201 187.639528 
L 215.940655 175.535438 
L 217.292191 171.219941 
L 218.643727 174.76328 
L 219.995181 184.462113 
L 221.346717 197.279415 
L 225.401242 245.407594 
L 226.752778 257.98544 
L 228.104232 268.115987 
L 229.455768 275.786802 
L 230.807303 281.4278 
L 232.158758 285.639238 
L 233.510293 288.64791 
L 234.861829 290.665484 
L 236.213283 292.097571 
L 237.564819 293.123752 
L 238.916355 293.862841 
L 240.267809 294.386891 
L 241.619345 294.729243 
L 244.322335 295.113265 
L 248.37686 295.347789 
L 255.134457 295.459361 
L 280.813065 295.487716 
L 349.74 295.488 
L 349.74 295.488 
" style="fill:none;stroke:#993300;stroke-linecap:square;stroke-opacity:0.15;stroke-width:4;"/>
   </g>
   <g id="line2d_25">
    <path clip-path="url(#pe1518bfba0)" d="M 107.82 295.488 
L 194.316573 295.400146 
L 197.019563 295.176724 
L 198.371099 294.910369 
L 199.722553 294.429674 
L 201.074089 293.578711 
L 202.425624 292.105051 
L 203.777079 289.634069 
L 205.128614 285.631195 
L 206.48015 279.442269 
L 207.831604 270.358523 
L 209.18314 257.802335 
L 210.534675 241.979902 
L 214.589201 188.767991 
L 215.940655 176.844569 
L 217.292191 172.22722 
L 218.643727 174.547332 
L 219.995181 183.571904 
L 221.346717 197.075776 
L 225.401242 244.137381 
L 226.752778 256.568699 
L 228.104232 266.755583 
L 229.455768 274.902845 
L 230.807303 281.087708 
L 232.158758 285.314712 
L 233.510293 288.307394 
L 234.861829 290.541336 
L 236.213283 292.068196 
L 237.564819 293.154601 
L 238.916355 293.862555 
L 240.267809 294.376104 
L 242.97088 294.949702 
L 245.67387 295.208209 
L 251.079931 295.414685 
L 263.243508 295.482046 
L 349.74 295.488 
L 349.74 295.488 
" style="fill:none;stroke:#993300;stroke-linecap:square;stroke-opacity:0.15;stroke-width:4;"/>
   </g>
   <g id="line2d_26">
    <path clip-path="url(#pe1518bfba0)" d="M 107.82 295.488 
L 194.316573 295.400142 
L 197.019563 295.176818 
L 198.371099 294.910568 
L 199.722553 294.429929 
L 201.074089 293.579456 
L 202.425624 292.110809 
L 203.777079 289.647915 
L 205.128614 285.662497 
L 206.48015 279.477232 
L 207.831604 270.432394 
L 209.18314 257.921431 
L 210.534675 241.990185 
L 214.589201 186.805956 
L 215.940655 174.481741 
L 217.292191 170.274709 
L 218.643727 173.263546 
L 219.995181 183.011295 
L 221.346717 197.780697 
L 224.049707 230.979879 
L 225.401242 245.900397 
L 226.752778 258.498682 
L 228.104232 268.527391 
L 229.455768 276.045733 
L 230.807303 281.529743 
L 232.158758 285.725278 
L 233.510293 288.673666 
L 234.861829 290.716723 
L 236.213283 292.209439 
L 237.564819 293.25013 
L 238.916355 293.905894 
L 240.267809 294.382961 
L 242.97088 294.943865 
L 245.67387 295.219527 
L 249.728396 295.388866 
L 259.188982 295.475933 
L 313.24927 295.487996 
L 349.74 295.488 
L 349.74 295.488 
" style="fill:none;stroke:#993300;stroke-linecap:square;stroke-opacity:0.15;stroke-width:4;"/>
   </g>
   <g id="line2d_27">
    <path clip-path="url(#pe1518bfba0)" d="M 107.82 295.488 
L 194.316573 295.400197 
L 197.019563 295.177007 
L 198.371099 294.911222 
L 199.722553 294.430436 
L 201.074089 293.577314 
L 202.425624 292.103294 
L 203.777079 289.624701 
L 205.128614 285.618557 
L 206.48015 279.444654 
L 207.831604 270.346316 
L 209.18314 257.818029 
L 210.534675 241.758892 
L 214.589201 187.563053 
L 215.940655 174.940309 
L 217.292191 170.913343 
L 218.643727 174.149483 
L 219.995181 183.995445 
L 221.346717 198.136306 
L 224.049707 229.792438 
L 225.401242 244.241574 
L 226.752778 256.959429 
L 228.104232 267.141975 
L 229.455768 275.35011 
L 230.807303 281.330063 
L 232.158758 285.573197 
L 233.510293 288.653175 
L 234.861829 290.773901 
L 236.213283 292.23154 
L 237.564819 293.264528 
L 238.916355 293.935343 
L 240.267809 294.414165 
L 242.97088 294.955249 
L 245.67387 295.226525 
L 251.079931 295.416649 
L 261.891973 295.481479 
L 349.74 295.488 
L 349.74 295.488 
" style="fill:none;stroke:#993300;stroke-linecap:square;stroke-opacity:0.15;stroke-width:4;"/>
   </g>
   <g id="line2d_28">
    <path clip-path="url(#pe1518bfba0)" d="M 107.82 295.488 
L 194.316573 295.400185 
L 197.019563 295.17704 
L 198.371099 294.911413 
L 199.722553 294.43173 
L 201.074089 293.582877 
L 202.425624 292.117514 
L 203.777079 289.655133 
L 205.128614 285.670802 
L 206.48015 279.497624 
L 207.831604 270.429319 
L 209.18314 258.029768 
L 210.534675 242.092669 
L 214.589201 187.971154 
L 215.940655 176.276841 
L 217.292191 171.558938 
L 218.643727 174.164892 
L 219.995181 183.932164 
L 221.346717 198.914792 
L 224.049707 231.967889 
L 225.401242 247.039111 
L 226.752778 259.268214 
L 228.104232 269.179318 
L 229.455768 276.453846 
L 230.807303 282.094756 
L 232.158758 286.15081 
L 233.510293 289.012277 
L 234.861829 291.007627 
L 236.213283 292.373467 
L 237.564819 293.365833 
L 238.916355 294.005206 
L 240.267809 294.459931 
L 242.97088 294.971189 
L 245.67387 295.232395 
L 249.728396 295.39331 
L 259.188982 295.476556 
L 314.600805 295.487997 
L 349.74 295.488 
L 349.74 295.488 
" style="fill:none;stroke:#993300;stroke-linecap:square;stroke-opacity:0.15;stroke-width:4;"/>
   </g>
   <g id="line2d_29">
    <path clip-path="url(#pe1518bfba0)" d="M 107.82 295.488 
L 194.316573 295.40019 
L 197.019563 295.176917 
L 198.371099 294.910802 
L 199.722553 294.430935 
L 201.074089 293.581348 
L 202.425624 292.111964 
L 203.777079 289.636493 
L 205.128614 285.627774 
L 206.48015 279.39689 
L 207.831604 270.263494 
L 209.18314 257.635906 
L 210.534675 241.622932 
L 214.589201 186.220921 
L 215.940655 174.310629 
L 217.292191 169.266005 
L 218.643727 172.433738 
L 219.995181 182.425944 
L 221.346717 197.385474 
L 224.049707 231.115744 
L 225.401242 246.12571 
L 226.752778 258.686406 
L 228.104232 268.615362 
L 229.455768 276.145426 
L 230.807303 281.721672 
L 232.158758 285.679026 
L 233.510293 288.736276 
L 234.861829 290.785421 
L 236.213283 292.231743 
L 237.564819 293.190218 
L 238.916355 293.872686 
L 240.267809 294.364137 
L 242.97088 294.913756 
L 245.67387 295.207617 
L 249.728396 295.384682 
L 259.188982 295.475785 
L 311.897815 295.487997 
L 349.74 295.488 
L 349.74 295.488 
" style="fill:none;stroke:#993300;stroke-linecap:square;stroke-opacity:0.15;stroke-width:4;"/>
   </g>
   <g id="line2d_30">
    <path clip-path="url(#pe1518bfba0)" d="M 107.82 295.488 
L 194.316573 295.400147 
L 197.019563 295.176847 
L 198.371099 294.91093 
L 199.722553 294.430744 
L 201.074089 293.581434 
L 202.425624 292.108724 
L 203.777079 289.636357 
L 205.128614 285.645275 
L 206.48015 279.506784 
L 207.831604 270.532781 
L 209.18314 258.096308 
L 210.534675 242.210562 
L 214.589201 187.850698 
L 215.940655 176.05947 
L 217.292191 171.286608 
L 218.643727 174.480191 
L 219.995181 183.857366 
L 221.346717 198.241385 
L 224.049707 231.673315 
L 225.401242 246.426201 
L 226.752778 258.542251 
L 228.104232 268.427401 
L 229.455768 276.291008 
L 230.807303 282.040581 
L 232.158758 286.012692 
L 233.510293 288.892878 
L 234.861829 290.856999 
L 236.213283 292.291835 
L 237.564819 293.294569 
L 238.916355 293.967923 
L 240.267809 294.431051 
L 241.619345 294.756431 
L 244.322335 295.11599 
L 248.37686 295.350625 
L 256.485911 295.466709 
L 292.976642 295.487956 
L 349.74 295.488 
L 349.74 295.488 
" style="fill:none;stroke:#993300;stroke-linecap:square;stroke-opacity:0.15;stroke-width:4;"/>
   </g>
   <g id="line2d_31">
    <path clip-path="url(#pe1518bfba0)" d="M 107.82 295.488 
L 194.316573 295.400136 
L 197.019563 295.176686 
L 198.371099 294.909991 
L 199.722553 294.42852 
L 201.074089 293.574382 
L 202.425624 292.099121 
L 203.777079 289.62165 
L 205.128614 285.613805 
L 206.48015 279.400595 
L 207.831604 270.279026 
L 209.18314 257.555317 
L 210.534675 241.313139 
L 213.237665 203.769825 
L 214.589201 187.50803 
L 215.940655 175.912246 
L 217.292191 171.891671 
L 218.643727 175.358566 
L 219.995181 186.43671 
L 221.346717 201.240442 
L 224.049707 233.86658 
L 225.401242 247.941565 
L 226.752778 259.600536 
L 228.104232 268.97696 
L 229.455768 276.281297 
L 230.807303 281.931557 
L 232.158758 285.901213 
L 233.510293 288.735748 
L 234.861829 290.693679 
L 236.213283 292.182194 
L 237.564819 293.241514 
L 238.916355 293.920731 
L 240.267809 294.389682 
L 242.97088 294.953348 
L 245.67387 295.219794 
L 249.728396 295.38393 
L 259.188982 295.474601 
L 314.600805 295.487994 
L 349.74 295.488 
L 349.74 295.488 
" style="fill:none;stroke:#993300;stroke-linecap:square;stroke-opacity:0.15;stroke-width:4;"/>
   </g>
   <g id="line2d_32">
    <path clip-path="url(#pe1518bfba0)" d="M 107.82 295.488 
L 194.316573 295.400214 
L 197.019563 295.177407 
L 198.371099 294.911823 
L 199.722553 294.432362 
L 201.074089 293.583945 
L 202.425624 292.116337 
L 203.777079 289.651481 
L 205.128614 285.668711 
L 206.48015 279.464148 
L 207.831604 270.316606 
L 209.18314 257.738137 
L 210.534675 241.833279 
L 214.589201 186.924703 
L 215.940655 175.264309 
L 217.292191 170.812536 
L 218.643727 174.04393 
L 219.995181 183.979087 
L 221.346717 198.435595 
L 225.401242 245.452112 
L 226.752778 257.739181 
L 228.104232 267.980189 
L 229.455768 275.598493 
L 230.807303 281.517138 
L 232.158758 285.604493 
L 233.510293 288.616855 
L 234.861829 290.713372 
L 236.213283 292.163889 
L 237.564819 293.156471 
L 238.916355 293.857009 
L 240.267809 294.336422 
L 241.619345 294.683192 
L 244.322335 295.090138 
L 248.37686 295.343257 
L 256.485911 295.466014 
L 288.922116 295.487907 
L 349.74 295.488 
L 349.74 295.488 
" style="fill:none;stroke:#993300;stroke-linecap:square;stroke-opacity:0.15;stroke-width:4;"/>
   </g>
   <g id="line2d_33">
    <path clip-path="url(#pe1518bfba0)" d="M 107.82 295.488 
L 194.316573 295.400226 
L 197.019563 295.17725 
L 198.371099 294.911232 
L 199.722553 294.430804 
L 201.074089 293.579646 
L 202.425624 292.110452 
L 203.777079 289.636373 
L 205.128614 285.630983 
L 206.48015 279.420079 
L 207.831604 270.353517 
L 209.18314 257.863244 
L 210.534675 242.014611 
L 214.589201 187.255348 
L 215.940655 175.037731 
L 217.292191 169.451609 
L 218.643727 171.974095 
L 219.995181 181.75744 
L 221.346717 195.766771 
L 225.401242 244.147569 
L 226.752778 256.846599 
L 228.104232 267.165971 
L 229.455768 275.025886 
L 230.807303 281.075735 
L 232.158758 285.414807 
L 233.510293 288.663025 
L 234.861829 290.783887 
L 236.213283 292.22624 
L 237.564819 293.255584 
L 238.916355 293.949493 
L 240.267809 294.398839 
L 242.97088 294.955379 
L 245.67387 295.224009 
L 251.079931 295.411439 
L 263.243508 295.481489 
L 349.74 295.488 
L 349.74 295.488 
" style="fill:none;stroke:#993300;stroke-linecap:square;stroke-opacity:0.15;stroke-width:4;"/>
   </g>
   <g id="line2d_34">
    <path clip-path="url(#pe1518bfba0)" d="M 107.82 295.488 
L 194.316573 295.400271 
L 197.019563 295.177239 
L 198.371099 294.911281 
L 199.722553 294.432349 
L 201.074089 293.584735 
L 202.425624 292.122023 
L 203.777079 289.668529 
L 205.128614 285.685591 
L 206.48015 279.474577 
L 207.831604 270.349524 
L 209.18314 257.814675 
L 210.534675 241.966929 
L 214.589201 187.311794 
L 215.940655 174.708921 
L 217.292191 169.457526 
L 218.643727 172.022663 
L 219.995181 182.472076 
L 221.346717 197.154656 
L 225.401242 245.828921 
L 226.752778 258.269066 
L 228.104232 268.132614 
L 229.455768 275.779778 
L 230.807303 281.357859 
L 232.158758 285.532071 
L 233.510293 288.665825 
L 234.861829 290.773103 
L 236.213283 292.281108 
L 237.564819 293.267384 
L 238.916355 293.954236 
L 240.267809 294.423464 
L 242.97088 294.965496 
L 247.025406 295.299417 
L 253.782921 295.450989 
L 274.055549 295.487215 
L 349.74 295.488 
L 349.74 295.488 
" style="fill:none;stroke:#993300;stroke-linecap:square;stroke-opacity:0.15;stroke-width:4;"/>
   </g>
   <g id="line2d_35">
    <path clip-path="url(#pe1518bfba0)" d="M 107.82 295.488 
L 194.316573 295.400155 
L 197.019563 295.177033 
L 198.371099 294.911136 
L 199.722553 294.43056 
L 201.074089 293.58047 
L 202.425624 292.11104 
L 203.777079 289.646412 
L 205.128614 285.666278 
L 206.48015 279.501475 
L 207.831604 270.489509 
L 209.18314 258.052739 
L 210.534675 242.128929 
L 214.589201 188.253641 
L 215.940655 176.264311 
L 217.292191 171.054397 
L 218.643727 173.660161 
L 219.995181 183.821295 
L 221.346717 199.012815 
L 224.049707 231.376937 
L 225.401242 245.759849 
L 226.752778 258.430244 
L 228.104232 268.415991 
L 229.455768 276.155181 
L 230.807303 281.767181 
L 232.158758 285.842848 
L 233.510293 288.806075 
L 234.861829 290.880533 
L 236.213283 292.28208 
L 237.564819 293.217964 
L 238.916355 293.889595 
L 240.267809 294.372528 
L 242.97088 294.948112 
L 245.67387 295.21212 
L 249.728396 295.38754 
L 259.188982 295.474939 
L 314.600805 295.487995 
L 349.74 295.488 
L 349.74 295.488 
" style="fill:none;stroke:#993300;stroke-linecap:square;stroke-opacity:0.15;stroke-width:4;"/>
   </g>
   <g id="line2d_36">
    <path clip-path="url(#pe1518bfba0)" d="M 107.82 295.488 
L 194.316573 295.400162 
L 197.019563 295.176798 
L 198.371099 294.91078 
L 199.722553 294.429893 
L 201.074089 293.578269 
L 202.425624 292.102317 
L 203.777079 289.622922 
L 205.128614 285.591324 
L 206.48015 279.3549 
L 207.831604 270.282348 
L 209.18314 257.903522 
L 210.534675 242.142977 
L 214.589201 187.874143 
L 215.940655 175.127716 
L 217.292191 170.320777 
L 218.643727 174.016846 
L 219.995181 183.857302 
L 221.346717 198.655845 
L 224.049707 231.778109 
L 225.401242 246.903721 
L 226.752778 259.253438 
L 228.104232 268.832635 
L 229.455768 276.495707 
L 230.807303 282.171371 
L 232.158758 286.18869 
L 233.510293 289.046069 
L 234.861829 291.062603 
L 236.213283 292.430229 
L 237.564819 293.326172 
L 238.916355 293.963235 
L 240.267809 294.442675 
L 242.97088 294.968468 
L 245.67387 295.238155 
L 251.079931 295.421583 
L 265.946498 295.485031 
L 349.74 295.488 
L 349.74 295.488 
" style="fill:none;stroke:#993300;stroke-linecap:square;stroke-opacity:0.15;stroke-width:4;"/>
   </g>
   <g id="line2d_37">
    <path clip-path="url(#pe1518bfba0)" d="M 107.82 295.488 
L 194.316573 295.400155 
L 197.019563 295.17709 
L 198.371099 294.911107 
L 199.722553 294.43063 
L 201.074089 293.57799 
L 202.425624 292.104956 
L 203.777079 289.629561 
L 205.128614 285.62748 
L 206.48015 279.418013 
L 207.831604 270.259475 
L 209.18314 257.729151 
L 210.534675 241.739623 
L 214.589201 186.993901 
L 215.940655 174.935373 
L 217.292191 170.74742 
L 218.643727 174.18318 
L 219.995181 184.262872 
L 221.346717 198.361777 
L 225.401242 245.322101 
L 226.752778 258.453088 
L 228.104232 268.409761 
L 229.455768 276.206122 
L 230.807303 281.512695 
L 232.158758 285.659652 
L 233.510293 288.637975 
L 234.861829 290.698697 
L 236.213283 292.177058 
L 237.564819 293.181552 
L 238.916355 293.861926 
L 240.267809 294.346121 
L 242.97088 294.922269 
L 245.67387 295.215325 
L 251.079931 295.413688 
L 261.891973 295.48104 
L 349.74 295.488 
L 349.74 295.488 
" style="fill:none;stroke:#993300;stroke-linecap:square;stroke-opacity:0.15;stroke-width:4;"/>
   </g>
   <g id="line2d_38">
    <path clip-path="url(#pe1518bfba0)" d="M 107.82 295.488 
L 194.316573 295.40018 
L 197.019563 295.176829 
L 198.371099 294.910795 
L 199.722553 294.430645 
L 201.074089 293.580533 
L 202.425624 292.114799 
L 203.777079 289.648691 
L 205.128614 285.653384 
L 206.48015 279.471685 
L 207.831604 270.355381 
L 209.18314 257.805847 
L 210.534675 241.855617 
L 214.589201 187.564065 
L 215.940655 175.468328 
L 217.292191 170.439272 
L 218.643727 172.821368 
L 219.995181 182.015818 
L 221.346717 197.379526 
L 224.049707 231.191049 
L 225.401242 245.562317 
L 226.752778 257.749654 
L 228.104232 268.119775 
L 229.455768 276.072757 
L 230.807303 281.679837 
L 232.158758 285.765142 
L 233.510293 288.67814 
L 234.861829 290.826314 
L 236.213283 292.230724 
L 237.564819 293.248721 
L 238.916355 293.954905 
L 240.267809 294.407888 
L 242.97088 294.943661 
L 245.67387 295.209497 
L 251.079931 295.413733 
L 263.243508 295.48227 
L 349.74 295.488 
L 349.74 295.488 
" style="fill:none;stroke:#993300;stroke-linecap:square;stroke-opacity:0.15;stroke-width:4;"/>
   </g>
   <g id="line2d_39">
    <defs>
     <path d="M 0 2.5 
C 0.663008 2.5 1.29895 2.236584 1.767767 1.767767 
C 2.236584 1.29895 2.5 0.663008 2.5 0 
C 2.5 -0.663008 2.236584 -1.29895 1.767767 -1.767767 
C 1.29895 -2.236584 0.663008 -2.5 0 -2.5 
C -0.663008 -2.5 -1.29895 -2.236584 -1.767767 -1.767767 
C -2.236584 -1.29895 -2.5 -0.663008 -2.5 0 
C -2.5 0.663008 -2.236584 1.29895 -1.767767 1.767767 
C -1.29895 2.236584 -0.663008 2.5 0 2.5 
z
" id="mbb0d3736e0" style="stroke:#993300;"/>
    </defs>
    <g clip-path="url(#pe1518bfba0)">
     <use style="fill:#993300;stroke:#993300;" x="107.82" xlink:href="#mbb0d3736e0" y="295.488"/>
     <use style="fill:#993300;stroke:#993300;" x="110.523017" xlink:href="#mbb0d3736e0" y="295.488"/>
     <use style="fill:#993300;stroke:#993300;" x="113.226034" xlink:href="#mbb0d3736e0" y="295.488"/>
     <use style="fill:#993300;stroke:#993300;" x="115.929051" xlink:href="#mbb0d3736e0" y="295.488"/>
     <use style="fill:#993300;stroke:#993300;" x="118.632066" xlink:href="#mbb0d3736e0" y="295.488"/>
     <use style="fill:#993300;stroke:#993300;" x="121.335088" xlink:href="#mbb0d3736e0" y="295.488"/>
     <use style="fill:#993300;stroke:#993300;" x="124.038102" xlink:href="#mbb0d3736e0" y="295.488"/>
     <use style="fill:#993300;stroke:#993300;" x="126.741117" xlink:href="#mbb0d3736e0" y="295.488"/>
     <use style="fill:#993300;stroke:#993300;" x="129.444139" xlink:href="#mbb0d3736e0" y="295.488"/>
     <use style="fill:#993300;stroke:#993300;" x="132.147154" xlink:href="#mbb0d3736e0" y="295.488"/>
     <use style="fill:#993300;stroke:#993300;" x="134.850168" xlink:href="#mbb0d3736e0" y="295.488"/>
     <use style="fill:#993300;stroke:#993300;" x="137.55319" xlink:href="#mbb0d3736e0" y="295.488"/>
     <use style="fill:#993300;stroke:#993300;" x="140.256205" xlink:href="#mbb0d3736e0" y="295.488"/>
     <use style="fill:#993300;stroke:#993300;" x="142.959219" xlink:href="#mbb0d3736e0" y="295.488"/>
     <use style="fill:#993300;stroke:#993300;" x="145.662242" xlink:href="#mbb0d3736e0" y="295.488"/>
     <use style="fill:#993300;stroke:#993300;" x="148.365256" xlink:href="#mbb0d3736e0" y="295.488"/>
     <use style="fill:#993300;stroke:#993300;" x="151.06827" xlink:href="#mbb0d3736e0" y="295.488"/>
     <use style="fill:#993300;stroke:#993300;" x="153.771293" xlink:href="#mbb0d3736e0" y="295.488"/>
     <use style="fill:#993300;stroke:#993300;" x="156.474307" xlink:href="#mbb0d3736e0" y="295.488"/>
     <use style="fill:#993300;stroke:#993300;" x="159.177321" xlink:href="#mbb0d3736e0" y="295.488"/>
     <use style="fill:#993300;stroke:#993300;" x="161.880344" xlink:href="#mbb0d3736e0" y="295.488"/>
     <use style="fill:#993300;stroke:#993300;" x="164.583358" xlink:href="#mbb0d3736e0" y="295.488"/>
     <use style="fill:#993300;stroke:#993300;" x="167.286373" xlink:href="#mbb0d3736e0" y="295.487999"/>
     <use style="fill:#993300;stroke:#993300;" x="169.989395" xlink:href="#mbb0d3736e0" y="295.487996"/>
     <use style="fill:#993300;stroke:#993300;" x="172.692409" xlink:href="#mbb0d3736e0" y="295.487986"/>
     <use style="fill:#993300;stroke:#993300;" x="175.395424" xlink:href="#mbb0d3736e0" y="295.487946"/>
     <use style="fill:#993300;stroke:#993300;" x="178.098446" xlink:href="#mbb0d3736e0" y="295.487796"/>
     <use style="fill:#993300;stroke:#993300;" x="180.801461" xlink:href="#mbb0d3736e0" y="295.487229"/>
     <use style="fill:#993300;stroke:#993300;" x="183.504475" xlink:href="#mbb0d3736e0" y="295.485096"/>
     <use style="fill:#993300;stroke:#993300;" x="186.207497" xlink:href="#mbb0d3736e0" y="295.477145"/>
     <use style="fill:#993300;stroke:#993300;" x="188.910512" xlink:href="#mbb0d3736e0" y="295.447886"/>
     <use style="fill:#993300;stroke:#993300;" x="191.613502" xlink:href="#mbb0d3736e0" y="295.342383"/>
     <use style="fill:#993300;stroke:#993300;" x="194.316573" xlink:href="#mbb0d3736e0" y="294.974019"/>
     <use style="fill:#993300;stroke:#993300;" x="197.019563" xlink:href="#mbb0d3736e0" y="293.746987"/>
     <use style="fill:#993300;stroke:#993300;" x="199.722553" xlink:href="#mbb0d3736e0" y="289.951241"/>
     <use style="fill:#993300;stroke:#993300;" x="202.425624" xlink:href="#mbb0d3736e0" y="279.382496"/>
     <use style="fill:#993300;stroke:#993300;" x="205.128614" xlink:href="#mbb0d3736e0" y="254.279753"/>
     <use style="fill:#993300;stroke:#993300;" x="207.831604" xlink:href="#mbb0d3736e0" y="206.082629"/>
     <use style="fill:#993300;stroke:#993300;" x="210.534675" xlink:href="#mbb0d3736e0" y="138.392536"/>
     <use style="fill:#993300;stroke:#993300;" x="213.237665" xlink:href="#mbb0d3736e0" y="77.428261"/>
     <use style="fill:#993300;stroke:#993300;" x="215.940655" xlink:href="#mbb0d3736e0" y="53.568"/>
     <use style="fill:#993300;stroke:#993300;" x="218.643727" xlink:href="#mbb0d3736e0" y="80.807322"/>
     <use style="fill:#993300;stroke:#993300;" x="221.346717" xlink:href="#mbb0d3736e0" y="133.737536"/>
     <use style="fill:#993300;stroke:#993300;" x="224.049707" xlink:href="#mbb0d3736e0" y="189.22254"/>
     <use style="fill:#993300;stroke:#993300;" x="226.752778" xlink:href="#mbb0d3736e0" y="231.450818"/>
     <use style="fill:#993300;stroke:#993300;" x="229.455768" xlink:href="#mbb0d3736e0" y="259.282041"/>
     <use style="fill:#993300;stroke:#993300;" x="232.158758" xlink:href="#mbb0d3736e0" y="275.689972"/>
     <use style="fill:#993300;stroke:#993300;" x="234.861829" xlink:href="#mbb0d3736e0" y="284.990532"/>
     <use style="fill:#993300;stroke:#993300;" x="237.564819" xlink:href="#mbb0d3736e0" y="290.060689"/>
     <use style="fill:#993300;stroke:#993300;" x="240.267809" xlink:href="#mbb0d3736e0" y="292.59216"/>
     <use style="fill:#993300;stroke:#993300;" x="242.97088" xlink:href="#mbb0d3736e0" y="294.010106"/>
     <use style="fill:#993300;stroke:#993300;" x="245.67387" xlink:href="#mbb0d3736e0" y="294.720841"/>
     <use style="fill:#993300;stroke:#993300;" x="248.37686" xlink:href="#mbb0d3736e0" y="295.087836"/>
     <use style="fill:#993300;stroke:#993300;" x="251.079931" xlink:href="#mbb0d3736e0" y="295.269886"/>
     <use style="fill:#993300;stroke:#993300;" x="253.782921" xlink:href="#mbb0d3736e0" y="295.368371"/>
     <use style="fill:#993300;stroke:#993300;" x="256.485911" xlink:href="#mbb0d3736e0" y="295.420032"/>
     <use style="fill:#993300;stroke:#993300;" x="259.188982" xlink:href="#mbb0d3736e0" y="295.447605"/>
     <use style="fill:#993300;stroke:#993300;" x="261.891973" xlink:href="#mbb0d3736e0" y="295.463457"/>
     <use style="fill:#993300;stroke:#993300;" x="264.594963" xlink:href="#mbb0d3736e0" y="295.472732"/>
     <use style="fill:#993300;stroke:#993300;" x="267.298034" xlink:href="#mbb0d3736e0" y="295.478705"/>
     <use style="fill:#993300;stroke:#993300;" x="270.001024" xlink:href="#mbb0d3736e0" y="295.482009"/>
     <use style="fill:#993300;stroke:#993300;" x="272.704014" xlink:href="#mbb0d3736e0" y="295.483943"/>
     <use style="fill:#993300;stroke:#993300;" x="275.407085" xlink:href="#mbb0d3736e0" y="295.485244"/>
     <use style="fill:#993300;stroke:#993300;" x="278.110075" xlink:href="#mbb0d3736e0" y="295.486355"/>
     <use style="fill:#993300;stroke:#993300;" x="280.813065" xlink:href="#mbb0d3736e0" y="295.486935"/>
     <use style="fill:#993300;stroke:#993300;" x="283.516136" xlink:href="#mbb0d3736e0" y="295.487256"/>
     <use style="fill:#993300;stroke:#993300;" x="286.219126" xlink:href="#mbb0d3736e0" y="295.487515"/>
     <use style="fill:#993300;stroke:#993300;" x="288.922116" xlink:href="#mbb0d3736e0" y="295.487715"/>
     <use style="fill:#993300;stroke:#993300;" x="291.625187" xlink:href="#mbb0d3736e0" y="295.487792"/>
     <use style="fill:#993300;stroke:#993300;" x="294.328177" xlink:href="#mbb0d3736e0" y="295.487857"/>
     <use style="fill:#993300;stroke:#993300;" x="297.031167" xlink:href="#mbb0d3736e0" y="295.487902"/>
     <use style="fill:#993300;stroke:#993300;" x="299.734238" xlink:href="#mbb0d3736e0" y="295.487934"/>
     <use style="fill:#993300;stroke:#993300;" x="302.437228" xlink:href="#mbb0d3736e0" y="295.487949"/>
     <use style="fill:#993300;stroke:#993300;" x="305.140218" xlink:href="#mbb0d3736e0" y="295.487966"/>
     <use style="fill:#993300;stroke:#993300;" x="307.84329" xlink:href="#mbb0d3736e0" y="295.487976"/>
     <use style="fill:#993300;stroke:#993300;" x="310.54628" xlink:href="#mbb0d3736e0" y="295.487981"/>
     <use style="fill:#993300;stroke:#993300;" x="313.24927" xlink:href="#mbb0d3736e0" y="295.487986"/>
     <use style="fill:#993300;stroke:#993300;" x="315.952341" xlink:href="#mbb0d3736e0" y="295.487989"/>
     <use style="fill:#993300;stroke:#993300;" x="318.655331" xlink:href="#mbb0d3736e0" y="295.487993"/>
     <use style="fill:#993300;stroke:#993300;" x="321.358321" xlink:href="#mbb0d3736e0" y="295.487994"/>
     <use style="fill:#993300;stroke:#993300;" x="324.061392" xlink:href="#mbb0d3736e0" y="295.487996"/>
     <use style="fill:#993300;stroke:#993300;" x="326.764382" xlink:href="#mbb0d3736e0" y="295.487997"/>
     <use style="fill:#993300;stroke:#993300;" x="329.467372" xlink:href="#mbb0d3736e0" y="295.487997"/>
     <use style="fill:#993300;stroke:#993300;" x="332.170443" xlink:href="#mbb0d3736e0" y="295.487998"/>
     <use style="fill:#993300;stroke:#993300;" x="334.873433" xlink:href="#mbb0d3736e0" y="295.487998"/>
     <use style="fill:#993300;stroke:#993300;" x="337.576423" xlink:href="#mbb0d3736e0" y="295.487999"/>
     <use style="fill:#993300;stroke:#993300;" x="340.279494" xlink:href="#mbb0d3736e0" y="295.487999"/>
     <use style="fill:#993300;stroke:#993300;" x="342.982484" xlink:href="#mbb0d3736e0" y="295.487999"/>
     <use style="fill:#993300;stroke:#993300;" x="345.685474" xlink:href="#mbb0d3736e0" y="295.487999"/>
     <use style="fill:#993300;stroke:#993300;" x="348.388546" xlink:href="#mbb0d3736e0" y="295.487999"/>
    </g>
   </g>
   <g id="line2d_40">
    <path clip-path="url(#pe1518bfba0)" d="M 107.82 295.488 
L 194.316573 295.400181 
L 197.019563 295.176966 
L 198.371099 294.910908 
L 199.722553 294.430507 
L 201.074089 293.57992 
L 202.425624 292.109257 
L 203.777079 289.639686 
L 205.128614 285.642307 
L 206.48015 279.449783 
L 207.831604 270.361314 
L 209.18314 257.840866 
L 210.534675 241.911923 
L 214.589201 187.644045 
L 215.940655 175.595716 
L 217.292191 170.879856 
L 218.643727 173.792322 
L 219.995181 183.696356 
L 221.346717 198.139436 
L 224.049707 230.908408 
L 225.401242 245.825185 
L 226.752778 258.274469 
L 228.104232 268.282808 
L 229.455768 275.966571 
L 230.807303 281.665638 
L 232.158758 285.764276 
L 233.510293 288.738086 
L 234.861829 290.799495 
L 236.213283 292.243777 
L 237.564819 293.243031 
L 238.916355 293.924637 
L 240.267809 294.400292 
L 242.97088 294.950793 
L 245.67387 295.220396 
L 249.728396 295.38784 
L 259.188982 295.475623 
L 314.600805 295.487996 
L 349.74 295.488 
L 349.74 295.488 
" style="fill:none;stroke:#993300;stroke-linecap:square;stroke-width:4;"/>
   </g>
   <g id="patch_3">
    <path d="M 95.724 307.584 
L 95.724 41.472 
" style="fill:none;stroke:#000000;stroke-linecap:square;stroke-linejoin:miter;stroke-width:0.8;"/>
   </g>
   <g id="patch_4">
    <path d="M 361.836 307.584 
L 361.836 41.472 
" style="fill:none;stroke:#000000;stroke-linecap:square;stroke-linejoin:miter;stroke-width:0.8;"/>
   </g>
   <g id="patch_5">
    <path d="M 95.724 307.584 
L 361.836 307.584 
" style="fill:none;stroke:#000000;stroke-linecap:square;stroke-linejoin:miter;stroke-width:0.8;"/>
   </g>
   <g id="patch_6">
    <path d="M 95.724 41.472 
L 361.836 41.472 
" style="fill:none;stroke:#000000;stroke-linecap:square;stroke-linejoin:miter;stroke-width:0.8;"/>
   </g>
   <g id="text_12">
    <text style="font-family:DejaVu Sans;font-size:18px;font-style:normal;font-weight:normal;text-anchor:middle;" transform="rotate(-0, 228.78, 35.472)" x="228.78" y="35.472">Extracellular IFN</text>
   </g>
   <g id="legend_1">
    <g id="patch_7">
     <path d="M 227.714906 97.923563 
L 351.336 97.923563 
Q 354.336 97.923563 354.336 94.923563 
L 354.336 51.972 
Q 354.336 48.972 351.336 48.972 
L 227.714906 48.972 
Q 224.714906 48.972 224.714906 51.972 
L 224.714906 94.923563 
Q 224.714906 97.923563 227.714906 97.923563 
z
" style="fill:#ffffff;opacity:0.8;stroke:#cccccc;stroke-linejoin:miter;"/>
    </g>
    <g id="line2d_41"/>
    <g id="line2d_42">
     <g>
      <use style="fill:#993300;stroke:#993300;" x="245.714906" xlink:href="#mbb0d3736e0" y="61.119656"/>
     </g>
    </g>
    <g id="text_13">
     <text style="font-family:DejaVu Sans;font-size:15px;font-style:normal;font-weight:normal;text-anchor:start;" transform="rotate(-0, 272.714906, 66.369656)" x="272.714906" y="66.369656">ODE</text>
    </g>
    <g id="line2d_43">
     <path d="M 230.714906 83.136844 
L 260.714906 83.136844 
" style="fill:none;stroke:#993300;stroke-linecap:square;stroke-width:4;"/>
    </g>
    <g id="line2d_44"/>
    <g id="text_14">
     <text style="font-family:DejaVu Sans;font-size:15px;font-style:normal;font-weight:normal;text-anchor:start;" transform="rotate(-0, 272.714906, 88.386844)" x="272.714906" y="88.386844">ABM_Field</text>
    </g>
   </g>
  </g>
 </g>
 <defs>
  <clipPath id="pe1518bfba0">
   <rect height="266.112" width="266.112" x="95.724" y="41.472"/>
  </clipPath>
 </defs>
</svg>
