<?xml version="1.0" encoding="utf-8" standalone="no"?>
<!DOCTYPE svg PUBLIC "-//W3C//DTD SVG 1.1//EN"
  "http://www.w3.org/Graphics/SVG/1.1/DTD/svg11.dtd">
<!-- Created with matplotlib (https://matplotlib.org/) -->
<svg height="345.6pt" version="1.1" viewBox="0 0 446.4 345.6" width="446.4pt" xmlns="http://www.w3.org/2000/svg" xmlns:xlink="http://www.w3.org/1999/xlink">
 <defs>
  <style type="text/css">
*{stroke-linecap:butt;stroke-linejoin:round;}
  </style>
 </defs>
 <g id="figure_1">
  <g id="patch_1">
   <path d="M 0 345.6 
L 446.4 345.6 
L 446.4 0 
L 0 0 
z
" style="fill:none;"/>
  </g>
  <g id="axes_1">
   <g id="patch_2">
    <path d="M 95.724 307.584 
L 361.836 307.584 
L 361.836 41.472 
L 95.724 41.472 
z
" style="fill:none;"/>
   </g>
   <g id="matplotlib.axis_1">
    <g id="xtick_1">
     <g id="line2d_1">
      <path clip-path="url(#pf8f2e8a4b9)" d="M 107.82 307.584 
L 107.82 41.472 
" style="fill:none;stroke:#b0b0b0;stroke-linecap:square;stroke-width:0.8;"/>
     </g>
     <g id="line2d_2">
      <defs>
       <path d="M 0 0 
L 0 3.5 
" id="mcd3ec9fa0d" style="stroke:#000000;stroke-width:0.8;"/>
      </defs>
      <g>
       <use style="stroke:#000000;stroke-width:0.8;" x="107.82" xlink:href="#mcd3ec9fa0d" y="307.584"/>
      </g>
     </g>
     <g id="text_1">
      <text style="font-family:DejaVu Sans;font-size:15px;font-style:normal;font-weight:normal;text-anchor:middle;" transform="rotate(-0, 107.82, 325.981656)" x="107.82" y="325.981656">0</text>
     </g>
    </g>
    <g id="xtick_2">
     <g id="line2d_3">
      <path clip-path="url(#pf8f2e8a4b9)" d="M 188.910512 307.584 
L 188.910512 41.472 
" style="fill:none;stroke:#b0b0b0;stroke-linecap:square;stroke-width:0.8;"/>
     </g>
     <g id="line2d_4">
      <g>
       <use style="stroke:#000000;stroke-width:0.8;" x="188.910512" xlink:href="#mcd3ec9fa0d" y="307.584"/>
      </g>
     </g>
     <g id="text_2">
      <text style="font-family:DejaVu Sans;font-size:15px;font-style:normal;font-weight:normal;text-anchor:middle;" transform="rotate(-0, 188.910512, 325.981656)" x="188.910512" y="325.981656">10</text>
     </g>
    </g>
    <g id="xtick_3">
     <g id="line2d_5">
      <path clip-path="url(#pf8f2e8a4b9)" d="M 270.001024 307.584 
L 270.001024 41.472 
" style="fill:none;stroke:#b0b0b0;stroke-linecap:square;stroke-width:0.8;"/>
     </g>
     <g id="line2d_6">
      <g>
       <use style="stroke:#000000;stroke-width:0.8;" x="270.001024" xlink:href="#mcd3ec9fa0d" y="307.584"/>
      </g>
     </g>
     <g id="text_3">
      <text style="font-family:DejaVu Sans;font-size:15px;font-style:normal;font-weight:normal;text-anchor:middle;" transform="rotate(-0, 270.001024, 325.981656)" x="270.001024" y="325.981656">20</text>
     </g>
    </g>
    <g id="xtick_4">
     <g id="line2d_7">
      <path clip-path="url(#pf8f2e8a4b9)" d="M 351.091536 307.584 
L 351.091536 41.472 
" style="fill:none;stroke:#b0b0b0;stroke-linecap:square;stroke-width:0.8;"/>
     </g>
     <g id="line2d_8">
      <g>
       <use style="stroke:#000000;stroke-width:0.8;" x="351.091536" xlink:href="#mcd3ec9fa0d" y="307.584"/>
      </g>
     </g>
     <g id="text_4">
      <text style="font-family:DejaVu Sans;font-size:15px;font-style:normal;font-weight:normal;text-anchor:middle;" transform="rotate(-0, 351.091536, 325.981656)" x="351.091536" y="325.981656">30</text>
     </g>
    </g>
    <g id="text_5">
     <text style="font-family:DejaVu Sans;font-size:15px;font-style:normal;font-weight:normal;text-anchor:middle;" transform="rotate(-0, 228.78, 344.498844)" x="228.78" y="344.498844">Time (hrs)</text>
    </g>
   </g>
   <g id="matplotlib.axis_2">
    <g id="ytick_1">
     <g id="line2d_9">
      <path clip-path="url(#pf8f2e8a4b9)" d="M 95.724 295.488 
L 361.836 295.488 
" style="fill:none;stroke:#b0b0b0;stroke-linecap:square;stroke-width:0.8;"/>
     </g>
     <g id="line2d_10">
      <defs>
       <path d="M 0 0 
L -3.5 0 
" id="mf11cf4f76a" style="stroke:#000000;stroke-width:0.8;"/>
      </defs>
      <g>
       <use style="stroke:#000000;stroke-width:0.8;" x="95.724" xlink:href="#mf11cf4f76a" y="295.488"/>
      </g>
     </g>
     <g id="text_6">
      <text style="font-family:DejaVu Sans;font-size:15px;font-style:normal;font-weight:normal;text-anchor:end;" transform="rotate(-0, 88.724, 301.186828)" x="88.724" y="301.186828">0.0000</text>
     </g>
    </g>
    <g id="ytick_2">
     <g id="line2d_11">
      <path clip-path="url(#pf8f2e8a4b9)" d="M 95.724 261.301275 
L 361.836 261.301275 
" style="fill:none;stroke:#b0b0b0;stroke-linecap:square;stroke-width:0.8;"/>
     </g>
     <g id="line2d_12">
      <g>
       <use style="stroke:#000000;stroke-width:0.8;" x="95.724" xlink:href="#mf11cf4f76a" y="261.301275"/>
      </g>
     </g>
     <g id="text_7">
      <text style="font-family:DejaVu Sans;font-size:15px;font-style:normal;font-weight:normal;text-anchor:end;" transform="rotate(-0, 88.724, 267.000103)" x="88.724" y="267.000103">0.0001</text>
     </g>
    </g>
    <g id="ytick_3">
     <g id="line2d_13">
      <path clip-path="url(#pf8f2e8a4b9)" d="M 95.724 227.11455 
L 361.836 227.11455 
" style="fill:none;stroke:#b0b0b0;stroke-linecap:square;stroke-width:0.8;"/>
     </g>
     <g id="line2d_14">
      <g>
       <use style="stroke:#000000;stroke-width:0.8;" x="95.724" xlink:href="#mf11cf4f76a" y="227.11455"/>
      </g>
     </g>
     <g id="text_8">
      <text style="font-family:DejaVu Sans;font-size:15px;font-style:normal;font-weight:normal;text-anchor:end;" transform="rotate(-0, 88.724, 232.813378)" x="88.724" y="232.813378">0.0002</text>
     </g>
    </g>
    <g id="ytick_4">
     <g id="line2d_15">
      <path clip-path="url(#pf8f2e8a4b9)" d="M 95.724 192.927825 
L 361.836 192.927825 
" style="fill:none;stroke:#b0b0b0;stroke-linecap:square;stroke-width:0.8;"/>
     </g>
     <g id="line2d_16">
      <g>
       <use style="stroke:#000000;stroke-width:0.8;" x="95.724" xlink:href="#mf11cf4f76a" y="192.927825"/>
      </g>
     </g>
     <g id="text_9">
      <text style="font-family:DejaVu Sans;font-size:15px;font-style:normal;font-weight:normal;text-anchor:end;" transform="rotate(-0, 88.724, 198.626653)" x="88.724" y="198.626653">0.0003</text>
     </g>
    </g>
    <g id="ytick_5">
     <g id="line2d_17">
      <path clip-path="url(#pf8f2e8a4b9)" d="M 95.724 158.7411 
L 361.836 158.7411 
" style="fill:none;stroke:#b0b0b0;stroke-linecap:square;stroke-width:0.8;"/>
     </g>
     <g id="line2d_18">
      <g>
       <use style="stroke:#000000;stroke-width:0.8;" x="95.724" xlink:href="#mf11cf4f76a" y="158.7411"/>
      </g>
     </g>
     <g id="text_10">
      <text style="font-family:DejaVu Sans;font-size:15px;font-style:normal;font-weight:normal;text-anchor:end;" transform="rotate(-0, 88.724, 164.439928)" x="88.724" y="164.439928">0.0004</text>
     </g>
    </g>
    <g id="ytick_6">
     <g id="line2d_19">
      <path clip-path="url(#pf8f2e8a4b9)" d="M 95.724 124.554375 
L 361.836 124.554375 
" style="fill:none;stroke:#b0b0b0;stroke-linecap:square;stroke-width:0.8;"/>
     </g>
     <g id="line2d_20">
      <g>
       <use style="stroke:#000000;stroke-width:0.8;" x="95.724" xlink:href="#mf11cf4f76a" y="124.554375"/>
      </g>
     </g>
     <g id="text_11">
      <text style="font-family:DejaVu Sans;font-size:15px;font-style:normal;font-weight:normal;text-anchor:end;" transform="rotate(-0, 88.724, 130.253204)" x="88.724" y="130.253204">0.0005</text>
     </g>
    </g>
    <g id="ytick_7">
     <g id="line2d_21">
      <path clip-path="url(#pf8f2e8a4b9)" d="M 95.724 90.36765 
L 361.836 90.36765 
" style="fill:none;stroke:#b0b0b0;stroke-linecap:square;stroke-width:0.8;"/>
     </g>
     <g id="line2d_22">
      <g>
       <use style="stroke:#000000;stroke-width:0.8;" x="95.724" xlink:href="#mf11cf4f76a" y="90.36765"/>
      </g>
     </g>
     <g id="text_12">
      <text style="font-family:DejaVu Sans;font-size:15px;font-style:normal;font-weight:normal;text-anchor:end;" transform="rotate(-0, 88.724, 96.066479)" x="88.724" y="96.066479">0.0006</text>
     </g>
    </g>
    <g id="ytick_8">
     <g id="line2d_23">
      <path clip-path="url(#pf8f2e8a4b9)" d="M 95.724 56.180926 
L 361.836 56.180926 
" style="fill:none;stroke:#b0b0b0;stroke-linecap:square;stroke-width:0.8;"/>
     </g>
     <g id="line2d_24">
      <g>
       <use style="stroke:#000000;stroke-width:0.8;" x="95.724" xlink:href="#mf11cf4f76a" y="56.180926"/>
      </g>
     </g>
     <g id="text_13">
      <text style="font-family:DejaVu Sans;font-size:15px;font-style:normal;font-weight:normal;text-anchor:end;" transform="rotate(-0, 88.724, 61.879754)" x="88.724" y="61.879754">0.0007</text>
     </g>
    </g>
    <g id="text_14">
     <!-- [IRF7P] $\mu$M/cell -->
     <g transform="translate(29.088063 230.478)rotate(-90)">
      <text>
       <tspan style="font-family:DejaVu Sans;font-size:15px;font-style:book;font-weight:book;" x="0 5.852051 10.275879 20.698242 29.326172 38.869629 47.915039 53.76709 68.078613 81.020508 86.074219 94.321289 103.549805 107.717285" y="-0.609375">[IRF7P] M/cell</tspan>
       <tspan style="font-family:DejaVu Sans;font-size:15px;font-style:oblique;font-weight:oblique;" x="58.535156" y="-0.609375">μ</tspan>
      </text>
     </g>
    </g>
   </g>
   <g id="line2d_25">
    <path clip-path="url(#pf8f2e8a4b9)" d="M 107.82 295.488 
L 194.316573 295.385231 
L 197.019563 295.133529 
L 198.371099 294.841416 
L 199.722553 294.326419 
L 201.074089 293.438638 
L 202.425624 291.948307 
L 203.777079 289.52284 
L 205.128614 285.713841 
L 206.48015 279.969651 
L 207.831604 271.6898 
L 209.18314 260.331842 
L 210.534675 245.556408 
L 211.88613 227.380249 
L 213.237665 206.274186 
L 218.643727 114.352373 
L 219.995181 95.612475 
L 221.346717 80.256687 
L 222.698252 68.540589 
L 224.049707 60.364936 
L 225.401242 55.583 
L 226.752778 53.736335 
L 228.104232 54.35826 
L 229.455768 57.024278 
L 230.807303 61.260013 
L 232.158758 66.766674 
L 233.510293 73.23511 
L 236.213283 87.732298 
L 244.322335 133.953229 
L 247.025406 148.14431 
L 249.728396 161.415733 
L 252.431386 173.743671 
L 255.134457 185.047409 
L 257.837447 195.340177 
L 260.540437 204.755612 
L 263.243508 213.109582 
L 265.946498 220.862653 
L 268.649488 227.911135 
L 271.352559 234.305557 
L 274.055549 240.131043 
L 276.758539 245.408482 
L 279.46161 250.141121 
L 282.1646 254.512544 
L 284.867591 258.446273 
L 288.922116 263.616551 
L 291.625187 266.638889 
L 294.328177 269.401984 
L 298.382703 273.007705 
L 303.788764 277.053554 
L 306.491754 278.820392 
L 310.54628 281.141469 
L 314.600805 283.129102 
L 318.655331 284.826678 
L 322.709856 286.311521 
L 328.115918 287.97505 
L 333.521898 289.336807 
L 338.927959 290.451755 
L 345.685474 291.572307 
L 349.74 292.117705 
L 349.74 292.117705 
" style="fill:none;stroke:#666666;stroke-linecap:square;stroke-opacity:0.15;stroke-width:4;"/>
   </g>
   <g id="line2d_26">
    <path clip-path="url(#pf8f2e8a4b9)" d="M 107.82 295.488 
L 194.316573 295.38523 
L 197.019563 295.133527 
L 198.371099 294.841412 
L 199.722553 294.326416 
L 201.074089 293.438644 
L 202.425624 291.948354 
L 203.777079 289.522878 
L 205.128614 285.713903 
L 206.48015 279.969928 
L 207.831604 271.690928 
L 209.18314 260.334304 
L 210.534675 245.562972 
L 211.88613 227.393958 
L 213.237665 206.294356 
L 218.643727 114.401089 
L 219.995181 95.657362 
L 221.346717 80.278122 
L 222.698252 68.517 
L 224.049707 60.381619 
L 225.401242 55.593598 
L 226.752778 53.705807 
L 228.104232 54.387969 
L 229.455768 57.053405 
L 230.807303 61.323156 
L 232.158758 66.783562 
L 233.510293 73.200479 
L 236.213283 87.694967 
L 245.67387 141.205293 
L 248.37686 154.948459 
L 251.079931 167.859931 
L 253.782921 179.680469 
L 256.485911 190.437425 
L 259.188982 200.313012 
L 261.891973 209.177972 
L 264.594963 217.291849 
L 267.298034 224.736693 
L 270.001024 231.436641 
L 272.704014 237.463179 
L 275.407085 242.948234 
L 278.110075 247.937684 
L 280.813065 252.457101 
L 283.516136 256.496194 
L 286.219126 260.160601 
L 288.922116 263.507645 
L 292.976642 267.94218 
L 295.679713 270.582844 
L 298.382703 272.923425 
L 301.085693 275.069749 
L 303.788764 276.994161 
L 307.84329 279.572965 
L 311.897815 281.811067 
L 318.655331 284.808816 
L 322.709856 286.3047 
L 326.764382 287.578002 
L 332.170443 289.00954 
L 337.576423 290.183803 
L 342.982484 291.154498 
L 349.74 292.113017 
L 349.74 292.113017 
" style="fill:none;stroke:#666666;stroke-linecap:square;stroke-opacity:0.15;stroke-width:4;"/>
   </g>
   <g id="line2d_27">
    <path clip-path="url(#pf8f2e8a4b9)" d="M 107.82 295.488 
L 194.316573 295.385228 
L 197.019563 295.133522 
L 198.371099 294.841404 
L 199.722553 294.326402 
L 201.074089 293.438637 
L 202.425624 291.948395 
L 203.777079 289.523141 
L 205.128614 285.714607 
L 206.48015 279.971305 
L 207.831604 271.69261 
L 209.18314 260.335227 
L 210.534675 245.563109 
L 211.88613 227.392659 
L 213.237665 206.294595 
L 218.643727 114.407516 
L 219.995181 95.677669 
L 221.346717 80.329984 
L 222.698252 68.619902 
L 224.049707 60.512042 
L 225.401242 55.717012 
L 226.752778 53.870313 
L 228.104232 54.44677 
L 229.455768 57.193878 
L 230.807303 61.452279 
L 232.158758 66.902737 
L 233.510293 73.323243 
L 236.213283 87.763853 
L 245.67387 141.161842 
L 248.37686 154.952459 
L 252.431386 173.669349 
L 255.134457 184.951413 
L 257.837447 195.298982 
L 260.540437 204.726484 
L 263.243508 213.319899 
L 265.946498 221.093276 
L 268.649488 228.14022 
L 271.352559 234.525138 
L 274.055549 240.221433 
L 276.758539 245.495385 
L 280.813065 252.338439 
L 283.516136 256.457837 
L 286.219126 260.132089 
L 288.922116 263.482658 
L 292.976642 267.910031 
L 295.679713 270.515808 
L 298.382703 272.912478 
L 301.085693 275.059849 
L 305.140218 277.878503 
L 309.194744 280.334721 
L 311.897815 281.751986 
L 315.952341 283.645777 
L 320.006866 285.31173 
L 324.061392 286.692395 
L 328.115918 287.917425 
L 333.521898 289.289625 
L 338.927959 290.407319 
L 344.33402 291.328241 
L 349.74 292.08224 
L 349.74 292.08224 
" style="fill:none;stroke:#666666;stroke-linecap:square;stroke-opacity:0.15;stroke-width:4;"/>
   </g>
   <g id="line2d_28">
    <path clip-path="url(#pf8f2e8a4b9)" d="M 107.82 295.488 
L 194.316573 295.38523 
L 197.019563 295.133531 
L 198.371099 294.841425 
L 199.722553 294.326448 
L 201.074089 293.438741 
L 202.425624 291.948607 
L 203.777079 289.523439 
L 205.128614 285.714826 
L 206.48015 279.971035 
L 207.831604 271.691852 
L 209.18314 260.334406 
L 210.534675 245.559109 
L 211.88613 227.38336 
L 213.237665 206.277741 
L 218.643727 114.418251 
L 219.995181 95.695036 
L 221.346717 80.354325 
L 222.698252 68.633269 
L 224.049707 60.52346 
L 225.401242 55.76354 
L 226.752778 53.867989 
L 228.104232 54.487418 
L 229.455768 57.160102 
L 230.807303 61.476962 
L 232.158758 66.923557 
L 233.510293 73.28974 
L 236.213283 87.8819 
L 244.322335 134.015654 
L 247.025406 148.294218 
L 249.728396 161.593709 
L 252.431386 173.836727 
L 255.134457 185.119577 
L 257.837447 195.396073 
L 260.540437 204.774585 
L 263.243508 213.311455 
L 265.946498 221.026065 
L 268.649488 228.012841 
L 271.352559 234.429723 
L 274.055549 240.119249 
L 276.758539 245.441404 
L 279.46161 250.219717 
L 282.1646 254.515962 
L 284.867591 258.389934 
L 287.570662 261.884511 
L 290.273652 265.051272 
L 292.976642 267.937144 
L 295.679713 270.557232 
L 299.734238 274.028716 
L 302.437228 276.081899 
L 305.140218 277.927989 
L 309.194744 280.374483 
L 313.24927 282.499205 
L 317.303795 284.297365 
L 321.358321 285.855446 
L 325.412846 287.187501 
L 330.818908 288.69199 
L 336.224969 289.937806 
L 341.630949 290.943825 
L 348.388546 291.948942 
L 349.74 292.121536 
L 349.74 292.121536 
" style="fill:none;stroke:#666666;stroke-linecap:square;stroke-opacity:0.15;stroke-width:4;"/>
   </g>
   <g id="line2d_29">
    <path clip-path="url(#pf8f2e8a4b9)" d="M 107.82 295.488 
L 194.316573 295.385233 
L 197.019563 295.133547 
L 198.371099 294.841463 
L 199.722553 294.326536 
L 201.074089 293.438911 
L 202.425624 291.948936 
L 203.777079 289.524228 
L 205.128614 285.716689 
L 206.48015 279.975117 
L 207.831604 271.699496 
L 209.18314 260.347773 
L 210.534675 245.581809 
L 211.88613 227.417992 
L 213.237665 206.324885 
L 218.643727 114.482043 
L 219.995181 95.720642 
L 221.346717 80.343453 
L 222.698252 68.631047 
L 224.049707 60.45936 
L 225.401242 55.657322 
L 226.752778 53.84228 
L 228.104232 54.451556 
L 229.455768 57.097198 
L 230.807303 61.385684 
L 232.158758 66.895455 
L 234.861829 80.271593 
L 237.564819 95.46513 
L 244.322335 134.063447 
L 247.025406 148.306697 
L 249.728396 161.701295 
L 252.431386 173.940484 
L 255.134457 185.221556 
L 257.837447 195.386056 
L 260.540437 204.762825 
L 263.243508 213.400648 
L 265.946498 221.152796 
L 268.649488 228.280694 
L 271.352559 234.736378 
L 274.055549 240.537147 
L 278.110075 248.042364 
L 280.813065 252.588173 
L 283.516136 256.648496 
L 286.219126 260.388934 
L 288.922116 263.717049 
L 291.625187 266.719888 
L 294.328177 269.456067 
L 297.031167 271.931849 
L 299.734238 274.167524 
L 303.788764 277.075861 
L 307.84329 279.663382 
L 311.897815 281.871267 
L 315.952341 283.774008 
L 321.358321 285.873479 
L 326.764382 287.613006 
L 332.170443 289.040377 
L 337.576423 290.214332 
L 342.982484 291.148289 
L 349.74 292.108182 
L 349.74 292.108182 
" style="fill:none;stroke:#666666;stroke-linecap:square;stroke-opacity:0.15;stroke-width:4;"/>
   </g>
   <g id="line2d_30">
    <path clip-path="url(#pf8f2e8a4b9)" d="M 107.82 295.488 
L 194.316573 295.385229 
L 197.019563 295.133533 
L 198.371099 294.841438 
L 199.722553 294.326491 
L 201.074089 293.438823 
L 202.425624 291.948713 
L 203.777079 289.523627 
L 205.128614 285.715253 
L 206.48015 279.972105 
L 207.831604 271.693742 
L 209.18314 260.338714 
L 210.534675 245.567211 
L 211.88613 227.396659 
L 213.237665 206.294527 
L 218.643727 114.412439 
L 219.995181 95.654935 
L 221.346717 80.282635 
L 222.698252 68.565853 
L 224.049707 60.413584 
L 225.401242 55.57418 
L 226.752778 53.688508 
L 228.104232 54.343047 
L 229.455768 56.911735 
L 230.807303 61.07896 
L 232.158758 66.531743 
L 233.510293 72.952147 
L 236.213283 87.428857 
L 245.67387 140.902296 
L 248.37686 154.708981 
L 251.079931 167.565309 
L 253.782921 179.156729 
L 256.485911 190.038295 
L 259.188982 199.882226 
L 261.891973 208.821849 
L 264.594963 217.034184 
L 267.298034 224.425798 
L 270.001024 231.169985 
L 272.704014 237.247393 
L 275.407085 242.74308 
L 278.110075 247.778477 
L 280.813065 252.352558 
L 284.867591 258.31233 
L 287.570662 261.810527 
L 291.625187 266.501869 
L 294.328177 269.255053 
L 297.031167 271.781643 
L 299.734238 274.033293 
L 302.437228 276.079058 
L 306.491754 278.791966 
L 309.194744 280.371369 
L 313.24927 282.46855 
L 317.303795 284.299239 
L 321.358321 285.863411 
L 325.412846 287.203883 
L 330.818908 288.717777 
L 336.224969 289.944923 
L 342.982484 291.1666 
L 349.74 292.111643 
L 349.74 292.111643 
" style="fill:none;stroke:#666666;stroke-linecap:square;stroke-opacity:0.15;stroke-width:4;"/>
   </g>
   <g id="line2d_31">
    <path clip-path="url(#pf8f2e8a4b9)" d="M 107.82 295.488 
L 194.316573 295.385227 
L 197.019563 295.133518 
L 198.371099 294.841398 
L 199.722553 294.326393 
L 201.074089 293.438615 
L 202.425624 291.948341 
L 203.777079 289.522994 
L 205.128614 285.714258 
L 206.48015 279.970406 
L 207.831604 271.691134 
L 209.18314 260.333586 
L 210.534675 245.559929 
L 211.88613 227.385788 
L 213.237665 206.283074 
L 218.643727 114.443857 
L 219.995181 95.727103 
L 221.346717 80.417878 
L 222.698252 68.729231 
L 224.049707 60.571629 
L 225.401242 55.762172 
L 226.752778 53.882381 
L 228.104232 54.524408 
L 229.455768 57.173093 
L 230.807303 61.394333 
L 232.158758 66.855662 
L 233.510293 73.294321 
L 236.213283 87.741871 
L 247.025406 147.840253 
L 249.728396 161.135641 
L 252.431386 173.444708 
L 255.134457 184.792 
L 257.837447 195.057521 
L 260.540437 204.447658 
L 263.243508 213.053926 
L 265.946498 220.833355 
L 270.001024 231.148208 
L 272.704014 237.133927 
L 275.407085 242.701201 
L 278.110075 247.677284 
L 280.813065 252.22364 
L 283.516136 256.318799 
L 286.219126 260.065391 
L 288.922116 263.429286 
L 291.625187 266.479354 
L 295.679713 270.477963 
L 299.734238 273.991528 
L 303.788764 276.997494 
L 306.491754 278.756531 
L 310.54628 281.078272 
L 314.600805 283.094704 
L 318.655331 284.800963 
L 322.709856 286.286465 
L 326.764382 287.568026 
L 332.170443 289.003547 
L 337.576423 290.178897 
L 342.982484 291.1295 
L 349.74 292.086022 
L 349.74 292.086022 
" style="fill:none;stroke:#666666;stroke-linecap:square;stroke-opacity:0.15;stroke-width:4;"/>
   </g>
   <g id="line2d_32">
    <path clip-path="url(#pf8f2e8a4b9)" d="M 107.82 295.488 
L 194.316573 295.385228 
L 197.019563 295.13352 
L 198.371099 294.8414 
L 199.722553 294.326398 
L 201.074089 293.438636 
L 202.425624 291.948392 
L 203.777079 289.523148 
L 205.128614 285.714726 
L 206.48015 279.971767 
L 207.831604 271.694074 
L 209.18314 260.339192 
L 210.534675 245.569296 
L 211.88613 227.402744 
L 213.237665 206.30304 
L 218.643727 114.406867 
L 219.995181 95.627723 
L 221.346717 80.289336 
L 222.698252 68.58151 
L 224.049707 60.439087 
L 225.401242 55.632844 
L 226.752778 53.782111 
L 228.104232 54.371491 
L 229.455768 57.007629 
L 230.807303 61.208186 
L 232.158758 66.67625 
L 233.510293 73.060484 
L 236.213283 87.698488 
L 244.322335 133.988715 
L 248.37686 154.997996 
L 251.079931 167.783079 
L 253.782921 179.529467 
L 256.485911 190.246902 
L 259.188982 199.990768 
L 261.891973 208.973638 
L 264.594963 217.0909 
L 267.298034 224.566032 
L 270.001024 231.302561 
L 272.704014 237.387524 
L 275.407085 242.923278 
L 278.110075 247.874781 
L 280.813065 252.457819 
L 283.516136 256.494758 
L 286.219126 260.157387 
L 290.273652 264.998809 
L 294.328177 269.182922 
L 297.031167 271.690334 
L 301.085693 274.990864 
L 305.140218 277.85058 
L 309.194744 280.310219 
L 311.897815 281.7297 
L 315.952341 283.645763 
L 320.006866 285.29504 
L 324.061392 286.714664 
L 328.115918 287.935749 
L 333.521898 289.29487 
L 338.927959 290.40573 
L 344.33402 291.328587 
L 349.74 292.082957 
L 349.74 292.082957 
" style="fill:none;stroke:#666666;stroke-linecap:square;stroke-opacity:0.15;stroke-width:4;"/>
   </g>
   <g id="line2d_33">
    <path clip-path="url(#pf8f2e8a4b9)" d="M 107.82 295.488 
L 194.316573 295.385228 
L 197.019563 295.133528 
L 198.371099 294.841426 
L 199.722553 294.326463 
L 201.074089 293.43878 
L 202.425624 291.948645 
L 203.777079 289.523394 
L 205.128614 285.714535 
L 206.48015 279.970478 
L 207.831604 271.69071 
L 209.18314 260.332321 
L 210.534675 245.557468 
L 211.88613 227.382711 
L 213.237665 206.275998 
L 218.643727 114.391483 
L 219.995181 95.653568 
L 221.346717 80.331727 
L 222.698252 68.623697 
L 224.049707 60.506298 
L 225.401242 55.687645 
L 226.752778 53.809495 
L 228.104232 54.423283 
L 229.455768 57.056755 
L 230.807303 61.255945 
L 232.158758 66.816928 
L 233.510293 73.205504 
L 236.213283 87.674078 
L 245.67387 141.109434 
L 248.37686 154.940767 
L 251.079931 167.758464 
L 253.782921 179.48728 
L 256.485911 190.249295 
L 259.188982 200.083312 
L 261.891973 209.103172 
L 264.594963 217.289627 
L 267.298034 224.675532 
L 270.001024 231.417326 
L 272.704014 237.538527 
L 275.407085 243.090759 
L 278.110075 248.090567 
L 280.813065 252.605676 
L 283.516136 256.768286 
L 286.219126 260.493033 
L 288.922116 263.806817 
L 291.625187 266.819023 
L 294.328177 269.536549 
L 298.382703 273.111038 
L 302.437228 276.25154 
L 306.491754 278.944459 
L 310.54628 281.265615 
L 314.600805 283.247447 
L 318.655331 284.917762 
L 322.709856 286.389921 
L 326.764382 287.657073 
L 332.170443 289.076458 
L 337.576423 290.246426 
L 342.982484 291.196086 
L 349.74 292.145408 
L 349.74 292.145408 
" style="fill:none;stroke:#666666;stroke-linecap:square;stroke-opacity:0.15;stroke-width:4;"/>
   </g>
   <g id="line2d_34">
    <path clip-path="url(#pf8f2e8a4b9)" d="M 107.82 295.488 
L 194.316573 295.385227 
L 197.019563 295.133524 
L 198.371099 294.841419 
L 199.722553 294.326455 
L 201.074089 293.43878 
L 202.425624 291.948713 
L 203.777079 289.523798 
L 205.128614 285.715985 
L 206.48015 279.973948 
L 207.831604 271.697793 
L 209.18314 260.345414 
L 210.534675 245.578766 
L 211.88613 227.414504 
L 213.237665 206.3215 
L 218.643727 114.458181 
L 219.995181 95.72683 
L 221.346717 80.364786 
L 222.698252 68.654055 
L 224.049707 60.528896 
L 225.401242 55.732327 
L 226.752778 53.873219 
L 228.104232 54.499178 
L 229.455768 57.068174 
L 230.807303 61.332557 
L 232.158758 66.83115 
L 233.510293 73.146942 
L 236.213283 87.618833 
L 245.67387 141.104989 
L 248.37686 155.047122 
L 251.079931 167.893775 
L 253.782921 179.572986 
L 256.485911 190.372299 
L 259.188982 200.048852 
L 261.891973 209.023243 
L 264.594963 217.280841 
L 267.298034 224.71136 
L 270.001024 231.435923 
L 272.704014 237.470837 
L 275.407085 242.969088 
L 278.110075 247.960008 
L 280.813065 252.506125 
L 283.516136 256.579952 
L 286.219126 260.256016 
L 288.922116 263.600917 
L 291.625187 266.626326 
L 295.679713 270.664852 
L 298.382703 273.012714 
L 302.437228 276.141442 
L 305.140218 277.994075 
L 307.84329 279.70522 
L 311.897815 281.898144 
L 315.952341 283.790752 
L 320.006866 285.419842 
L 324.061392 286.837347 
L 328.115918 288.042193 
L 333.521898 289.391779 
L 340.279494 290.72635 
L 347.03701 291.779571 
L 349.74 292.139537 
L 349.74 292.139537 
" style="fill:none;stroke:#666666;stroke-linecap:square;stroke-opacity:0.15;stroke-width:4;"/>
   </g>
   <g id="line2d_35">
    <path clip-path="url(#pf8f2e8a4b9)" d="M 107.82 295.488 
L 194.316573 295.385227 
L 197.019563 295.133523 
L 198.371099 294.841412 
L 199.722553 294.32643 
L 201.074089 293.438706 
L 202.425624 291.948556 
L 203.777079 289.523442 
L 205.128614 285.715208 
L 206.48015 279.972133 
L 207.831604 271.693704 
L 209.18314 260.33615 
L 210.534675 245.561536 
L 211.88613 227.385719 
L 213.237665 206.277605 
L 218.643727 114.349501 
L 219.995181 95.574391 
L 221.346717 80.201168 
L 222.698252 68.414645 
L 224.049707 60.321485 
L 225.401242 55.477773 
L 226.752778 53.582358 
L 228.104232 54.21536 
L 229.455768 56.895223 
L 230.807303 61.153419 
L 232.158758 66.781545 
L 233.510293 73.200821 
L 236.213283 87.646045 
L 245.67387 141.12957 
L 248.37686 154.837968 
L 251.079931 167.636076 
L 253.782921 179.301544 
L 256.485911 190.045884 
L 259.188982 199.885268 
L 261.891973 208.918085 
L 264.594963 217.091549 
L 267.298034 224.51147 
L 270.001024 231.248135 
L 272.704014 237.312895 
L 275.407085 242.841127 
L 278.110075 247.86073 
L 280.813065 252.375155 
L 283.516136 256.412744 
L 286.219126 260.12744 
L 288.922116 263.488791 
L 291.625187 266.529865 
L 294.328177 269.156639 
L 297.031167 271.658253 
L 299.734238 273.925113 
L 302.437228 275.979728 
L 305.140218 277.839924 
L 309.194744 280.311094 
L 313.24927 282.424654 
L 317.303795 284.243955 
L 321.358321 285.815608 
L 325.412846 287.162736 
L 329.467372 288.319109 
L 334.873433 289.618509 
L 340.279494 290.670906 
L 347.03701 291.734448 
L 349.74 292.091626 
L 349.74 292.091626 
" style="fill:none;stroke:#666666;stroke-linecap:square;stroke-opacity:0.15;stroke-width:4;"/>
   </g>
   <g id="line2d_36">
    <path clip-path="url(#pf8f2e8a4b9)" d="M 107.82 295.488 
L 194.316573 295.385228 
L 197.019563 295.133522 
L 198.371099 294.841405 
L 199.722553 294.326413 
L 201.074089 293.438682 
L 202.425624 291.948518 
L 203.777079 289.523408 
L 205.128614 285.715027 
L 206.48015 279.971668 
L 207.831604 271.693441 
L 209.18314 260.338782 
L 210.534675 245.570048 
L 211.88613 227.405445 
L 213.237665 206.313398 
L 218.643727 114.475343 
L 219.995181 95.73818 
L 221.346717 80.422903 
L 222.698252 68.725026 
L 224.049707 60.633063 
L 225.401242 55.808256 
L 226.752778 53.873971 
L 228.104232 54.475076 
L 229.455768 57.167384 
L 230.807303 61.459219 
L 232.158758 66.941368 
L 233.510293 73.322081 
L 236.213283 87.898754 
L 244.322335 134.034354 
L 248.37686 155.134503 
L 251.079931 167.843179 
L 253.782921 179.59008 
L 256.485911 190.369838 
L 259.188982 200.2097 
L 261.891973 209.174143 
L 264.594963 217.246586 
L 267.298034 224.667806 
L 270.001024 231.443513 
L 272.704014 237.502563 
L 275.407085 242.982968 
L 278.110075 247.946539 
L 280.813065 252.434127 
L 283.516136 256.542996 
L 286.219126 260.262477 
L 288.922116 263.630912 
L 291.625187 266.717037 
L 294.328177 269.415662 
L 297.031167 271.878542 
L 301.085693 275.159879 
L 303.788764 277.078613 
L 307.84329 279.670965 
L 311.897815 281.861435 
L 317.303795 284.311522 
L 321.358321 285.885175 
L 326.764382 287.651039 
L 330.818908 288.742566 
L 337.576423 290.220561 
L 342.982484 291.173601 
L 349.74 292.140158 
L 349.74 292.140158 
" style="fill:none;stroke:#666666;stroke-linecap:square;stroke-opacity:0.15;stroke-width:4;"/>
   </g>
   <g id="line2d_37">
    <path clip-path="url(#pf8f2e8a4b9)" d="M 107.82 295.488 
L 194.316573 295.385227 
L 197.019563 295.133519 
L 198.371099 294.841398 
L 199.722553 294.326387 
L 201.074089 293.438578 
L 202.425624 291.94819 
L 203.777079 289.522526 
L 205.128614 285.71314 
L 206.48015 279.968044 
L 207.831604 271.687055 
L 209.18314 260.326851 
L 210.534675 245.548819 
L 211.88613 227.3676 
L 213.237665 206.252512 
L 218.643727 114.270838 
L 219.995181 95.512479 
L 221.346717 80.170537 
L 222.698252 68.427192 
L 224.049707 60.282512 
L 225.401242 55.441056 
L 226.752778 53.568 
L 228.104232 54.245034 
L 229.455768 56.879634 
L 230.807303 61.1914 
L 232.158758 66.658302 
L 233.510293 73.066775 
L 236.213283 87.498256 
L 245.67387 141.033129 
L 248.37686 154.811165 
L 251.079931 167.532353 
L 253.782921 179.255392 
L 256.485911 189.984827 
L 259.188982 199.92554 
L 261.891973 208.775902 
L 264.594963 216.976887 
L 267.298034 224.347511 
L 270.001024 231.060416 
L 272.704014 237.157584 
L 275.407085 242.634161 
L 278.110075 247.727265 
L 280.813065 252.253314 
L 283.516136 256.311415 
L 286.219126 260.035956 
L 288.922116 263.408999 
L 291.625187 266.460445 
L 294.328177 269.203273 
L 297.031167 271.724589 
L 301.085693 275.005619 
L 303.788764 276.961674 
L 307.84329 279.546744 
L 311.897815 281.76671 
L 315.952341 283.677618 
L 320.006866 285.321528 
L 324.061392 286.738239 
L 328.115918 287.960196 
L 333.521898 289.318175 
L 338.927959 290.436501 
L 344.33402 291.349044 
L 349.74 292.100456 
L 349.74 292.100456 
" style="fill:none;stroke:#666666;stroke-linecap:square;stroke-opacity:0.15;stroke-width:4;"/>
   </g>
   <g id="line2d_38">
    <path clip-path="url(#pf8f2e8a4b9)" d="M 107.82 295.488 
L 194.316573 295.38523 
L 197.019563 295.133536 
L 198.371099 294.841449 
L 199.722553 294.326528 
L 201.074089 293.438937 
L 202.425624 291.949035 
L 203.777079 289.524389 
L 205.128614 285.716784 
L 206.48015 279.974905 
L 207.831604 271.69862 
L 209.18314 260.345243 
L 210.534675 245.575997 
L 211.88613 227.403804 
L 213.237665 206.30051 
L 218.643727 114.407755 
L 219.995181 95.659482 
L 221.346717 80.303626 
L 222.698252 68.597954 
L 224.049707 60.488829 
L 225.401242 55.688466 
L 226.752778 53.806965 
L 228.104232 54.440548 
L 229.455768 57.083558 
L 230.807303 61.306644 
L 232.158758 66.827355 
L 233.510293 73.112516 
L 236.213283 87.734281 
L 245.67387 141.266761 
L 248.37686 155.092043 
L 251.079931 167.756311 
L 253.782921 179.450598 
L 256.485911 190.205331 
L 259.188982 200.007999 
L 261.891973 208.990561 
L 264.594963 217.115685 
L 267.298034 224.487984 
L 271.352559 234.193322 
L 274.055549 239.966605 
L 276.758539 245.221823 
L 279.46161 250.043416 
L 282.1646 254.337542 
L 284.867591 258.193736 
L 287.570662 261.729953 
L 290.273652 264.880088 
L 292.976642 267.785017 
L 295.679713 270.433411 
L 298.382703 272.835657 
L 302.437228 275.954676 
L 305.140218 277.793064 
L 309.194744 280.250966 
L 311.897815 281.703513 
L 315.952341 283.610848 
L 321.358321 285.744616 
L 325.412846 287.105965 
L 330.818908 288.62523 
L 336.224969 289.867162 
L 341.630949 290.889397 
L 348.388546 291.900199 
L 349.74 292.075169 
L 349.74 292.075169 
" style="fill:none;stroke:#666666;stroke-linecap:square;stroke-opacity:0.15;stroke-width:4;"/>
   </g>
   <g id="line2d_39">
    <path clip-path="url(#pf8f2e8a4b9)" d="M 107.82 295.488 
L 194.316573 295.385232 
L 197.019563 295.133543 
L 198.371099 294.841455 
L 199.722553 294.326519 
L 201.074089 293.438874 
L 202.425624 291.948809 
L 203.777079 289.523729 
L 205.128614 285.715492 
L 206.48015 279.972468 
L 207.831604 271.694313 
L 209.18314 260.337688 
L 210.534675 245.565536 
L 211.88613 227.396386 
L 213.237665 206.296441 
L 218.643727 114.445395 
L 219.995181 95.691002 
L 221.346717 80.316753 
L 222.698252 68.618774 
L 224.049707 60.494128 
L 225.401242 55.700705 
L 226.752778 53.81329 
L 228.104232 54.400242 
L 229.455768 57.046328 
L 230.807303 61.347121 
L 232.158758 66.804211 
L 233.510293 73.230016 
L 236.213283 87.824842 
L 245.67387 141.478343 
L 248.37686 155.280276 
L 251.079931 167.926287 
L 255.134457 185.175814 
L 257.837447 195.497231 
L 260.540437 204.90029 
L 263.243508 213.454048 
L 265.946498 221.282979 
L 268.649488 228.305513 
L 271.352559 234.624245 
L 274.055549 240.376948 
L 276.758539 245.512752 
L 279.46161 250.315474 
L 282.1646 254.621121 
L 284.867591 258.475947 
L 288.922116 263.616667 
L 291.625187 266.631235 
L 294.328177 269.360864 
L 297.031167 271.803649 
L 301.085693 275.097721 
L 305.140218 277.968271 
L 309.194744 280.409234 
L 313.24927 282.509126 
L 315.952341 283.710078 
L 321.358321 285.829819 
L 325.412846 287.174971 
L 329.467372 288.334274 
L 334.873433 289.629626 
L 340.279494 290.691503 
L 347.03701 291.75243 
L 349.74 292.107899 
L 349.74 292.107899 
" style="fill:none;stroke:#666666;stroke-linecap:square;stroke-opacity:0.15;stroke-width:4;"/>
   </g>
   <g id="line2d_40">
    <path clip-path="url(#pf8f2e8a4b9)" d="M 107.82 295.488 
L 194.316573 295.385231 
L 197.019563 295.133551 
L 198.371099 294.841472 
L 199.722553 294.326548 
L 201.074089 293.438929 
L 202.425624 291.94897 
L 203.777079 289.524287 
L 205.128614 285.716938 
L 206.48015 279.975821 
L 207.831604 271.700969 
L 209.18314 260.34938 
L 210.534675 245.581945 
L 211.88613 227.415462 
L 213.237665 206.312236 
L 218.643727 114.361022 
L 219.995181 95.613603 
L 221.346717 80.2345 
L 222.698252 68.510676 
L 224.049707 60.371022 
L 225.401242 55.510934 
L 226.752778 53.627211 
L 228.104232 54.172455 
L 229.455768 56.87054 
L 230.807303 61.173931 
L 232.158758 66.6542 
L 233.510293 72.975017 
L 236.213283 87.501572 
L 244.322335 133.842601 
L 247.025406 148.109268 
L 249.728396 161.422844 
L 252.431386 173.904144 
L 255.134457 185.201489 
L 257.837447 195.497163 
L 260.540437 205.006166 
L 263.243508 213.545942 
L 265.946498 221.235972 
L 268.649488 228.180663 
L 271.352559 234.54124 
L 274.055549 240.349872 
L 276.758539 245.579176 
L 279.46161 250.32761 
L 282.1646 254.630146 
L 284.867591 258.503263 
L 287.570662 262.014157 
L 290.273652 265.181974 
L 292.976642 268.060695 
L 295.679713 270.5844 
L 298.382703 272.965946 
L 301.085693 275.11892 
L 305.140218 277.960914 
L 307.84329 279.642152 
L 310.54628 281.157096 
L 314.600805 283.149293 
L 318.655331 284.863699 
L 322.709856 286.354709 
L 326.764382 287.599892 
L 332.170443 289.031232 
L 337.576423 290.207495 
L 342.982484 291.164634 
L 349.74 292.120323 
L 349.74 292.120323 
" style="fill:none;stroke:#666666;stroke-linecap:square;stroke-opacity:0.15;stroke-width:4;"/>
   </g>
   <g id="line2d_41">
    <path clip-path="url(#pf8f2e8a4b9)" d="M 107.82 295.488 
L 194.316573 295.385228 
L 197.019563 295.133522 
L 198.371099 294.841411 
L 199.722553 294.326438 
L 201.074089 293.438736 
L 202.425624 291.948597 
L 203.777079 289.523497 
L 205.128614 285.715226 
L 206.48015 279.972345 
L 207.831604 271.695462 
L 209.18314 260.342098 
L 210.534675 245.576783 
L 211.88613 227.415154 
L 213.237665 206.322663 
L 218.643727 114.517392 
L 219.995181 95.80628 
L 221.346717 80.455278 
L 222.698252 68.742598 
L 224.049707 60.623559 
L 225.401242 55.864151 
L 226.752778 54.034751 
L 228.104232 54.603789 
L 229.455768 57.263858 
L 230.807303 61.545404 
L 232.158758 67.043655 
L 233.510293 73.463853 
L 236.213283 87.855302 
L 245.67387 141.358142 
L 248.37686 155.167288 
L 251.079931 167.809574 
L 253.782921 179.603481 
L 256.485911 190.291345 
L 259.188982 200.110183 
L 261.891973 209.072472 
L 264.594963 217.193973 
L 267.298034 224.522855 
L 270.001024 231.173061 
L 272.704014 237.15273 
L 275.407085 242.665681 
L 278.110075 247.712633 
L 280.813065 252.206307 
L 283.516136 256.312577 
L 286.219126 260.021222 
L 288.922116 263.399978 
L 291.625187 266.448811 
L 294.328177 269.191653 
L 297.031167 271.720654 
L 301.085693 275.05576 
L 303.788764 276.999406 
L 306.491754 278.758265 
L 309.194744 280.34592 
L 313.24927 282.418897 
L 317.303795 284.250112 
L 321.358321 285.815239 
L 325.412846 287.168862 
L 329.467372 288.33144 
L 334.873433 289.628754 
L 340.279494 290.690789 
L 347.03701 291.751876 
L 349.74 292.107396 
L 349.74 292.107396 
" style="fill:none;stroke:#666666;stroke-linecap:square;stroke-opacity:0.15;stroke-width:4;"/>
   </g>
   <g id="line2d_42">
    <path clip-path="url(#pf8f2e8a4b9)" d="M 107.82 295.488 
L 194.316573 295.385228 
L 197.019563 295.133524 
L 198.371099 294.841408 
L 199.722553 294.326413 
L 201.074089 293.438665 
L 202.425624 291.948426 
L 203.777079 289.523093 
L 205.128614 285.7142 
L 206.48015 279.969849 
L 207.831604 271.689007 
L 209.18314 260.327945 
L 210.534675 245.548374 
L 211.88613 227.366917 
L 213.237665 206.25764 
L 218.643727 114.38044 
L 219.995181 95.633876 
L 221.346717 80.297882 
L 222.698252 68.57628 
L 224.049707 60.443053 
L 225.401242 55.645185 
L 226.752778 53.796709 
L 228.104232 54.451453 
L 229.455768 57.171999 
L 230.807303 61.430673 
L 232.158758 66.890772 
L 233.510293 73.18089 
L 236.213283 87.574937 
L 245.67387 140.962089 
L 248.37686 154.69558 
L 251.079931 167.520422 
L 253.782921 179.35696 
L 256.485911 190.160888 
L 259.188982 200.086081 
L 261.891973 209.013192 
L 264.594963 217.12177 
L 267.298034 224.561007 
L 270.001024 231.344474 
L 272.704014 237.365132 
L 275.407085 242.842563 
L 278.110075 247.774409 
L 280.813065 252.294646 
L 283.516136 256.385976 
L 286.219126 260.065835 
L 288.922116 263.353347 
L 291.625187 266.420484 
L 294.328177 269.154345 
L 297.031167 271.666294 
L 299.734238 273.937095 
L 303.788764 276.952498 
L 306.491754 278.715818 
L 310.54628 281.071397 
L 314.600805 283.08482 
L 318.655331 284.822535 
L 322.709856 286.289904 
L 326.764382 287.570987 
L 330.818908 288.657523 
L 334.873433 289.605788 
L 341.630949 290.894357 
L 348.388546 291.912428 
L 349.74 292.086802 
L 349.74 292.086802 
" style="fill:none;stroke:#666666;stroke-linecap:square;stroke-opacity:0.15;stroke-width:4;"/>
   </g>
   <g id="line2d_43">
    <path clip-path="url(#pf8f2e8a4b9)" d="M 107.82 295.488 
L 194.316573 295.385228 
L 197.019563 295.133522 
L 198.371099 294.841414 
L 199.722553 294.326447 
L 201.074089 293.438757 
L 202.425624 291.948621 
L 203.777079 289.523428 
L 205.128614 285.714819 
L 206.48015 279.971063 
L 207.831604 271.691581 
L 209.18314 260.333688 
L 210.534675 245.558767 
L 211.88613 227.381138 
L 213.237665 206.272955 
L 218.643727 114.354869 
L 219.995181 95.606151 
L 221.346717 80.231834 
L 222.698252 68.524761 
L 224.049707 60.375056 
L 225.401242 55.543104 
L 226.752778 53.667757 
L 228.104232 54.284007 
L 229.455768 56.900078 
L 230.807303 61.125659 
L 232.158758 66.558648 
L 233.510293 72.971462 
L 236.213283 87.431831 
L 244.322335 133.805816 
L 248.37686 154.954442 
L 251.079931 167.82318 
L 253.782921 179.499929 
L 256.485911 190.292097 
L 259.188982 200.166146 
L 261.891973 209.096505 
L 264.594963 217.168299 
L 267.298034 224.533692 
L 270.001024 231.210393 
L 272.704014 237.310775 
L 275.407085 242.79918 
L 278.110075 247.806749 
L 280.813065 252.323533 
L 283.516136 256.48881 
L 286.219126 260.178139 
L 288.922116 263.52959 
L 291.625187 266.586245 
L 294.328177 269.342516 
L 297.031167 271.852522 
L 301.085693 275.177068 
L 305.140218 278.019312 
L 309.194744 280.46169 
L 313.24927 282.553487 
L 317.303795 284.366258 
L 321.358321 285.912319 
L 325.412846 287.245981 
L 330.818908 288.739869 
L 336.224969 289.968427 
L 341.630949 290.963059 
L 348.388546 291.9674 
L 349.74 292.139094 
L 349.74 292.139094 
" style="fill:none;stroke:#666666;stroke-linecap:square;stroke-opacity:0.15;stroke-width:4;"/>
   </g>
   <g id="line2d_44">
    <path clip-path="url(#pf8f2e8a4b9)" d="M 107.82 295.488 
L 194.316573 295.38523 
L 197.019563 295.133533 
L 198.371099 294.841426 
L 199.722553 294.326442 
L 201.074089 293.438716 
L 202.425624 291.948542 
L 203.777079 289.523452 
L 205.128614 285.715314 
L 206.48015 279.972697 
L 207.831604 271.695728 
L 209.18314 260.341756 
L 210.534675 245.572339 
L 211.88613 227.402539 
L 213.237665 206.29904 
L 218.643727 114.362766 
L 219.995181 95.610082 
L 221.346717 80.241679 
L 222.698252 68.505035 
L 224.049707 60.342988 
L 225.401242 55.535583 
L 226.752778 53.663586 
L 228.104232 54.232556 
L 229.455768 56.827089 
L 230.807303 61.0565 
L 232.158758 66.611227 
L 233.510293 72.999803 
L 236.213283 87.450395 
L 244.322335 133.584115 
L 247.025406 147.727744 
L 249.728396 160.891582 
L 252.431386 173.269125 
L 255.134457 184.582538 
L 257.837447 194.948192 
L 260.540437 204.438256 
L 263.243508 212.990236 
L 265.946498 220.75117 
L 268.649488 227.70451 
L 271.352559 234.091787 
L 274.055549 239.919667 
L 276.758539 245.125348 
L 279.46161 249.914053 
L 282.1646 254.200692 
L 284.867591 258.126833 
L 287.570662 261.62247 
L 290.273652 264.793986 
L 292.976642 267.712551 
L 297.031167 271.529424 
L 299.734238 273.83567 
L 302.437228 275.899003 
L 305.140218 277.762487 
L 309.194744 280.226236 
L 313.24927 282.354852 
L 317.303795 284.163675 
L 321.358321 285.747939 
L 325.412846 287.10548 
L 330.818908 288.624834 
L 336.224969 289.870044 
L 341.630949 290.887896 
L 348.388546 291.909966 
L 349.74 292.08446 
L 349.74 292.08446 
" style="fill:none;stroke:#666666;stroke-linecap:square;stroke-opacity:0.15;stroke-width:4;"/>
   </g>
   <g id="line2d_45">
    <defs>
     <path d="M 0 2.5 
C 0.663008 2.5 1.29895 2.236584 1.767767 1.767767 
C 2.236584 1.29895 2.5 0.663008 2.5 0 
C 2.5 -0.663008 2.236584 -1.29895 1.767767 -1.767767 
C 1.29895 -2.236584 0.663008 -2.5 0 -2.5 
C -0.663008 -2.5 -1.29895 -2.236584 -1.767767 -1.767767 
C -2.236584 -1.29895 -2.5 -0.663008 -2.5 0 
C -2.5 0.663008 -2.236584 1.29895 -1.767767 1.767767 
C -1.29895 2.236584 -0.663008 2.5 0 2.5 
z
" id="m86cb976de5" style="stroke:#666666;"/>
    </defs>
    <g clip-path="url(#pf8f2e8a4b9)">
     <use style="fill:#666666;stroke:#666666;" x="107.82" xlink:href="#m86cb976de5" y="295.488"/>
     <use style="fill:#666666;stroke:#666666;" x="110.523017" xlink:href="#m86cb976de5" y="295.488"/>
     <use style="fill:#666666;stroke:#666666;" x="113.226034" xlink:href="#m86cb976de5" y="295.488"/>
     <use style="fill:#666666;stroke:#666666;" x="115.929051" xlink:href="#m86cb976de5" y="295.488"/>
     <use style="fill:#666666;stroke:#666666;" x="118.632066" xlink:href="#m86cb976de5" y="295.488"/>
     <use style="fill:#666666;stroke:#666666;" x="121.335088" xlink:href="#m86cb976de5" y="295.488"/>
     <use style="fill:#666666;stroke:#666666;" x="124.038102" xlink:href="#m86cb976de5" y="295.488"/>
     <use style="fill:#666666;stroke:#666666;" x="126.741117" xlink:href="#m86cb976de5" y="295.488"/>
     <use style="fill:#666666;stroke:#666666;" x="129.444139" xlink:href="#m86cb976de5" y="295.488"/>
     <use style="fill:#666666;stroke:#666666;" x="132.147154" xlink:href="#m86cb976de5" y="295.488"/>
     <use style="fill:#666666;stroke:#666666;" x="134.850168" xlink:href="#m86cb976de5" y="295.488"/>
     <use style="fill:#666666;stroke:#666666;" x="137.55319" xlink:href="#m86cb976de5" y="295.488"/>
     <use style="fill:#666666;stroke:#666666;" x="140.256205" xlink:href="#m86cb976de5" y="295.488"/>
     <use style="fill:#666666;stroke:#666666;" x="142.959219" xlink:href="#m86cb976de5" y="295.488"/>
     <use style="fill:#666666;stroke:#666666;" x="145.662242" xlink:href="#m86cb976de5" y="295.488"/>
     <use style="fill:#666666;stroke:#666666;" x="148.365256" xlink:href="#m86cb976de5" y="295.488"/>
     <use style="fill:#666666;stroke:#666666;" x="151.06827" xlink:href="#m86cb976de5" y="295.488"/>
     <use style="fill:#666666;stroke:#666666;" x="153.771293" xlink:href="#m86cb976de5" y="295.488"/>
     <use style="fill:#666666;stroke:#666666;" x="156.474307" xlink:href="#m86cb976de5" y="295.488"/>
     <use style="fill:#666666;stroke:#666666;" x="159.177321" xlink:href="#m86cb976de5" y="295.488"/>
     <use style="fill:#666666;stroke:#666666;" x="161.880344" xlink:href="#m86cb976de5" y="295.488"/>
     <use style="fill:#666666;stroke:#666666;" x="164.583358" xlink:href="#m86cb976de5" y="295.488"/>
     <use style="fill:#666666;stroke:#666666;" x="167.286373" xlink:href="#m86cb976de5" y="295.488"/>
     <use style="fill:#666666;stroke:#666666;" x="169.989395" xlink:href="#m86cb976de5" y="295.487999"/>
     <use style="fill:#666666;stroke:#666666;" x="172.692409" xlink:href="#m86cb976de5" y="295.487997"/>
     <use style="fill:#666666;stroke:#666666;" x="175.395424" xlink:href="#m86cb976de5" y="295.487987"/>
     <use style="fill:#666666;stroke:#666666;" x="178.098446" xlink:href="#m86cb976de5" y="295.487951"/>
     <use style="fill:#666666;stroke:#666666;" x="180.801461" xlink:href="#m86cb976de5" y="295.487815"/>
     <use style="fill:#666666;stroke:#666666;" x="183.504475" xlink:href="#m86cb976de5" y="295.487304"/>
     <use style="fill:#666666;stroke:#666666;" x="186.207497" xlink:href="#m86cb976de5" y="295.485397"/>
     <use style="fill:#666666;stroke:#666666;" x="188.910512" xlink:href="#m86cb976de5" y="295.478373"/>
     <use style="fill:#666666;stroke:#666666;" x="191.613502" xlink:href="#m86cb976de5" y="295.453014"/>
     <use style="fill:#666666;stroke:#666666;" x="194.316573" xlink:href="#m86cb976de5" y="295.364172"/>
     <use style="fill:#666666;stroke:#666666;" x="197.019563" xlink:href="#m86cb976de5" y="295.066624"/>
     <use style="fill:#666666;stroke:#666666;" x="199.722553" xlink:href="#m86cb976de5" y="294.133659"/>
     <use style="fill:#666666;stroke:#666666;" x="202.425624" xlink:href="#m86cb976de5" y="291.469347"/>
     <use style="fill:#666666;stroke:#666666;" x="205.128614" xlink:href="#m86cb976de5" y="284.768161"/>
     <use style="fill:#666666;stroke:#666666;" x="207.831604" xlink:href="#m86cb976de5" y="270.451236"/>
     <use style="fill:#666666;stroke:#666666;" x="210.534675" xlink:href="#m86cb976de5" y="245.304554"/>
     <use style="fill:#666666;stroke:#666666;" x="213.237665" xlink:href="#m86cb976de5" y="209.783727"/>
     <use style="fill:#666666;stroke:#666666;" x="215.940655" xlink:href="#m86cb976de5" y="169.729124"/>
     <use style="fill:#666666;stroke:#666666;" x="218.643727" xlink:href="#m86cb976de5" y="133.566338"/>
     <use style="fill:#666666;stroke:#666666;" x="221.346717" xlink:href="#m86cb976de5" y="107.538788"/>
     <use style="fill:#666666;stroke:#666666;" x="224.049707" xlink:href="#m86cb976de5" y="93.517889"/>
     <use style="fill:#666666;stroke:#666666;" x="226.752778" xlink:href="#m86cb976de5" y="90.02045"/>
     <use style="fill:#666666;stroke:#666666;" x="229.455768" xlink:href="#m86cb976de5" y="94.211025"/>
     <use style="fill:#666666;stroke:#666666;" x="232.158758" xlink:href="#m86cb976de5" y="103.298882"/>
     <use style="fill:#666666;stroke:#666666;" x="234.861829" xlink:href="#m86cb976de5" y="115.106464"/>
     <use style="fill:#666666;stroke:#666666;" x="237.564819" xlink:href="#m86cb976de5" y="128.131127"/>
     <use style="fill:#666666;stroke:#666666;" x="240.267809" xlink:href="#m86cb976de5" y="141.415337"/>
     <use style="fill:#666666;stroke:#666666;" x="242.97088" xlink:href="#m86cb976de5" y="154.386976"/>
     <use style="fill:#666666;stroke:#666666;" x="245.67387" xlink:href="#m86cb976de5" y="166.726846"/>
     <use style="fill:#666666;stroke:#666666;" x="248.37686" xlink:href="#m86cb976de5" y="178.275019"/>
     <use style="fill:#666666;stroke:#666666;" x="251.079931" xlink:href="#m86cb976de5" y="188.968421"/>
     <use style="fill:#666666;stroke:#666666;" x="253.782921" xlink:href="#m86cb976de5" y="198.80107"/>
     <use style="fill:#666666;stroke:#666666;" x="256.485911" xlink:href="#m86cb976de5" y="207.799666"/>
     <use style="fill:#666666;stroke:#666666;" x="259.188982" xlink:href="#m86cb976de5" y="216.008309"/>
     <use style="fill:#666666;stroke:#666666;" x="261.891973" xlink:href="#m86cb976de5" y="223.479544"/>
     <use style="fill:#666666;stroke:#666666;" x="264.594963" xlink:href="#m86cb976de5" y="230.268891"/>
     <use style="fill:#666666;stroke:#666666;" x="267.298034" xlink:href="#m86cb976de5" y="236.431732"/>
     <use style="fill:#666666;stroke:#666666;" x="270.001024" xlink:href="#m86cb976de5" y="242.021296"/>
     <use style="fill:#666666;stroke:#666666;" x="272.704014" xlink:href="#m86cb976de5" y="247.088007"/>
     <use style="fill:#666666;stroke:#666666;" x="275.407085" xlink:href="#m86cb976de5" y="251.678772"/>
     <use style="fill:#666666;stroke:#666666;" x="278.110075" xlink:href="#m86cb976de5" y="255.837006"/>
     <use style="fill:#666666;stroke:#666666;" x="280.813065" xlink:href="#m86cb976de5" y="259.602537"/>
     <use style="fill:#666666;stroke:#666666;" x="283.516136" xlink:href="#m86cb976de5" y="263.011886"/>
     <use style="fill:#666666;stroke:#666666;" x="286.219126" xlink:href="#m86cb976de5" y="266.098305"/>
     <use style="fill:#666666;stroke:#666666;" x="288.922116" xlink:href="#m86cb976de5" y="268.892102"/>
     <use style="fill:#666666;stroke:#666666;" x="291.625187" xlink:href="#m86cb976de5" y="271.420816"/>
     <use style="fill:#666666;stroke:#666666;" x="294.328177" xlink:href="#m86cb976de5" y="273.70946"/>
     <use style="fill:#666666;stroke:#666666;" x="297.031167" xlink:href="#m86cb976de5" y="275.780727"/>
     <use style="fill:#666666;stroke:#666666;" x="299.734238" xlink:href="#m86cb976de5" y="277.655189"/>
     <use style="fill:#666666;stroke:#666666;" x="302.437228" xlink:href="#m86cb976de5" y="279.3515"/>
     <use style="fill:#666666;stroke:#666666;" x="305.140218" xlink:href="#m86cb976de5" y="280.886552"/>
     <use style="fill:#666666;stroke:#666666;" x="307.84329" xlink:href="#m86cb976de5" y="282.275651"/>
     <use style="fill:#666666;stroke:#666666;" x="310.54628" xlink:href="#m86cb976de5" y="283.532656"/>
     <use style="fill:#666666;stroke:#666666;" x="313.24927" xlink:href="#m86cb976de5" y="284.67011"/>
     <use style="fill:#666666;stroke:#666666;" x="315.952341" xlink:href="#m86cb976de5" y="285.699377"/>
     <use style="fill:#666666;stroke:#666666;" x="318.655331" xlink:href="#m86cb976de5" y="286.630736"/>
     <use style="fill:#666666;stroke:#666666;" x="321.358321" xlink:href="#m86cb976de5" y="287.473497"/>
     <use style="fill:#666666;stroke:#666666;" x="324.061392" xlink:href="#m86cb976de5" y="288.236083"/>
     <use style="fill:#666666;stroke:#666666;" x="326.764382" xlink:href="#m86cb976de5" y="288.926118"/>
     <use style="fill:#666666;stroke:#666666;" x="329.467372" xlink:href="#m86cb976de5" y="289.550501"/>
     <use style="fill:#666666;stroke:#666666;" x="332.170443" xlink:href="#m86cb976de5" y="290.115478"/>
     <use style="fill:#666666;stroke:#666666;" x="334.873433" xlink:href="#m86cb976de5" y="290.626699"/>
     <use style="fill:#666666;stroke:#666666;" x="337.576423" xlink:href="#m86cb976de5" y="291.08928"/>
     <use style="fill:#666666;stroke:#666666;" x="340.279494" xlink:href="#m86cb976de5" y="291.507845"/>
     <use style="fill:#666666;stroke:#666666;" x="342.982484" xlink:href="#m86cb976de5" y="291.886582"/>
     <use style="fill:#666666;stroke:#666666;" x="345.685474" xlink:href="#m86cb976de5" y="292.22928"/>
     <use style="fill:#666666;stroke:#666666;" x="348.388546" xlink:href="#m86cb976de5" y="292.539369"/>
    </g>
   </g>
   <g id="line2d_46">
    <path clip-path="url(#pf8f2e8a4b9)" d="M 107.82 295.488 
L 194.316573 295.385229 
L 197.019563 295.133529 
L 198.371099 294.841423 
L 199.722553 294.326449 
L 201.074089 293.438739 
L 202.425624 291.948583 
L 203.777079 289.523437 
L 205.128614 285.715039 
L 206.48015 279.971837 
L 207.831604 271.693601 
L 209.18314 260.337618 
L 210.534675 245.565811 
L 211.88613 227.394539 
L 213.237665 206.292445 
L 218.643727 114.404971 
L 219.995181 95.659944 
L 221.346717 80.306255 
L 222.698252 68.586955 
L 224.049707 60.45383 
L 225.401242 55.645943 
L 226.752778 53.774652 
L 228.104232 54.390695 
L 229.455768 57.042597 
L 230.807303 61.297902 
L 232.158758 66.78775 
L 233.510293 73.178316 
L 236.213283 87.668369 
L 245.67387 141.135513 
L 248.37686 154.933157 
L 251.079931 167.709564 
L 253.782921 179.461126 
L 256.485911 190.242482 
L 259.188982 200.087366 
L 261.891973 209.054673 
L 264.594963 217.186775 
L 267.298034 224.587934 
L 270.001024 231.303735 
L 272.704014 237.357628 
L 275.407085 242.857388 
L 278.110075 247.851185 
L 280.813065 252.378215 
L 283.516136 256.471371 
L 286.219126 260.166137 
L 288.922116 263.511602 
L 291.625187 266.544847 
L 294.328177 269.278337 
L 297.031167 271.769271 
L 299.734238 274.021782 
L 302.437228 276.065731 
L 305.140218 277.916071 
L 309.194744 280.369695 
L 313.24927 282.47089 
L 317.303795 284.279141 
L 321.358321 285.84057 
L 325.412846 287.182866 
L 330.818908 288.6872 
L 336.224969 289.918349 
L 341.630949 290.925264 
L 348.388546 291.934799 
L 349.74 292.108081 
L 349.74 292.108081 
" style="fill:none;stroke:#666666;stroke-linecap:square;stroke-width:4;"/>
   </g>
   <g id="patch_3">
    <path d="M 95.724 307.584 
L 95.724 41.472 
" style="fill:none;stroke:#000000;stroke-linecap:square;stroke-linejoin:miter;stroke-width:0.8;"/>
   </g>
   <g id="patch_4">
    <path d="M 361.836 307.584 
L 361.836 41.472 
" style="fill:none;stroke:#000000;stroke-linecap:square;stroke-linejoin:miter;stroke-width:0.8;"/>
   </g>
   <g id="patch_5">
    <path d="M 95.724 307.584 
L 361.836 307.584 
" style="fill:none;stroke:#000000;stroke-linecap:square;stroke-linejoin:miter;stroke-width:0.8;"/>
   </g>
   <g id="patch_6">
    <path d="M 95.724 41.472 
L 361.836 41.472 
" style="fill:none;stroke:#000000;stroke-linecap:square;stroke-linejoin:miter;stroke-width:0.8;"/>
   </g>
   <g id="text_15">
    <text style="font-family:DejaVu Sans;font-size:18px;font-style:normal;font-weight:normal;text-anchor:middle;" transform="rotate(-0, 228.78, 35.472)" x="228.78" y="35.472">IRF7P</text>
   </g>
   <g id="legend_1">
    <g id="patch_7">
     <path d="M 269.841469 97.506375 
L 351.336 97.506375 
Q 354.336 97.506375 354.336 94.506375 
L 354.336 51.972 
Q 354.336 48.972 351.336 48.972 
L 269.841469 48.972 
Q 266.841469 48.972 266.841469 51.972 
L 266.841469 94.506375 
Q 266.841469 97.506375 269.841469 97.506375 
z
" style="fill:#ffffff;opacity:0.8;stroke:#cccccc;stroke-linejoin:miter;"/>
    </g>
    <g id="line2d_47"/>
    <g id="line2d_48">
     <g>
      <use style="fill:#666666;stroke:#666666;" x="287.841469" xlink:href="#m86cb976de5" y="61.119656"/>
     </g>
    </g>
    <g id="text_16">
     <text style="font-family:DejaVu Sans;font-size:15px;font-style:normal;font-weight:normal;text-anchor:start;" transform="rotate(-0, 314.841469, 66.369656)" x="314.841469" y="66.369656">ODE</text>
    </g>
    <g id="line2d_49">
     <path d="M 272.841469 83.136844 
L 302.841469 83.136844 
" style="fill:none;stroke:#666666;stroke-linecap:square;stroke-width:4;"/>
    </g>
    <g id="line2d_50"/>
    <g id="text_17">
     <text style="font-family:DejaVu Sans;font-size:15px;font-style:normal;font-weight:normal;text-anchor:start;" transform="rotate(-0, 314.841469, 88.386844)" x="314.841469" y="88.386844">ABM</text>
    </g>
   </g>
  </g>
 </g>
 <defs>
  <clipPath id="pf8f2e8a4b9">
   <rect height="266.112" width="266.112" x="95.724" y="41.472"/>
  </clipPath>
 </defs>
</svg>
