<?xml version="1.0" encoding="utf-8" standalone="no"?>
<!DOCTYPE svg PUBLIC "-//W3C//DTD SVG 1.1//EN"
  "http://www.w3.org/Graphics/SVG/1.1/DTD/svg11.dtd">
<!-- Created with matplotlib (https://matplotlib.org/) -->
<svg height="345.6pt" version="1.1" viewBox="0 0 446.4 345.6" width="446.4pt" xmlns="http://www.w3.org/2000/svg" xmlns:xlink="http://www.w3.org/1999/xlink">
 <defs>
  <style type="text/css">
*{stroke-linecap:butt;stroke-linejoin:round;}
  </style>
 </defs>
 <g id="figure_1">
  <g id="patch_1">
   <path d="M 0 345.6 
L 446.4 345.6 
L 446.4 0 
L 0 0 
z
" style="fill:none;"/>
  </g>
  <g id="axes_1">
   <g id="patch_2">
    <path d="M 95.724 307.584 
L 361.836 307.584 
L 361.836 41.472 
L 95.724 41.472 
z
" style="fill:none;"/>
   </g>
   <g id="matplotlib.axis_1">
    <g id="xtick_1">
     <g id="line2d_1">
      <path clip-path="url(#p65ed3aa2cc)" d="M 107.82 307.584 
L 107.82 41.472 
" style="fill:none;stroke:#b0b0b0;stroke-linecap:square;stroke-width:0.8;"/>
     </g>
     <g id="line2d_2">
      <defs>
       <path d="M 0 0 
L 0 3.5 
" id="mb9e4148160" style="stroke:#000000;stroke-width:0.8;"/>
      </defs>
      <g>
       <use style="stroke:#000000;stroke-width:0.8;" x="107.82" xlink:href="#mb9e4148160" y="307.584"/>
      </g>
     </g>
     <g id="text_1">
      <text style="font-family:DejaVu Sans;font-size:15px;font-style:normal;font-weight:normal;text-anchor:middle;" transform="rotate(-0, 107.82, 325.981656)" x="107.82" y="325.981656">0</text>
     </g>
    </g>
    <g id="xtick_2">
     <g id="line2d_3">
      <path clip-path="url(#p65ed3aa2cc)" d="M 188.910512 307.584 
L 188.910512 41.472 
" style="fill:none;stroke:#b0b0b0;stroke-linecap:square;stroke-width:0.8;"/>
     </g>
     <g id="line2d_4">
      <g>
       <use style="stroke:#000000;stroke-width:0.8;" x="188.910512" xlink:href="#mb9e4148160" y="307.584"/>
      </g>
     </g>
     <g id="text_2">
      <text style="font-family:DejaVu Sans;font-size:15px;font-style:normal;font-weight:normal;text-anchor:middle;" transform="rotate(-0, 188.910512, 325.981656)" x="188.910512" y="325.981656">10</text>
     </g>
    </g>
    <g id="xtick_3">
     <g id="line2d_5">
      <path clip-path="url(#p65ed3aa2cc)" d="M 270.001024 307.584 
L 270.001024 41.472 
" style="fill:none;stroke:#b0b0b0;stroke-linecap:square;stroke-width:0.8;"/>
     </g>
     <g id="line2d_6">
      <g>
       <use style="stroke:#000000;stroke-width:0.8;" x="270.001024" xlink:href="#mb9e4148160" y="307.584"/>
      </g>
     </g>
     <g id="text_3">
      <text style="font-family:DejaVu Sans;font-size:15px;font-style:normal;font-weight:normal;text-anchor:middle;" transform="rotate(-0, 270.001024, 325.981656)" x="270.001024" y="325.981656">20</text>
     </g>
    </g>
    <g id="xtick_4">
     <g id="line2d_7">
      <path clip-path="url(#p65ed3aa2cc)" d="M 351.091536 307.584 
L 351.091536 41.472 
" style="fill:none;stroke:#b0b0b0;stroke-linecap:square;stroke-width:0.8;"/>
     </g>
     <g id="line2d_8">
      <g>
       <use style="stroke:#000000;stroke-width:0.8;" x="351.091536" xlink:href="#mb9e4148160" y="307.584"/>
      </g>
     </g>
     <g id="text_4">
      <text style="font-family:DejaVu Sans;font-size:15px;font-style:normal;font-weight:normal;text-anchor:middle;" transform="rotate(-0, 351.091536, 325.981656)" x="351.091536" y="325.981656">30</text>
     </g>
    </g>
    <g id="text_5">
     <text style="font-family:DejaVu Sans;font-size:15px;font-style:normal;font-weight:normal;text-anchor:middle;" transform="rotate(-0, 228.78, 344.498844)" x="228.78" y="344.498844">Time (hrs)</text>
    </g>
   </g>
   <g id="matplotlib.axis_2">
    <g id="ytick_1">
     <g id="line2d_9">
      <path clip-path="url(#p65ed3aa2cc)" d="M 95.724 295.620933 
L 361.836 295.620933 
" style="fill:none;stroke:#b0b0b0;stroke-linecap:square;stroke-width:0.8;"/>
     </g>
     <g id="line2d_10">
      <defs>
       <path d="M 0 0 
L -3.5 0 
" id="m6a921bc36c" style="stroke:#000000;stroke-width:0.8;"/>
      </defs>
      <g>
       <use style="stroke:#000000;stroke-width:0.8;" x="95.724" xlink:href="#m6a921bc36c" y="295.620933"/>
      </g>
     </g>
     <g id="text_6">
      <text style="font-family:DejaVu Sans;font-size:15px;font-style:normal;font-weight:normal;text-anchor:end;" transform="rotate(-0, 88.724, 301.319761)" x="88.724" y="301.319761">0.0</text>
     </g>
    </g>
    <g id="ytick_2">
     <g id="line2d_11">
      <path clip-path="url(#p65ed3aa2cc)" d="M 95.724 247.210346 
L 361.836 247.210346 
" style="fill:none;stroke:#b0b0b0;stroke-linecap:square;stroke-width:0.8;"/>
     </g>
     <g id="line2d_12">
      <g>
       <use style="stroke:#000000;stroke-width:0.8;" x="95.724" xlink:href="#m6a921bc36c" y="247.210346"/>
      </g>
     </g>
     <g id="text_7">
      <text style="font-family:DejaVu Sans;font-size:15px;font-style:normal;font-weight:normal;text-anchor:end;" transform="rotate(-0, 88.724, 252.909175)" x="88.724" y="252.909175">0.2</text>
     </g>
    </g>
    <g id="ytick_3">
     <g id="line2d_13">
      <path clip-path="url(#p65ed3aa2cc)" d="M 95.724 198.79976 
L 361.836 198.79976 
" style="fill:none;stroke:#b0b0b0;stroke-linecap:square;stroke-width:0.8;"/>
     </g>
     <g id="line2d_14">
      <g>
       <use style="stroke:#000000;stroke-width:0.8;" x="95.724" xlink:href="#m6a921bc36c" y="198.79976"/>
      </g>
     </g>
     <g id="text_8">
      <text style="font-family:DejaVu Sans;font-size:15px;font-style:normal;font-weight:normal;text-anchor:end;" transform="rotate(-0, 88.724, 204.498588)" x="88.724" y="204.498588">0.4</text>
     </g>
    </g>
    <g id="ytick_4">
     <g id="line2d_15">
      <path clip-path="url(#p65ed3aa2cc)" d="M 95.724 150.389173 
L 361.836 150.389173 
" style="fill:none;stroke:#b0b0b0;stroke-linecap:square;stroke-width:0.8;"/>
     </g>
     <g id="line2d_16">
      <g>
       <use style="stroke:#000000;stroke-width:0.8;" x="95.724" xlink:href="#m6a921bc36c" y="150.389173"/>
      </g>
     </g>
     <g id="text_9">
      <text style="font-family:DejaVu Sans;font-size:15px;font-style:normal;font-weight:normal;text-anchor:end;" transform="rotate(-0, 88.724, 156.088001)" x="88.724" y="156.088001">0.6</text>
     </g>
    </g>
    <g id="ytick_5">
     <g id="line2d_17">
      <path clip-path="url(#p65ed3aa2cc)" d="M 95.724 101.978587 
L 361.836 101.978587 
" style="fill:none;stroke:#b0b0b0;stroke-linecap:square;stroke-width:0.8;"/>
     </g>
     <g id="line2d_18">
      <g>
       <use style="stroke:#000000;stroke-width:0.8;" x="95.724" xlink:href="#m6a921bc36c" y="101.978587"/>
      </g>
     </g>
     <g id="text_10">
      <text style="font-family:DejaVu Sans;font-size:15px;font-style:normal;font-weight:normal;text-anchor:end;" transform="rotate(-0, 88.724, 107.677415)" x="88.724" y="107.677415">0.8</text>
     </g>
    </g>
    <g id="ytick_6">
     <g id="line2d_19">
      <path clip-path="url(#p65ed3aa2cc)" d="M 95.724 53.568 
L 361.836 53.568 
" style="fill:none;stroke:#b0b0b0;stroke-linecap:square;stroke-width:0.8;"/>
     </g>
     <g id="line2d_20">
      <g>
       <use style="stroke:#000000;stroke-width:0.8;" x="95.724" xlink:href="#m6a921bc36c" y="53.568"/>
      </g>
     </g>
     <g id="text_11">
      <text style="font-family:DejaVu Sans;font-size:15px;font-style:normal;font-weight:normal;text-anchor:end;" transform="rotate(-0, 88.724, 59.266828)" x="88.724" y="59.266828">1.0</text>
     </g>
    </g>
    <g id="text_12">
     <text style="font-family:DejaVu Sans;font-size:15px;font-style:normal;font-weight:normal;text-anchor:middle;" transform="rotate(-90, 57.749781, 174.528)" x="57.749781" y="174.528">Viability/cell</text>
    </g>
   </g>
   <g id="line2d_21">
    <path clip-path="url(#p65ed3aa2cc)" d="M 107.82 53.568 
L 163.231847 53.661796 
L 169.989395 53.854276 
L 174.043921 54.126779 
L 176.746935 54.440214 
L 179.449949 54.928386 
L 182.152972 55.687246 
L 183.504475 56.211363 
L 184.855986 56.863188 
L 186.207497 57.672782 
L 187.559001 58.676697 
L 188.910512 59.919154 
L 190.262047 61.452947 
L 191.613502 63.340645 
L 192.965037 65.655228 
L 194.316573 68.480179 
L 195.668027 71.908786 
L 197.019563 76.04184 
L 198.371099 80.983593 
L 199.722553 86.834956 
L 201.074089 93.684328 
L 202.425624 101.594691 
L 203.777079 110.590322 
L 205.128614 120.642877 
L 207.831604 143.484589 
L 214.589201 205.685996 
L 217.292191 227.06324 
L 218.643727 236.303659 
L 219.995181 244.524479 
L 221.346717 251.747193 
L 222.698252 258.027716 
L 224.049707 263.44428 
L 225.401242 268.085887 
L 226.752778 272.044563 
L 228.104232 275.409656 
L 229.455768 278.264179 
L 230.807303 280.682944 
L 232.158758 282.732101 
L 233.510293 284.468976 
L 234.861829 285.942718 
L 236.213283 287.195092 
L 237.564819 288.261369 
L 240.267809 289.949342 
L 242.97088 291.19036 
L 245.67387 292.112787 
L 248.37686 292.806266 
L 252.431386 293.549508 
L 256.485911 294.054918 
L 261.891973 294.500084 
L 270.001024 294.890741 
L 280.813065 295.158611 
L 298.382703 295.349126 
L 333.521898 295.468088 
L 349.74 295.487998 
L 349.74 295.487998 
" style="fill:none;stroke:#339900;stroke-linecap:square;stroke-opacity:0.15;stroke-width:4;"/>
   </g>
   <g id="line2d_22">
    <path clip-path="url(#p65ed3aa2cc)" d="M 107.82 53.568 
L 163.231847 53.661796 
L 169.989395 53.854276 
L 174.043921 54.126779 
L 176.746935 54.440214 
L 179.449949 54.928386 
L 182.152972 55.687246 
L 183.504475 56.211363 
L 184.855986 56.863188 
L 186.207497 57.672782 
L 187.559001 58.676697 
L 188.910512 59.919154 
L 190.262047 61.452947 
L 191.613502 63.340645 
L 192.965037 65.655228 
L 194.316573 68.480179 
L 195.668027 71.908786 
L 197.019563 76.04184 
L 198.371099 80.983593 
L 199.722553 86.834956 
L 201.074089 93.684328 
L 202.425624 101.594691 
L 203.777079 110.590322 
L 205.128614 120.642877 
L 207.831604 143.484589 
L 214.589201 205.685996 
L 217.292191 227.06324 
L 218.643727 236.303659 
L 219.995181 244.524479 
L 221.346717 251.747193 
L 222.698252 258.027716 
L 224.049707 263.444256 
L 225.401242 268.085863 
L 226.752778 272.044554 
L 228.104232 275.409649 
L 229.455768 278.264169 
L 230.807303 280.682936 
L 232.158758 282.732094 
L 233.510293 284.468964 
L 234.861829 285.942705 
L 236.213283 287.195083 
L 237.564819 288.261357 
L 240.267809 289.949325 
L 242.97088 291.19035 
L 245.67387 292.11278 
L 248.37686 292.806266 
L 252.431386 293.549512 
L 256.485911 294.054919 
L 261.891973 294.500085 
L 270.001024 294.890745 
L 280.813065 295.158611 
L 298.382703 295.349121 
L 333.521898 295.468085 
L 349.74 295.487996 
L 349.74 295.487996 
" style="fill:none;stroke:#339900;stroke-linecap:square;stroke-opacity:0.15;stroke-width:4;"/>
   </g>
   <g id="line2d_23">
    <path clip-path="url(#p65ed3aa2cc)" d="M 107.82 53.568 
L 163.231847 53.661796 
L 169.989395 53.854276 
L 174.043921 54.126779 
L 176.746935 54.440214 
L 179.449949 54.928386 
L 182.152972 55.687246 
L 183.504475 56.211363 
L 184.855986 56.863188 
L 186.207497 57.672782 
L 187.559001 58.676697 
L 188.910512 59.919154 
L 190.262047 61.452947 
L 191.613502 63.340645 
L 192.965037 65.655228 
L 194.316573 68.480179 
L 195.668027 71.908786 
L 197.019563 76.04184 
L 198.371099 80.983593 
L 199.722553 86.834956 
L 201.074089 93.684328 
L 202.425624 101.594691 
L 203.777079 110.590322 
L 205.128614 120.642877 
L 207.831604 143.484589 
L 214.589201 205.685996 
L 217.292191 227.06324 
L 218.643727 236.303659 
L 219.995181 244.524479 
L 221.346717 251.747193 
L 222.698252 258.027716 
L 224.049707 263.44428 
L 225.401242 268.085887 
L 226.752778 272.044566 
L 228.104232 275.409654 
L 229.455768 278.264181 
L 230.807303 280.682949 
L 232.158758 282.732101 
L 233.510293 284.468973 
L 234.861829 285.942713 
L 236.213283 287.195087 
L 237.564819 288.26136 
L 240.267809 289.949328 
L 242.97088 291.190353 
L 245.67387 292.112782 
L 248.37686 292.806266 
L 252.431386 293.549506 
L 256.485911 294.054913 
L 261.891973 294.500085 
L 270.001024 294.890746 
L 280.813065 295.158611 
L 298.382703 295.349122 
L 333.521898 295.468084 
L 349.74 295.487994 
L 349.74 295.487994 
" style="fill:none;stroke:#339900;stroke-linecap:square;stroke-opacity:0.15;stroke-width:4;"/>
   </g>
   <g id="line2d_24">
    <path clip-path="url(#p65ed3aa2cc)" d="M 107.82 53.568 
L 163.231847 53.661796 
L 169.989395 53.854276 
L 174.043921 54.126779 
L 176.746935 54.440214 
L 179.449949 54.928386 
L 182.152972 55.687246 
L 183.504475 56.211363 
L 184.855986 56.863188 
L 186.207497 57.672782 
L 187.559001 58.676697 
L 188.910512 59.919154 
L 190.262047 61.452947 
L 191.613502 63.340645 
L 192.965037 65.655228 
L 194.316573 68.480179 
L 195.668027 71.908786 
L 197.019563 76.04184 
L 198.371099 80.983593 
L 199.722553 86.834956 
L 201.074089 93.684328 
L 202.425624 101.594691 
L 203.777079 110.590322 
L 205.128614 120.642877 
L 207.831604 143.484589 
L 214.589201 205.685996 
L 217.292191 227.06324 
L 218.643727 236.303659 
L 219.995181 244.524479 
L 221.346717 251.747217 
L 222.698252 258.027716 
L 224.049707 263.44428 
L 225.401242 268.085887 
L 226.752778 272.044571 
L 228.104232 275.409663 
L 229.455768 278.264184 
L 230.807303 280.682956 
L 232.158758 282.732108 
L 233.510293 284.468978 
L 234.861829 285.942718 
L 236.213283 287.195095 
L 237.564819 288.261369 
L 240.267809 289.949347 
L 242.97088 291.190362 
L 245.67387 292.11279 
L 248.37686 292.806276 
L 252.431386 293.549513 
L 256.485911 294.054921 
L 261.891973 294.500088 
L 270.001024 294.890744 
L 280.813065 295.158613 
L 298.382703 295.349124 
L 333.521898 295.468089 
L 349.74 295.487999 
L 349.74 295.487999 
" style="fill:none;stroke:#339900;stroke-linecap:square;stroke-opacity:0.15;stroke-width:4;"/>
   </g>
   <g id="line2d_25">
    <path clip-path="url(#p65ed3aa2cc)" d="M 107.82 53.568 
L 163.231847 53.661796 
L 169.989395 53.854276 
L 174.043921 54.126779 
L 176.746935 54.440214 
L 179.449949 54.928386 
L 182.152972 55.687246 
L 183.504475 56.211363 
L 184.855986 56.863188 
L 186.207497 57.672782 
L 187.559001 58.676697 
L 188.910512 59.919154 
L 190.262047 61.452947 
L 191.613502 63.340645 
L 192.965037 65.655228 
L 194.316573 68.480179 
L 195.668027 71.908786 
L 197.019563 76.04184 
L 198.371099 80.983593 
L 199.722553 86.834956 
L 201.074089 93.684328 
L 202.425624 101.594691 
L 203.777079 110.590322 
L 205.128614 120.642877 
L 207.831604 143.484589 
L 214.589201 205.685996 
L 217.292191 227.06324 
L 218.643727 236.303659 
L 219.995181 244.524479 
L 221.346717 251.747193 
L 222.698252 258.027716 
L 224.049707 263.44428 
L 225.401242 268.085887 
L 226.752778 272.044566 
L 228.104232 275.409656 
L 229.455768 278.264176 
L 230.807303 280.682946 
L 232.158758 282.732101 
L 233.510293 284.468973 
L 234.861829 285.942708 
L 236.213283 287.195083 
L 237.564819 288.26136 
L 240.267809 289.949333 
L 242.97088 291.190357 
L 245.67387 292.112782 
L 248.37686 292.806264 
L 252.431386 293.549509 
L 256.485911 294.054913 
L 261.891973 294.500083 
L 270.001024 294.890745 
L 280.813065 295.158613 
L 298.382703 295.349125 
L 333.521898 295.468087 
L 349.74 295.487996 
L 349.74 295.487996 
" style="fill:none;stroke:#339900;stroke-linecap:square;stroke-opacity:0.15;stroke-width:4;"/>
   </g>
   <g id="line2d_26">
    <path clip-path="url(#p65ed3aa2cc)" d="M 107.82 53.568 
L 163.231847 53.661796 
L 169.989395 53.854276 
L 174.043921 54.126779 
L 176.746935 54.440214 
L 179.449949 54.928386 
L 182.152972 55.687246 
L 183.504475 56.211363 
L 184.855986 56.863188 
L 186.207497 57.672782 
L 187.559001 58.676697 
L 188.910512 59.919154 
L 190.262047 61.452947 
L 191.613502 63.340645 
L 192.965037 65.655228 
L 194.316573 68.480179 
L 195.668027 71.908786 
L 197.019563 76.04184 
L 198.371099 80.983593 
L 199.722553 86.834956 
L 201.074089 93.684328 
L 202.425624 101.594691 
L 203.777079 110.590322 
L 205.128614 120.642877 
L 207.831604 143.484589 
L 214.589201 205.685996 
L 217.292191 227.06324 
L 218.643727 236.303659 
L 219.995181 244.524479 
L 221.346717 251.747193 
L 222.698252 258.027716 
L 224.049707 263.44428 
L 225.401242 268.085863 
L 226.752778 272.044556 
L 228.104232 275.409649 
L 229.455768 278.264164 
L 230.807303 280.682929 
L 232.158758 282.732082 
L 233.510293 284.468954 
L 234.861829 285.942691 
L 236.213283 287.195068 
L 237.564819 288.261343 
L 240.267809 289.949316 
L 242.97088 291.190333 
L 245.67387 292.11277 
L 248.37686 292.806254 
L 252.431386 293.549497 
L 256.485911 294.054907 
L 261.891973 294.500075 
L 270.001024 294.890738 
L 280.813065 295.158608 
L 298.382703 295.349123 
L 333.521898 295.468088 
L 349.74 295.487996 
L 349.74 295.487996 
" style="fill:none;stroke:#339900;stroke-linecap:square;stroke-opacity:0.15;stroke-width:4;"/>
   </g>
   <g id="line2d_27">
    <path clip-path="url(#p65ed3aa2cc)" d="M 107.82 53.568 
L 163.231847 53.661796 
L 169.989395 53.854276 
L 174.043921 54.126779 
L 176.746935 54.440214 
L 179.449949 54.928386 
L 182.152972 55.687246 
L 183.504475 56.211363 
L 184.855986 56.863188 
L 186.207497 57.672782 
L 187.559001 58.676697 
L 188.910512 59.919154 
L 190.262047 61.452947 
L 191.613502 63.340645 
L 192.965037 65.655228 
L 194.316573 68.480179 
L 195.668027 71.908786 
L 197.019563 76.04184 
L 198.371099 80.983593 
L 199.722553 86.834956 
L 201.074089 93.684328 
L 202.425624 101.594691 
L 203.777079 110.590322 
L 205.128614 120.642877 
L 207.831604 143.484589 
L 214.589201 205.685996 
L 217.292191 227.063264 
L 218.643727 236.303659 
L 219.995181 244.524503 
L 221.346717 251.747217 
L 222.698252 258.02774 
L 224.049707 263.44428 
L 225.401242 268.085887 
L 226.752778 272.044571 
L 228.104232 275.409663 
L 229.455768 278.264181 
L 230.807303 280.682946 
L 232.158758 282.732101 
L 233.510293 284.468973 
L 234.861829 285.942708 
L 236.213283 287.195083 
L 237.564819 288.261352 
L 240.267809 289.949318 
L 242.97088 291.190336 
L 245.67387 292.112765 
L 248.37686 292.806252 
L 252.431386 293.549496 
L 256.485911 294.054907 
L 261.891973 294.500079 
L 270.001024 294.890738 
L 280.813065 295.158607 
L 298.382703 295.349119 
L 333.521898 295.468085 
L 349.74 295.487993 
L 349.74 295.487993 
" style="fill:none;stroke:#339900;stroke-linecap:square;stroke-opacity:0.15;stroke-width:4;"/>
   </g>
   <g id="line2d_28">
    <path clip-path="url(#p65ed3aa2cc)" d="M 107.82 53.568 
L 163.231847 53.661796 
L 169.989395 53.854276 
L 174.043921 54.126779 
L 176.746935 54.440214 
L 179.449949 54.928386 
L 182.152972 55.687246 
L 183.504475 56.211363 
L 184.855986 56.863188 
L 186.207497 57.672782 
L 187.559001 58.676697 
L 188.910512 59.919154 
L 190.262047 61.452947 
L 191.613502 63.340645 
L 192.965037 65.655228 
L 194.316573 68.480179 
L 195.668027 71.908786 
L 197.019563 76.04184 
L 198.371099 80.983593 
L 199.722553 86.834956 
L 201.074089 93.684328 
L 202.425624 101.594691 
L 203.777079 110.590322 
L 205.128614 120.642877 
L 207.831604 143.484589 
L 214.589201 205.685996 
L 217.292191 227.06324 
L 218.643727 236.303659 
L 219.995181 244.524479 
L 221.346717 251.747193 
L 222.698252 258.027716 
L 224.049707 263.444256 
L 225.401242 268.085863 
L 226.752778 272.044559 
L 228.104232 275.409649 
L 229.455768 278.264167 
L 230.807303 280.682932 
L 232.158758 282.732086 
L 233.510293 284.468957 
L 234.861829 285.942701 
L 236.213283 287.19508 
L 237.564819 288.261357 
L 240.267809 289.949323 
L 242.97088 291.190348 
L 245.67387 292.112778 
L 248.37686 292.806264 
L 252.431386 293.549506 
L 256.485911 294.054913 
L 261.891973 294.50008 
L 270.001024 294.890742 
L 280.813065 295.158614 
L 298.382703 295.349121 
L 333.521898 295.468084 
L 349.74 295.487993 
L 349.74 295.487993 
" style="fill:none;stroke:#339900;stroke-linecap:square;stroke-opacity:0.15;stroke-width:4;"/>
   </g>
   <g id="line2d_29">
    <path clip-path="url(#p65ed3aa2cc)" d="M 107.82 53.568 
L 163.231847 53.661796 
L 169.989395 53.854276 
L 174.043921 54.126779 
L 176.746935 54.440214 
L 179.449949 54.928386 
L 182.152972 55.687246 
L 183.504475 56.211363 
L 184.855986 56.863188 
L 186.207497 57.672782 
L 187.559001 58.676697 
L 188.910512 59.919154 
L 190.262047 61.452947 
L 191.613502 63.340645 
L 192.965037 65.655228 
L 194.316573 68.480179 
L 195.668027 71.908786 
L 197.019563 76.04184 
L 198.371099 80.983593 
L 199.722553 86.834956 
L 201.074089 93.684328 
L 202.425624 101.594691 
L 203.777079 110.590322 
L 205.128614 120.642877 
L 207.831604 143.484589 
L 214.589201 205.685996 
L 217.292191 227.06324 
L 218.643727 236.303659 
L 219.995181 244.524479 
L 221.346717 251.747193 
L 222.698252 258.027716 
L 224.049707 263.44428 
L 225.401242 268.085887 
L 226.752778 272.044563 
L 228.104232 275.409656 
L 229.455768 278.264174 
L 230.807303 280.682939 
L 232.158758 282.732098 
L 233.510293 284.468969 
L 234.861829 285.942708 
L 236.213283 287.195083 
L 237.564819 288.261357 
L 240.267809 289.949333 
L 242.97088 291.190353 
L 245.67387 292.11278 
L 248.37686 292.806264 
L 252.431386 293.549504 
L 256.485911 294.054914 
L 261.891973 294.500084 
L 270.001024 294.890745 
L 280.813065 295.158615 
L 298.382703 295.349128 
L 333.521898 295.468089 
L 349.74 295.487999 
L 349.74 295.487999 
" style="fill:none;stroke:#339900;stroke-linecap:square;stroke-opacity:0.15;stroke-width:4;"/>
   </g>
   <g id="line2d_30">
    <path clip-path="url(#p65ed3aa2cc)" d="M 107.82 53.568 
L 163.231847 53.661796 
L 169.989395 53.854276 
L 174.043921 54.126779 
L 176.746935 54.440214 
L 179.449949 54.928386 
L 182.152972 55.687246 
L 183.504475 56.211363 
L 184.855986 56.863188 
L 186.207497 57.672782 
L 187.559001 58.676697 
L 188.910512 59.919154 
L 190.262047 61.452947 
L 191.613502 63.340645 
L 192.965037 65.655228 
L 194.316573 68.480179 
L 195.668027 71.908786 
L 197.019563 76.04184 
L 198.371099 80.983593 
L 199.722553 86.834956 
L 201.074089 93.684328 
L 202.425624 101.594691 
L 203.777079 110.590322 
L 205.128614 120.642877 
L 207.831604 143.484589 
L 214.589201 205.685996 
L 217.292191 227.06324 
L 218.643727 236.303659 
L 219.995181 244.524479 
L 221.346717 251.747193 
L 222.698252 258.027716 
L 224.049707 263.44428 
L 225.401242 268.085887 
L 226.752778 272.044566 
L 228.104232 275.409658 
L 229.455768 278.264172 
L 230.807303 280.682941 
L 232.158758 282.732098 
L 233.510293 284.468964 
L 234.861829 285.942701 
L 236.213283 287.195078 
L 237.564819 288.261352 
L 240.267809 289.949321 
L 242.97088 291.190343 
L 245.67387 292.112775 
L 248.37686 292.806264 
L 252.431386 293.549508 
L 256.485911 294.054917 
L 261.891973 294.50008 
L 270.001024 294.890747 
L 280.813065 295.158614 
L 298.382703 295.349125 
L 333.521898 295.468091 
L 349.74 295.488 
L 349.74 295.488 
" style="fill:none;stroke:#339900;stroke-linecap:square;stroke-opacity:0.15;stroke-width:4;"/>
   </g>
   <g id="line2d_31">
    <path clip-path="url(#p65ed3aa2cc)" d="M 107.82 53.568 
L 163.231847 53.661796 
L 169.989395 53.854276 
L 174.043921 54.126779 
L 176.746935 54.440214 
L 179.449949 54.928386 
L 182.152972 55.687246 
L 183.504475 56.211363 
L 184.855986 56.863188 
L 186.207497 57.672782 
L 187.559001 58.676697 
L 188.910512 59.919154 
L 190.262047 61.452947 
L 191.613502 63.340645 
L 192.965037 65.655228 
L 194.316573 68.480179 
L 195.668027 71.908786 
L 197.019563 76.04184 
L 198.371099 80.983593 
L 199.722553 86.834956 
L 201.074089 93.684328 
L 202.425624 101.594691 
L 203.777079 110.590322 
L 205.128614 120.642877 
L 207.831604 143.484589 
L 214.589201 205.685996 
L 217.292191 227.06324 
L 218.643727 236.303659 
L 219.995181 244.524479 
L 221.346717 251.747193 
L 222.698252 258.027716 
L 224.049707 263.444256 
L 225.401242 268.085863 
L 226.752778 272.044549 
L 228.104232 275.409641 
L 229.455768 278.264164 
L 230.807303 280.682932 
L 232.158758 282.732096 
L 233.510293 284.468966 
L 234.861829 285.942705 
L 236.213283 287.19508 
L 237.564819 288.261352 
L 240.267809 289.949321 
L 242.97088 291.19034 
L 245.67387 292.112775 
L 248.37686 292.806257 
L 252.431386 293.549498 
L 256.485911 294.054907 
L 261.891973 294.500078 
L 270.001024 294.890741 
L 280.813065 295.15861 
L 298.382703 295.349119 
L 333.521898 295.468085 
L 349.74 295.487994 
L 349.74 295.487994 
" style="fill:none;stroke:#339900;stroke-linecap:square;stroke-opacity:0.15;stroke-width:4;"/>
   </g>
   <g id="line2d_32">
    <path clip-path="url(#p65ed3aa2cc)" d="M 107.82 53.568 
L 163.231847 53.661796 
L 169.989395 53.854276 
L 174.043921 54.126779 
L 176.746935 54.440214 
L 179.449949 54.928386 
L 182.152972 55.687246 
L 183.504475 56.211363 
L 184.855986 56.863188 
L 186.207497 57.672782 
L 187.559001 58.676697 
L 188.910512 59.919154 
L 190.262047 61.452947 
L 191.613502 63.340645 
L 192.965037 65.655228 
L 194.316573 68.480179 
L 195.668027 71.908786 
L 197.019563 76.04184 
L 198.371099 80.983593 
L 199.722553 86.834956 
L 201.074089 93.684328 
L 202.425624 101.594691 
L 203.777079 110.590322 
L 205.128614 120.642877 
L 207.831604 143.484589 
L 214.589201 205.685996 
L 217.292191 227.06324 
L 218.643727 236.303659 
L 219.995181 244.524479 
L 221.346717 251.747193 
L 222.698252 258.027716 
L 224.049707 263.44428 
L 225.401242 268.085887 
L 226.752778 272.044563 
L 228.104232 275.409654 
L 229.455768 278.264176 
L 230.807303 280.682946 
L 232.158758 282.732098 
L 233.510293 284.468969 
L 234.861829 285.94271 
L 236.213283 287.195087 
L 237.564819 288.261364 
L 240.267809 289.949333 
L 242.97088 291.190357 
L 245.67387 292.112782 
L 248.37686 292.806269 
L 252.431386 293.549504 
L 256.485911 294.054913 
L 261.891973 294.500081 
L 270.001024 294.890743 
L 280.813065 295.158608 
L 298.382703 295.349124 
L 333.521898 295.468088 
L 349.74 295.487999 
L 349.74 295.487999 
" style="fill:none;stroke:#339900;stroke-linecap:square;stroke-opacity:0.15;stroke-width:4;"/>
   </g>
   <g id="line2d_33">
    <path clip-path="url(#p65ed3aa2cc)" d="M 107.82 53.568 
L 163.231847 53.661796 
L 169.989395 53.854276 
L 174.043921 54.126779 
L 176.746935 54.440214 
L 179.449949 54.928386 
L 182.152972 55.687246 
L 183.504475 56.211363 
L 184.855986 56.863188 
L 186.207497 57.672782 
L 187.559001 58.676697 
L 188.910512 59.919154 
L 190.262047 61.452947 
L 191.613502 63.340645 
L 192.965037 65.655228 
L 194.316573 68.480179 
L 195.668027 71.908786 
L 197.019563 76.04184 
L 198.371099 80.983593 
L 199.722553 86.834956 
L 201.074089 93.684328 
L 202.425624 101.594691 
L 203.777079 110.590322 
L 205.128614 120.642877 
L 207.831604 143.484589 
L 214.589201 205.685996 
L 217.292191 227.06324 
L 218.643727 236.303635 
L 219.995181 244.524479 
L 221.346717 251.747193 
L 222.698252 258.027716 
L 224.049707 263.444256 
L 225.401242 268.085863 
L 226.752778 272.044559 
L 228.104232 275.409656 
L 229.455768 278.264174 
L 230.807303 280.682946 
L 232.158758 282.732101 
L 233.510293 284.468971 
L 234.861829 285.942715 
L 236.213283 287.195083 
L 237.564819 288.261357 
L 240.267809 289.94933 
L 242.97088 291.190348 
L 245.67387 292.112782 
L 248.37686 292.806264 
L 252.431386 293.549503 
L 256.485911 294.054909 
L 261.891973 294.500076 
L 270.001024 294.890737 
L 280.813065 295.158607 
L 298.382703 295.349121 
L 333.521898 295.468085 
L 349.74 295.487994 
L 349.74 295.487994 
" style="fill:none;stroke:#339900;stroke-linecap:square;stroke-opacity:0.15;stroke-width:4;"/>
   </g>
   <g id="line2d_34">
    <path clip-path="url(#p65ed3aa2cc)" d="M 107.82 53.568 
L 163.231847 53.661796 
L 169.989395 53.854276 
L 174.043921 54.126779 
L 176.746935 54.440214 
L 179.449949 54.928386 
L 182.152972 55.687246 
L 183.504475 56.211363 
L 184.855986 56.863188 
L 186.207497 57.672782 
L 187.559001 58.676697 
L 188.910512 59.919154 
L 190.262047 61.452947 
L 191.613502 63.340645 
L 192.965037 65.655228 
L 194.316573 68.480179 
L 195.668027 71.908786 
L 197.019563 76.04184 
L 198.371099 80.983593 
L 199.722553 86.834956 
L 201.074089 93.684328 
L 202.425624 101.594691 
L 203.777079 110.590322 
L 205.128614 120.642877 
L 207.831604 143.484589 
L 214.589201 205.685996 
L 217.292191 227.06324 
L 218.643727 236.303659 
L 219.995181 244.524479 
L 221.346717 251.747193 
L 222.698252 258.027716 
L 224.049707 263.44428 
L 225.401242 268.085887 
L 226.752778 272.044561 
L 228.104232 275.409656 
L 229.455768 278.264174 
L 230.807303 280.682941 
L 232.158758 282.732098 
L 233.510293 284.468964 
L 234.861829 285.942705 
L 236.213283 287.195085 
L 237.564819 288.261357 
L 240.267809 289.949328 
L 242.97088 291.190353 
L 245.67387 292.112782 
L 248.37686 292.806266 
L 252.431386 293.549504 
L 256.485911 294.054912 
L 261.891973 294.500081 
L 270.001024 294.890738 
L 280.813065 295.158608 
L 298.382703 295.349119 
L 333.521898 295.468082 
L 349.74 295.487992 
L 349.74 295.487992 
" style="fill:none;stroke:#339900;stroke-linecap:square;stroke-opacity:0.15;stroke-width:4;"/>
   </g>
   <g id="line2d_35">
    <path clip-path="url(#p65ed3aa2cc)" d="M 107.82 53.568 
L 163.231847 53.661796 
L 169.989395 53.854276 
L 174.043921 54.126779 
L 176.746935 54.440214 
L 179.449949 54.928386 
L 182.152972 55.687246 
L 183.504475 56.211363 
L 184.855986 56.863188 
L 186.207497 57.672782 
L 187.559001 58.676697 
L 188.910512 59.919154 
L 190.262047 61.452947 
L 191.613502 63.340645 
L 192.965037 65.655228 
L 194.316573 68.480179 
L 195.668027 71.908786 
L 197.019563 76.04184 
L 198.371099 80.983593 
L 199.722553 86.834956 
L 201.074089 93.684328 
L 202.425624 101.594691 
L 203.777079 110.590322 
L 205.128614 120.642877 
L 207.831604 143.484589 
L 214.589201 205.685996 
L 217.292191 227.06324 
L 218.643727 236.303659 
L 219.995181 244.524479 
L 221.346717 251.747193 
L 222.698252 258.027716 
L 224.049707 263.44428 
L 225.401242 268.085887 
L 226.752778 272.044559 
L 228.104232 275.409649 
L 229.455768 278.264169 
L 230.807303 280.682941 
L 232.158758 282.732094 
L 233.510293 284.468964 
L 234.861829 285.942703 
L 236.213283 287.195083 
L 237.564819 288.261357 
L 240.267809 289.949328 
L 242.97088 291.190355 
L 245.67387 292.112785 
L 248.37686 292.806271 
L 252.431386 293.549505 
L 256.485911 294.054917 
L 261.891973 294.500088 
L 270.001024 294.890748 
L 280.813065 295.158615 
L 298.382703 295.349125 
L 333.521898 295.468087 
L 349.74 295.487996 
L 349.74 295.487996 
" style="fill:none;stroke:#339900;stroke-linecap:square;stroke-opacity:0.15;stroke-width:4;"/>
   </g>
   <g id="line2d_36">
    <path clip-path="url(#p65ed3aa2cc)" d="M 107.82 53.568 
L 163.231847 53.661796 
L 169.989395 53.854276 
L 174.043921 54.126779 
L 176.746935 54.440214 
L 179.449949 54.928386 
L 182.152972 55.687246 
L 183.504475 56.211363 
L 184.855986 56.863188 
L 186.207497 57.672782 
L 187.559001 58.676697 
L 188.910512 59.919154 
L 190.262047 61.452947 
L 191.613502 63.340645 
L 192.965037 65.655228 
L 194.316573 68.480179 
L 195.668027 71.908786 
L 197.019563 76.04184 
L 198.371099 80.983593 
L 199.722553 86.834956 
L 201.074089 93.684328 
L 202.425624 101.594691 
L 203.777079 110.590322 
L 205.128614 120.642877 
L 207.831604 143.484589 
L 214.589201 205.685996 
L 217.292191 227.06324 
L 218.643727 236.303659 
L 219.995181 244.524479 
L 221.346717 251.747193 
L 222.698252 258.027716 
L 224.049707 263.444256 
L 225.401242 268.085863 
L 226.752778 272.044549 
L 228.104232 275.409637 
L 229.455768 278.26416 
L 230.807303 280.682932 
L 232.158758 282.732086 
L 233.510293 284.468957 
L 234.861829 285.942698 
L 236.213283 287.195075 
L 237.564819 288.261352 
L 240.267809 289.949325 
L 242.97088 291.19035 
L 245.67387 292.11278 
L 248.37686 292.806264 
L 252.431386 293.549512 
L 256.485911 294.054921 
L 261.891973 294.500089 
L 270.001024 294.890747 
L 280.813065 295.158616 
L 298.382703 295.349124 
L 333.521898 295.468088 
L 349.74 295.487998 
L 349.74 295.487998 
" style="fill:none;stroke:#339900;stroke-linecap:square;stroke-opacity:0.15;stroke-width:4;"/>
   </g>
   <g id="line2d_37">
    <path clip-path="url(#p65ed3aa2cc)" d="M 107.82 53.568 
L 163.231847 53.661796 
L 169.989395 53.854276 
L 174.043921 54.126779 
L 176.746935 54.440214 
L 179.449949 54.928386 
L 182.152972 55.687246 
L 183.504475 56.211363 
L 184.855986 56.863188 
L 186.207497 57.672782 
L 187.559001 58.676697 
L 188.910512 59.919154 
L 190.262047 61.452947 
L 191.613502 63.340645 
L 192.965037 65.655228 
L 194.316573 68.480179 
L 195.668027 71.908786 
L 197.019563 76.04184 
L 198.371099 80.983593 
L 199.722553 86.834956 
L 201.074089 93.684328 
L 202.425624 101.594691 
L 203.777079 110.590322 
L 205.128614 120.642877 
L 207.831604 143.484589 
L 214.589201 205.685996 
L 217.292191 227.063264 
L 218.643727 236.303659 
L 219.995181 244.524503 
L 221.346717 251.747217 
L 222.698252 258.02774 
L 224.049707 263.44428 
L 225.401242 268.085887 
L 226.752778 272.044573 
L 228.104232 275.409661 
L 229.455768 278.264184 
L 230.807303 280.682953 
L 232.158758 282.732108 
L 233.510293 284.468981 
L 234.861829 285.942718 
L 236.213283 287.195092 
L 237.564819 288.261367 
L 240.267809 289.949338 
L 242.97088 291.19036 
L 245.67387 292.112787 
L 248.37686 292.806269 
L 252.431386 293.549506 
L 256.485911 294.054915 
L 261.891973 294.500084 
L 270.001024 294.890741 
L 280.813065 295.158609 
L 298.382703 295.349122 
L 333.521898 295.468086 
L 349.74 295.487996 
L 349.74 295.487996 
" style="fill:none;stroke:#339900;stroke-linecap:square;stroke-opacity:0.15;stroke-width:4;"/>
   </g>
   <g id="line2d_38">
    <path clip-path="url(#p65ed3aa2cc)" d="M 107.82 53.568 
L 163.231847 53.661796 
L 169.989395 53.854276 
L 174.043921 54.126779 
L 176.746935 54.440214 
L 179.449949 54.928386 
L 182.152972 55.687246 
L 183.504475 56.211363 
L 184.855986 56.863188 
L 186.207497 57.672782 
L 187.559001 58.676697 
L 188.910512 59.919154 
L 190.262047 61.452947 
L 191.613502 63.340645 
L 192.965037 65.655228 
L 194.316573 68.480179 
L 195.668027 71.908786 
L 197.019563 76.04184 
L 198.371099 80.983593 
L 199.722553 86.834956 
L 201.074089 93.684328 
L 202.425624 101.594691 
L 203.777079 110.590322 
L 205.128614 120.642877 
L 207.831604 143.484589 
L 214.589201 205.685996 
L 217.292191 227.06324 
L 218.643727 236.303659 
L 219.995181 244.524479 
L 221.346717 251.747193 
L 222.698252 258.027716 
L 224.049707 263.44428 
L 225.401242 268.085887 
L 226.752778 272.044563 
L 228.104232 275.409656 
L 229.455768 278.264181 
L 230.807303 280.682951 
L 232.158758 282.732103 
L 233.510293 284.468969 
L 234.861829 285.942708 
L 236.213283 287.195078 
L 237.564819 288.261352 
L 240.267809 289.949325 
L 242.97088 291.190345 
L 245.67387 292.112773 
L 248.37686 292.806257 
L 252.431386 293.549497 
L 256.485911 294.054911 
L 261.891973 294.500081 
L 270.001024 294.890743 
L 280.813065 295.158609 
L 298.382703 295.349121 
L 333.521898 295.468086 
L 349.74 295.487994 
L 349.74 295.487994 
" style="fill:none;stroke:#339900;stroke-linecap:square;stroke-opacity:0.15;stroke-width:4;"/>
   </g>
   <g id="line2d_39">
    <path clip-path="url(#p65ed3aa2cc)" d="M 107.82 53.568 
L 163.231847 53.661796 
L 169.989395 53.854276 
L 174.043921 54.126779 
L 176.746935 54.440214 
L 179.449949 54.928386 
L 182.152972 55.687246 
L 183.504475 56.211363 
L 184.855986 56.863188 
L 186.207497 57.672782 
L 187.559001 58.676697 
L 188.910512 59.919154 
L 190.262047 61.452947 
L 191.613502 63.340645 
L 192.965037 65.655228 
L 194.316573 68.480179 
L 195.668027 71.908786 
L 197.019563 76.04184 
L 198.371099 80.983593 
L 199.722553 86.834956 
L 201.074089 93.684328 
L 202.425624 101.594691 
L 203.777079 110.590322 
L 205.128614 120.642877 
L 207.831604 143.484589 
L 214.589201 205.685996 
L 217.292191 227.06324 
L 218.643727 236.303659 
L 219.995181 244.524479 
L 221.346717 251.747193 
L 222.698252 258.027716 
L 224.049707 263.444256 
L 225.401242 268.085863 
L 226.752778 272.044556 
L 228.104232 275.409649 
L 229.455768 278.264169 
L 230.807303 280.682936 
L 232.158758 282.732091 
L 233.510293 284.468964 
L 234.861829 285.942705 
L 236.213283 287.195075 
L 237.564819 288.261352 
L 240.267809 289.949325 
L 242.97088 291.190345 
L 245.67387 292.112778 
L 248.37686 292.806262 
L 252.431386 293.549508 
L 256.485911 294.054913 
L 261.891973 294.500082 
L 270.001024 294.89074 
L 280.813065 295.15861 
L 298.382703 295.349125 
L 333.521898 295.46809 
L 349.74 295.487999 
L 349.74 295.487999 
" style="fill:none;stroke:#339900;stroke-linecap:square;stroke-opacity:0.15;stroke-width:4;"/>
   </g>
   <g id="line2d_40">
    <path clip-path="url(#p65ed3aa2cc)" d="M 107.82 53.568 
L 163.231847 53.661796 
L 169.989395 53.854276 
L 174.043921 54.126779 
L 176.746935 54.440214 
L 179.449949 54.928386 
L 182.152972 55.687246 
L 183.504475 56.211363 
L 184.855986 56.863188 
L 186.207497 57.672782 
L 187.559001 58.676697 
L 188.910512 59.919154 
L 190.262047 61.452947 
L 191.613502 63.340645 
L 192.965037 65.655228 
L 194.316573 68.480179 
L 195.668027 71.908786 
L 197.019563 76.04184 
L 198.371099 80.983593 
L 199.722553 86.834956 
L 201.074089 93.684328 
L 202.425624 101.594691 
L 203.777079 110.590322 
L 205.128614 120.642877 
L 207.831604 143.484589 
L 214.589201 205.685996 
L 217.292191 227.06324 
L 218.643727 236.303659 
L 219.995181 244.524479 
L 221.346717 251.747193 
L 222.698252 258.027716 
L 224.049707 263.444256 
L 225.401242 268.085863 
L 226.752778 272.044551 
L 228.104232 275.409641 
L 229.455768 278.26416 
L 230.807303 280.682924 
L 232.158758 282.732084 
L 233.510293 284.468954 
L 234.861829 285.942693 
L 236.213283 287.19507 
L 237.564819 288.261347 
L 240.267809 289.949316 
L 242.97088 291.190336 
L 245.67387 292.112763 
L 248.37686 292.806245 
L 252.431386 293.549488 
L 256.485911 294.054899 
L 261.891973 294.500075 
L 270.001024 294.890734 
L 280.813065 295.158602 
L 298.382703 295.349116 
L 333.521898 295.468082 
L 349.74 295.487991 
L 349.74 295.487991 
" style="fill:none;stroke:#339900;stroke-linecap:square;stroke-opacity:0.15;stroke-width:4;"/>
   </g>
   <g id="line2d_41">
    <defs>
     <path d="M 0 2.5 
C 0.663008 2.5 1.29895 2.236584 1.767767 1.767767 
C 2.236584 1.29895 2.5 0.663008 2.5 0 
C 2.5 -0.663008 2.236584 -1.29895 1.767767 -1.767767 
C 1.29895 -2.236584 0.663008 -2.5 0 -2.5 
C -0.663008 -2.5 -1.29895 -2.236584 -1.767767 -1.767767 
C -2.236584 -1.29895 -2.5 -0.663008 -2.5 0 
C -2.5 0.663008 -2.236584 1.29895 -1.767767 1.767767 
C -1.29895 2.236584 -0.663008 2.5 0 2.5 
z
" id="md241f7aada" style="stroke:#339900;"/>
    </defs>
    <g clip-path="url(#p65ed3aa2cc)">
     <use style="fill:#339900;stroke:#339900;" x="107.82" xlink:href="#md241f7aada" y="53.568"/>
     <use style="fill:#339900;stroke:#339900;" x="110.523017" xlink:href="#md241f7aada" y="53.568"/>
     <use style="fill:#339900;stroke:#339900;" x="113.226034" xlink:href="#md241f7aada" y="53.568024"/>
     <use style="fill:#339900;stroke:#339900;" x="115.929051" xlink:href="#md241f7aada" y="53.568024"/>
     <use style="fill:#339900;stroke:#339900;" x="118.632066" xlink:href="#md241f7aada" y="53.568048"/>
     <use style="fill:#339900;stroke:#339900;" x="121.335088" xlink:href="#md241f7aada" y="53.568073"/>
     <use style="fill:#339900;stroke:#339900;" x="124.038102" xlink:href="#md241f7aada" y="53.568145"/>
     <use style="fill:#339900;stroke:#339900;" x="126.741117" xlink:href="#md241f7aada" y="53.568218"/>
     <use style="fill:#339900;stroke:#339900;" x="129.444139" xlink:href="#md241f7aada" y="53.568339"/>
     <use style="fill:#339900;stroke:#339900;" x="132.147154" xlink:href="#md241f7aada" y="53.568533"/>
     <use style="fill:#339900;stroke:#339900;" x="134.850168" xlink:href="#md241f7aada" y="53.568847"/>
     <use style="fill:#339900;stroke:#339900;" x="137.55319" xlink:href="#md241f7aada" y="53.569331"/>
     <use style="fill:#339900;stroke:#339900;" x="140.256205" xlink:href="#md241f7aada" y="53.570106"/>
     <use style="fill:#339900;stroke:#339900;" x="142.959219" xlink:href="#md241f7aada" y="53.571292"/>
     <use style="fill:#339900;stroke:#339900;" x="145.662242" xlink:href="#md241f7aada" y="53.573132"/>
     <use style="fill:#339900;stroke:#339900;" x="148.365256" xlink:href="#md241f7aada" y="53.576036"/>
     <use style="fill:#339900;stroke:#339900;" x="151.06827" xlink:href="#md241f7aada" y="53.580563"/>
     <use style="fill:#339900;stroke:#339900;" x="153.771293" xlink:href="#md241f7aada" y="53.587655"/>
     <use style="fill:#339900;stroke:#339900;" x="156.474307" xlink:href="#md241f7aada" y="53.598717"/>
     <use style="fill:#339900;stroke:#339900;" x="159.177321" xlink:href="#md241f7aada" y="53.616023"/>
     <use style="fill:#339900;stroke:#339900;" x="161.880344" xlink:href="#md241f7aada" y="53.643061"/>
     <use style="fill:#339900;stroke:#339900;" x="164.583358" xlink:href="#md241f7aada" y="53.685299"/>
     <use style="fill:#339900;stroke:#339900;" x="167.286373" xlink:href="#md241f7aada" y="53.751307"/>
     <use style="fill:#339900;stroke:#339900;" x="169.989395" xlink:href="#md241f7aada" y="53.854397"/>
     <use style="fill:#339900;stroke:#339900;" x="172.692409" xlink:href="#md241f7aada" y="54.015338"/>
     <use style="fill:#339900;stroke:#339900;" x="175.395424" xlink:href="#md241f7aada" y="54.266468"/>
     <use style="fill:#339900;stroke:#339900;" x="178.098446" xlink:href="#md241f7aada" y="54.657892"/>
     <use style="fill:#339900;stroke:#339900;" x="180.801461" xlink:href="#md241f7aada" y="55.266994"/>
     <use style="fill:#339900;stroke:#339900;" x="183.504475" xlink:href="#md241f7aada" y="56.212477"/>
     <use style="fill:#339900;stroke:#339900;" x="186.207497" xlink:href="#md241f7aada" y="57.674452"/>
     <use style="fill:#339900;stroke:#339900;" x="188.910512" xlink:href="#md241f7aada" y="59.921647"/>
     <use style="fill:#339900;stroke:#339900;" x="191.613502" xlink:href="#md241f7aada" y="63.344349"/>
     <use style="fill:#339900;stroke:#339900;" x="194.316573" xlink:href="#md241f7aada" y="68.485601"/>
     <use style="fill:#339900;stroke:#339900;" x="197.019563" xlink:href="#md241f7aada" y="76.04961"/>
     <use style="fill:#339900;stroke:#339900;" x="199.722553" xlink:href="#md241f7aada" y="86.845752"/>
     <use style="fill:#339900;stroke:#339900;" x="202.425624" xlink:href="#md241f7aada" y="101.608584"/>
     <use style="fill:#339900;stroke:#339900;" x="205.128614" xlink:href="#md241f7aada" y="120.660547"/>
     <use style="fill:#339900;stroke:#339900;" x="207.831604" xlink:href="#md241f7aada" y="143.505648"/>
     <use style="fill:#339900;stroke:#339900;" x="210.534675" xlink:href="#md241f7aada" y="168.629798"/>
     <use style="fill:#339900;stroke:#339900;" x="213.237665" xlink:href="#md241f7aada" y="193.806498"/>
     <use style="fill:#339900;stroke:#339900;" x="215.940655" xlink:href="#md241f7aada" y="216.849308"/>
     <use style="fill:#339900;stroke:#339900;" x="218.643727" xlink:href="#md241f7aada" y="236.320821"/>
     <use style="fill:#339900;stroke:#339900;" x="221.346717" xlink:href="#md241f7aada" y="251.760457"/>
     <use style="fill:#339900;stroke:#339900;" x="224.049707" xlink:href="#md241f7aada" y="263.454131"/>
     <use style="fill:#339900;stroke:#339900;" x="226.752778" xlink:href="#md241f7aada" y="272.051689"/>
     <use style="fill:#339900;stroke:#339900;" x="229.455768" xlink:href="#md241f7aada" y="278.269211"/>
     <use style="fill:#339900;stroke:#339900;" x="232.158758" xlink:href="#md241f7aada" y="282.735814"/>
     <use style="fill:#339900;stroke:#339900;" x="234.861829" xlink:href="#md241f7aada" y="285.945492"/>
     <use style="fill:#339900;stroke:#339900;" x="237.564819" xlink:href="#md241f7aada" y="288.263446"/>
     <use style="fill:#339900;stroke:#339900;" x="240.267809" xlink:href="#md241f7aada" y="289.950896"/>
     <use style="fill:#339900;stroke:#339900;" x="242.97088" xlink:href="#md241f7aada" y="291.191522"/>
     <use style="fill:#339900;stroke:#339900;" x="245.67387" xlink:href="#md241f7aada" y="292.113661"/>
     <use style="fill:#339900;stroke:#339900;" x="248.37686" xlink:href="#md241f7aada" y="292.806932"/>
     <use style="fill:#339900;stroke:#339900;" x="251.079931" xlink:href="#md241f7aada" y="293.334178"/>
     <use style="fill:#339900;stroke:#339900;" x="253.782921" xlink:href="#md241f7aada" y="293.739754"/>
     <use style="fill:#339900;stroke:#339900;" x="256.485911" xlink:href="#md241f7aada" y="294.055223"/>
     <use style="fill:#339900;stroke:#339900;" x="259.188982" xlink:href="#md241f7aada" y="294.303252"/>
     <use style="fill:#339900;stroke:#339900;" x="261.891973" xlink:href="#md241f7aada" y="294.500275"/>
     <use style="fill:#339900;stroke:#339900;" x="264.594963" xlink:href="#md241f7aada" y="294.658325"/>
     <use style="fill:#339900;stroke:#339900;" x="267.298034" xlink:href="#md241f7aada" y="294.786301"/>
     <use style="fill:#339900;stroke:#339900;" x="270.001024" xlink:href="#md241f7aada" y="294.890844"/>
     <use style="fill:#339900;stroke:#339900;" x="272.704014" xlink:href="#md241f7aada" y="294.976963"/>
     <use style="fill:#339900;stroke:#339900;" x="275.407085" xlink:href="#md241f7aada" y="295.048465"/>
     <use style="fill:#339900;stroke:#339900;" x="278.110075" xlink:href="#md241f7aada" y="295.108277"/>
     <use style="fill:#339900;stroke:#339900;" x="280.813065" xlink:href="#md241f7aada" y="295.15866"/>
     <use style="fill:#339900;stroke:#339900;" x="283.516136" xlink:href="#md241f7aada" y="295.201381"/>
     <use style="fill:#339900;stroke:#339900;" x="286.219126" xlink:href="#md241f7aada" y="295.237832"/>
     <use style="fill:#339900;stroke:#339900;" x="288.922116" xlink:href="#md241f7aada" y="295.269113"/>
     <use style="fill:#339900;stroke:#339900;" x="291.625187" xlink:href="#md241f7aada" y="295.296106"/>
     <use style="fill:#339900;stroke:#339900;" x="294.328177" xlink:href="#md241f7aada" y="295.319517"/>
     <use style="fill:#339900;stroke:#339900;" x="297.031167" xlink:href="#md241f7aada" y="295.339921"/>
     <use style="fill:#339900;stroke:#339900;" x="299.734238" xlink:href="#md241f7aada" y="295.357785"/>
     <use style="fill:#339900;stroke:#339900;" x="302.437228" xlink:href="#md241f7aada" y="295.37349"/>
     <use style="fill:#339900;stroke:#339900;" x="305.140218" xlink:href="#md241f7aada" y="295.387353"/>
     <use style="fill:#339900;stroke:#339900;" x="307.84329" xlink:href="#md241f7aada" y="295.399637"/>
     <use style="fill:#339900;stroke:#339900;" x="310.54628" xlink:href="#md241f7aada" y="295.410558"/>
     <use style="fill:#339900;stroke:#339900;" x="313.24927" xlink:href="#md241f7aada" y="295.4203"/>
     <use style="fill:#339900;stroke:#339900;" x="315.952341" xlink:href="#md241f7aada" y="295.429017"/>
     <use style="fill:#339900;stroke:#339900;" x="318.655331" xlink:href="#md241f7aada" y="295.436839"/>
     <use style="fill:#339900;stroke:#339900;" x="321.358321" xlink:href="#md241f7aada" y="295.443878"/>
     <use style="fill:#339900;stroke:#339900;" x="324.061392" xlink:href="#md241f7aada" y="295.450227"/>
     <use style="fill:#339900;stroke:#339900;" x="326.764382" xlink:href="#md241f7aada" y="295.455968"/>
     <use style="fill:#339900;stroke:#339900;" x="329.467372" xlink:href="#md241f7aada" y="295.461171"/>
     <use style="fill:#339900;stroke:#339900;" x="332.170443" xlink:href="#md241f7aada" y="295.465896"/>
     <use style="fill:#339900;stroke:#339900;" x="334.873433" xlink:href="#md241f7aada" y="295.470196"/>
     <use style="fill:#339900;stroke:#339900;" x="337.576423" xlink:href="#md241f7aada" y="295.474115"/>
     <use style="fill:#339900;stroke:#339900;" x="340.279494" xlink:href="#md241f7aada" y="295.477693"/>
     <use style="fill:#339900;stroke:#339900;" x="342.982484" xlink:href="#md241f7aada" y="295.480966"/>
     <use style="fill:#339900;stroke:#339900;" x="345.685474" xlink:href="#md241f7aada" y="295.483964"/>
     <use style="fill:#339900;stroke:#339900;" x="348.388546" xlink:href="#md241f7aada" y="295.486714"/>
    </g>
   </g>
   <g id="line2d_42">
    <path clip-path="url(#p65ed3aa2cc)" d="M 107.82 53.568 
L 163.231847 53.661796 
L 169.989395 53.854276 
L 174.043921 54.126779 
L 176.746935 54.440214 
L 179.449949 54.928386 
L 182.152972 55.687246 
L 183.504475 56.211363 
L 184.855986 56.863188 
L 186.207497 57.672782 
L 187.559001 58.676697 
L 188.910512 59.919154 
L 190.262047 61.452947 
L 191.613502 63.340645 
L 192.965037 65.655228 
L 194.316573 68.480179 
L 195.668027 71.908786 
L 197.019563 76.04184 
L 198.371099 80.983593 
L 199.722553 86.834956 
L 201.074089 93.684328 
L 202.425624 101.594691 
L 203.777079 110.590322 
L 205.128614 120.642877 
L 207.831604 143.484589 
L 214.589201 205.685996 
L 217.292191 227.063242 
L 218.643727 236.303658 
L 219.995181 244.524481 
L 221.346717 251.747197 
L 222.698252 258.027719 
L 224.049707 263.444271 
L 225.401242 268.085877 
L 226.752778 272.044561 
L 228.104232 275.409653 
L 229.455768 278.264173 
L 230.807303 280.682941 
L 232.158758 282.732097 
L 233.510293 284.468967 
L 234.861829 285.942707 
L 236.213283 287.195082 
L 237.564819 288.261357 
L 240.267809 289.949328 
L 242.97088 291.190349 
L 245.67387 292.112779 
L 248.37686 292.806263 
L 252.431386 293.549504 
L 256.485911 294.054913 
L 261.891973 294.500082 
L 270.001024 294.890742 
L 280.813065 295.15861 
L 298.382703 295.349123 
L 333.521898 295.468086 
L 349.74 295.487996 
L 349.74 295.487996 
" style="fill:none;stroke:#339900;stroke-linecap:square;stroke-width:4;"/>
   </g>
   <g id="patch_3">
    <path d="M 95.724 307.584 
L 95.724 41.472 
" style="fill:none;stroke:#000000;stroke-linecap:square;stroke-linejoin:miter;stroke-width:0.8;"/>
   </g>
   <g id="patch_4">
    <path d="M 361.836 307.584 
L 361.836 41.472 
" style="fill:none;stroke:#000000;stroke-linecap:square;stroke-linejoin:miter;stroke-width:0.8;"/>
   </g>
   <g id="patch_5">
    <path d="M 95.724 307.584 
L 361.836 307.584 
" style="fill:none;stroke:#000000;stroke-linecap:square;stroke-linejoin:miter;stroke-width:0.8;"/>
   </g>
   <g id="patch_6">
    <path d="M 95.724 41.472 
L 361.836 41.472 
" style="fill:none;stroke:#000000;stroke-linecap:square;stroke-linejoin:miter;stroke-width:0.8;"/>
   </g>
   <g id="text_13">
    <text style="font-family:DejaVu Sans;font-size:18px;font-style:normal;font-weight:normal;text-anchor:middle;" transform="rotate(-0, 228.78, 35.472)" x="228.78" y="35.472">Cell Viability</text>
   </g>
   <g id="legend_1">
    <g id="patch_7">
     <path d="M 269.841469 97.506375 
L 351.336 97.506375 
Q 354.336 97.506375 354.336 94.506375 
L 354.336 51.972 
Q 354.336 48.972 351.336 48.972 
L 269.841469 48.972 
Q 266.841469 48.972 266.841469 51.972 
L 266.841469 94.506375 
Q 266.841469 97.506375 269.841469 97.506375 
z
" style="fill:#ffffff;opacity:0.8;stroke:#cccccc;stroke-linejoin:miter;"/>
    </g>
    <g id="line2d_43"/>
    <g id="line2d_44">
     <g>
      <use style="fill:#339900;stroke:#339900;" x="287.841469" xlink:href="#md241f7aada" y="61.119656"/>
     </g>
    </g>
    <g id="text_14">
     <text style="font-family:DejaVu Sans;font-size:15px;font-style:normal;font-weight:normal;text-anchor:start;" transform="rotate(-0, 314.841469, 66.369656)" x="314.841469" y="66.369656">ODE</text>
    </g>
    <g id="line2d_45">
     <path d="M 272.841469 83.136844 
L 302.841469 83.136844 
" style="fill:none;stroke:#339900;stroke-linecap:square;stroke-width:4;"/>
    </g>
    <g id="line2d_46"/>
    <g id="text_15">
     <text style="font-family:DejaVu Sans;font-size:15px;font-style:normal;font-weight:normal;text-anchor:start;" transform="rotate(-0, 314.841469, 88.386844)" x="314.841469" y="88.386844">ABM</text>
    </g>
   </g>
  </g>
 </g>
 <defs>
  <clipPath id="p65ed3aa2cc">
   <rect height="266.112" width="266.112" x="95.724" y="41.472"/>
  </clipPath>
 </defs>
</svg>
